<svg width="65" height="65" viewBox="0 0 65 65" fill="none" xmlns="http://www.w3.org/2000/svg">
<path fill-rule="evenodd" clip-rule="evenodd" d="M27.9266 8.56875C14.9469 10.8574 6.28006 23.2349 8.56874 36.2146C8.82439 37.6645 9.20592 39.0605 9.70011 40.3935L35.295 35.8804C37.5075 35.4903 39.6173 36.9676 40.0074 39.18C40.3975 41.3925 38.9202 43.5023 36.7078 43.8924L14.1765 47.8653C19.4964 53.8809 27.7267 57.0691 36.2146 55.5725C49.1943 53.2838 57.8611 40.9063 55.5724 27.9266C55.3168 26.4767 54.9353 25.0807 54.4411 23.7477L28.5711 28.3093C26.3586 28.6994 24.2488 27.2221 23.8587 25.0096C23.4686 22.7972 24.9459 20.6874 27.1583 20.2973L49.9647 16.2759C44.6448 10.2603 36.4144 7.07211 27.9266 8.56875ZM0.556742 37.6273C-2.51216 20.2227 9.10923 3.62566 26.5138 0.556753C43.9185 -2.51215 60.5155 9.10924 63.5844 26.5139C66.6533 43.9185 55.0319 60.5155 37.6273 63.5844C20.2227 66.6534 3.62565 55.032 0.556742 37.6273Z" fill="#101B29"/>
</svg>
