<svg width="32" height="32" viewBox="0 0 32 32" fill="none" xmlns="http://www.w3.org/2000/svg">
<path d="M25.0875 22.1378C24.9062 22.1441 24.725 22.1503 24.5438 22.1503C21.55 22.1503 18.7312 20.9691 16.6187 18.8128C14.5 16.6628 13.3375 13.8066 13.3375 10.7628C13.3375 9.0316 13.7188 7.3566 14.4312 5.8441C14.625 5.4316 15.0125 4.8066 15.2812 4.3816C15.4 4.20035 15.25 3.96285 15.0375 4.00035C14.6625 4.0566 14.0875 4.1816 13.3062 4.42535C8.44375 5.9691 5 10.5441 5 15.9378C5 22.6003 10.3188 28.0003 16.8813 28.0003C20.5063 28.0003 23.7563 26.3503 25.9375 23.7441C26.3125 23.2941 26.6562 22.8816 26.9625 22.3816C27.075 22.1941 26.9187 21.9628 26.7062 22.0003C26.175 22.1066 25.6375 22.1128 25.0875 22.1378Z" fill="#1B263B"/>
</svg>
