<svg width="878" height="639" viewBox="0 0 878 639" fill="none" xmlns="http://www.w3.org/2000/svg">
<circle cx="513" cy="326" r="150" stroke="#465974" stroke-width="2" stroke-linecap="round" stroke-dasharray="12 12"/>
<circle cx="513" cy="326" r="116" stroke="#7B8CA6" stroke-linecap="round"/>
<circle cx="513" cy="326" r="174" stroke="#101B29" stroke-width="8" stroke-linecap="round"/>
<path d="M516 106C560.509 106 603.99 119.379 640.8 144.4C677.611 169.421 706.05 204.93 722.426 246.316C738.803 287.703 742.361 333.057 732.639 376.491C722.917 419.925 700.364 459.434 667.906 489.89" stroke="#F79933" stroke-width="20" stroke-linecap="round" stroke-linejoin="round"/>
<path d="M646.395 507.669C612.25 532.45 571.75 546.988 529.64 549.58C487.53 552.173 445.553 542.712 408.626 522.306" stroke="#DF425D" stroke-width="20" stroke-linecap="round" stroke-linejoin="round"/>
<path d="M386.332 508.195C356.03 486.389 331.715 457.294 315.639 423.6" stroke="#B4E530" stroke-width="20" stroke-linecap="round" stroke-linejoin="round"/>
<path d="M305.684 399.072C297.516 374.901 293.576 349.504 294.036 323.994" stroke="#2DA5DE" stroke-width="20" stroke-linecap="round" stroke-linejoin="round"/>
<path d="M296.3 296.128C299.963 270.879 307.95 246.45 319.912 223.915" stroke="#2F8977" stroke-width="20" stroke-linecap="round" stroke-linejoin="round"/>
<path d="M335.99 198.075C344.131 186.796 353.314 176.307 363.418 166.746" stroke="#FE7A77" stroke-width="20" stroke-linecap="round" stroke-linejoin="round"/>
<path d="M385.022 148.755C396.253 140.548 408.231 133.415 420.798 127.449" stroke="#FECD60" stroke-width="20" stroke-linecap="round" stroke-linejoin="round"/>
<path d="M448.444 116.528C461.695 112.295 475.314 109.317 489.122 107.633" stroke="#4CB6E2" stroke-width="20" stroke-linecap="round" stroke-linejoin="round"/>
<g filter="url(#filter0_d_201_2)">
<path fill-rule="evenodd" clip-rule="evenodd" d="M501.539 262.003C465.642 268.332 441.673 302.564 448.002 338.461C448.763 342.773 449.926 346.914 451.447 350.851L521.959 338.418C527.397 337.459 532.584 341.09 533.543 346.529C534.502 351.968 530.87 357.155 525.432 358.114L462.28 369.249C476.935 386.809 500.321 396.254 524.461 391.997C560.358 385.668 584.327 351.436 577.997 315.539C577.237 311.226 576.073 307.086 574.553 303.149L503.293 315.714C497.854 316.673 492.667 313.041 491.708 307.602C490.749 302.163 494.381 296.977 499.82 296.018L563.719 284.751C549.065 267.191 525.678 257.746 501.539 262.003ZM428.306 341.934C420.059 295.159 451.291 250.554 498.066 242.306C544.841 234.059 589.446 265.291 597.693 312.066C605.941 358.841 574.708 403.446 527.934 411.693C481.159 419.941 436.554 388.708 428.306 341.934Z" fill="#101B29"/>
</g>
<path d="M690.4 79.3689C691.859 79.3689 692.932 78.4724 692.932 76.7849V74.3416H694.373C695.762 74.3416 696.553 73.4802 696.553 72.2322C696.553 70.9841 695.779 70.1052 694.373 70.1052H692.932V57.0798C692.932 54.7068 691.244 53.2478 688.555 53.2478C686.41 53.2478 685.127 54.1267 683.369 56.8162C680.609 60.9119 678.078 64.7791 676.338 67.908C675.547 69.2966 675.23 70.281 675.23 71.3708C675.23 73.1462 676.514 74.3416 678.43 74.3416H687.887V76.7849C687.887 78.4724 688.941 79.3689 690.4 79.3689ZM687.992 70.2458H679.871V70.1052C681.928 66.2732 684.266 62.7048 687.887 57.4841H687.992V70.2458ZM709.016 79.5623C715.449 79.5623 719.352 74.447 719.352 66.2556C719.352 58.0642 715.414 53.0544 709.016 53.0544C702.617 53.0544 698.662 58.0818 698.662 66.2732C698.662 74.4822 702.582 79.5623 709.016 79.5623ZM709.016 75.3083C705.887 75.3083 704.059 72.0916 704.059 66.2732C704.059 60.5076 705.922 57.3083 709.016 57.3083C712.127 57.3083 713.955 60.49 713.955 66.2732C713.955 72.0916 712.145 75.3083 709.016 75.3083ZM729.002 79.3689C729.723 79.3689 730.162 79.1052 730.672 78.3142L738.494 66.7478L745.824 55.99C746.088 55.5857 746.229 55.2166 746.229 54.7947C746.229 53.8982 745.508 53.2478 744.576 53.2478C743.75 53.2478 743.328 53.5291 742.783 54.3376L735.242 65.5173L727.666 76.6091C727.402 76.9958 727.262 77.3298 727.262 77.8396C727.262 78.7888 728.088 79.3689 729.002 79.3689ZM727.596 66.9412C731.111 66.9412 733.326 64.3396 733.326 60.0857C733.326 55.7791 731.094 53.283 727.596 53.283C724.08 53.283 721.848 55.7966 721.848 60.0857C721.848 64.3572 724.062 66.9412 727.596 66.9412ZM727.596 64.0935C726.365 64.0935 725.609 62.8279 725.609 60.0857C725.609 57.3435 726.383 56.1306 727.596 56.1306C728.809 56.1306 729.564 57.3435 729.564 60.0857C729.564 62.8279 728.809 64.0935 727.596 64.0935ZM745.947 79.3513C749.48 79.3513 751.695 76.7498 751.695 72.4783C751.695 68.1716 749.445 65.6755 745.947 65.6755C742.449 65.6755 740.199 68.1892 740.199 72.4783C740.199 76.7673 742.414 79.3513 745.947 79.3513ZM745.947 76.5037C744.734 76.5037 743.961 75.2205 743.961 72.4958C743.961 69.7361 744.734 68.5232 745.947 68.5232C747.16 68.5232 747.934 69.7361 747.934 72.4783C747.934 75.2205 747.16 76.5037 745.947 76.5037Z" fill="#7B8CA6"/>
<path d="M764.992 79.0857C767.109 79.0857 767.875 77.4294 768.039 74.6951L768.367 69.2341H772.312V78.9998H774.062V67.7263H766.789L766.406 74.6091C766.312 76.2732 766.031 77.4998 764.797 77.4998C764.648 77.4998 764.438 77.4763 764.344 77.4529V78.9998C764.477 79.0466 764.727 79.0857 764.992 79.0857ZM776.852 78.9998H778.531L782.367 73.0232H782.516V78.9998H784.195V70.5154H782.516L778.68 76.4685H778.531V70.5154H776.852V78.9998ZM788.914 75.2498L791.953 78.9998H794.047L790.289 74.4685L793.891 70.5154H791.914L788.906 73.9841H788.484V70.5154H786.789V78.9998H788.484V75.2498H788.914ZM795.836 78.9998H799.711C801.578 78.9998 802.695 78.031 802.695 76.5779V76.5623C802.695 75.5544 801.977 74.7888 800.875 74.656V74.5232C801.711 74.3669 802.312 73.5779 802.312 72.7107V72.6951C802.312 71.3748 801.336 70.5154 799.672 70.5154H795.836V78.9998ZM797.516 74.0701V71.7576H799.328C800.227 71.7576 800.641 72.2185 800.641 72.8982V72.9138C800.641 73.6638 800.164 74.0701 799.148 74.0701H797.516ZM797.516 77.7498V75.2888H799.273C800.406 75.2888 800.961 75.6794 800.961 76.4998V76.5154C800.961 77.2966 800.469 77.7498 799.492 77.7498H797.516ZM804.914 78.9998H806.594L810.43 73.0232H810.578V78.9998H812.258V70.5154H810.578L806.742 76.4685H806.594V70.5154H804.914V78.9998ZM815.398 81.2263V78.9998H821.719V81.2263H823.273V77.6482H821.945V70.5154H815.82L815.508 75.0857C815.43 76.2263 815.148 77.2654 814.523 77.6482H813.836V81.2263H815.398ZM820.258 77.6482H816.383V77.5154C816.766 76.9919 816.969 76.1326 817.047 75.156L817.281 71.8669H820.258V77.6482ZM830.523 78.9998H832.211V70.5154H830.523V73.9373H826.672V70.5154H824.977V78.9998H826.672V75.281H830.523V78.9998ZM838.391 79.1638C840.875 79.1638 842.398 77.4998 842.398 74.7654V74.7498C842.398 72.0154 840.867 70.3513 838.391 70.3513C835.906 70.3513 834.375 72.0232 834.375 74.7498V74.7654C834.375 77.4998 835.898 79.1638 838.391 79.1638ZM838.391 77.7498C836.93 77.7498 836.109 76.6482 836.109 74.7654V74.7498C836.109 72.8669 836.93 71.7654 838.391 71.7654C839.844 71.7654 840.672 72.8669 840.672 74.7498V74.7654C840.672 76.6404 839.844 77.7498 838.391 77.7498ZM848.148 79.1638C850.25 79.1638 851.461 78.031 851.766 76.3826L851.781 76.3123H850.156L850.141 76.3513C849.867 77.2654 849.211 77.7498 848.148 77.7498C846.75 77.7498 845.883 76.6091 845.883 74.7341V74.7185C845.883 72.8904 846.734 71.7654 848.148 71.7654C849.273 71.7654 849.961 72.3904 850.148 73.2263L850.156 73.2498L851.781 73.2419V73.2029C851.547 71.5544 850.273 70.3513 848.141 70.3513C845.664 70.3513 844.156 72.031 844.156 74.7185V74.7341C844.156 77.4763 845.672 79.1638 848.148 79.1638ZM859.836 70.5154H852.797V71.8513H855.469V78.9998H857.164V71.8513H859.836V70.5154ZM861.727 78.9998H865.086C867.055 78.9998 868.312 77.8669 868.312 76.0779V76.0623C868.312 74.281 867.055 73.1482 865.086 73.1482H863.422V70.5154H861.727V78.9998ZM864.945 74.4841C865.961 74.4841 866.609 75.1091 866.609 76.0623V76.0779C866.609 77.0232 865.969 77.6638 864.945 77.6638H863.422V74.4841H864.945Z" fill="#7B8CA6"/>
<path d="M679.266 109.211C681.773 109.211 683.539 107.867 683.539 105.953V105.937C683.539 104.515 682.516 103.383 681.039 103.062V103.023C682.305 102.664 683.125 101.719 683.125 100.523V100.508C683.125 98.781 681.516 97.5154 679.266 97.5154C677.023 97.5154 675.406 98.781 675.406 100.508V100.523C675.406 101.719 676.234 102.664 677.5 103.023V103.062C676.023 103.383 675 104.515 675 105.937V105.953C675 107.867 676.766 109.211 679.266 109.211ZM679.266 102.437C678.008 102.437 677.141 101.703 677.141 100.672V100.656C677.141 99.6248 678.008 98.906 679.266 98.906C680.523 98.906 681.391 99.6248 681.391 100.656V100.672C681.391 101.703 680.531 102.437 679.266 102.437ZM679.266 107.804C677.828 107.804 676.805 106.984 676.805 105.844V105.828C676.805 104.672 677.82 103.836 679.266 103.836C680.719 103.836 681.734 104.672 681.734 105.828V105.844C681.734 106.984 680.711 107.804 679.266 107.804ZM694.117 109.273C696.711 109.273 698.281 107 698.281 103.367V103.351C698.281 99.7185 696.711 97.4529 694.117 97.4529C691.516 97.4529 689.953 99.7185 689.953 103.351V103.367C689.953 107 691.516 109.273 694.117 109.273ZM694.117 107.82C692.602 107.82 691.719 106.125 691.719 103.367V103.351C691.719 100.594 692.602 98.9138 694.117 98.9138C695.625 98.9138 696.516 100.594 696.516 103.351V103.367C696.516 106.125 695.625 107.82 694.117 107.82ZM704.508 109.273C707.102 109.273 708.672 107 708.672 103.367V103.351C708.672 99.7185 707.102 97.4529 704.508 97.4529C701.906 97.4529 700.344 99.7185 700.344 103.351V103.367C700.344 107 701.906 109.273 704.508 109.273ZM704.508 107.82C702.992 107.82 702.109 106.125 702.109 103.367V103.351C702.109 100.594 702.992 98.9138 704.508 98.9138C706.016 98.9138 706.906 100.594 706.906 103.351V103.367C706.906 106.125 706.016 107.82 704.508 107.82ZM714.898 109.273C717.492 109.273 719.062 107 719.062 103.367V103.351C719.062 99.7185 717.492 97.4529 714.898 97.4529C712.297 97.4529 710.734 99.7185 710.734 103.351V103.367C710.734 107 712.297 109.273 714.898 109.273ZM714.898 107.82C713.383 107.82 712.5 106.125 712.5 103.367V103.351C712.5 100.594 713.383 98.9138 714.898 98.9138C716.406 98.9138 717.297 100.594 717.297 103.351V103.367C717.297 106.125 716.406 107.82 714.898 107.82ZM729.664 109.273C732.258 109.273 733.828 107 733.828 103.367V103.351C733.828 99.7185 732.258 97.4529 729.664 97.4529C727.062 97.4529 725.5 99.7185 725.5 103.351V103.367C725.5 107 727.062 109.273 729.664 109.273ZM729.664 107.82C728.148 107.82 727.266 106.125 727.266 103.367V103.351C727.266 100.594 728.148 98.9138 729.664 98.9138C731.172 98.9138 732.062 100.594 732.062 103.351V103.367C732.062 106.125 731.172 107.82 729.664 107.82ZM740.055 109.273C742.648 109.273 744.219 107 744.219 103.367V103.351C744.219 99.7185 742.648 97.4529 740.055 97.4529C737.453 97.4529 735.891 99.7185 735.891 103.351V103.367C735.891 107 737.453 109.273 740.055 109.273ZM740.055 107.82C738.539 107.82 737.656 106.125 737.656 103.367V103.351C737.656 100.594 738.539 98.9138 740.055 98.9138C741.562 98.9138 742.453 100.594 742.453 103.351V103.367C742.453 106.125 741.562 107.82 740.055 107.82ZM750.445 109.273C753.039 109.273 754.609 107 754.609 103.367V103.351C754.609 99.7185 753.039 97.4529 750.445 97.4529C747.844 97.4529 746.281 99.7185 746.281 103.351V103.367C746.281 107 747.844 109.273 750.445 109.273ZM750.445 107.82C748.93 107.82 748.047 106.125 748.047 103.367V103.351C748.047 100.594 748.93 98.9138 750.445 98.9138C751.953 98.9138 752.844 100.594 752.844 103.351V103.367C752.844 106.125 751.953 107.82 750.445 107.82Z" fill="#7B8CA6"/>
<path d="M877.5 88.8533C877.776 88.8533 878 88.6294 878 88.3533C878 88.0771 877.776 87.8533 877.5 87.8533V88.8533ZM658.354 88.3533V87.8533C658.221 87.8533 658.094 87.9059 658 87.9997L658.354 88.3533ZM632.687 111.353C632.687 112.826 633.881 114.02 635.354 114.02C636.826 114.02 638.02 112.826 638.02 111.353C638.02 109.881 636.826 108.687 635.354 108.687C633.881 108.687 632.687 109.881 632.687 111.353ZM877.5 87.8533H658.354V88.8533H877.5V87.8533ZM658 87.9997L635 111L635.707 111.707L658.707 88.7068L658 87.9997Z" fill="#7B8CA6"/>
<path d="M595.254 605H609.299C610.67 605 611.496 604.138 611.496 602.89C611.496 601.607 610.67 600.781 609.299 600.781H599.736V600.676L605.221 595.402C609.369 591.482 610.881 589.549 610.881 586.455C610.881 582.095 607.26 579.072 601.881 579.072C597.082 579.072 593.9 581.691 593.039 584.504C592.916 584.873 592.846 585.242 592.846 585.646C592.846 586.965 593.689 587.808 595.113 587.808C596.256 587.808 596.871 587.316 597.469 586.261C598.383 584.222 599.789 583.203 601.828 583.203C604.096 583.203 605.713 584.697 605.713 586.789C605.713 588.617 604.904 589.847 601.775 592.853L594.217 600.078C593.145 601.062 592.758 601.73 592.758 602.732C592.758 604.068 593.584 605 595.254 605ZM624.434 605.562C630.867 605.562 634.77 600.447 634.77 592.256C634.77 584.064 630.832 579.054 624.434 579.054C618.035 579.054 614.08 584.082 614.08 592.273C614.08 600.482 618 605.562 624.434 605.562ZM624.434 601.308C621.305 601.308 619.477 598.092 619.477 592.273C619.477 586.508 621.34 583.308 624.434 583.308C627.545 583.308 629.373 586.49 629.373 592.273C629.373 598.092 627.562 601.308 624.434 601.308ZM644.42 605.369C645.141 605.369 645.58 605.105 646.09 604.314L653.912 592.748L661.242 581.99C661.506 581.586 661.646 581.217 661.646 580.795C661.646 579.898 660.926 579.248 659.994 579.248C659.168 579.248 658.746 579.529 658.201 580.338L650.66 591.517L643.084 602.609C642.82 602.996 642.68 603.33 642.68 603.84C642.68 604.789 643.506 605.369 644.42 605.369ZM643.014 592.941C646.529 592.941 648.744 590.34 648.744 586.086C648.744 581.779 646.512 579.283 643.014 579.283C639.498 579.283 637.266 581.797 637.266 586.086C637.266 590.357 639.48 592.941 643.014 592.941ZM643.014 590.094C641.783 590.094 641.027 588.828 641.027 586.086C641.027 583.344 641.801 582.131 643.014 582.131C644.227 582.131 644.982 583.344 644.982 586.086C644.982 588.828 644.227 590.094 643.014 590.094ZM661.365 605.351C664.898 605.351 667.113 602.75 667.113 598.478C667.113 594.172 664.863 591.676 661.365 591.676C657.867 591.676 655.617 594.189 655.617 598.478C655.617 602.767 657.832 605.351 661.365 605.351ZM661.365 602.504C660.152 602.504 659.379 601.22 659.379 598.496C659.379 595.736 660.152 594.523 661.365 594.523C662.578 594.523 663.352 595.736 663.352 598.478C663.352 601.22 662.578 602.504 661.365 602.504Z" fill="#7B8CA6"/>
<path d="M682.492 605H684.242V601.148H686.883C689.094 601.148 690.625 599.64 690.625 597.437V597.422C690.625 595.211 689.094 593.726 686.883 593.726H682.492V605ZM686.445 595.203C687.961 595.203 688.844 596.023 688.844 597.429V597.445C688.844 598.859 687.961 599.679 686.445 599.679H684.242V595.203H686.445ZM695.047 605.14C696.172 605.14 697.062 604.656 697.562 603.797H697.695V605H699.375V599.195C699.375 597.414 698.172 596.351 696.039 596.351C694.109 596.351 692.773 597.281 692.57 598.672L692.562 598.726H694.195L694.203 598.695C694.406 598.094 695.023 597.75 695.961 597.75C697.109 597.75 697.695 598.265 697.695 599.195V599.945L695.398 600.078C693.375 600.203 692.234 601.086 692.234 602.601V602.617C692.234 604.156 693.43 605.14 695.047 605.14ZM693.922 602.547V602.531C693.922 601.765 694.453 601.344 695.625 601.273L697.695 601.14V601.867C697.695 602.961 696.766 603.789 695.5 603.789C694.586 603.789 693.922 603.328 693.922 602.547ZM704.977 605.164C707.07 605.164 708.445 604.078 708.445 602.508V602.492C708.445 601.539 707.867 600.867 706.711 600.625V600.492C707.594 600.289 708.156 599.562 708.156 598.687V598.672C708.156 597.265 706.984 596.344 705.023 596.344C703.094 596.344 701.875 597.289 701.68 598.726L701.672 598.781H703.297L703.305 598.742C703.43 598.101 704.078 597.687 704.984 597.687C706 597.687 706.508 598.179 706.508 598.844V598.859C706.508 599.64 705.977 600.054 704.953 600.054H703.695V601.289H704.961C706.141 601.289 706.773 601.687 706.773 602.508V602.523C706.773 603.289 706.102 603.828 704.961 603.828C704 603.828 703.305 603.422 703.133 602.75L703.117 602.695H701.445L701.453 602.758C701.633 604.289 703.094 605.164 704.977 605.164ZM710.641 607.828H712.336V603.656H712.461C712.914 604.57 713.906 605.14 715.07 605.14C717.227 605.14 718.586 603.453 718.586 600.765V600.75C718.586 598.078 717.211 596.367 715.07 596.367C713.883 596.367 712.953 596.922 712.461 597.851H712.336V596.515H710.641V607.828ZM714.594 603.695C713.18 603.695 712.305 602.578 712.305 600.765V600.75C712.305 598.937 713.18 597.82 714.594 597.82C716.008 597.82 716.859 598.922 716.859 600.75V600.765C716.859 602.586 716.008 603.695 714.594 603.695ZM723.109 605.14C724.234 605.14 725.125 604.656 725.625 603.797H725.758V605H727.438V599.195C727.438 597.414 726.234 596.351 724.102 596.351C722.172 596.351 720.836 597.281 720.633 598.672L720.625 598.726H722.258L722.266 598.695C722.469 598.094 723.086 597.75 724.023 597.75C725.172 597.75 725.758 598.265 725.758 599.195V599.945L723.461 600.078C721.438 600.203 720.297 601.086 720.297 602.601V602.617C720.297 604.156 721.492 605.14 723.109 605.14ZM721.984 602.547V602.531C721.984 601.765 722.516 601.344 723.688 601.273L725.758 601.14V601.867C725.758 602.961 724.828 603.789 723.562 603.789C722.648 603.789 721.984 603.328 721.984 602.547ZM733.641 605.164C736.133 605.164 737.672 603.476 737.672 600.781V600.765C737.672 598.25 736.203 596.64 733.938 596.64C732.633 596.64 731.633 597.195 731.07 598.211H730.938L730.961 598.047C731.258 595.844 732.117 594.953 734.062 594.875L734.984 594.836C735.93 594.797 736.82 594.609 737.117 594.383V592.969C736.414 593.234 735.586 593.359 734.898 593.39L733.961 593.429C730.891 593.562 729.578 595.531 729.578 599.984V600C729.578 603.367 730.977 605.164 733.641 605.164ZM733.625 603.75C732.148 603.75 731.305 602.656 731.305 600.804V600.789C731.305 599.031 732.148 598.023 733.625 598.023C735.094 598.023 735.945 599.031 735.945 600.789V600.804C735.945 602.656 735.094 603.75 733.625 603.75ZM743.453 605.164C745.938 605.164 747.461 603.5 747.461 600.765V600.75C747.461 598.015 745.93 596.351 743.453 596.351C740.969 596.351 739.438 598.023 739.438 600.75V600.765C739.438 603.5 740.961 605.164 743.453 605.164ZM743.453 603.75C741.992 603.75 741.172 602.648 741.172 600.765V600.75C741.172 598.867 741.992 597.765 743.453 597.765C744.906 597.765 745.734 598.867 745.734 600.75V600.765C745.734 602.64 744.906 603.75 743.453 603.75ZM755.461 596.515H748.422V597.851H751.094V605H752.789V597.851H755.461V596.515ZM764.148 605V596.515H762.461V600.031C762.133 600.383 761.477 600.625 760.531 600.625C759.438 600.625 758.883 599.984 758.883 598.906V596.515H757.188V599C757.188 600.859 758.297 602.078 760.328 602.078C761.211 602.078 761.875 601.883 762.328 601.547H762.461V605H764.148ZM766.742 605H768.422L772.258 599.023H772.406V605H774.086V596.515H772.406L768.57 602.469H768.422V596.515H766.742V605ZM778.805 601.25L781.844 605H783.938L780.18 600.469L783.781 596.515H781.805L778.797 599.984H778.375V596.515H776.68V605H778.375V601.25H778.805ZM787.797 605.14C788.922 605.14 789.812 604.656 790.312 603.797H790.445V605H792.125V599.195C792.125 597.414 790.922 596.351 788.789 596.351C786.859 596.351 785.523 597.281 785.32 598.672L785.312 598.726H786.945L786.953 598.695C787.156 598.094 787.773 597.75 788.711 597.75C789.859 597.75 790.445 598.265 790.445 599.195V599.945L788.148 600.078C786.125 600.203 784.984 601.086 784.984 602.601V602.617C784.984 604.156 786.18 605.14 787.797 605.14ZM786.672 602.547V602.531C786.672 601.765 787.203 601.344 788.375 601.273L790.445 601.14V601.867C790.445 602.961 789.516 603.789 788.25 603.789C787.336 603.789 786.672 603.328 786.672 602.547ZM796.312 605V599.101H796.461L798.938 604.679H800.172L802.656 599.101H802.805V605H804.453V596.515H802.391L799.648 602.711H799.516L796.789 596.515H794.664V605H796.312Z" fill="#7B8CA6"/>
<path d="M597.391 635H599.078V632.758H600.633V631.273H599.078V623.726H596.586C595.031 626.062 593.375 628.726 591.891 631.273V632.758H597.391V635ZM593.57 631.304V631.195C594.727 629.219 596.102 627.023 597.312 625.203H597.414V631.304H593.57ZM611.117 635.273C613.711 635.273 615.281 633 615.281 629.367V629.351C615.281 625.719 613.711 623.453 611.117 623.453C608.516 623.453 606.953 625.719 606.953 629.351V629.367C606.953 633 608.516 635.273 611.117 635.273ZM611.117 633.82C609.602 633.82 608.719 632.125 608.719 629.367V629.351C608.719 626.594 609.602 624.914 611.117 624.914C612.625 624.914 613.516 626.594 613.516 629.351V629.367C613.516 632.125 612.625 633.82 611.117 633.82ZM621.508 635.273C624.102 635.273 625.672 633 625.672 629.367V629.351C625.672 625.719 624.102 623.453 621.508 623.453C618.906 623.453 617.344 625.719 617.344 629.351V629.367C617.344 633 618.906 635.273 621.508 635.273ZM621.508 633.82C619.992 633.82 619.109 632.125 619.109 629.367V629.351C619.109 626.594 619.992 624.914 621.508 624.914C623.016 624.914 623.906 626.594 623.906 629.351V629.367C623.906 632.125 623.016 633.82 621.508 633.82ZM631.898 635.273C634.492 635.273 636.062 633 636.062 629.367V629.351C636.062 625.719 634.492 623.453 631.898 623.453C629.297 623.453 627.734 625.719 627.734 629.351V629.367C627.734 633 629.297 635.273 631.898 635.273ZM631.898 633.82C630.383 633.82 629.5 632.125 629.5 629.367V629.351C629.5 626.594 630.383 624.914 631.898 624.914C633.406 624.914 634.297 626.594 634.297 629.351V629.367C634.297 632.125 633.406 633.82 631.898 633.82ZM646.664 635.273C649.258 635.273 650.828 633 650.828 629.367V629.351C650.828 625.719 649.258 623.453 646.664 623.453C644.062 623.453 642.5 625.719 642.5 629.351V629.367C642.5 633 644.062 635.273 646.664 635.273ZM646.664 633.82C645.148 633.82 644.266 632.125 644.266 629.367V629.351C644.266 626.594 645.148 624.914 646.664 624.914C648.172 624.914 649.062 626.594 649.062 629.351V629.367C649.062 632.125 648.172 633.82 646.664 633.82ZM657.055 635.273C659.648 635.273 661.219 633 661.219 629.367V629.351C661.219 625.719 659.648 623.453 657.055 623.453C654.453 623.453 652.891 625.719 652.891 629.351V629.367C652.891 633 654.453 635.273 657.055 635.273ZM657.055 633.82C655.539 633.82 654.656 632.125 654.656 629.367V629.351C654.656 626.594 655.539 624.914 657.055 624.914C658.562 624.914 659.453 626.594 659.453 629.351V629.367C659.453 632.125 658.562 633.82 657.055 633.82ZM667.445 635.273C670.039 635.273 671.609 633 671.609 629.367V629.351C671.609 625.719 670.039 623.453 667.445 623.453C664.844 623.453 663.281 625.719 663.281 629.351V629.367C663.281 633 664.844 635.273 667.445 635.273ZM667.445 633.82C665.93 633.82 665.047 632.125 665.047 629.367V629.351C665.047 626.594 665.93 624.914 667.445 624.914C668.953 624.914 669.844 626.594 669.844 629.351V629.367C669.844 632.125 668.953 633.82 667.445 633.82Z" fill="#7B8CA6"/>
<path d="M822 615C822.276 615 822.5 614.776 822.5 614.5C822.5 614.224 822.276 614 822 614V615ZM574 614.5L573.578 614.768C573.669 614.912 573.829 615 574 615V614.5ZM543.907 571.261C543.907 572.734 545.101 573.928 546.574 573.928C548.046 573.928 549.24 572.734 549.24 571.261C549.24 569.788 548.046 568.595 546.574 568.595C545.101 568.595 543.907 569.788 543.907 571.261ZM822 614H574V615H822V614ZM574.422 614.232L546.996 570.993L546.152 571.529L573.578 614.768L574.422 614.232Z" fill="#7B8CA6"/>
<path d="M212.758 533.369C214.322 533.369 215.377 532.314 215.377 530.714V510.218C215.377 508.39 214.252 507.248 212.371 507.248C211.281 507.248 210.438 507.406 209.207 508.25L204.18 511.73C203.354 512.31 203.037 512.908 203.037 513.716C203.037 514.841 203.828 515.615 204.9 515.615C205.445 515.615 205.814 515.492 206.307 515.14L210.016 512.556H210.121V530.714C210.121 532.314 211.193 533.369 212.758 533.369ZM231.109 533.562C237.543 533.562 241.445 528.447 241.445 520.255C241.445 512.064 237.508 507.054 231.109 507.054C224.711 507.054 220.756 512.082 220.756 520.273C220.756 528.482 224.676 533.562 231.109 533.562ZM231.109 529.308C227.98 529.308 226.152 526.091 226.152 520.273C226.152 514.507 228.016 511.308 231.109 511.308C234.221 511.308 236.049 514.49 236.049 520.273C236.049 526.091 234.238 529.308 231.109 529.308ZM251.096 533.369C251.816 533.369 252.256 533.105 252.766 532.314L260.588 520.748L267.918 509.99C268.182 509.586 268.322 509.216 268.322 508.795C268.322 507.898 267.602 507.248 266.67 507.248C265.844 507.248 265.422 507.529 264.877 508.338L257.336 519.517L249.76 530.609C249.496 530.996 249.355 531.33 249.355 531.839C249.355 532.789 250.182 533.369 251.096 533.369ZM249.689 520.941C253.205 520.941 255.42 518.339 255.42 514.086C255.42 509.779 253.188 507.283 249.689 507.283C246.174 507.283 243.941 509.797 243.941 514.086C243.941 518.357 246.156 520.941 249.689 520.941ZM249.689 518.093C248.459 518.093 247.703 516.828 247.703 514.086C247.703 511.343 248.477 510.13 249.689 510.13C250.902 510.13 251.658 511.343 251.658 514.086C251.658 516.828 250.902 518.093 249.689 518.093ZM268.041 533.351C271.574 533.351 273.789 530.75 273.789 526.478C273.789 522.172 271.539 519.675 268.041 519.675C264.543 519.675 262.293 522.189 262.293 526.478C262.293 530.767 264.508 533.351 268.041 533.351ZM268.041 530.504C266.828 530.504 266.055 529.22 266.055 526.496C266.055 523.736 266.828 522.523 268.041 522.523C269.254 522.523 270.027 523.736 270.027 526.478C270.027 529.22 269.254 530.504 268.041 530.504Z" fill="#7B8CA6"/>
<path d="M162.414 533H164.164V521.726H162.414V533ZM171.617 533.273C174.133 533.273 175.969 531.836 176.297 529.672V529.625H174.562L174.547 529.656C174.227 530.929 173.109 531.726 171.617 531.726C169.586 531.726 168.32 530.047 168.32 527.375V527.359C168.32 524.679 169.586 523 171.609 523C173.094 523 174.227 523.898 174.555 525.281V525.304H176.289L176.297 525.265C176 523.023 174.094 521.453 171.609 521.453C168.477 521.453 166.531 523.718 166.531 527.359V527.375C166.531 531.007 168.484 533.273 171.617 533.273ZM183.406 533.273C186.664 533.273 188.664 530.976 188.664 527.367V527.351C188.664 523.734 186.648 521.453 183.406 521.453C180.172 521.453 178.141 523.726 178.141 527.351V527.367C178.141 530.984 180.125 533.273 183.406 533.273ZM183.406 531.726C181.234 531.726 179.93 530.007 179.93 527.367V527.351C179.93 524.687 181.273 523 183.406 523C185.539 523 186.875 524.687 186.875 527.351V527.367C186.875 530.007 185.547 531.726 183.406 531.726Z" fill="#7B8CA6"/>
<path d="M195.219 562H202.812V560.507H197.602V560.351L199.992 557.968C202.039 555.937 202.633 554.953 202.633 553.672V553.648C202.633 551.789 201.086 550.453 198.984 550.453C196.719 550.453 195.125 551.906 195.117 553.968L195.133 553.984H196.773L196.781 553.961C196.781 552.726 197.625 551.898 198.891 551.898C200.125 551.898 200.883 552.711 200.883 553.812V553.836C200.883 554.75 200.453 555.328 198.961 556.882L195.219 560.812V562ZM213.461 562.273C216.055 562.273 217.625 560 217.625 556.367V556.351C217.625 552.718 216.055 550.453 213.461 550.453C210.859 550.453 209.297 552.718 209.297 556.351V556.367C209.297 560 210.859 562.273 213.461 562.273ZM213.461 560.82C211.945 560.82 211.062 559.125 211.062 556.367V556.351C211.062 553.593 211.945 551.914 213.461 551.914C214.969 551.914 215.859 553.593 215.859 556.351V556.367C215.859 559.125 214.969 560.82 213.461 560.82ZM223.852 562.273C226.445 562.273 228.016 560 228.016 556.367V556.351C228.016 552.718 226.445 550.453 223.852 550.453C221.25 550.453 219.688 552.718 219.688 556.351V556.367C219.688 560 221.25 562.273 223.852 562.273ZM223.852 560.82C222.336 560.82 221.453 559.125 221.453 556.367V556.351C221.453 553.593 222.336 551.914 223.852 551.914C225.359 551.914 226.25 553.593 226.25 556.351V556.367C226.25 559.125 225.359 560.82 223.852 560.82ZM234.242 562.273C236.836 562.273 238.406 560 238.406 556.367V556.351C238.406 552.718 236.836 550.453 234.242 550.453C231.641 550.453 230.078 552.718 230.078 556.351V556.367C230.078 560 231.641 562.273 234.242 562.273ZM234.242 560.82C232.727 560.82 231.844 559.125 231.844 556.367V556.351C231.844 553.593 232.727 551.914 234.242 551.914C235.75 551.914 236.641 553.593 236.641 556.351V556.367C236.641 559.125 235.75 560.82 234.242 560.82ZM249.008 562.273C251.602 562.273 253.172 560 253.172 556.367V556.351C253.172 552.718 251.602 550.453 249.008 550.453C246.406 550.453 244.844 552.718 244.844 556.351V556.367C244.844 560 246.406 562.273 249.008 562.273ZM249.008 560.82C247.492 560.82 246.609 559.125 246.609 556.367V556.351C246.609 553.593 247.492 551.914 249.008 551.914C250.516 551.914 251.406 553.593 251.406 556.351V556.367C251.406 559.125 250.516 560.82 249.008 560.82ZM259.398 562.273C261.992 562.273 263.562 560 263.562 556.367V556.351C263.562 552.718 261.992 550.453 259.398 550.453C256.797 550.453 255.234 552.718 255.234 556.351V556.367C255.234 560 256.797 562.273 259.398 562.273ZM259.398 560.82C257.883 560.82 257 559.125 257 556.367V556.351C257 553.593 257.883 551.914 259.398 551.914C260.906 551.914 261.797 553.593 261.797 556.351V556.367C261.797 559.125 260.906 560.82 259.398 560.82ZM269.789 562.273C272.383 562.273 273.953 560 273.953 556.367V556.351C273.953 552.718 272.383 550.453 269.789 550.453C267.188 550.453 265.625 552.718 265.625 556.351V556.367C265.625 560 267.188 562.273 269.789 562.273ZM269.789 560.82C268.273 560.82 267.391 559.125 267.391 556.367V556.351C267.391 553.593 268.273 551.914 269.789 551.914C271.297 551.914 272.188 553.593 272.188 556.351V556.367C272.188 559.125 271.297 560.82 269.789 560.82Z" fill="#7B8CA6"/>
<path d="M299 542.5V543C299.207 543 299.393 542.872 299.467 542.678L299 542.5ZM150 542C149.724 542 149.5 542.223 149.5 542.5C149.5 542.776 149.724 543 150 543V542ZM316.865 488.826C316.865 490.299 318.058 491.493 319.531 491.493C321.004 491.493 322.198 490.299 322.198 488.826C322.198 487.353 321.004 486.159 319.531 486.159C318.058 486.159 316.865 487.353 316.865 488.826ZM299 542H150V543H299V542ZM299.467 542.678L319.998 489.005L319.064 488.647L298.533 542.321L299.467 542.678Z" fill="#7B8CA6"/>
<path d="M150.627 393.369C151.77 393.369 152.42 392.947 153 391.822L162.404 373.664C163.09 372.328 163.406 371.484 163.406 370.535C163.406 368.724 162.088 367.635 160.242 367.635H147.111C145.846 367.635 144.914 368.461 144.914 369.726C144.914 371.01 145.846 371.853 147.111 371.853H158.045V371.959L148.658 389.537C148.342 390.117 148.201 390.592 148.201 391.207C148.201 392.437 149.133 393.369 150.627 393.369ZM165.814 393.211C167.379 393.211 168.645 391.945 168.645 390.381C168.645 388.799 167.379 387.551 165.814 387.551C164.232 387.551 162.984 388.799 162.984 390.381C162.984 391.945 164.232 393.211 165.814 393.211ZM182.215 393.562C187.998 393.562 192.023 389.906 192.023 384.492C192.023 379.658 188.578 376.248 183.727 376.248C181.143 376.248 179.068 377.267 178.031 378.902H177.926L178.523 371.853H188.543C189.879 371.853 190.723 371.027 190.723 369.744C190.723 368.461 189.861 367.635 188.543 367.635H177.416C175.359 367.635 174.252 368.496 174.076 370.64L173.338 379.939C173.32 380.027 173.32 380.08 173.32 380.15C173.25 381.574 174.076 382.787 175.816 382.787C176.994 382.787 177.521 382.523 178.559 381.556C179.455 380.695 180.721 380.045 182.232 380.045C184.992 380.045 186.961 381.943 186.961 384.615C186.961 387.357 184.975 389.344 182.215 389.344C179.93 389.344 178.436 388.236 177.521 386.408C176.924 385.459 176.256 385.09 175.201 385.09C173.83 385.09 172.986 385.898 172.986 387.252C172.986 387.885 173.145 388.429 173.408 388.992C174.674 391.681 178.189 393.562 182.215 393.562ZM201.357 393.369C202.078 393.369 202.518 393.105 203.027 392.314L210.85 380.748L218.18 369.99C218.443 369.586 218.584 369.217 218.584 368.795C218.584 367.898 217.863 367.248 216.932 367.248C216.105 367.248 215.684 367.529 215.139 368.338L207.598 379.517L200.021 390.609C199.758 390.996 199.617 391.33 199.617 391.84C199.617 392.789 200.443 393.369 201.357 393.369ZM199.951 380.941C203.467 380.941 205.682 378.34 205.682 374.086C205.682 369.779 203.449 367.283 199.951 367.283C196.436 367.283 194.203 369.797 194.203 374.086C194.203 378.357 196.418 380.941 199.951 380.941ZM199.951 378.094C198.721 378.094 197.965 376.828 197.965 374.086C197.965 371.344 198.738 370.131 199.951 370.131C201.164 370.131 201.92 371.344 201.92 374.086C201.92 376.828 201.164 378.094 199.951 378.094ZM218.303 393.351C221.836 393.351 224.051 390.75 224.051 386.478C224.051 382.172 221.801 379.676 218.303 379.676C214.805 379.676 212.555 382.189 212.555 386.478C212.555 390.767 214.77 393.351 218.303 393.351ZM218.303 390.504C217.09 390.504 216.316 389.22 216.316 386.496C216.316 383.736 217.09 382.523 218.303 382.523C219.516 382.523 220.289 383.736 220.289 386.478C220.289 389.22 219.516 390.504 218.303 390.504Z" fill="#7B8CA6"/>
<path d="M51.6641 393V381.726H42.4922V393H44.2422V383.234H49.9141V393H51.6641ZM56.7812 393.14C57.9062 393.14 58.7969 392.656 59.2969 391.797H59.4297V393H61.1094V387.195C61.1094 385.414 59.9062 384.351 57.7734 384.351C55.8438 384.351 54.5078 385.281 54.3047 386.672L54.2969 386.726H55.9297L55.9375 386.695C56.1406 386.094 56.7578 385.75 57.6953 385.75C58.8438 385.75 59.4297 386.265 59.4297 387.195V387.945L57.1328 388.078C55.1094 388.203 53.9688 389.086 53.9688 390.601V390.617C53.9688 392.156 55.1641 393.14 56.7812 393.14ZM55.6562 390.547V390.531C55.6562 389.765 56.1875 389.344 57.3594 389.273L59.4297 389.14V389.867C59.4297 390.961 58.5 391.789 57.2344 391.789C56.3203 391.789 55.6562 391.328 55.6562 390.547ZM63.6562 395.828H65.3516V391.656H65.4766C65.9297 392.57 66.9219 393.14 68.0859 393.14C70.2422 393.14 71.6016 391.453 71.6016 388.765V388.75C71.6016 386.078 70.2266 384.367 68.0859 384.367C66.8984 384.367 65.9688 384.922 65.4766 385.851H65.3516V384.515H63.6562V395.828ZM67.6094 391.695C66.1953 391.695 65.3203 390.578 65.3203 388.765V388.75C65.3203 386.937 66.1953 385.82 67.6094 385.82C69.0234 385.82 69.875 386.922 69.875 388.75V388.765C69.875 390.586 69.0234 391.695 67.6094 391.695ZM79.6172 384.515H72.5781V385.851H75.25V393H76.9453V385.851H79.6172V384.515ZM87.0547 393H88.7422V384.515H87.0547V387.937H83.2031V384.515H81.5078V393H83.2031V389.281H87.0547V393ZM94.8906 393.164C97.0625 393.164 98.2344 391.914 98.5156 390.797L98.5312 390.726L96.8984 390.734L96.8672 390.797C96.6641 391.234 96.0156 391.773 94.9297 391.773C93.5312 391.773 92.6406 390.828 92.6094 389.203H98.625V388.609C98.625 386.062 97.1719 384.351 94.8047 384.351C92.4375 384.351 90.9062 386.125 90.9062 388.773V388.781C90.9062 391.469 92.4062 393.164 94.8906 393.164ZM94.8125 385.742C95.9609 385.742 96.8125 386.476 96.9453 387.992H92.6328C92.7812 386.531 93.6562 385.742 94.8125 385.742ZM100.797 395.828H102.492V391.656H102.617C103.07 392.57 104.062 393.14 105.227 393.14C107.383 393.14 108.742 391.453 108.742 388.765V388.75C108.742 386.078 107.367 384.367 105.227 384.367C104.039 384.367 103.109 384.922 102.617 385.851H102.492V384.515H100.797V395.828ZM104.75 391.695C103.336 391.695 102.461 390.578 102.461 388.765V388.75C102.461 386.937 103.336 385.82 104.75 385.82C106.164 385.82 107.016 386.922 107.016 388.75V388.765C107.016 390.586 106.164 391.695 104.75 391.695ZM113.266 393.14C114.391 393.14 115.281 392.656 115.781 391.797H115.914V393H117.594V387.195C117.594 385.414 116.391 384.351 114.258 384.351C112.328 384.351 110.992 385.281 110.789 386.672L110.781 386.726H112.414L112.422 386.695C112.625 386.094 113.242 385.75 114.18 385.75C115.328 385.75 115.914 386.265 115.914 387.195V387.945L113.617 388.078C111.594 388.203 110.453 389.086 110.453 390.601V390.617C110.453 392.156 111.648 393.14 113.266 393.14ZM112.141 390.547V390.531C112.141 389.765 112.672 389.344 113.844 389.273L115.914 389.14V389.867C115.914 390.961 114.984 391.789 113.719 391.789C112.805 391.789 112.141 391.328 112.141 390.547ZM121.781 393V387.101H121.93L124.406 392.679H125.641L128.125 387.101H128.273V393H129.922V384.515H127.859L125.117 390.711H124.984L122.258 384.515H120.133V393H121.781Z" fill="#7B8CA6"/>
<path d="M149.977 422H151.727V410.726H149.977L147.008 412.836V414.554L149.844 412.531H149.977V422ZM163.203 422.273C165.578 422.273 167.25 420.679 167.25 418.367V418.351C167.25 416.187 165.734 414.609 163.617 414.609C162.578 414.609 161.695 415.047 161.219 415.804H161.086L161.43 412.211H166.609V410.726H160.055L159.492 417.273H161C161.133 417.015 161.312 416.797 161.516 416.617C161.961 416.211 162.547 416.008 163.234 416.008C164.594 416.008 165.578 416.992 165.578 418.383V418.398C165.578 419.812 164.609 420.804 163.219 420.804C161.984 420.804 161.086 420.015 160.938 419.023L160.93 418.961H159.289L159.297 419.062C159.453 420.89 160.984 422.273 163.203 422.273ZM173.43 422.273C176.023 422.273 177.594 420 177.594 416.367V416.351C177.594 412.719 176.023 410.453 173.43 410.453C170.828 410.453 169.266 412.719 169.266 416.351V416.367C169.266 420 170.828 422.273 173.43 422.273ZM173.43 420.82C171.914 420.82 171.031 419.125 171.031 416.367V416.351C171.031 413.594 171.914 411.914 173.43 411.914C174.938 411.914 175.828 413.594 175.828 416.351V416.367C175.828 419.125 174.938 420.82 173.43 420.82ZM183.82 422.273C186.414 422.273 187.984 420 187.984 416.367V416.351C187.984 412.719 186.414 410.453 183.82 410.453C181.219 410.453 179.656 412.719 179.656 416.351V416.367C179.656 420 181.219 422.273 183.82 422.273ZM183.82 420.82C182.305 420.82 181.422 419.125 181.422 416.367V416.351C181.422 413.594 182.305 411.914 183.82 411.914C185.328 411.914 186.219 413.594 186.219 416.351V416.367C186.219 419.125 185.328 420.82 183.82 420.82ZM198.586 422.273C201.18 422.273 202.75 420 202.75 416.367V416.351C202.75 412.719 201.18 410.453 198.586 410.453C195.984 410.453 194.422 412.719 194.422 416.351V416.367C194.422 420 195.984 422.273 198.586 422.273ZM198.586 420.82C197.07 420.82 196.188 419.125 196.188 416.367V416.351C196.188 413.594 197.07 411.914 198.586 411.914C200.094 411.914 200.984 413.594 200.984 416.351V416.367C200.984 419.125 200.094 420.82 198.586 420.82ZM208.977 422.273C211.57 422.273 213.141 420 213.141 416.367V416.351C213.141 412.719 211.57 410.453 208.977 410.453C206.375 410.453 204.812 412.719 204.812 416.351V416.367C204.812 420 206.375 422.273 208.977 422.273ZM208.977 420.82C207.461 420.82 206.578 419.125 206.578 416.367V416.351C206.578 413.594 207.461 411.914 208.977 411.914C210.484 411.914 211.375 413.594 211.375 416.351V416.367C211.375 419.125 210.484 420.82 208.977 420.82ZM219.367 422.273C221.961 422.273 223.531 420 223.531 416.367V416.351C223.531 412.719 221.961 410.453 219.367 410.453C216.766 410.453 215.203 412.719 215.203 416.351V416.367C215.203 420 216.766 422.273 219.367 422.273ZM219.367 420.82C217.852 420.82 216.969 419.125 216.969 416.367V416.351C216.969 413.594 217.852 411.914 219.367 411.914C220.875 411.914 221.766 413.594 221.766 416.351V416.367C221.766 419.125 220.875 420.82 219.367 420.82Z" fill="#7B8CA6"/>
<path d="M241 402.5V403C241.136 403 241.266 402.944 241.36 402.846L241 402.5ZM26 402C25.7239 402 25.5 402.224 25.5 402.5C25.5 402.776 25.7239 403 26 403L26 402ZM268.98 370.646C268.98 372.119 270.174 373.313 271.646 373.313C273.119 373.313 274.313 372.119 274.313 370.646C274.313 369.173 273.119 367.98 271.646 367.98C270.174 367.98 268.98 369.173 268.98 370.646ZM241 402L26 402L26 403L241 403V402ZM241.36 402.846L272.007 370.993L271.286 370.3L240.64 402.153L241.36 402.846Z" fill="#7B8CA6"/>
<path d="M144.627 278.369C145.77 278.369 146.42 277.947 147 276.822L156.404 258.664C157.09 257.328 157.406 256.484 157.406 255.535C157.406 253.724 156.088 252.635 154.242 252.635H141.111C139.846 252.635 138.914 253.461 138.914 254.726C138.914 256.01 139.846 256.853 141.111 256.853H152.045V256.959L142.658 274.537C142.342 275.117 142.201 275.592 142.201 276.207C142.201 277.437 143.133 278.369 144.627 278.369ZM159.814 278.211C161.379 278.211 162.645 276.945 162.645 275.381C162.645 273.799 161.379 272.551 159.814 272.551C158.232 272.551 156.984 273.799 156.984 275.381C156.984 276.945 158.232 278.211 159.814 278.211ZM176.215 278.562C181.998 278.562 186.023 274.906 186.023 269.492C186.023 264.658 182.578 261.248 177.727 261.248C175.143 261.248 173.068 262.267 172.031 263.902H171.926L172.523 256.853H182.543C183.879 256.853 184.723 256.027 184.723 254.744C184.723 253.461 183.861 252.635 182.543 252.635H171.416C169.359 252.635 168.252 253.496 168.076 255.64L167.338 264.939C167.32 265.027 167.32 265.08 167.32 265.15C167.25 266.574 168.076 267.787 169.816 267.787C170.994 267.787 171.521 267.523 172.559 266.556C173.455 265.695 174.721 265.045 176.232 265.045C178.992 265.045 180.961 266.943 180.961 269.615C180.961 272.357 178.975 274.344 176.215 274.344C173.93 274.344 172.436 273.236 171.521 271.408C170.924 270.459 170.256 270.09 169.201 270.09C167.83 270.09 166.986 270.898 166.986 272.252C166.986 272.885 167.145 273.429 167.408 273.992C168.674 276.681 172.189 278.562 176.215 278.562ZM195.357 278.369C196.078 278.369 196.518 278.105 197.027 277.314L204.85 265.748L212.18 254.99C212.443 254.586 212.584 254.217 212.584 253.795C212.584 252.898 211.863 252.248 210.932 252.248C210.105 252.248 209.684 252.529 209.139 253.338L201.598 264.517L194.021 275.609C193.758 275.996 193.617 276.33 193.617 276.84C193.617 277.789 194.443 278.369 195.357 278.369ZM193.951 265.941C197.467 265.941 199.682 263.34 199.682 259.086C199.682 254.779 197.449 252.283 193.951 252.283C190.436 252.283 188.203 254.797 188.203 259.086C188.203 263.357 190.418 265.941 193.951 265.941ZM193.951 263.094C192.721 263.094 191.965 261.828 191.965 259.086C191.965 256.344 192.738 255.131 193.951 255.131C195.164 255.131 195.92 256.344 195.92 259.086C195.92 261.828 195.164 263.094 193.951 263.094ZM212.303 278.351C215.836 278.351 218.051 275.75 218.051 271.478C218.051 267.172 215.801 264.676 212.303 264.676C208.805 264.676 206.555 267.189 206.555 271.478C206.555 275.767 208.77 278.351 212.303 278.351ZM212.303 275.504C211.09 275.504 210.316 274.22 210.316 271.496C210.316 268.736 211.09 267.523 212.303 267.523C213.516 267.523 214.289 268.736 214.289 271.478C214.289 274.22 213.516 275.504 212.303 275.504Z" fill="#7B8CA6"/>
<path d="M11.2422 278V272.992H11.6484L16.2891 278H18.5078L13.1406 272.172L18.1016 266.726H16.0312L11.6406 271.625H11.2422V266.726H9.49219V278H11.2422ZM23.2031 278.164C25.6875 278.164 27.2109 276.5 27.2109 273.765V273.75C27.2109 271.015 25.6797 269.351 23.2031 269.351C20.7188 269.351 19.1875 271.023 19.1875 273.75V273.765C19.1875 276.5 20.7109 278.164 23.2031 278.164ZM23.2031 276.75C21.7422 276.75 20.9219 275.648 20.9219 273.765V273.75C20.9219 271.867 21.7422 270.765 23.2031 270.765C24.6562 270.765 25.4844 271.867 25.4844 273.75V273.765C25.4844 275.64 24.6562 276.75 23.2031 276.75ZM31.5859 274.476L31.8594 270.851H34.5391V278H36.2344V269.515H30.375L30.0469 274.344C29.9688 275.578 29.6797 276.562 28.8984 276.562C28.6875 276.562 28.4766 276.531 28.3984 276.508V277.984C28.5156 278.023 28.7578 278.078 29.0781 278.078C30.6797 278.078 31.4141 276.875 31.5859 274.476ZM41.0859 274.476L41.3594 270.851H44.0391V278H45.7344V269.515H39.875L39.5469 274.344C39.4688 275.578 39.1797 276.562 38.3984 276.562C38.1875 276.562 37.9766 276.531 37.8984 276.508V277.984C38.0156 278.023 38.2578 278.078 38.5781 278.078C40.1797 278.078 40.9141 276.875 41.0859 274.476ZM50.6562 278.14C51.7812 278.14 52.6719 277.656 53.1719 276.797H53.3047V278H54.9844V272.195C54.9844 270.414 53.7812 269.351 51.6484 269.351C49.7188 269.351 48.3828 270.281 48.1797 271.672L48.1719 271.726H49.8047L49.8125 271.695C50.0156 271.094 50.6328 270.75 51.5703 270.75C52.7188 270.75 53.3047 271.265 53.3047 272.195V272.945L51.0078 273.078C48.9844 273.203 47.8438 274.086 47.8438 275.601V275.617C47.8438 277.156 49.0391 278.14 50.6562 278.14ZM49.5312 275.547V275.531C49.5312 274.765 50.0625 274.344 51.2344 274.273L53.3047 274.14V274.867C53.3047 275.961 52.375 276.789 51.1094 276.789C50.1953 276.789 49.5312 276.328 49.5312 275.547ZM61.1875 278.164C63.6797 278.164 65.2188 276.476 65.2188 273.781V273.765C65.2188 271.25 63.75 269.64 61.4844 269.64C60.1797 269.64 59.1797 270.195 58.6172 271.211H58.4844L58.5078 271.047C58.8047 268.844 59.6641 267.953 61.6094 267.875L62.5312 267.836C63.4766 267.797 64.3672 267.609 64.6641 267.383V265.969C63.9609 266.234 63.1328 266.359 62.4453 266.39L61.5078 266.429C58.4375 266.562 57.125 268.531 57.125 272.984V273C57.125 276.367 58.5234 278.164 61.1875 278.164ZM61.1719 276.75C59.6953 276.75 58.8516 275.656 58.8516 273.804V273.789C58.8516 272.031 59.6953 271.023 61.1719 271.023C62.6406 271.023 63.4922 272.031 63.4922 273.789V273.804C63.4922 275.656 62.6406 276.75 61.1719 276.75ZM71 278.164C73.4844 278.164 75.0078 276.5 75.0078 273.765V273.75C75.0078 271.015 73.4766 269.351 71 269.351C68.5156 269.351 66.9844 271.023 66.9844 273.75V273.765C66.9844 276.5 68.5078 278.164 71 278.164ZM71 276.75C69.5391 276.75 68.7188 275.648 68.7188 273.765V273.75C68.7188 271.867 69.5391 270.765 71 270.765C72.4531 270.765 73.2812 271.867 73.2812 273.75V273.765C73.2812 275.64 72.4531 276.75 71 276.75ZM77.1875 280.828H78.8828V276.656H79.0078C79.4609 277.57 80.4531 278.14 81.6172 278.14C83.7734 278.14 85.1328 276.453 85.1328 273.765V273.75C85.1328 271.078 83.7578 269.367 81.6172 269.367C80.4297 269.367 79.5 269.922 79.0078 270.851H78.8828V269.515H77.1875V280.828ZM81.1406 276.695C79.7266 276.695 78.8516 275.578 78.8516 273.765V273.75C78.8516 271.937 79.7266 270.82 81.1406 270.82C82.5547 270.82 83.4062 271.922 83.4062 273.75V273.765C83.4062 275.586 82.5547 276.695 81.1406 276.695ZM89.6562 278.14C90.7812 278.14 91.6719 277.656 92.1719 276.797H92.3047V278H93.9844V272.195C93.9844 270.414 92.7812 269.351 90.6484 269.351C88.7188 269.351 87.3828 270.281 87.1797 271.672L87.1719 271.726H88.8047L88.8125 271.695C89.0156 271.094 89.6328 270.75 90.5703 270.75C91.7188 270.75 92.3047 271.265 92.3047 272.195V272.945L90.0078 273.078C87.9844 273.203 86.8438 274.086 86.8438 275.601V275.617C86.8438 277.156 88.0391 278.14 89.6562 278.14ZM88.5312 275.547V275.531C88.5312 274.765 89.0625 274.344 90.2344 274.273L92.3047 274.14V274.867C92.3047 275.961 91.375 276.789 90.1094 276.789C89.1953 276.789 88.5312 276.328 88.5312 275.547ZM103.422 280.226H105.008V276.664H103.68V269.515H101.992V276.664H98.2188V269.515H96.5234V278H103.422V280.226ZM106.711 278H108.391L112.227 272.023H112.375V278H114.055V269.515H112.375L108.539 275.469H108.391V269.515H106.711V278ZM116.648 278H118.328L122.164 272.023H122.312V278H123.992V269.515H122.312L118.477 275.469H118.328V269.515H116.648V278Z" fill="#7B8CA6"/>
<path d="M143.977 307H145.727V295.726H143.977L141.008 297.836V299.554L143.844 297.531H143.977V307ZM157.203 307.273C159.578 307.273 161.25 305.679 161.25 303.367V303.351C161.25 301.187 159.734 299.609 157.617 299.609C156.578 299.609 155.695 300.047 155.219 300.804H155.086L155.43 297.211H160.609V295.726H154.055L153.492 302.273H155C155.133 302.015 155.312 301.797 155.516 301.617C155.961 301.211 156.547 301.008 157.234 301.008C158.594 301.008 159.578 301.992 159.578 303.383V303.398C159.578 304.812 158.609 305.804 157.219 305.804C155.984 305.804 155.086 305.015 154.938 304.023L154.93 303.961H153.289L153.297 304.062C153.453 305.89 154.984 307.273 157.203 307.273ZM167.43 307.273C170.023 307.273 171.594 305 171.594 301.367V301.351C171.594 297.719 170.023 295.453 167.43 295.453C164.828 295.453 163.266 297.719 163.266 301.351V301.367C163.266 305 164.828 307.273 167.43 307.273ZM167.43 305.82C165.914 305.82 165.031 304.125 165.031 301.367V301.351C165.031 298.594 165.914 296.914 167.43 296.914C168.938 296.914 169.828 298.594 169.828 301.351V301.367C169.828 304.125 168.938 305.82 167.43 305.82ZM177.82 307.273C180.414 307.273 181.984 305 181.984 301.367V301.351C181.984 297.719 180.414 295.453 177.82 295.453C175.219 295.453 173.656 297.719 173.656 301.351V301.367C173.656 305 175.219 307.273 177.82 307.273ZM177.82 305.82C176.305 305.82 175.422 304.125 175.422 301.367V301.351C175.422 298.594 176.305 296.914 177.82 296.914C179.328 296.914 180.219 298.594 180.219 301.351V301.367C180.219 304.125 179.328 305.82 177.82 305.82ZM192.586 307.273C195.18 307.273 196.75 305 196.75 301.367V301.351C196.75 297.719 195.18 295.453 192.586 295.453C189.984 295.453 188.422 297.719 188.422 301.351V301.367C188.422 305 189.984 307.273 192.586 307.273ZM192.586 305.82C191.07 305.82 190.188 304.125 190.188 301.367V301.351C190.188 298.594 191.07 296.914 192.586 296.914C194.094 296.914 194.984 298.594 194.984 301.351V301.367C194.984 304.125 194.094 305.82 192.586 305.82ZM202.977 307.273C205.57 307.273 207.141 305 207.141 301.367V301.351C207.141 297.719 205.57 295.453 202.977 295.453C200.375 295.453 198.812 297.719 198.812 301.351V301.367C198.812 305 200.375 307.273 202.977 307.273ZM202.977 305.82C201.461 305.82 200.578 304.125 200.578 301.367V301.351C200.578 298.594 201.461 296.914 202.977 296.914C204.484 296.914 205.375 298.594 205.375 301.351V301.367C205.375 304.125 204.484 305.82 202.977 305.82ZM213.367 307.273C215.961 307.273 217.531 305 217.531 301.367V301.351C217.531 297.719 215.961 295.453 213.367 295.453C210.766 295.453 209.203 297.719 209.203 301.351V301.367C209.203 305 210.766 307.273 213.367 307.273ZM213.367 305.82C211.852 305.82 210.969 304.125 210.969 301.367V301.351C210.969 298.594 211.852 296.914 213.367 296.914C214.875 296.914 215.766 298.594 215.766 301.351V301.367C215.766 304.125 214.875 305.82 213.367 305.82Z" fill="#7B8CA6"/>
<path d="M235 287.5V288C235.057 288 235.114 287.99 235.168 287.971L235 287.5ZM0.5 287C0.223858 287 0 287.224 0 287.5C0 287.776 0.223858 288 0.5 288V287ZM274.175 272.525C274.175 273.998 275.369 275.192 276.842 275.192C278.315 275.192 279.508 273.998 279.508 272.525C279.508 271.053 278.315 269.859 276.842 269.859C275.369 269.859 274.175 271.053 274.175 272.525ZM235 287H0.5V288H235V287ZM235.168 287.971L277.01 272.996L276.673 272.055L234.832 287.029L235.168 287.971Z" fill="#7B8CA6"/>
<path d="M237.531 183.562C243.314 183.562 247.34 179.906 247.34 174.492C247.34 169.658 243.895 166.248 239.043 166.248C236.459 166.248 234.385 167.267 233.348 168.902H233.242L233.84 161.853H243.859C245.195 161.853 246.039 161.027 246.039 159.744C246.039 158.461 245.178 157.635 243.859 157.635H232.732C230.676 157.635 229.568 158.496 229.393 160.641L228.654 169.939C228.637 170.027 228.637 170.08 228.637 170.15C228.566 171.574 229.393 172.787 231.133 172.787C232.311 172.787 232.838 172.523 233.875 171.557C234.771 170.695 236.037 170.045 237.549 170.045C240.309 170.045 242.277 171.943 242.277 174.615C242.277 177.357 240.291 179.344 237.531 179.344C235.246 179.344 233.752 178.236 232.838 176.408C232.24 175.459 231.572 175.09 230.518 175.09C229.146 175.09 228.303 175.898 228.303 177.252C228.303 177.885 228.461 178.43 228.725 178.992C229.99 181.682 233.506 183.562 237.531 183.562ZM256.674 183.369C257.395 183.369 257.834 183.105 258.344 182.314L266.166 170.748L273.496 159.99C273.76 159.586 273.9 159.217 273.9 158.795C273.9 157.898 273.18 157.248 272.248 157.248C271.422 157.248 271 157.529 270.455 158.338L262.914 169.517L255.338 180.609C255.074 180.996 254.934 181.33 254.934 181.84C254.934 182.789 255.76 183.369 256.674 183.369ZM255.268 170.941C258.783 170.941 260.998 168.34 260.998 164.086C260.998 159.779 258.766 157.283 255.268 157.283C251.752 157.283 249.52 159.797 249.52 164.086C249.52 168.357 251.734 170.941 255.268 170.941ZM255.268 168.094C254.037 168.094 253.281 166.828 253.281 164.086C253.281 161.344 254.055 160.131 255.268 160.131C256.48 160.131 257.236 161.344 257.236 164.086C257.236 166.828 256.48 168.094 255.268 168.094ZM273.619 183.351C277.152 183.351 279.367 180.75 279.367 176.478C279.367 172.172 277.117 169.676 273.619 169.676C270.121 169.676 267.871 172.189 267.871 176.478C267.871 180.767 270.086 183.351 273.619 183.351ZM273.619 180.504C272.406 180.504 271.633 179.221 271.633 176.496C271.633 173.736 272.406 172.523 273.619 172.523C274.832 172.523 275.605 173.736 275.605 176.478C275.605 179.221 274.832 180.504 273.619 180.504Z" fill="#7B8CA6"/>
<path d="M116.492 183H118.18L123.922 174.648H124.055V183H125.789V171.726H124.102L118.367 180.109H118.227V171.726H116.492V183ZM134.117 183H135.805V174.516H134.117V177.937H130.266V174.516H128.57V183H130.266V179.281H134.117V183ZM138.383 183H142.258C144.125 183 145.242 182.031 145.242 180.578V180.562C145.242 179.555 144.523 178.789 143.422 178.656V178.523C144.258 178.367 144.859 177.578 144.859 176.711V176.695C144.859 175.375 143.883 174.516 142.219 174.516H138.383V183ZM140.062 178.07V175.758H141.875C142.773 175.758 143.188 176.219 143.188 176.898V176.914C143.188 177.664 142.711 178.07 141.695 178.07H140.062ZM140.062 181.75V179.289H141.82C142.953 179.289 143.508 179.68 143.508 180.5V180.516C143.508 181.297 143.016 181.75 142.039 181.75H140.062ZM150.938 183.164C153.109 183.164 154.281 181.914 154.562 180.797L154.578 180.726L152.945 180.734L152.914 180.797C152.711 181.234 152.062 181.773 150.977 181.773C149.578 181.773 148.688 180.828 148.656 179.203H154.672V178.609C154.672 176.062 153.219 174.351 150.852 174.351C148.484 174.351 146.953 176.125 146.953 178.773V178.781C146.953 181.469 148.453 183.164 150.938 183.164ZM150.859 175.742C152.008 175.742 152.859 176.476 152.992 177.992H148.68C148.828 176.531 149.703 175.742 150.859 175.742ZM160.414 183.164C162.516 183.164 163.727 182.031 164.031 180.383L164.047 180.312H162.422L162.406 180.351C162.133 181.266 161.477 181.75 160.414 181.75C159.016 181.75 158.148 180.609 158.148 178.734V178.719C158.148 176.891 159 175.766 160.414 175.766C161.539 175.766 162.227 176.391 162.414 177.226L162.422 177.25L164.047 177.242V177.203C163.812 175.555 162.539 174.351 160.406 174.351C157.93 174.351 156.422 176.031 156.422 178.719V178.734C156.422 181.476 157.938 183.164 160.414 183.164ZM172.102 174.516H165.062V175.851H167.734V183H169.43V175.851H172.102V174.516ZM177.312 183.164C179.797 183.164 181.32 181.5 181.32 178.766V178.75C181.32 176.016 179.789 174.351 177.312 174.351C174.828 174.351 173.297 176.023 173.297 178.75V178.766C173.297 181.5 174.82 183.164 177.312 183.164ZM177.312 181.75C175.852 181.75 175.031 180.648 175.031 178.766V178.75C175.031 176.867 175.852 175.766 177.312 175.766C178.766 175.766 179.594 176.867 179.594 178.75V178.766C179.594 180.641 178.766 181.75 177.312 181.75ZM183.5 185.828H185.195V181.656H185.32C185.773 182.57 186.766 183.141 187.93 183.141C190.086 183.141 191.445 181.453 191.445 178.766V178.75C191.445 176.078 190.07 174.367 187.93 174.367C186.742 174.367 185.812 174.922 185.32 175.851H185.195V174.516H183.5V185.828ZM187.453 181.695C186.039 181.695 185.164 180.578 185.164 178.766V178.75C185.164 176.937 186.039 175.82 187.453 175.82C188.867 175.82 189.719 176.922 189.719 178.75V178.766C189.719 180.586 188.867 181.695 187.453 181.695ZM195.969 183.141C197.094 183.141 197.984 182.656 198.484 181.797H198.617V183H200.297V177.195C200.297 175.414 199.094 174.351 196.961 174.351C195.031 174.351 193.695 175.281 193.492 176.672L193.484 176.726H195.117L195.125 176.695C195.328 176.094 195.945 175.75 196.883 175.75C198.031 175.75 198.617 176.266 198.617 177.195V177.945L196.32 178.078C194.297 178.203 193.156 179.086 193.156 180.601V180.617C193.156 182.156 194.352 183.141 195.969 183.141ZM194.844 180.547V180.531C194.844 179.766 195.375 179.344 196.547 179.273L198.617 179.141V179.867C198.617 180.961 197.688 181.789 196.422 181.789C195.508 181.789 194.844 181.328 194.844 180.547ZM204.484 183V177.101H204.633L207.109 182.68H208.344L210.828 177.101H210.977V183H212.625V174.516H210.562L207.82 180.711H207.688L204.961 174.516H202.836V183H204.484Z" fill="#7B8CA6"/>
<path d="M205.977 212H207.727V200.726H205.977L203.008 202.836V204.555L205.844 202.531H205.977V212ZM219.273 212.273C221.867 212.273 223.438 210 223.438 206.367V206.351C223.438 202.719 221.867 200.453 219.273 200.453C216.672 200.453 215.109 202.719 215.109 206.351V206.367C215.109 210 216.672 212.273 219.273 212.273ZM219.273 210.82C217.758 210.82 216.875 209.125 216.875 206.367V206.351C216.875 203.594 217.758 201.914 219.273 201.914C220.781 201.914 221.672 203.594 221.672 206.351V206.367C221.672 209.125 220.781 210.82 219.273 210.82ZM229.664 212.273C232.258 212.273 233.828 210 233.828 206.367V206.351C233.828 202.719 232.258 200.453 229.664 200.453C227.062 200.453 225.5 202.719 225.5 206.351V206.367C225.5 210 227.062 212.273 229.664 212.273ZM229.664 210.82C228.148 210.82 227.266 209.125 227.266 206.367V206.351C227.266 203.594 228.148 201.914 229.664 201.914C231.172 201.914 232.062 203.594 232.062 206.351V206.367C232.062 209.125 231.172 210.82 229.664 210.82ZM240.055 212.273C242.648 212.273 244.219 210 244.219 206.367V206.351C244.219 202.719 242.648 200.453 240.055 200.453C237.453 200.453 235.891 202.719 235.891 206.351V206.367C235.891 210 237.453 212.273 240.055 212.273ZM240.055 210.82C238.539 210.82 237.656 209.125 237.656 206.367V206.351C237.656 203.594 238.539 201.914 240.055 201.914C241.562 201.914 242.453 203.594 242.453 206.351V206.367C242.453 209.125 241.562 210.82 240.055 210.82ZM254.82 212.273C257.414 212.273 258.984 210 258.984 206.367V206.351C258.984 202.719 257.414 200.453 254.82 200.453C252.219 200.453 250.656 202.719 250.656 206.351V206.367C250.656 210 252.219 212.273 254.82 212.273ZM254.82 210.82C253.305 210.82 252.422 209.125 252.422 206.367V206.351C252.422 203.594 253.305 201.914 254.82 201.914C256.328 201.914 257.219 203.594 257.219 206.351V206.367C257.219 209.125 256.328 210.82 254.82 210.82ZM265.211 212.273C267.805 212.273 269.375 210 269.375 206.367V206.351C269.375 202.719 267.805 200.453 265.211 200.453C262.609 200.453 261.047 202.719 261.047 206.351V206.367C261.047 210 262.609 212.273 265.211 212.273ZM265.211 210.82C263.695 210.82 262.812 209.125 262.812 206.367V206.351C262.812 203.594 263.695 201.914 265.211 201.914C266.719 201.914 267.609 203.594 267.609 206.351V206.367C267.609 209.125 266.719 210.82 265.211 210.82ZM275.602 212.273C278.195 212.273 279.766 210 279.766 206.367V206.351C279.766 202.719 278.195 200.453 275.602 200.453C273 200.453 271.438 202.719 271.438 206.351V206.367C271.438 210 273 212.273 275.602 212.273ZM275.602 210.82C274.086 210.82 273.203 209.125 273.203 206.367V206.351C273.203 203.594 274.086 201.914 275.602 201.914C277.109 201.914 278 203.594 278 206.351V206.367C278 209.125 277.109 210.82 275.602 210.82Z" fill="#7B8CA6"/>
<path d="M297 192.5V193C297.105 193 297.208 192.967 297.293 192.905L297 192.5ZM100 192C99.7239 192 99.5 192.224 99.5 192.5C99.5 192.776 99.7239 193 100 193L100 192ZM319.052 174.586C319.052 176.059 320.246 177.253 321.719 177.253C323.192 177.253 324.385 176.059 324.385 174.586C324.385 173.114 323.192 171.92 321.719 171.92C320.246 171.92 319.052 173.114 319.052 174.586ZM297 192L100 192L100 193L297 193V192ZM297.293 192.905L322.012 174.991L321.425 174.182L296.707 192.095L297.293 192.905Z" fill="#7B8CA6"/>
<path d="M276.531 104.562C282.314 104.562 286.34 100.906 286.34 95.4919C286.34 90.658 282.895 87.2478 278.043 87.2478C275.459 87.2478 273.385 88.2673 272.348 89.9021H272.242L272.84 82.8533H282.859C284.195 82.8533 285.039 82.0271 285.039 80.7439C285.039 79.4607 284.178 78.6345 282.859 78.6345H271.732C269.676 78.6345 268.568 79.4958 268.393 81.6404L267.654 90.9392C267.637 91.0271 267.637 91.0798 267.637 91.1501C267.566 92.574 268.393 93.7869 270.133 93.7869C271.311 93.7869 271.838 93.5232 272.875 92.5564C273.771 91.6951 275.037 91.0447 276.549 91.0447C279.309 91.0447 281.277 92.9431 281.277 95.615C281.277 98.3572 279.291 100.344 276.531 100.344C274.246 100.344 272.752 99.2361 271.838 97.408C271.24 96.4587 270.572 96.0896 269.518 96.0896C268.146 96.0896 267.303 96.8982 267.303 98.2517C267.303 98.8845 267.461 99.4294 267.725 99.9919C268.99 102.681 272.506 104.562 276.531 104.562ZM295.674 104.369C296.395 104.369 296.834 104.105 297.344 103.314L305.166 91.7478L312.496 80.99C312.76 80.5857 312.9 80.2166 312.9 79.7947C312.9 78.8982 312.18 78.2478 311.248 78.2478C310.422 78.2478 310 78.5291 309.455 79.3376L301.914 90.5173L294.338 101.609C294.074 101.996 293.934 102.33 293.934 102.84C293.934 103.789 294.76 104.369 295.674 104.369ZM294.268 91.9412C297.783 91.9412 299.998 89.3396 299.998 85.0857C299.998 80.7791 297.766 78.283 294.268 78.283C290.752 78.283 288.52 80.7966 288.52 85.0857C288.52 89.3572 290.734 91.9412 294.268 91.9412ZM294.268 89.0935C293.037 89.0935 292.281 87.8279 292.281 85.0857C292.281 82.3435 293.055 81.1306 294.268 81.1306C295.48 81.1306 296.236 82.3435 296.236 85.0857C296.236 87.8279 295.48 89.0935 294.268 89.0935ZM312.619 104.351C316.152 104.351 318.367 101.75 318.367 97.4783C318.367 93.1716 316.117 90.6755 312.619 90.6755C309.121 90.6755 306.871 93.1892 306.871 97.4783C306.871 101.767 309.086 104.351 312.619 104.351ZM312.619 101.504C311.406 101.504 310.633 100.22 310.633 97.4958C310.633 94.7361 311.406 93.5232 312.619 93.5232C313.832 93.5232 314.605 94.7361 314.605 97.4783C314.605 100.22 313.832 101.504 312.619 101.504Z" fill="#7B8CA6"/>
<path d="M167.492 104H169.086V95.7263H169.211L172.516 104H173.812L177.125 95.7263H177.242V104H178.836V92.7263H176.82L173.227 101.719H173.102L169.508 92.7263H167.492V104ZM183.953 104.14C185.078 104.14 185.969 103.656 186.469 102.797H186.602V104H188.281V98.1951C188.281 96.4138 187.078 95.3513 184.945 95.3513C183.016 95.3513 181.68 96.281 181.477 97.6716L181.469 97.7263H183.102L183.109 97.6951C183.312 97.0935 183.93 96.7498 184.867 96.7498C186.016 96.7498 186.602 97.2654 186.602 98.1951V98.9451L184.305 99.0779C182.281 99.2029 181.141 100.086 181.141 101.601V101.617C181.141 103.156 182.336 104.14 183.953 104.14ZM182.828 101.547V101.531C182.828 100.765 183.359 100.344 184.531 100.273L186.602 100.14V100.867C186.602 101.961 185.672 102.789 184.406 102.789C183.492 102.789 182.828 102.328 182.828 101.547ZM190.828 106.828H192.523V102.656H192.648C193.102 103.57 194.094 104.14 195.258 104.14C197.414 104.14 198.773 102.453 198.773 99.7654V99.7498C198.773 97.0779 197.398 95.3669 195.258 95.3669C194.07 95.3669 193.141 95.9216 192.648 96.8513H192.523V95.5154H190.828V106.828ZM194.781 102.695C193.367 102.695 192.492 101.578 192.492 99.7654V99.7498C192.492 97.9373 193.367 96.8201 194.781 96.8201C196.195 96.8201 197.047 97.9216 197.047 99.7498V99.7654C197.047 101.586 196.195 102.695 194.781 102.695ZM203.086 100.25L206.125 104H208.219L204.461 99.4685L208.062 95.5154H206.086L203.078 98.9841H202.656V95.5154H200.961V104H202.656V100.25H203.086ZM213.188 104.164C215.359 104.164 216.531 102.914 216.812 101.797L216.828 101.726L215.195 101.734L215.164 101.797C214.961 102.234 214.312 102.773 213.227 102.773C211.828 102.773 210.938 101.828 210.906 100.203H216.922V99.6091C216.922 97.0623 215.469 95.3513 213.102 95.3513C210.734 95.3513 209.203 97.1248 209.203 99.7732V99.781C209.203 102.469 210.703 104.164 213.188 104.164ZM213.109 96.7419C214.258 96.7419 215.109 97.4763 215.242 98.9919H210.93C211.078 97.531 211.953 96.7419 213.109 96.7419ZM224.898 95.5154H217.859V96.8513H220.531V104H222.227V96.8513H224.898V95.5154ZM226.789 104H228.469L232.305 98.0232H232.453V104H234.133V95.5154H232.453L228.617 101.469H228.469V95.5154H226.789V104ZM242.273 104H243.961V95.5154H242.273V98.9373H238.422V95.5154H236.727V104H238.422V100.281H242.273V104ZM252.141 96.8513V95.5154H246.539V104H248.234V96.8513H252.141Z" fill="#7B8CA6"/>
<path d="M244.977 133H246.727V121.726H244.977L242.008 123.836V125.554L244.844 123.531H244.977V133ZM258.273 133.273C260.867 133.273 262.438 131 262.438 127.367V127.351C262.438 123.719 260.867 121.453 258.273 121.453C255.672 121.453 254.109 123.719 254.109 127.351V127.367C254.109 131 255.672 133.273 258.273 133.273ZM258.273 131.82C256.758 131.82 255.875 130.125 255.875 127.367V127.351C255.875 124.594 256.758 122.914 258.273 122.914C259.781 122.914 260.672 124.594 260.672 127.351V127.367C260.672 130.125 259.781 131.82 258.273 131.82ZM268.664 133.273C271.258 133.273 272.828 131 272.828 127.367V127.351C272.828 123.719 271.258 121.453 268.664 121.453C266.062 121.453 264.5 123.719 264.5 127.351V127.367C264.5 131 266.062 133.273 268.664 133.273ZM268.664 131.82C267.148 131.82 266.266 130.125 266.266 127.367V127.351C266.266 124.594 267.148 122.914 268.664 122.914C270.172 122.914 271.062 124.594 271.062 127.351V127.367C271.062 130.125 270.172 131.82 268.664 131.82ZM279.055 133.273C281.648 133.273 283.219 131 283.219 127.367V127.351C283.219 123.719 281.648 121.453 279.055 121.453C276.453 121.453 274.891 123.719 274.891 127.351V127.367C274.891 131 276.453 133.273 279.055 133.273ZM279.055 131.82C277.539 131.82 276.656 130.125 276.656 127.367V127.351C276.656 124.594 277.539 122.914 279.055 122.914C280.562 122.914 281.453 124.594 281.453 127.351V127.367C281.453 130.125 280.562 131.82 279.055 131.82ZM293.82 133.273C296.414 133.273 297.984 131 297.984 127.367V127.351C297.984 123.719 296.414 121.453 293.82 121.453C291.219 121.453 289.656 123.719 289.656 127.351V127.367C289.656 131 291.219 133.273 293.82 133.273ZM293.82 131.82C292.305 131.82 291.422 130.125 291.422 127.367V127.351C291.422 124.594 292.305 122.914 293.82 122.914C295.328 122.914 296.219 124.594 296.219 127.351V127.367C296.219 130.125 295.328 131.82 293.82 131.82ZM304.211 133.273C306.805 133.273 308.375 131 308.375 127.367V127.351C308.375 123.719 306.805 121.453 304.211 121.453C301.609 121.453 300.047 123.719 300.047 127.351V127.367C300.047 131 301.609 133.273 304.211 133.273ZM304.211 131.82C302.695 131.82 301.812 130.125 301.812 127.367V127.351C301.812 124.594 302.695 122.914 304.211 122.914C305.719 122.914 306.609 124.594 306.609 127.351V127.367C306.609 130.125 305.719 131.82 304.211 131.82ZM314.602 133.273C317.195 133.273 318.766 131 318.766 127.367V127.351C318.766 123.719 317.195 121.453 314.602 121.453C312 121.453 310.438 123.719 310.438 127.351V127.367C310.438 131 312 133.273 314.602 133.273ZM314.602 131.82C313.086 131.82 312.203 130.125 312.203 127.367V127.351C312.203 124.594 313.086 122.914 314.602 122.914C316.109 122.914 317 124.594 317 127.351V127.367C317 130.125 316.109 131.82 314.602 131.82Z" fill="#7B8CA6"/>
<path d="M336 113.5L336.053 113.003C336.035 113.001 336.018 113 336 113V113.5ZM156 113C155.724 113 155.5 113.224 155.5 113.5C155.5 113.776 155.724 114 156 114L156 113ZM380.397 118.504C380.397 119.977 381.59 121.17 383.063 121.17C384.536 121.17 385.73 119.977 385.73 118.504C385.73 117.031 384.536 115.837 383.063 115.837C381.59 115.837 380.397 117.031 380.397 118.504ZM336 113L156 113L156 114L336 114V113ZM335.947 113.997L383.01 119.001L383.116 118.007L336.053 113.003L335.947 113.997Z" fill="#7B8CA6"/>
<path d="M367.531 34.5623C373.314 34.5623 377.34 30.9061 377.34 25.492C377.34 20.658 373.895 17.2479 369.043 17.2479C366.459 17.2479 364.385 18.2674 363.348 19.9022H363.242L363.84 12.8533H373.859C375.195 12.8533 376.039 12.0272 376.039 10.744C376.039 9.46075 375.178 8.63458 373.859 8.63458H362.732C360.676 8.63458 359.568 9.49591 359.393 11.6404L358.654 20.9393C358.637 21.0272 358.637 21.0799 358.637 21.1502C358.566 22.574 359.393 23.7869 361.133 23.7869C362.311 23.7869 362.838 23.5233 363.875 22.5565C364.771 21.6951 366.037 21.0447 367.549 21.0447C370.309 21.0447 372.277 22.9432 372.277 25.6151C372.277 28.3572 370.291 30.3436 367.531 30.3436C365.246 30.3436 363.752 29.2361 362.838 27.408C362.24 26.4588 361.572 26.0897 360.518 26.0897C359.146 26.0897 358.303 26.8983 358.303 28.2518C358.303 28.8846 358.461 29.4295 358.725 29.992C359.99 32.6815 363.506 34.5623 367.531 34.5623ZM386.674 34.369C387.395 34.369 387.834 34.1053 388.344 33.3143L396.166 21.7479L403.496 10.9901C403.76 10.5858 403.9 10.2166 403.9 9.79474C403.9 8.89825 403.18 8.24786 402.248 8.24786C401.422 8.24786 401 8.52911 400.455 9.33771L392.914 20.5174L385.338 31.6092C385.074 31.9959 384.934 32.3299 384.934 32.8397C384.934 33.7889 385.76 34.369 386.674 34.369ZM385.268 21.9412C388.783 21.9412 390.998 19.3397 390.998 15.0858C390.998 10.7791 388.766 8.28302 385.268 8.28302C381.752 8.28302 379.52 10.7967 379.52 15.0858C379.52 19.3572 381.734 21.9412 385.268 21.9412ZM385.268 19.0936C384.037 19.0936 383.281 17.8279 383.281 15.0858C383.281 12.3436 384.055 11.1307 385.268 11.1307C386.48 11.1307 387.236 12.3436 387.236 15.0858C387.236 17.8279 386.48 19.0936 385.268 19.0936ZM403.619 34.3514C407.152 34.3514 409.367 31.7498 409.367 27.4783C409.367 23.1717 407.117 20.6756 403.619 20.6756C400.121 20.6756 397.871 23.1893 397.871 27.4783C397.871 31.7674 400.086 34.3514 403.619 34.3514ZM403.619 31.5037C402.406 31.5037 401.633 30.2205 401.633 27.4959C401.633 24.7361 402.406 23.5233 403.619 23.5233C404.832 23.5233 405.605 24.7361 405.605 27.4783C405.605 30.2205 404.832 31.5037 403.619 31.5037Z" fill="#7B8CA6"/>
<path d="M287.492 33.9998H289.242V30.1483H291.883C294.094 30.1483 295.625 28.6404 295.625 26.4373V26.4217C295.625 24.2108 294.094 22.7264 291.883 22.7264H287.492V33.9998ZM291.445 24.2029C292.961 24.2029 293.844 25.0233 293.844 26.4295V26.4451C293.844 27.8592 292.961 28.6795 291.445 28.6795H289.242V24.2029H291.445ZM301.234 34.1639C303.406 34.1639 304.578 32.9139 304.859 31.7967L304.875 31.7264L303.242 31.7342L303.211 31.7967C303.008 32.2342 302.359 32.7733 301.273 32.7733C299.875 32.7733 298.984 31.8279 298.953 30.2029H304.969V29.6092C304.969 27.0623 303.516 25.3514 301.148 25.3514C298.781 25.3514 297.25 27.1248 297.25 29.7733V29.7811C297.25 32.4686 298.75 34.1639 301.234 34.1639ZM301.156 26.742C302.305 26.742 303.156 27.4764 303.289 28.992H298.977C299.125 27.5311 300 26.742 301.156 26.742ZM310.164 34.1639C312.258 34.1639 313.633 33.0779 313.633 31.5076V31.492C313.633 30.5389 313.055 29.867 311.898 29.6248V29.492C312.781 29.2889 313.344 28.5623 313.344 27.6873V27.6717C313.344 26.2654 312.172 25.3436 310.211 25.3436C308.281 25.3436 307.062 26.2889 306.867 27.7264L306.859 27.7811H308.484L308.492 27.742C308.617 27.1014 309.266 26.6873 310.172 26.6873C311.188 26.6873 311.695 27.1795 311.695 27.8436V27.8592C311.695 28.6404 311.164 29.0545 310.141 29.0545H308.883V30.2889H310.148C311.328 30.2889 311.961 30.6873 311.961 31.5076V31.5233C311.961 32.2889 311.289 32.8279 310.148 32.8279C309.188 32.8279 308.492 32.4217 308.32 31.7498L308.305 31.6951H306.633L306.641 31.7576C306.82 33.2889 308.281 34.1639 310.164 34.1639ZM319.297 34.1639C321.469 34.1639 322.641 32.9139 322.922 31.7967L322.938 31.7264L321.305 31.7342L321.273 31.7967C321.07 32.2342 320.422 32.7733 319.336 32.7733C317.938 32.7733 317.047 31.8279 317.016 30.2029H323.031V29.6092C323.031 27.0623 321.578 25.3514 319.211 25.3514C316.844 25.3514 315.312 27.1248 315.312 29.7733V29.7811C315.312 32.4686 316.812 34.1639 319.297 34.1639ZM319.219 26.742C320.367 26.742 321.219 27.4764 321.352 28.992H317.039C317.188 27.5311 318.062 26.742 319.219 26.742ZM325.203 36.8279H326.898V32.6561H327.023C327.477 33.5701 328.469 34.1404 329.633 34.1404C331.789 34.1404 333.148 32.4529 333.148 29.7654V29.7498C333.148 27.0779 331.773 25.367 329.633 25.367C328.445 25.367 327.516 25.9217 327.023 26.8514H326.898V25.5154H325.203V36.8279ZM329.156 32.6951C327.742 32.6951 326.867 31.5779 326.867 29.7654V29.7498C326.867 27.9373 327.742 26.8201 329.156 26.8201C330.57 26.8201 331.422 27.9217 331.422 29.7498V29.7654C331.422 31.5858 330.57 32.6951 329.156 32.6951ZM335.336 33.9998H339.211C341.078 33.9998 342.195 33.0311 342.195 31.5779V31.5623C342.195 30.5545 341.477 29.7889 340.375 29.6561V29.5233C341.211 29.367 341.812 28.5779 341.812 27.7108V27.6951C341.812 26.3748 340.836 25.5154 339.172 25.5154H335.336V33.9998ZM337.016 29.0701V26.7576H338.828C339.727 26.7576 340.141 27.2186 340.141 27.8983V27.9139C340.141 28.6639 339.664 29.0701 338.648 29.0701H337.016ZM337.016 32.7498V30.2889H338.773C339.906 30.2889 340.461 30.6795 340.461 31.4998V31.5154C340.461 32.2967 339.969 32.7498 338.992 32.7498H337.016Z" fill="#7B8CA6"/>
<path d="M335.977 62.9998H337.727V51.7263H335.977L333.008 53.8357V55.5544L335.844 53.531H335.977V62.9998ZM349.273 63.2732C351.867 63.2732 353.438 60.9998 353.438 57.3669V57.3513C353.438 53.7185 351.867 51.4529 349.273 51.4529C346.672 51.4529 345.109 53.7185 345.109 57.3513V57.3669C345.109 60.9998 346.672 63.2732 349.273 63.2732ZM349.273 61.8201C347.758 61.8201 346.875 60.1248 346.875 57.3669V57.3513C346.875 54.5935 347.758 52.9138 349.273 52.9138C350.781 52.9138 351.672 54.5935 351.672 57.3513V57.3669C351.672 60.1248 350.781 61.8201 349.273 61.8201ZM359.664 63.2732C362.258 63.2732 363.828 60.9998 363.828 57.3669V57.3513C363.828 53.7185 362.258 51.4529 359.664 51.4529C357.062 51.4529 355.5 53.7185 355.5 57.3513V57.3669C355.5 60.9998 357.062 63.2732 359.664 63.2732ZM359.664 61.8201C358.148 61.8201 357.266 60.1248 357.266 57.3669V57.3513C357.266 54.5935 358.148 52.9138 359.664 52.9138C361.172 52.9138 362.062 54.5935 362.062 57.3513V57.3669C362.062 60.1248 361.172 61.8201 359.664 61.8201ZM370.055 63.2732C372.648 63.2732 374.219 60.9998 374.219 57.3669V57.3513C374.219 53.7185 372.648 51.4529 370.055 51.4529C367.453 51.4529 365.891 53.7185 365.891 57.3513V57.3669C365.891 60.9998 367.453 63.2732 370.055 63.2732ZM370.055 61.8201C368.539 61.8201 367.656 60.1248 367.656 57.3669V57.3513C367.656 54.5935 368.539 52.9138 370.055 52.9138C371.562 52.9138 372.453 54.5935 372.453 57.3513V57.3669C372.453 60.1248 371.562 61.8201 370.055 61.8201ZM384.82 63.2732C387.414 63.2732 388.984 60.9998 388.984 57.3669V57.3513C388.984 53.7185 387.414 51.4529 384.82 51.4529C382.219 51.4529 380.656 53.7185 380.656 57.3513V57.3669C380.656 60.9998 382.219 63.2732 384.82 63.2732ZM384.82 61.8201C383.305 61.8201 382.422 60.1248 382.422 57.3669V57.3513C382.422 54.5935 383.305 52.9138 384.82 52.9138C386.328 52.9138 387.219 54.5935 387.219 57.3513V57.3669C387.219 60.1248 386.328 61.8201 384.82 61.8201ZM395.211 63.2732C397.805 63.2732 399.375 60.9998 399.375 57.3669V57.3513C399.375 53.7185 397.805 51.4529 395.211 51.4529C392.609 51.4529 391.047 53.7185 391.047 57.3513V57.3669C391.047 60.9998 392.609 63.2732 395.211 63.2732ZM395.211 61.8201C393.695 61.8201 392.812 60.1248 392.812 57.3669V57.3513C392.812 54.5935 393.695 52.9138 395.211 52.9138C396.719 52.9138 397.609 54.5935 397.609 57.3513V57.3669C397.609 60.1248 396.719 61.8201 395.211 61.8201ZM405.602 63.2732C408.195 63.2732 409.766 60.9998 409.766 57.3669V57.3513C409.766 53.7185 408.195 51.4529 405.602 51.4529C403 51.4529 401.438 53.7185 401.438 57.3513V57.3669C401.438 60.9998 403 63.2732 405.602 63.2732ZM405.602 61.8201C404.086 61.8201 403.203 60.1248 403.203 57.3669V57.3513C403.203 54.5935 404.086 52.9138 405.602 52.9138C407.109 52.9138 408 54.5935 408 57.3513V57.3669C408 60.1248 407.109 61.8201 405.602 61.8201Z" fill="#7B8CA6"/>
<path d="M427 43.4998L427.399 43.1983C427.304 43.0733 427.157 42.9998 427 42.9998V43.4998ZM275 42.9998C274.724 42.9998 274.5 43.2236 274.5 43.4998C274.5 43.7759 274.724 43.9998 275 43.9998L275 42.9998ZM457.737 87.7041C457.737 89.1769 458.931 90.3708 460.403 90.3708C461.876 90.3708 463.07 89.1769 463.07 87.7041C463.07 86.2313 461.876 85.0374 460.403 85.0374C458.931 85.0374 457.737 86.2313 457.737 87.7041ZM427 42.9998L275 42.9998L275 43.9998L427 43.9998V42.9998ZM426.601 43.8012L460.004 88.0055L460.802 87.4027L427.399 43.1983L426.601 43.8012Z" fill="#7B8CA6"/>
<defs>
<filter id="filter0_d_201_2" x="410.985" y="224.985" width="204.029" height="204.029" filterUnits="userSpaceOnUse" color-interpolation-filters="sRGB">
<feFlood flood-opacity="0" result="BackgroundImageFix"/>
<feColorMatrix in="SourceAlpha" type="matrix" values="0 0 0 0 0 0 0 0 0 0 0 0 0 0 0 0 0 0 127 0" result="hardAlpha"/>
<feOffset/>
<feGaussianBlur stdDeviation="8"/>
<feComposite in2="hardAlpha" operator="out"/>
<feColorMatrix type="matrix" values="0 0 0 0 0.113725 0 0 0 0 0.14902 0 0 0 0 0.223529 0 0 0 1 0"/>
<feBlend mode="normal" in2="BackgroundImageFix" result="effect1_dropShadow_201_2"/>
<feBlend mode="normal" in="SourceGraphic" in2="effect1_dropShadow_201_2" result="shape"/>
</filter>
</defs>
</svg>
