<svg width="842" height="664" viewBox="0 0 842 664" fill="none" xmlns="http://www.w3.org/2000/svg">
<g clip-path="url(#clip0_739_177)">
<path d="M524 511C606.843 511 674 443.843 674 361C674 278.157 606.843 211 524 211C441.157 211 374 278.157 374 361C374 443.843 441.157 511 524 511Z" stroke="#465974" stroke-width="2" stroke-linecap="round" stroke-dasharray="12 12"/>
<path d="M524 477C588.065 477 640 425.065 640 361C640 296.935 588.065 245 524 245C459.935 245 408 296.935 408 361C408 425.065 459.935 477 524 477Z" stroke="#7B8CA6" stroke-linecap="round"/>
<path d="M524 535C620.098 535 698 457.098 698 361C698 264.902 620.098 187 524 187C427.902 187 350 264.902 350 361C350 457.098 427.902 535 524 535Z" stroke="#101B29" stroke-width="8" stroke-linecap="round"/>
<path d="M527 141C571.509 141 614.99 154.379 651.8 179.4C688.611 204.421 717.05 239.93 733.426 281.316C749.803 322.703 753.361 368.057 743.639 411.491C733.917 454.925 711.364 494.434 678.906 524.89" stroke="#F79933" stroke-width="20" stroke-linecap="round" stroke-linejoin="round"/>
<path d="M657.395 542.669C623.25 567.45 582.75 581.988 540.64 584.58C498.53 587.173 456.553 577.712 419.626 557.306" stroke="#DF425D" stroke-width="20" stroke-linecap="round" stroke-linejoin="round"/>
<path d="M397.332 543.195C367.029 521.389 342.715 492.294 326.639 458.6" stroke="#B4E530" stroke-width="20" stroke-linecap="round" stroke-linejoin="round"/>
<path d="M316.684 434.072C308.516 409.901 304.576 384.504 305.036 358.994" stroke="#2DA5DE" stroke-width="20" stroke-linecap="round" stroke-linejoin="round"/>
<path d="M307.3 331.128C310.963 305.879 318.951 281.45 330.913 258.915" stroke="#2F8977" stroke-width="20" stroke-linecap="round" stroke-linejoin="round"/>
<path d="M346.99 233.075C355.131 221.796 364.314 211.307 374.419 201.746" stroke="#FE7A77" stroke-width="20" stroke-linecap="round" stroke-linejoin="round"/>
<path d="M396.022 183.755C407.253 175.548 419.231 168.415 431.798 162.449" stroke="#FECD60" stroke-width="20" stroke-linecap="round" stroke-linejoin="round"/>
<path d="M459.444 151.528C472.695 147.295 486.314 144.317 500.122 142.633" stroke="#4CB6E2" stroke-width="20" stroke-linecap="round" stroke-linejoin="round"/>
<g filter="url(#filter0_d_739_177)">
<path fill-rule="evenodd" clip-rule="evenodd" d="M512.539 297.003C476.642 303.332 452.673 337.564 459.002 373.461C459.763 377.773 460.926 381.914 462.447 385.851L532.959 373.418C538.397 372.459 543.584 376.09 544.543 381.529C545.502 386.968 541.87 392.155 536.432 393.114L473.28 404.249C487.935 421.809 511.321 431.254 535.461 426.997C571.358 420.668 595.327 386.436 588.997 350.539C588.237 346.226 587.073 342.086 585.553 338.149L514.293 350.714C508.854 351.673 503.667 348.041 502.708 342.602C501.749 337.163 505.381 331.977 510.82 331.018L574.719 319.751C560.065 302.191 536.678 292.746 512.539 297.003ZM439.306 376.934C431.059 330.159 462.291 285.554 509.066 277.306C555.841 269.059 600.446 300.291 608.693 347.066C616.941 393.841 585.708 438.446 538.934 446.693C492.159 454.941 447.554 423.708 439.306 376.934Z" fill="#101B29"/>
</g>
</g>
<path d="M690.9 104.369C692.359 104.369 693.432 103.472 693.432 101.785V99.3416H694.873C696.262 99.3416 697.053 98.4802 697.053 97.2322C697.053 95.9841 696.279 95.1052 694.873 95.1052H693.432V82.0798C693.432 79.7068 691.744 78.2478 689.055 78.2478C686.91 78.2478 685.627 79.1267 683.869 81.8162C681.109 85.9119 678.578 89.7791 676.838 92.908C676.047 94.2966 675.73 95.281 675.73 96.3708C675.73 98.1462 677.014 99.3416 678.93 99.3416H688.387V101.785C688.387 103.472 689.441 104.369 690.9 104.369ZM688.492 95.2458H680.371V95.1052C682.428 91.2732 684.766 87.7048 688.387 82.4841H688.492V95.2458ZM709.516 104.562C715.949 104.562 719.852 99.447 719.852 91.2556C719.852 83.0642 715.914 78.0544 709.516 78.0544C703.117 78.0544 699.162 83.0818 699.162 91.2732C699.162 99.4822 703.082 104.562 709.516 104.562ZM709.516 100.308C706.387 100.308 704.559 97.0916 704.559 91.2732C704.559 85.5076 706.422 82.3083 709.516 82.3083C712.627 82.3083 714.455 85.49 714.455 91.2732C714.455 97.0916 712.645 100.308 709.516 100.308ZM729.502 104.369C730.223 104.369 730.662 104.105 731.172 103.314L738.994 91.7478L746.324 80.99C746.588 80.5857 746.729 80.2166 746.729 79.7947C746.729 78.8982 746.008 78.2478 745.076 78.2478C744.25 78.2478 743.828 78.5291 743.283 79.3376L735.742 90.5173L728.166 101.609C727.902 101.996 727.762 102.33 727.762 102.84C727.762 103.789 728.588 104.369 729.502 104.369ZM728.096 91.9412C731.611 91.9412 733.826 89.3396 733.826 85.0857C733.826 80.7791 731.594 78.283 728.096 78.283C724.58 78.283 722.348 80.7966 722.348 85.0857C722.348 89.3572 724.562 91.9412 728.096 91.9412ZM728.096 89.0935C726.865 89.0935 726.109 87.8279 726.109 85.0857C726.109 82.3435 726.883 81.1306 728.096 81.1306C729.309 81.1306 730.064 82.3435 730.064 85.0857C730.064 87.8279 729.309 89.0935 728.096 89.0935ZM746.447 104.351C749.98 104.351 752.195 101.75 752.195 97.4783C752.195 93.1716 749.945 90.6755 746.447 90.6755C742.949 90.6755 740.699 93.1892 740.699 97.4783C740.699 101.767 742.914 104.351 746.447 104.351ZM746.447 101.504C745.234 101.504 744.461 100.22 744.461 97.4958C744.461 94.7361 745.234 93.5232 746.447 93.5232C747.66 93.5232 748.434 94.7361 748.434 97.4783C748.434 100.22 747.66 101.504 746.447 101.504Z" fill="#7B8CA6"/>
<path d="M766.914 104H773.945V102.492H768.664V92.7263H766.914V104ZM776.852 93.9998C777.43 93.9998 777.914 93.5232 777.914 92.9451C777.914 92.3591 777.43 91.8826 776.852 91.8826C776.266 91.8826 775.789 92.3591 775.789 92.9451C775.789 93.5232 776.266 93.9998 776.852 93.9998ZM776 104H777.688V95.5154H776V104ZM786.008 106.828H787.695V95.5154H786.008V96.9216H785.906C785.398 95.9607 784.414 95.3669 783.273 95.3669C781.102 95.3669 779.742 97.0623 779.742 99.7498V99.7654C779.742 102.429 781.117 104.14 783.258 104.14C784.469 104.14 785.43 103.617 785.875 102.719H786.008V106.828ZM783.75 102.695C782.328 102.695 781.469 101.586 781.469 99.7654V99.7498C781.469 97.9294 782.328 96.8201 783.742 96.8201C785.148 96.8201 786.039 97.9451 786.039 99.7498V99.7654C786.039 101.562 785.148 102.695 783.75 102.695ZM792.953 104.164C794.188 104.164 795.047 103.633 795.453 102.719H795.586V104H797.273V95.5154H795.586V100.492C795.586 101.859 794.859 102.711 793.5 102.711C792.258 102.711 791.742 102.015 791.742 100.609V95.5154H790.047V101.008C790.047 103.015 791.039 104.164 792.953 104.164ZM800.602 93.9998C801.18 93.9998 801.664 93.5232 801.664 92.9451C801.664 92.3591 801.18 91.8826 800.602 91.8826C800.016 91.8826 799.539 92.3591 799.539 92.9451C799.539 93.5232 800.016 93.9998 800.602 93.9998ZM799.75 104H801.438V95.5154H799.75V104ZM807 104.14C808.188 104.14 809.117 103.594 809.609 102.664H809.742V104H811.43V92.1873H809.742V96.8591H809.609C809.156 95.9451 808.164 95.3669 807 95.3669C804.844 95.3669 803.484 97.0623 803.484 99.7498V99.7654C803.484 102.429 804.867 104.14 807 104.14ZM807.484 102.695C806.062 102.695 805.211 101.586 805.211 99.7654V99.7498C805.211 97.9294 806.062 96.8201 807.484 96.8201C808.891 96.8201 809.766 97.9373 809.766 99.7498V99.7654C809.766 101.578 808.898 102.695 807.484 102.695ZM814.836 93.9998C815.414 93.9998 815.898 93.5232 815.898 92.9451C815.898 92.3591 815.414 91.8826 814.836 91.8826C814.25 91.8826 813.773 92.3591 813.773 92.9451C813.773 93.5232 814.25 93.9998 814.836 93.9998ZM813.984 104H815.672V95.5154H813.984V104ZM821.344 104.054C821.672 104.054 821.984 104.015 822.258 103.969V102.617C822.023 102.64 821.875 102.648 821.617 102.648C820.781 102.648 820.438 102.273 820.438 101.359V96.8513H822.258V95.5154H820.438V93.3748H818.711V95.5154H817.383V96.8513H818.711V101.765C818.711 103.398 819.477 104.054 821.344 104.054ZM825.062 106.984C826.781 106.984 827.641 106.351 828.359 104.328L831.516 95.5154H829.734L827.617 102.297H827.469L825.344 95.5154H823.516L826.594 104.008L826.469 104.445C826.219 105.304 825.742 105.64 824.953 105.64C824.758 105.64 824.547 105.633 824.383 105.609V106.945C824.602 106.969 824.852 106.984 825.062 106.984Z" fill="#7B8CA6"/>
<path d="M679.766 136.211C682.273 136.211 684.039 134.867 684.039 132.953V132.937C684.039 131.515 683.016 130.383 681.539 130.062V130.023C682.805 129.664 683.625 128.719 683.625 127.523V127.508C683.625 125.781 682.016 124.515 679.766 124.515C677.523 124.515 675.906 125.781 675.906 127.508V127.523C675.906 128.719 676.734 129.664 678 130.023V130.062C676.523 130.383 675.5 131.515 675.5 132.937V132.953C675.5 134.867 677.266 136.211 679.766 136.211ZM679.766 129.437C678.508 129.437 677.641 128.703 677.641 127.672V127.656C677.641 126.625 678.508 125.906 679.766 125.906C681.023 125.906 681.891 126.625 681.891 127.656V127.672C681.891 128.703 681.031 129.437 679.766 129.437ZM679.766 134.804C678.328 134.804 677.305 133.984 677.305 132.844V132.828C677.305 131.672 678.32 130.836 679.766 130.836C681.219 130.836 682.234 131.672 682.234 132.828V132.844C682.234 133.984 681.211 134.804 679.766 134.804ZM694.617 136.273C697.211 136.273 698.781 134 698.781 130.367V130.351C698.781 126.719 697.211 124.453 694.617 124.453C692.016 124.453 690.453 126.719 690.453 130.351V130.367C690.453 134 692.016 136.273 694.617 136.273ZM694.617 134.82C693.102 134.82 692.219 133.125 692.219 130.367V130.351C692.219 127.594 693.102 125.914 694.617 125.914C696.125 125.914 697.016 127.594 697.016 130.351V130.367C697.016 133.125 696.125 134.82 694.617 134.82ZM705.008 136.273C707.602 136.273 709.172 134 709.172 130.367V130.351C709.172 126.719 707.602 124.453 705.008 124.453C702.406 124.453 700.844 126.719 700.844 130.351V130.367C700.844 134 702.406 136.273 705.008 136.273ZM705.008 134.82C703.492 134.82 702.609 133.125 702.609 130.367V130.351C702.609 127.594 703.492 125.914 705.008 125.914C706.516 125.914 707.406 127.594 707.406 130.351V130.367C707.406 133.125 706.516 134.82 705.008 134.82ZM715.398 136.273C717.992 136.273 719.562 134 719.562 130.367V130.351C719.562 126.719 717.992 124.453 715.398 124.453C712.797 124.453 711.234 126.719 711.234 130.351V130.367C711.234 134 712.797 136.273 715.398 136.273ZM715.398 134.82C713.883 134.82 713 133.125 713 130.367V130.351C713 127.594 713.883 125.914 715.398 125.914C716.906 125.914 717.797 127.594 717.797 130.351V130.367C717.797 133.125 716.906 134.82 715.398 134.82ZM730.164 136.273C732.758 136.273 734.328 134 734.328 130.367V130.351C734.328 126.719 732.758 124.453 730.164 124.453C727.562 124.453 726 126.719 726 130.351V130.367C726 134 727.562 136.273 730.164 136.273ZM730.164 134.82C728.648 134.82 727.766 133.125 727.766 130.367V130.351C727.766 127.594 728.648 125.914 730.164 125.914C731.672 125.914 732.562 127.594 732.562 130.351V130.367C732.562 133.125 731.672 134.82 730.164 134.82ZM740.555 136.273C743.148 136.273 744.719 134 744.719 130.367V130.351C744.719 126.719 743.148 124.453 740.555 124.453C737.953 124.453 736.391 126.719 736.391 130.351V130.367C736.391 134 737.953 136.273 740.555 136.273ZM740.555 134.82C739.039 134.82 738.156 133.125 738.156 130.367V130.351C738.156 127.594 739.039 125.914 740.555 125.914C742.062 125.914 742.953 127.594 742.953 130.351V130.367C742.953 133.125 742.062 134.82 740.555 134.82ZM750.945 136.273C753.539 136.273 755.109 134 755.109 130.367V130.351C755.109 126.719 753.539 124.453 750.945 124.453C748.344 124.453 746.781 126.719 746.781 130.351V130.367C746.781 134 748.344 136.273 750.945 136.273ZM750.945 134.82C749.43 134.82 748.547 133.125 748.547 130.367V130.351C748.547 127.594 749.43 125.914 750.945 125.914C752.453 125.914 753.344 127.594 753.344 130.351V130.367C753.344 133.125 752.453 134.82 750.945 134.82Z" fill="#7B8CA6"/>
<path d="M841 113.5C841.276 113.5 841.5 113.276 841.5 113C841.5 112.724 841.276 112.5 841 112.5V113.5ZM655.472 113V112.5C655.325 112.5 655.185 112.565 655.09 112.677L655.472 113ZM633.333 136C633.333 137.473 634.527 138.667 636 138.667C637.473 138.667 638.667 137.473 638.667 136C638.667 134.527 637.473 133.333 636 133.333C634.527 133.333 633.333 134.527 633.333 136ZM841 112.5H655.472V113.5H841V112.5ZM655.09 112.677L635.618 135.677L636.382 136.323L655.853 113.323L655.09 112.677Z" fill="#7B8CA6"/>
<path d="M595.754 630H609.799C611.17 630 611.996 629.138 611.996 627.89C611.996 626.607 611.17 625.781 609.799 625.781H600.236V625.676L605.721 620.402C609.869 616.482 611.381 614.549 611.381 611.455C611.381 607.095 607.76 604.072 602.381 604.072C597.582 604.072 594.4 606.691 593.539 609.504C593.416 609.873 593.346 610.242 593.346 610.646C593.346 611.965 594.189 612.808 595.613 612.808C596.756 612.808 597.371 612.316 597.969 611.261C598.883 609.222 600.289 608.203 602.328 608.203C604.596 608.203 606.213 609.697 606.213 611.789C606.213 613.617 605.404 614.847 602.275 617.853L594.717 625.078C593.645 626.062 593.258 626.73 593.258 627.732C593.258 629.068 594.084 630 595.754 630ZM624.934 630.562C631.367 630.562 635.27 625.447 635.27 617.256C635.27 609.064 631.332 604.054 624.934 604.054C618.535 604.054 614.58 609.082 614.58 617.273C614.58 625.482 618.5 630.562 624.934 630.562ZM624.934 626.308C621.805 626.308 619.977 623.092 619.977 617.273C619.977 611.508 621.84 608.308 624.934 608.308C628.045 608.308 629.873 611.49 629.873 617.273C629.873 623.092 628.062 626.308 624.934 626.308ZM644.92 630.369C645.641 630.369 646.08 630.105 646.59 629.314L654.412 617.748L661.742 606.99C662.006 606.586 662.146 606.217 662.146 605.795C662.146 604.898 661.426 604.248 660.494 604.248C659.668 604.248 659.246 604.529 658.701 605.338L651.16 616.517L643.584 627.609C643.32 627.996 643.18 628.33 643.18 628.84C643.18 629.789 644.006 630.369 644.92 630.369ZM643.514 617.941C647.029 617.941 649.244 615.34 649.244 611.086C649.244 606.779 647.012 604.283 643.514 604.283C639.998 604.283 637.766 606.797 637.766 611.086C637.766 615.357 639.98 617.941 643.514 617.941ZM643.514 615.094C642.283 615.094 641.527 613.828 641.527 611.086C641.527 608.344 642.301 607.131 643.514 607.131C644.727 607.131 645.482 608.344 645.482 611.086C645.482 613.828 644.727 615.094 643.514 615.094ZM661.865 630.351C665.398 630.351 667.613 627.75 667.613 623.478C667.613 619.172 665.363 616.676 661.865 616.676C658.367 616.676 656.117 619.189 656.117 623.478C656.117 627.767 658.332 630.351 661.865 630.351ZM661.865 627.504C660.652 627.504 659.879 626.22 659.879 623.496C659.879 620.736 660.652 619.523 661.865 619.523C663.078 619.523 663.852 620.736 663.852 623.478C663.852 626.22 663.078 627.504 661.865 627.504Z" fill="#7B8CA6"/>
<path d="M682.914 630H686.984C690.344 630 692.289 627.922 692.289 624.344V624.328C692.289 620.789 690.328 618.726 686.984 618.726H682.914V630ZM684.664 628.492V620.234H686.789C689.125 620.234 690.508 621.758 690.508 624.351V624.367C690.508 626.984 689.148 628.492 686.789 628.492H684.664ZM698.031 630.164C700.203 630.164 701.375 628.914 701.656 627.797L701.672 627.726L700.039 627.734L700.008 627.797C699.805 628.234 699.156 628.773 698.07 628.773C696.672 628.773 695.781 627.828 695.75 626.203H701.766V625.609C701.766 623.062 700.312 621.351 697.945 621.351C695.578 621.351 694.047 623.125 694.047 625.773V625.781C694.047 628.469 695.547 630.164 698.031 630.164ZM697.953 622.742C699.102 622.742 699.953 623.476 700.086 624.992H695.773C695.922 623.531 696.797 622.742 697.953 622.742ZM705.93 630H707.734L710.797 621.515H709.016L706.906 628.281H706.773L704.656 621.515H702.859L705.93 630ZM715.734 630.164C717.906 630.164 719.078 628.914 719.359 627.797L719.375 627.726L717.742 627.734L717.711 627.797C717.508 628.234 716.859 628.773 715.773 628.773C714.375 628.773 713.484 627.828 713.453 626.203H719.469V625.609C719.469 623.062 718.016 621.351 715.648 621.351C713.281 621.351 711.75 623.125 711.75 625.773V625.781C711.75 628.469 713.25 630.164 715.734 630.164ZM715.656 622.742C716.805 622.742 717.656 623.476 717.789 624.992H713.477C713.625 623.531 714.5 622.742 715.656 622.742ZM721.562 630H723.258V618.187H721.562V630ZM729.375 630.164C731.859 630.164 733.383 628.5 733.383 625.765V625.75C733.383 623.015 731.852 621.351 729.375 621.351C726.891 621.351 725.359 623.023 725.359 625.75V625.765C725.359 628.5 726.883 630.164 729.375 630.164ZM729.375 628.75C727.914 628.75 727.094 627.648 727.094 625.765V625.75C727.094 623.867 727.914 622.765 729.375 622.765C730.828 622.765 731.656 623.867 731.656 625.75V625.765C731.656 627.64 730.828 628.75 729.375 628.75ZM735.406 632.828H737.102V628.656H737.227C737.68 629.57 738.672 630.14 739.836 630.14C741.992 630.14 743.352 628.453 743.352 625.765V625.75C743.352 623.078 741.977 621.367 739.836 621.367C738.648 621.367 737.719 621.922 737.227 622.851H737.102V621.515H735.406V632.828ZM739.359 628.695C737.945 628.695 737.07 627.578 737.07 625.765V625.75C737.07 623.937 737.945 622.82 739.359 622.82C740.773 622.82 741.625 623.922 741.625 625.75V625.765C741.625 627.586 740.773 628.695 739.359 628.695ZM748.953 630.164C751.125 630.164 752.297 628.914 752.578 627.797L752.594 627.726L750.961 627.734L750.93 627.797C750.727 628.234 750.078 628.773 748.992 628.773C747.594 628.773 746.703 627.828 746.672 626.203H752.688V625.609C752.688 623.062 751.234 621.351 748.867 621.351C746.5 621.351 744.969 623.125 744.969 625.773V625.781C744.969 628.469 746.469 630.164 748.953 630.164ZM748.875 622.742C750.023 622.742 750.875 623.476 751.008 624.992H746.695C746.844 623.531 747.719 622.742 748.875 622.742ZM754.703 630H756.398V624.929C756.398 623.703 757.281 622.906 758.578 622.906C758.898 622.906 759.188 622.945 759.492 623.008V621.445C759.32 621.406 759.023 621.367 758.75 621.367C757.617 621.367 756.828 621.898 756.523 622.797H756.398V621.515H754.703V630ZM764.023 630.164C766.039 630.164 767.539 629.094 767.539 627.523V627.508C767.539 626.281 766.758 625.586 765.125 625.203L763.781 624.898C762.828 624.672 762.438 624.344 762.438 623.812V623.797C762.438 623.117 763.109 622.656 764.039 622.656C764.992 622.656 765.594 623.101 765.758 623.695V623.711H767.375V623.703C767.227 622.32 765.984 621.351 764.047 621.351C762.125 621.351 760.75 622.414 760.75 623.89V623.898C760.75 625.14 761.492 625.867 763.094 626.234L764.445 626.547C765.43 626.773 765.828 627.133 765.828 627.664V627.679C765.828 628.375 765.102 628.851 764.055 628.851C763.047 628.851 762.43 628.422 762.219 627.781L762.211 627.773H760.516V627.781C760.68 629.203 761.977 630.164 764.023 630.164Z" fill="#7B8CA6"/>
<path d="M597.891 662H599.578V659.758H601.133V658.273H599.578V650.726H597.086C595.531 653.062 593.875 655.726 592.391 658.273V659.758H597.891V662ZM594.07 658.304V658.195C595.227 656.219 596.602 654.023 597.812 652.203H597.914V658.304H594.07ZM611.617 662.273C614.211 662.273 615.781 660 615.781 656.367V656.351C615.781 652.719 614.211 650.453 611.617 650.453C609.016 650.453 607.453 652.719 607.453 656.351V656.367C607.453 660 609.016 662.273 611.617 662.273ZM611.617 660.82C610.102 660.82 609.219 659.125 609.219 656.367V656.351C609.219 653.594 610.102 651.914 611.617 651.914C613.125 651.914 614.016 653.594 614.016 656.351V656.367C614.016 659.125 613.125 660.82 611.617 660.82ZM622.008 662.273C624.602 662.273 626.172 660 626.172 656.367V656.351C626.172 652.719 624.602 650.453 622.008 650.453C619.406 650.453 617.844 652.719 617.844 656.351V656.367C617.844 660 619.406 662.273 622.008 662.273ZM622.008 660.82C620.492 660.82 619.609 659.125 619.609 656.367V656.351C619.609 653.594 620.492 651.914 622.008 651.914C623.516 651.914 624.406 653.594 624.406 656.351V656.367C624.406 659.125 623.516 660.82 622.008 660.82ZM632.398 662.273C634.992 662.273 636.562 660 636.562 656.367V656.351C636.562 652.719 634.992 650.453 632.398 650.453C629.797 650.453 628.234 652.719 628.234 656.351V656.367C628.234 660 629.797 662.273 632.398 662.273ZM632.398 660.82C630.883 660.82 630 659.125 630 656.367V656.351C630 653.594 630.883 651.914 632.398 651.914C633.906 651.914 634.797 653.594 634.797 656.351V656.367C634.797 659.125 633.906 660.82 632.398 660.82ZM647.164 662.273C649.758 662.273 651.328 660 651.328 656.367V656.351C651.328 652.719 649.758 650.453 647.164 650.453C644.562 650.453 643 652.719 643 656.351V656.367C643 660 644.562 662.273 647.164 662.273ZM647.164 660.82C645.648 660.82 644.766 659.125 644.766 656.367V656.351C644.766 653.594 645.648 651.914 647.164 651.914C648.672 651.914 649.562 653.594 649.562 656.351V656.367C649.562 659.125 648.672 660.82 647.164 660.82ZM657.555 662.273C660.148 662.273 661.719 660 661.719 656.367V656.351C661.719 652.719 660.148 650.453 657.555 650.453C654.953 650.453 653.391 652.719 653.391 656.351V656.367C653.391 660 654.953 662.273 657.555 662.273ZM657.555 660.82C656.039 660.82 655.156 659.125 655.156 656.367V656.351C655.156 653.594 656.039 651.914 657.555 651.914C659.062 651.914 659.953 653.594 659.953 656.351V656.367C659.953 659.125 659.062 660.82 657.555 660.82ZM667.945 662.273C670.539 662.273 672.109 660 672.109 656.367V656.351C672.109 652.719 670.539 650.453 667.945 650.453C665.344 650.453 663.781 652.719 663.781 656.351V656.367C663.781 660 665.344 662.273 667.945 662.273ZM667.945 660.82C666.43 660.82 665.547 659.125 665.547 656.367V656.351C665.547 653.594 666.43 651.914 667.945 651.914C669.453 651.914 670.344 653.594 670.344 656.351V656.367C670.344 659.125 669.453 660.82 667.945 660.82Z" fill="#7B8CA6"/>
<path d="M780 639.5C780.276 639.5 780.5 639.276 780.5 639C780.5 638.724 780.276 638.5 780 638.5V639.5ZM570.202 639L569.762 639.237C569.849 639.399 570.018 639.5 570.202 639.5V639ZM544.333 596C544.333 597.473 545.527 598.667 547 598.667C548.473 598.667 549.667 597.473 549.667 596C549.667 594.527 548.473 593.333 547 593.333C545.527 593.333 544.333 594.527 544.333 596ZM780 638.5H570.202V639.5H780V638.5ZM570.642 638.763L547.44 595.763L546.56 596.237L569.762 639.237L570.642 638.763Z" fill="#7B8CA6"/>
<path d="M213.258 562.369C214.822 562.369 215.877 561.314 215.877 559.714V539.218C215.877 537.39 214.752 536.248 212.871 536.248C211.781 536.248 210.938 536.406 209.707 537.25L204.68 540.73C203.854 541.31 203.537 541.908 203.537 542.716C203.537 543.841 204.328 544.615 205.4 544.615C205.945 544.615 206.314 544.492 206.807 544.14L210.516 541.556H210.621V559.714C210.621 561.314 211.693 562.369 213.258 562.369ZM231.609 562.562C238.043 562.562 241.945 557.447 241.945 549.255C241.945 541.064 238.008 536.054 231.609 536.054C225.211 536.054 221.256 541.082 221.256 549.273C221.256 557.482 225.176 562.562 231.609 562.562ZM231.609 558.308C228.48 558.308 226.652 555.091 226.652 549.273C226.652 543.507 228.516 540.308 231.609 540.308C234.721 540.308 236.549 543.49 236.549 549.273C236.549 555.091 234.738 558.308 231.609 558.308ZM251.596 562.369C252.316 562.369 252.756 562.105 253.266 561.314L261.088 549.748L268.418 538.99C268.682 538.586 268.822 538.216 268.822 537.795C268.822 536.898 268.102 536.248 267.17 536.248C266.344 536.248 265.922 536.529 265.377 537.338L257.836 548.517L250.26 559.609C249.996 559.996 249.855 560.33 249.855 560.839C249.855 561.789 250.682 562.369 251.596 562.369ZM250.189 549.941C253.705 549.941 255.92 547.339 255.92 543.086C255.92 538.779 253.688 536.283 250.189 536.283C246.674 536.283 244.441 538.797 244.441 543.086C244.441 547.357 246.656 549.941 250.189 549.941ZM250.189 547.093C248.959 547.093 248.203 545.828 248.203 543.086C248.203 540.343 248.977 539.13 250.189 539.13C251.402 539.13 252.158 540.343 252.158 543.086C252.158 545.828 251.402 547.093 250.189 547.093ZM268.541 562.351C272.074 562.351 274.289 559.75 274.289 555.478C274.289 551.172 272.039 548.675 268.541 548.675C265.043 548.675 262.793 551.189 262.793 555.478C262.793 559.767 265.008 562.351 268.541 562.351ZM268.541 559.504C267.328 559.504 266.555 558.22 266.555 555.496C266.555 552.736 267.328 551.523 268.541 551.523C269.754 551.523 270.527 552.736 270.527 555.478C270.527 558.22 269.754 559.504 268.541 559.504Z" fill="#7B8CA6"/>
<path d="M162.914 560H164.664V548.726H162.914V560ZM172.117 560.273C174.633 560.273 176.469 558.836 176.797 556.672V556.625H175.062L175.047 556.656C174.727 557.929 173.609 558.726 172.117 558.726C170.086 558.726 168.82 557.047 168.82 554.375V554.359C168.82 551.679 170.086 550 172.109 550C173.594 550 174.727 550.898 175.055 552.281V552.304H176.789L176.797 552.265C176.5 550.023 174.594 548.453 172.109 548.453C168.977 548.453 167.031 550.718 167.031 554.359V554.375C167.031 558.007 168.984 560.273 172.117 560.273ZM183.906 560.273C187.164 560.273 189.164 557.976 189.164 554.367V554.351C189.164 550.734 187.148 548.453 183.906 548.453C180.672 548.453 178.641 550.726 178.641 554.351V554.367C178.641 557.984 180.625 560.273 183.906 560.273ZM183.906 558.726C181.734 558.726 180.43 557.007 180.43 554.367V554.351C180.43 551.687 181.773 550 183.906 550C186.039 550 187.375 551.687 187.375 554.351V554.367C187.375 557.007 186.047 558.726 183.906 558.726Z" fill="#7B8CA6"/>
<path d="M195.719 589H203.312V587.507H198.102V587.351L200.492 584.968C202.539 582.937 203.133 581.953 203.133 580.672V580.648C203.133 578.789 201.586 577.453 199.484 577.453C197.219 577.453 195.625 578.906 195.617 580.968L195.633 580.984H197.273L197.281 580.961C197.281 579.726 198.125 578.898 199.391 578.898C200.625 578.898 201.383 579.711 201.383 580.812V580.836C201.383 581.75 200.953 582.328 199.461 583.882L195.719 587.812V589ZM213.961 589.273C216.555 589.273 218.125 587 218.125 583.367V583.351C218.125 579.718 216.555 577.453 213.961 577.453C211.359 577.453 209.797 579.718 209.797 583.351V583.367C209.797 587 211.359 589.273 213.961 589.273ZM213.961 587.82C212.445 587.82 211.562 586.125 211.562 583.367V583.351C211.562 580.593 212.445 578.914 213.961 578.914C215.469 578.914 216.359 580.593 216.359 583.351V583.367C216.359 586.125 215.469 587.82 213.961 587.82ZM224.352 589.273C226.945 589.273 228.516 587 228.516 583.367V583.351C228.516 579.718 226.945 577.453 224.352 577.453C221.75 577.453 220.188 579.718 220.188 583.351V583.367C220.188 587 221.75 589.273 224.352 589.273ZM224.352 587.82C222.836 587.82 221.953 586.125 221.953 583.367V583.351C221.953 580.593 222.836 578.914 224.352 578.914C225.859 578.914 226.75 580.593 226.75 583.351V583.367C226.75 586.125 225.859 587.82 224.352 587.82ZM234.742 589.273C237.336 589.273 238.906 587 238.906 583.367V583.351C238.906 579.718 237.336 577.453 234.742 577.453C232.141 577.453 230.578 579.718 230.578 583.351V583.367C230.578 587 232.141 589.273 234.742 589.273ZM234.742 587.82C233.227 587.82 232.344 586.125 232.344 583.367V583.351C232.344 580.593 233.227 578.914 234.742 578.914C236.25 578.914 237.141 580.593 237.141 583.351V583.367C237.141 586.125 236.25 587.82 234.742 587.82ZM249.508 589.273C252.102 589.273 253.672 587 253.672 583.367V583.351C253.672 579.718 252.102 577.453 249.508 577.453C246.906 577.453 245.344 579.718 245.344 583.351V583.367C245.344 587 246.906 589.273 249.508 589.273ZM249.508 587.82C247.992 587.82 247.109 586.125 247.109 583.367V583.351C247.109 580.593 247.992 578.914 249.508 578.914C251.016 578.914 251.906 580.593 251.906 583.351V583.367C251.906 586.125 251.016 587.82 249.508 587.82ZM259.898 589.273C262.492 589.273 264.062 587 264.062 583.367V583.351C264.062 579.718 262.492 577.453 259.898 577.453C257.297 577.453 255.734 579.718 255.734 583.351V583.367C255.734 587 257.297 589.273 259.898 589.273ZM259.898 587.82C258.383 587.82 257.5 586.125 257.5 583.367V583.351C257.5 580.593 258.383 578.914 259.898 578.914C261.406 578.914 262.297 580.593 262.297 583.351V583.367C262.297 586.125 261.406 587.82 259.898 587.82ZM270.289 589.273C272.883 589.273 274.453 587 274.453 583.367V583.351C274.453 579.718 272.883 577.453 270.289 577.453C267.688 577.453 266.125 579.718 266.125 583.351V583.367C266.125 587 267.688 589.273 270.289 589.273ZM270.289 587.82C268.773 587.82 267.891 586.125 267.891 583.367V583.351C267.891 580.593 268.773 578.914 270.289 578.914C271.797 578.914 272.688 580.593 272.688 583.351V583.367C272.688 586.125 271.797 587.82 270.289 587.82Z" fill="#7B8CA6"/>
<path d="M299.5 567.5V568C299.707 568 299.893 567.872 299.967 567.678L299.5 567.5ZM150.5 567C150.224 567 150 567.223 150 567.5C150 567.776 150.224 568 150.5 568V567ZM317.365 513.826C317.365 515.299 318.558 516.493 320.031 516.493C321.504 516.493 322.698 515.299 322.698 513.826C322.698 512.353 321.504 511.159 320.031 511.159C318.558 511.159 317.365 512.353 317.365 513.826ZM299.5 567H150.5V568H299.5V567ZM299.967 567.678L320.498 514.005L319.564 513.647L299.033 567.321L299.967 567.678Z" fill="#7B8CA6"/>
<path d="M150.627 418.369C151.77 418.369 152.42 417.947 153 416.822L162.404 398.664C163.09 397.328 163.406 396.484 163.406 395.535C163.406 393.724 162.088 392.635 160.242 392.635H147.111C145.846 392.635 144.914 393.461 144.914 394.726C144.914 396.01 145.846 396.853 147.111 396.853H158.045V396.959L148.658 414.537C148.342 415.117 148.201 415.592 148.201 416.207C148.201 417.437 149.133 418.369 150.627 418.369ZM165.814 418.211C167.379 418.211 168.645 416.945 168.645 415.381C168.645 413.799 167.379 412.551 165.814 412.551C164.232 412.551 162.984 413.799 162.984 415.381C162.984 416.945 164.232 418.211 165.814 418.211ZM182.215 418.562C187.998 418.562 192.023 414.906 192.023 409.492C192.023 404.658 188.578 401.248 183.727 401.248C181.143 401.248 179.068 402.267 178.031 403.902H177.926L178.523 396.853H188.543C189.879 396.853 190.723 396.027 190.723 394.744C190.723 393.461 189.861 392.635 188.543 392.635H177.416C175.359 392.635 174.252 393.496 174.076 395.64L173.338 404.939C173.32 405.027 173.32 405.08 173.32 405.15C173.25 406.574 174.076 407.787 175.816 407.787C176.994 407.787 177.521 407.523 178.559 406.556C179.455 405.695 180.721 405.045 182.232 405.045C184.992 405.045 186.961 406.943 186.961 409.615C186.961 412.357 184.975 414.344 182.215 414.344C179.93 414.344 178.436 413.236 177.521 411.408C176.924 410.459 176.256 410.09 175.201 410.09C173.83 410.09 172.986 410.898 172.986 412.252C172.986 412.885 173.145 413.429 173.408 413.992C174.674 416.681 178.189 418.562 182.215 418.562ZM201.357 418.369C202.078 418.369 202.518 418.105 203.027 417.314L210.85 405.748L218.18 394.99C218.443 394.586 218.584 394.217 218.584 393.795C218.584 392.898 217.863 392.248 216.932 392.248C216.105 392.248 215.684 392.529 215.139 393.338L207.598 404.517L200.021 415.609C199.758 415.996 199.617 416.33 199.617 416.84C199.617 417.789 200.443 418.369 201.357 418.369ZM199.951 405.941C203.467 405.941 205.682 403.34 205.682 399.086C205.682 394.779 203.449 392.283 199.951 392.283C196.436 392.283 194.203 394.797 194.203 399.086C194.203 403.357 196.418 405.941 199.951 405.941ZM199.951 403.094C198.721 403.094 197.965 401.828 197.965 399.086C197.965 396.344 198.738 395.131 199.951 395.131C201.164 395.131 201.92 396.344 201.92 399.086C201.92 401.828 201.164 403.094 199.951 403.094ZM218.303 418.351C221.836 418.351 224.051 415.75 224.051 411.478C224.051 407.172 221.801 404.676 218.303 404.676C214.805 404.676 212.555 407.189 212.555 411.478C212.555 415.767 214.77 418.351 218.303 418.351ZM218.303 415.504C217.09 415.504 216.316 414.22 216.316 411.496C216.316 408.736 217.09 407.523 218.303 407.523C219.516 407.523 220.289 408.736 220.289 411.478C220.289 414.22 219.516 415.504 218.303 415.504Z" fill="#7B8CA6"/>
<path d="M67.4141 418H69.1641V414.148H71.8047C74.0156 414.148 75.5469 412.64 75.5469 410.437V410.422C75.5469 408.211 74.0156 406.726 71.8047 406.726H67.4141V418ZM71.3672 408.203C72.8828 408.203 73.7656 409.023 73.7656 410.429V410.445C73.7656 411.859 72.8828 412.679 71.3672 412.679H69.1641V408.203H71.3672ZM79.625 418.14C80.75 418.14 81.6406 417.656 82.1406 416.797H82.2734V418H83.9531V412.195C83.9531 410.414 82.75 409.351 80.6172 409.351C78.6875 409.351 77.3516 410.281 77.1484 411.672L77.1406 411.726H78.7734L78.7812 411.695C78.9844 411.094 79.6016 410.75 80.5391 410.75C81.6875 410.75 82.2734 411.265 82.2734 412.195V412.945L79.9766 413.078C77.9531 413.203 76.8125 414.086 76.8125 415.601V415.617C76.8125 417.156 78.0078 418.14 79.625 418.14ZM78.5 415.547V415.531C78.5 414.765 79.0312 414.344 80.2031 414.273L82.2734 414.14V414.867C82.2734 415.961 81.3438 416.789 80.0781 416.789C79.1641 416.789 78.5 416.328 78.5 415.547ZM86.3438 418H88.0391V412.929C88.0391 411.703 88.9219 410.906 90.2188 410.906C90.5391 410.906 90.8281 410.945 91.1328 411.008V409.445C90.9609 409.406 90.6641 409.367 90.3906 409.367C89.2578 409.367 88.4688 409.898 88.1641 410.797H88.0391V409.515H86.3438V418ZM96.125 418.054C96.4531 418.054 96.7656 418.015 97.0391 417.969V416.617C96.8047 416.64 96.6562 416.648 96.3984 416.648C95.5625 416.648 95.2188 416.273 95.2188 415.359V410.851H97.0391V409.515H95.2188V407.375H93.4922V409.515H92.1641V410.851H93.4922V415.765C93.4922 417.398 94.2578 418.054 96.125 418.054ZM99.0156 418H100.711V413.023C100.711 411.656 101.484 410.804 102.727 410.804C103.969 410.804 104.555 411.5 104.555 412.906V418H106.242V412.508C106.242 410.484 105.195 409.351 103.297 409.351C102.062 409.351 101.25 409.898 100.836 410.804H100.711V409.515H99.0156V418ZM112.172 418.164C114.344 418.164 115.516 416.914 115.797 415.797L115.812 415.726L114.18 415.734L114.148 415.797C113.945 416.234 113.297 416.773 112.211 416.773C110.812 416.773 109.922 415.828 109.891 414.203H115.906V413.609C115.906 411.062 114.453 409.351 112.086 409.351C109.719 409.351 108.188 411.125 108.188 413.773V413.781C108.188 416.469 109.688 418.164 112.172 418.164ZM112.094 410.742C113.242 410.742 114.094 411.476 114.227 412.992H109.914C110.062 411.531 110.938 410.742 112.094 410.742ZM117.922 418H119.617V412.929C119.617 411.703 120.5 410.906 121.797 410.906C122.117 410.906 122.406 410.945 122.711 411.008V409.445C122.539 409.406 122.242 409.367 121.969 409.367C120.836 409.367 120.047 409.898 119.742 410.797H119.617V409.515H117.922V418ZM127.242 418.164C129.258 418.164 130.758 417.094 130.758 415.523V415.508C130.758 414.281 129.977 413.586 128.344 413.203L127 412.898C126.047 412.672 125.656 412.344 125.656 411.812V411.797C125.656 411.117 126.328 410.656 127.258 410.656C128.211 410.656 128.812 411.101 128.977 411.695V411.711H130.594V411.703C130.445 410.32 129.203 409.351 127.266 409.351C125.344 409.351 123.969 410.414 123.969 411.89V411.898C123.969 413.14 124.711 413.867 126.312 414.234L127.664 414.547C128.648 414.773 129.047 415.133 129.047 415.664V415.679C129.047 416.375 128.32 416.851 127.273 416.851C126.266 416.851 125.648 416.422 125.438 415.781L125.43 415.773H123.734V415.781C123.898 417.203 125.195 418.164 127.242 418.164Z" fill="#7B8CA6"/>
<path d="M150.476 449H152.226V437.726H150.476L147.508 439.836V441.554L150.344 439.531H150.476V449ZM163.703 449.273C166.078 449.273 167.75 447.679 167.75 445.367V445.351C167.75 443.187 166.234 441.609 164.117 441.609C163.078 441.609 162.195 442.047 161.719 442.804H161.586L161.93 439.211H167.109V437.726H160.555L159.992 444.273H161.5C161.633 444.015 161.812 443.797 162.016 443.617C162.461 443.211 163.047 443.008 163.734 443.008C165.094 443.008 166.078 443.992 166.078 445.383V445.398C166.078 446.812 165.109 447.804 163.719 447.804C162.484 447.804 161.586 447.015 161.437 446.023L161.43 445.961H159.789L159.797 446.062C159.953 447.89 161.484 449.273 163.703 449.273ZM173.93 449.273C176.523 449.273 178.094 447 178.094 443.367V443.351C178.094 439.719 176.523 437.453 173.93 437.453C171.328 437.453 169.766 439.719 169.766 443.351V443.367C169.766 447 171.328 449.273 173.93 449.273ZM173.93 447.82C172.414 447.82 171.531 446.125 171.531 443.367V443.351C171.531 440.594 172.414 438.914 173.93 438.914C175.437 438.914 176.328 440.594 176.328 443.351V443.367C176.328 446.125 175.437 447.82 173.93 447.82ZM184.32 449.273C186.914 449.273 188.484 447 188.484 443.367V443.351C188.484 439.719 186.914 437.453 184.32 437.453C181.719 437.453 180.156 439.719 180.156 443.351V443.367C180.156 447 181.719 449.273 184.32 449.273ZM184.32 447.82C182.805 447.82 181.922 446.125 181.922 443.367V443.351C181.922 440.594 182.805 438.914 184.32 438.914C185.828 438.914 186.719 440.594 186.719 443.351V443.367C186.719 446.125 185.828 447.82 184.32 447.82ZM199.086 449.273C201.68 449.273 203.25 447 203.25 443.367V443.351C203.25 439.719 201.68 437.453 199.086 437.453C196.484 437.453 194.922 439.719 194.922 443.351V443.367C194.922 447 196.484 449.273 199.086 449.273ZM199.086 447.82C197.57 447.82 196.687 446.125 196.687 443.367V443.351C196.687 440.594 197.57 438.914 199.086 438.914C200.594 438.914 201.484 440.594 201.484 443.351V443.367C201.484 446.125 200.594 447.82 199.086 447.82ZM209.476 449.273C212.07 449.273 213.641 447 213.641 443.367V443.351C213.641 439.719 212.07 437.453 209.476 437.453C206.875 437.453 205.312 439.719 205.312 443.351V443.367C205.312 447 206.875 449.273 209.476 449.273ZM209.476 447.82C207.961 447.82 207.078 446.125 207.078 443.367V443.351C207.078 440.594 207.961 438.914 209.476 438.914C210.984 438.914 211.875 440.594 211.875 443.351V443.367C211.875 446.125 210.984 447.82 209.476 447.82ZM219.867 449.273C222.461 449.273 224.031 447 224.031 443.367V443.351C224.031 439.719 222.461 437.453 219.867 437.453C217.266 437.453 215.703 439.719 215.703 443.351V443.367C215.703 447 217.266 449.273 219.867 449.273ZM219.867 447.82C218.351 447.82 217.469 446.125 217.469 443.367V443.351C217.469 440.594 218.351 438.914 219.867 438.914C221.375 438.914 222.266 440.594 222.266 443.351V443.367C222.266 446.125 221.375 447.82 219.867 447.82Z" fill="#7B8CA6"/>
<path d="M241.5 427.5V428C241.636 428 241.766 427.944 241.86 427.846L241.5 427.5ZM59.5 427C59.2239 427 59 427.224 59 427.5C59 427.776 59.2239 428 59.5 428V427ZM269.48 395.646C269.48 397.119 270.674 398.313 272.146 398.313C273.619 398.313 274.813 397.119 274.813 395.646C274.813 394.173 273.619 392.98 272.146 392.98C270.674 392.98 269.48 394.173 269.48 395.646ZM241.5 427H59.5V428H241.5V427ZM241.86 427.846L272.507 395.993L271.786 395.3L241.14 427.153L241.86 427.846Z" fill="#7B8CA6"/>
<path d="M144.627 307.369C145.77 307.369 146.42 306.947 147 305.822L156.404 287.664C157.09 286.328 157.406 285.484 157.406 284.535C157.406 282.724 156.088 281.635 154.242 281.635H141.111C139.846 281.635 138.914 282.461 138.914 283.726C138.914 285.01 139.846 285.853 141.111 285.853H152.045V285.959L142.658 303.537C142.342 304.117 142.201 304.592 142.201 305.207C142.201 306.437 143.133 307.369 144.627 307.369ZM159.814 307.211C161.379 307.211 162.645 305.945 162.645 304.381C162.645 302.799 161.379 301.551 159.814 301.551C158.232 301.551 156.984 302.799 156.984 304.381C156.984 305.945 158.232 307.211 159.814 307.211ZM176.215 307.562C181.998 307.562 186.023 303.906 186.023 298.492C186.023 293.658 182.578 290.248 177.727 290.248C175.143 290.248 173.068 291.267 172.031 292.902H171.926L172.523 285.853H182.543C183.879 285.853 184.723 285.027 184.723 283.744C184.723 282.461 183.861 281.635 182.543 281.635H171.416C169.359 281.635 168.252 282.496 168.076 284.64L167.338 293.939C167.32 294.027 167.32 294.08 167.32 294.15C167.25 295.574 168.076 296.787 169.816 296.787C170.994 296.787 171.521 296.523 172.559 295.556C173.455 294.695 174.721 294.045 176.232 294.045C178.992 294.045 180.961 295.943 180.961 298.615C180.961 301.357 178.975 303.344 176.215 303.344C173.93 303.344 172.436 302.236 171.521 300.408C170.924 299.459 170.256 299.09 169.201 299.09C167.83 299.09 166.986 299.898 166.986 301.252C166.986 301.885 167.145 302.429 167.408 302.992C168.674 305.681 172.189 307.562 176.215 307.562ZM195.357 307.369C196.078 307.369 196.518 307.105 197.027 306.314L204.85 294.748L212.18 283.99C212.443 283.586 212.584 283.217 212.584 282.795C212.584 281.898 211.863 281.248 210.932 281.248C210.105 281.248 209.684 281.529 209.139 282.338L201.598 293.517L194.021 304.609C193.758 304.996 193.617 305.33 193.617 305.84C193.617 306.789 194.443 307.369 195.357 307.369ZM193.951 294.941C197.467 294.941 199.682 292.34 199.682 288.086C199.682 283.779 197.449 281.283 193.951 281.283C190.436 281.283 188.203 283.797 188.203 288.086C188.203 292.357 190.418 294.941 193.951 294.941ZM193.951 292.094C192.721 292.094 191.965 290.828 191.965 288.086C191.965 285.344 192.738 284.131 193.951 284.131C195.164 284.131 195.92 285.344 195.92 288.086C195.92 290.828 195.164 292.094 193.951 292.094ZM212.303 307.351C215.836 307.351 218.051 304.75 218.051 300.478C218.051 296.172 215.801 293.676 212.303 293.676C208.805 293.676 206.555 296.189 206.555 300.478C206.555 304.767 208.77 307.351 212.303 307.351ZM212.303 304.504C211.09 304.504 210.316 303.22 210.316 300.496C210.316 297.736 211.09 296.523 212.303 296.523C213.516 296.523 214.289 297.736 214.289 300.478C214.289 303.22 213.516 304.504 212.303 304.504Z" fill="#7B8CA6"/>
<path d="M19.0391 303.273C21.5547 303.273 23.3906 301.836 23.7188 299.672V299.625H21.9844L21.9688 299.656C21.6484 300.929 20.5312 301.726 19.0391 301.726C17.0078 301.726 15.7422 300.047 15.7422 297.375V297.359C15.7422 294.679 17.0078 293 19.0312 293C20.5156 293 21.6484 293.898 21.9766 295.281V295.304H23.7109L23.7188 295.265C23.4219 293.023 21.5156 291.453 19.0312 291.453C15.8984 291.453 13.9531 293.719 13.9531 297.359V297.375C13.9531 301.008 15.9062 303.273 19.0391 303.273ZM29.4219 303.164C31.9062 303.164 33.4297 301.5 33.4297 298.765V298.75C33.4297 296.015 31.8984 294.351 29.4219 294.351C26.9375 294.351 25.4062 296.023 25.4062 298.75V298.765C25.4062 301.5 26.9297 303.164 29.4219 303.164ZM29.4219 301.75C27.9609 301.75 27.1406 300.648 27.1406 298.765V298.75C27.1406 296.867 27.9609 295.765 29.4219 295.765C30.875 295.765 31.7031 296.867 31.7031 298.75V298.765C31.7031 300.64 30.875 301.75 29.4219 301.75ZM35.5312 303H37.2266V291.187H35.5312V303ZM39.8281 303H41.5234V291.187H39.8281V303ZM46.375 303.14C47.5 303.14 48.3906 302.656 48.8906 301.797H49.0234V303H50.7031V297.195C50.7031 295.414 49.5 294.351 47.3672 294.351C45.4375 294.351 44.1016 295.281 43.8984 296.672L43.8906 296.726H45.5234L45.5312 296.695C45.7344 296.094 46.3516 295.75 47.2891 295.75C48.4375 295.75 49.0234 296.265 49.0234 297.195V297.945L46.7266 298.078C44.7031 298.203 43.5625 299.086 43.5625 300.601V300.617C43.5625 302.156 44.7578 303.14 46.375 303.14ZM45.25 300.547V300.531C45.25 299.765 45.7812 299.344 46.9531 299.273L49.0234 299.14V299.867C49.0234 300.961 48.0938 301.789 46.8281 301.789C45.9141 301.789 45.25 301.328 45.25 300.547ZM57.6016 303.14C59.7422 303.14 61.1172 301.429 61.1172 298.765V298.75C61.1172 296.062 59.7578 294.367 57.6016 294.367C56.4375 294.367 55.4453 294.945 54.9922 295.859H54.8672V291.187H53.1719V303H54.8672V301.664H54.9922C55.4844 302.594 56.4141 303.14 57.6016 303.14ZM57.125 301.695C55.7109 301.695 54.8359 300.578 54.8359 298.765V298.75C54.8359 296.937 55.7109 295.82 57.125 295.82C58.5391 295.82 59.3906 296.929 59.3906 298.75V298.765C59.3906 300.586 58.5391 301.695 57.125 301.695ZM66.7344 303.164C69.2188 303.164 70.7422 301.5 70.7422 298.765V298.75C70.7422 296.015 69.2109 294.351 66.7344 294.351C64.25 294.351 62.7188 296.023 62.7188 298.75V298.765C62.7188 301.5 64.2422 303.164 66.7344 303.164ZM66.7344 301.75C65.2734 301.75 64.4531 300.648 64.4531 298.765V298.75C64.4531 296.867 65.2734 295.765 66.7344 295.765C68.1875 295.765 69.0156 296.867 69.0156 298.75V298.765C69.0156 300.64 68.1875 301.75 66.7344 301.75ZM72.7656 303H74.4609V297.929C74.4609 296.703 75.3438 295.906 76.6406 295.906C76.9609 295.906 77.25 295.945 77.5547 296.008V294.445C77.3828 294.406 77.0859 294.367 76.8125 294.367C75.6797 294.367 74.8906 294.898 74.5859 295.797H74.4609V294.515H72.7656V303ZM81.4375 303.14C82.5625 303.14 83.4531 302.656 83.9531 301.797H84.0859V303H85.7656V297.195C85.7656 295.414 84.5625 294.351 82.4297 294.351C80.5 294.351 79.1641 295.281 78.9609 296.672L78.9531 296.726H80.5859L80.5938 296.695C80.7969 296.094 81.4141 295.75 82.3516 295.75C83.5 295.75 84.0859 296.265 84.0859 297.195V297.945L81.7891 298.078C79.7656 298.203 78.625 299.086 78.625 300.601V300.617C78.625 302.156 79.8203 303.14 81.4375 303.14ZM80.3125 300.547V300.531C80.3125 299.765 80.8438 299.344 82.0156 299.273L84.0859 299.14V299.867C84.0859 300.961 83.1562 301.789 81.8906 301.789C80.9766 301.789 80.3125 301.328 80.3125 300.547ZM91.3594 303.054C91.6875 303.054 92 303.015 92.2734 302.969V301.617C92.0391 301.64 91.8906 301.648 91.6328 301.648C90.7969 301.648 90.4531 301.273 90.4531 300.359V295.851H92.2734V294.515H90.4531V292.375H88.7266V294.515H87.3984V295.851H88.7266V300.765C88.7266 302.398 89.4922 303.054 91.3594 303.054ZM95.1328 293C95.7109 293 96.1953 292.523 96.1953 291.945C96.1953 291.359 95.7109 290.883 95.1328 290.883C94.5469 290.883 94.0703 291.359 94.0703 291.945C94.0703 292.523 94.5469 293 95.1328 293ZM94.2812 303H95.9688V294.515H94.2812V303ZM102.031 303.164C104.516 303.164 106.039 301.5 106.039 298.765V298.75C106.039 296.015 104.508 294.351 102.031 294.351C99.5469 294.351 98.0156 296.023 98.0156 298.75V298.765C98.0156 301.5 99.5391 303.164 102.031 303.164ZM102.031 301.75C100.57 301.75 99.75 300.648 99.75 298.765V298.75C99.75 296.867 100.57 295.765 102.031 295.765C103.484 295.765 104.312 296.867 104.312 298.75V298.765C104.312 300.64 103.484 301.75 102.031 301.75ZM108.062 303H109.758V298.023C109.758 296.656 110.531 295.804 111.773 295.804C113.016 295.804 113.602 296.5 113.602 297.906V303H115.289V297.508C115.289 295.484 114.242 294.351 112.344 294.351C111.109 294.351 110.297 294.898 109.883 295.804H109.758V294.515H108.062V303ZM120.742 303.164C122.758 303.164 124.258 302.094 124.258 300.523V300.508C124.258 299.281 123.477 298.586 121.844 298.203L120.5 297.898C119.547 297.672 119.156 297.344 119.156 296.812V296.797C119.156 296.117 119.828 295.656 120.758 295.656C121.711 295.656 122.312 296.101 122.477 296.695V296.711H124.094V296.703C123.945 295.32 122.703 294.351 120.766 294.351C118.844 294.351 117.469 295.414 117.469 296.89V296.898C117.469 298.14 118.211 298.867 119.812 299.234L121.164 299.547C122.148 299.773 122.547 300.133 122.547 300.664V300.679C122.547 301.375 121.82 301.851 120.773 301.851C119.766 301.851 119.148 301.422 118.938 300.781L118.93 300.773H117.234V300.781C117.398 302.203 118.695 303.164 120.742 303.164Z" fill="#7B8CA6"/>
<path d="M144.476 334H146.226V322.726H144.476L141.508 324.836V326.554L144.344 324.531H144.476V334ZM157.703 334.273C160.078 334.273 161.75 332.679 161.75 330.367V330.351C161.75 328.187 160.234 326.609 158.117 326.609C157.078 326.609 156.195 327.047 155.719 327.804H155.586L155.93 324.211H161.109V322.726H154.555L153.992 329.273H155.5C155.633 329.015 155.812 328.797 156.016 328.617C156.461 328.211 157.047 328.008 157.734 328.008C159.094 328.008 160.078 328.992 160.078 330.383V330.398C160.078 331.812 159.109 332.804 157.719 332.804C156.484 332.804 155.586 332.015 155.437 331.023L155.43 330.961H153.789L153.797 331.062C153.953 332.89 155.484 334.273 157.703 334.273ZM167.93 334.273C170.523 334.273 172.094 332 172.094 328.367V328.351C172.094 324.719 170.523 322.453 167.93 322.453C165.328 322.453 163.766 324.719 163.766 328.351V328.367C163.766 332 165.328 334.273 167.93 334.273ZM167.93 332.82C166.414 332.82 165.531 331.125 165.531 328.367V328.351C165.531 325.594 166.414 323.914 167.93 323.914C169.437 323.914 170.328 325.594 170.328 328.351V328.367C170.328 331.125 169.437 332.82 167.93 332.82ZM178.32 334.273C180.914 334.273 182.484 332 182.484 328.367V328.351C182.484 324.719 180.914 322.453 178.32 322.453C175.719 322.453 174.156 324.719 174.156 328.351V328.367C174.156 332 175.719 334.273 178.32 334.273ZM178.32 332.82C176.805 332.82 175.922 331.125 175.922 328.367V328.351C175.922 325.594 176.805 323.914 178.32 323.914C179.828 323.914 180.719 325.594 180.719 328.351V328.367C180.719 331.125 179.828 332.82 178.32 332.82ZM193.086 334.273C195.68 334.273 197.25 332 197.25 328.367V328.351C197.25 324.719 195.68 322.453 193.086 322.453C190.484 322.453 188.922 324.719 188.922 328.351V328.367C188.922 332 190.484 334.273 193.086 334.273ZM193.086 332.82C191.57 332.82 190.687 331.125 190.687 328.367V328.351C190.687 325.594 191.57 323.914 193.086 323.914C194.594 323.914 195.484 325.594 195.484 328.351V328.367C195.484 331.125 194.594 332.82 193.086 332.82ZM203.476 334.273C206.07 334.273 207.641 332 207.641 328.367V328.351C207.641 324.719 206.07 322.453 203.476 322.453C200.875 322.453 199.312 324.719 199.312 328.351V328.367C199.312 332 200.875 334.273 203.476 334.273ZM203.476 332.82C201.961 332.82 201.078 331.125 201.078 328.367V328.351C201.078 325.594 201.961 323.914 203.476 323.914C204.984 323.914 205.875 325.594 205.875 328.351V328.367C205.875 331.125 204.984 332.82 203.476 332.82ZM213.867 334.273C216.461 334.273 218.031 332 218.031 328.367V328.351C218.031 324.719 216.461 322.453 213.867 322.453C211.266 322.453 209.703 324.719 209.703 328.351V328.367C209.703 332 211.266 334.273 213.867 334.273ZM213.867 332.82C212.351 332.82 211.469 331.125 211.469 328.367V328.351C211.469 325.594 212.351 323.914 213.867 323.914C215.375 323.914 216.266 325.594 216.266 328.351V328.367C216.266 331.125 215.375 332.82 213.867 332.82Z" fill="#7B8CA6"/>
<path d="M235.5 312.5V313C235.557 313 235.614 312.99 235.668 312.971L235.5 312.5ZM1 312C0.723858 312 0.5 312.224 0.5 312.5C0.5 312.776 0.723858 313 1 313V312ZM274.675 297.525C274.675 298.998 275.869 300.192 277.342 300.192C278.815 300.192 280.008 298.998 280.008 297.525C280.008 296.053 278.815 294.859 277.342 294.859C275.869 294.859 274.675 296.053 274.675 297.525ZM235.5 312H1V313H235.5V312ZM235.668 312.971L277.51 297.996L277.173 297.055L235.332 312.029L235.668 312.971Z" fill="#7B8CA6"/>
<path d="M237.531 212.562C243.314 212.562 247.34 208.906 247.34 203.492C247.34 198.658 243.895 195.248 239.043 195.248C236.459 195.248 234.385 196.267 233.348 197.902H233.242L233.84 190.853H243.859C245.195 190.853 246.039 190.027 246.039 188.744C246.039 187.461 245.178 186.635 243.859 186.635H232.732C230.676 186.635 229.568 187.496 229.393 189.641L228.654 198.939C228.637 199.027 228.637 199.08 228.637 199.15C228.566 200.574 229.393 201.787 231.133 201.787C232.311 201.787 232.838 201.523 233.875 200.557C234.771 199.695 236.037 199.045 237.549 199.045C240.309 199.045 242.277 200.943 242.277 203.615C242.277 206.357 240.291 208.344 237.531 208.344C235.246 208.344 233.752 207.236 232.838 205.408C232.24 204.459 231.572 204.09 230.518 204.09C229.146 204.09 228.303 204.898 228.303 206.252C228.303 206.885 228.461 207.43 228.725 207.992C229.99 210.682 233.506 212.562 237.531 212.562ZM256.674 212.369C257.395 212.369 257.834 212.105 258.344 211.314L266.166 199.748L273.496 188.99C273.76 188.586 273.9 188.217 273.9 187.795C273.9 186.898 273.18 186.248 272.248 186.248C271.422 186.248 271 186.529 270.455 187.338L262.914 198.517L255.338 209.609C255.074 209.996 254.934 210.33 254.934 210.84C254.934 211.789 255.76 212.369 256.674 212.369ZM255.268 199.941C258.783 199.941 260.998 197.34 260.998 193.086C260.998 188.779 258.766 186.283 255.268 186.283C251.752 186.283 249.52 188.797 249.52 193.086C249.52 197.357 251.734 199.941 255.268 199.941ZM255.268 197.094C254.037 197.094 253.281 195.828 253.281 193.086C253.281 190.344 254.055 189.131 255.268 189.131C256.48 189.131 257.236 190.344 257.236 193.086C257.236 195.828 256.48 197.094 255.268 197.094ZM273.619 212.351C277.152 212.351 279.367 209.75 279.367 205.478C279.367 201.172 277.117 198.676 273.619 198.676C270.121 198.676 267.871 201.189 267.871 205.478C267.871 209.767 270.086 212.351 273.619 212.351ZM273.619 209.504C272.406 209.504 271.633 208.221 271.633 205.496C271.633 202.736 272.406 201.523 273.619 201.523C274.832 201.523 275.605 202.736 275.605 205.478C275.605 208.221 274.832 209.504 273.619 209.504Z" fill="#7B8CA6"/>
<path d="M144.414 208H146.164V196.726H144.414V208ZM148.797 208H150.492V203.023C150.492 201.656 151.266 200.805 152.508 200.805C153.75 200.805 154.336 201.5 154.336 202.906V208H156.023V202.508C156.023 200.484 154.977 199.351 153.078 199.351C151.844 199.351 151.031 199.898 150.617 200.805H150.492V199.516H148.797V208ZM160.445 208H162.25L165.312 199.516H163.531L161.422 206.281H161.289L159.172 199.516H157.375L160.445 208ZM170.25 208.164C172.422 208.164 173.594 206.914 173.875 205.797L173.891 205.726L172.258 205.734L172.227 205.797C172.023 206.234 171.375 206.773 170.289 206.773C168.891 206.773 168 205.828 167.969 204.203H173.984V203.609C173.984 201.062 172.531 199.351 170.164 199.351C167.797 199.351 166.266 201.125 166.266 203.773V203.781C166.266 206.469 167.766 208.164 170.25 208.164ZM170.172 200.742C171.32 200.742 172.172 201.476 172.305 202.992H167.992C168.141 201.531 169.016 200.742 170.172 200.742ZM179.086 208.164C181.102 208.164 182.602 207.094 182.602 205.523V205.508C182.602 204.281 181.82 203.586 180.188 203.203L178.844 202.898C177.891 202.672 177.5 202.344 177.5 201.812V201.797C177.5 201.117 178.172 200.656 179.102 200.656C180.055 200.656 180.656 201.101 180.82 201.695V201.711H182.438V201.703C182.289 200.32 181.047 199.351 179.109 199.351C177.188 199.351 175.812 200.414 175.812 201.891V201.898C175.812 203.141 176.555 203.867 178.156 204.234L179.508 204.547C180.492 204.773 180.891 205.133 180.891 205.664V205.68C180.891 206.375 180.164 206.851 179.117 206.851C178.109 206.851 177.492 206.422 177.281 205.781L177.273 205.773H175.578V205.781C175.742 207.203 177.039 208.164 179.086 208.164ZM187.766 208.055C188.094 208.055 188.406 208.016 188.68 207.969V206.617C188.445 206.641 188.297 206.648 188.039 206.648C187.203 206.648 186.859 206.273 186.859 205.359V200.851H188.68V199.516H186.859V197.375H185.133V199.516H183.805V200.851H185.133V205.766C185.133 207.398 185.898 208.055 187.766 208.055ZM194.156 208.164C196.641 208.164 198.164 206.5 198.164 203.766V203.75C198.164 201.016 196.633 199.351 194.156 199.351C191.672 199.351 190.141 201.023 190.141 203.75V203.766C190.141 206.5 191.664 208.164 194.156 208.164ZM194.156 206.75C192.695 206.75 191.875 205.648 191.875 203.766V203.75C191.875 201.867 192.695 200.766 194.156 200.766C195.609 200.766 196.438 201.867 196.438 203.75V203.766C196.438 205.641 195.609 206.75 194.156 206.75ZM200.188 208H201.883V202.93C201.883 201.703 202.766 200.906 204.062 200.906C204.383 200.906 204.672 200.945 204.977 201.008V199.445C204.805 199.406 204.508 199.367 204.234 199.367C203.102 199.367 202.312 199.898 202.008 200.797H201.883V199.516H200.188V208ZM209.508 208.164C211.523 208.164 213.023 207.094 213.023 205.523V205.508C213.023 204.281 212.242 203.586 210.609 203.203L209.266 202.898C208.312 202.672 207.922 202.344 207.922 201.812V201.797C207.922 201.117 208.594 200.656 209.523 200.656C210.477 200.656 211.078 201.101 211.242 201.695V201.711H212.859V201.703C212.711 200.32 211.469 199.351 209.531 199.351C207.609 199.351 206.234 200.414 206.234 201.891V201.898C206.234 203.141 206.977 203.867 208.578 204.234L209.93 204.547C210.914 204.773 211.312 205.133 211.312 205.664V205.68C211.312 206.375 210.586 206.851 209.539 206.851C208.531 206.851 207.914 206.422 207.703 205.781L207.695 205.773H206V205.781C206.164 207.203 207.461 208.164 209.508 208.164Z" fill="#7B8CA6"/>
<path d="M206.476 239H208.226V227.726H206.476L203.508 229.836V231.555L206.344 229.531H206.476V239ZM219.773 239.273C222.367 239.273 223.937 237 223.937 233.367V233.351C223.937 229.719 222.367 227.453 219.773 227.453C217.172 227.453 215.609 229.719 215.609 233.351V233.367C215.609 237 217.172 239.273 219.773 239.273ZM219.773 237.82C218.258 237.82 217.375 236.125 217.375 233.367V233.351C217.375 230.594 218.258 228.914 219.773 228.914C221.281 228.914 222.172 230.594 222.172 233.351V233.367C222.172 236.125 221.281 237.82 219.773 237.82ZM230.164 239.273C232.758 239.273 234.328 237 234.328 233.367V233.351C234.328 229.719 232.758 227.453 230.164 227.453C227.562 227.453 226 229.719 226 233.351V233.367C226 237 227.562 239.273 230.164 239.273ZM230.164 237.82C228.648 237.82 227.766 236.125 227.766 233.367V233.351C227.766 230.594 228.648 228.914 230.164 228.914C231.672 228.914 232.562 230.594 232.562 233.351V233.367C232.562 236.125 231.672 237.82 230.164 237.82ZM240.555 239.273C243.148 239.273 244.719 237 244.719 233.367V233.351C244.719 229.719 243.148 227.453 240.555 227.453C237.953 227.453 236.391 229.719 236.391 233.351V233.367C236.391 237 237.953 239.273 240.555 239.273ZM240.555 237.82C239.039 237.82 238.156 236.125 238.156 233.367V233.351C238.156 230.594 239.039 228.914 240.555 228.914C242.062 228.914 242.953 230.594 242.953 233.351V233.367C242.953 236.125 242.062 237.82 240.555 237.82ZM255.32 239.273C257.914 239.273 259.484 237 259.484 233.367V233.351C259.484 229.719 257.914 227.453 255.32 227.453C252.719 227.453 251.156 229.719 251.156 233.351V233.367C251.156 237 252.719 239.273 255.32 239.273ZM255.32 237.82C253.805 237.82 252.922 236.125 252.922 233.367V233.351C252.922 230.594 253.805 228.914 255.32 228.914C256.828 228.914 257.719 230.594 257.719 233.351V233.367C257.719 236.125 256.828 237.82 255.32 237.82ZM265.711 239.273C268.305 239.273 269.875 237 269.875 233.367V233.351C269.875 229.719 268.305 227.453 265.711 227.453C263.109 227.453 261.547 229.719 261.547 233.351V233.367C261.547 237 263.109 239.273 265.711 239.273ZM265.711 237.82C264.195 237.82 263.312 236.125 263.312 233.367V233.351C263.312 230.594 264.195 228.914 265.711 228.914C267.219 228.914 268.109 230.594 268.109 233.351V233.367C268.109 236.125 267.219 237.82 265.711 237.82ZM276.101 239.273C278.695 239.273 280.266 237 280.266 233.367V233.351C280.266 229.719 278.695 227.453 276.101 227.453C273.5 227.453 271.937 229.719 271.937 233.351V233.367C271.937 237 273.5 239.273 276.101 239.273ZM276.101 237.82C274.586 237.82 273.703 236.125 273.703 233.367V233.351C273.703 230.594 274.586 228.914 276.101 228.914C277.609 228.914 278.5 230.594 278.5 233.351V233.367C278.5 236.125 277.609 237.82 276.101 237.82Z" fill="#7B8CA6"/>
<path d="M297.5 217.5V218C297.605 218 297.708 217.967 297.793 217.905L297.5 217.5ZM133 217C132.724 217 132.5 217.224 132.5 217.5C132.5 217.776 132.724 218 133 218V217ZM319.552 199.586C319.552 201.059 320.746 202.253 322.219 202.253C323.692 202.253 324.885 201.059 324.885 199.586C324.885 198.114 323.692 196.92 322.219 196.92C320.746 196.92 319.552 198.114 319.552 199.586ZM297.5 217H133V218H297.5V217ZM297.793 217.905L322.512 199.991L321.925 199.182L297.207 217.095L297.793 217.905Z" fill="#7B8CA6"/>
<path d="M276.531 129.562C282.314 129.562 286.34 125.906 286.34 120.492C286.34 115.658 282.895 112.248 278.043 112.248C275.459 112.248 273.385 113.267 272.348 114.902H272.242L272.84 107.853H282.859C284.195 107.853 285.039 107.027 285.039 105.744C285.039 104.461 284.178 103.635 282.859 103.635H271.732C269.676 103.635 268.568 104.496 268.393 106.64L267.654 115.939C267.637 116.027 267.637 116.08 267.637 116.15C267.566 117.574 268.393 118.787 270.133 118.787C271.311 118.787 271.838 118.523 272.875 117.556C273.771 116.695 275.037 116.045 276.549 116.045C279.309 116.045 281.277 117.943 281.277 120.615C281.277 123.357 279.291 125.344 276.531 125.344C274.246 125.344 272.752 124.236 271.838 122.408C271.24 121.459 270.572 121.09 269.518 121.09C268.146 121.09 267.303 121.898 267.303 123.252C267.303 123.885 267.461 124.429 267.725 124.992C268.99 127.681 272.506 129.562 276.531 129.562ZM295.674 129.369C296.395 129.369 296.834 129.105 297.344 128.314L305.166 116.748L312.496 105.99C312.76 105.586 312.9 105.217 312.9 104.795C312.9 103.898 312.18 103.248 311.248 103.248C310.422 103.248 310 103.529 309.455 104.338L301.914 115.517L294.338 126.609C294.074 126.996 293.934 127.33 293.934 127.84C293.934 128.789 294.76 129.369 295.674 129.369ZM294.268 116.941C297.783 116.941 299.998 114.34 299.998 110.086C299.998 105.779 297.766 103.283 294.268 103.283C290.752 103.283 288.52 105.797 288.52 110.086C288.52 114.357 290.734 116.941 294.268 116.941ZM294.268 114.094C293.037 114.094 292.281 112.828 292.281 110.086C292.281 107.344 293.055 106.131 294.268 106.131C295.48 106.131 296.236 107.344 296.236 110.086C296.236 112.828 295.48 114.094 294.268 114.094ZM312.619 129.351C316.152 129.351 318.367 126.75 318.367 122.478C318.367 118.172 316.117 115.676 312.619 115.676C309.121 115.676 306.871 118.189 306.871 122.478C306.871 126.767 309.086 129.351 312.619 129.351ZM312.619 126.504C311.406 126.504 310.633 125.22 310.633 122.496C310.633 119.736 311.406 118.523 312.619 118.523C313.832 118.523 314.605 119.736 314.605 122.478C314.605 125.22 313.832 126.504 312.619 126.504Z" fill="#7B8CA6"/>
<path d="M176.414 129H178.008V120.726H178.133L181.438 129H182.734L186.047 120.726H186.164V129H187.758V117.726H185.742L182.148 126.719H182.023L178.43 117.726H176.414V129ZM192.719 129.14C193.844 129.14 194.734 128.656 195.234 127.797H195.367V129H197.047V123.195C197.047 121.414 195.844 120.351 193.711 120.351C191.781 120.351 190.445 121.281 190.242 122.672L190.234 122.726H191.867L191.875 122.695C192.078 122.094 192.695 121.75 193.633 121.75C194.781 121.75 195.367 122.265 195.367 123.195V123.945L193.07 124.078C191.047 124.203 189.906 125.086 189.906 126.601V126.617C189.906 128.156 191.102 129.14 192.719 129.14ZM191.594 126.547V126.531C191.594 125.765 192.125 125.344 193.297 125.273L195.367 125.14V125.867C195.367 126.961 194.438 127.789 193.172 127.789C192.258 127.789 191.594 127.328 191.594 126.547ZM199.438 129H201.133V123.929C201.133 122.703 202.016 121.906 203.312 121.906C203.633 121.906 203.922 121.945 204.227 122.008V120.445C204.055 120.406 203.758 120.367 203.484 120.367C202.352 120.367 201.562 120.898 201.258 121.797H201.133V120.515H199.438V129ZM205.922 129H207.617V125.914L208.344 125.187L211.266 129H213.328L209.555 124.094L213.094 120.515H211.109L207.742 124.094H207.617V117.187H205.922V129ZM218 129.164C220.172 129.164 221.344 127.914 221.625 126.797L221.641 126.726L220.008 126.734L219.977 126.797C219.773 127.234 219.125 127.773 218.039 127.773C216.641 127.773 215.75 126.828 215.719 125.203H221.734V124.609C221.734 122.062 220.281 120.351 217.914 120.351C215.547 120.351 214.016 122.125 214.016 124.773V124.781C214.016 127.469 215.516 129.164 218 129.164ZM217.922 121.742C219.07 121.742 219.922 122.476 220.055 123.992H215.742C215.891 122.531 216.766 121.742 217.922 121.742ZM226.953 129.054C227.281 129.054 227.594 129.015 227.867 128.969V127.617C227.633 127.64 227.484 127.648 227.227 127.648C226.391 127.648 226.047 127.273 226.047 126.359V121.851H227.867V120.515H226.047V118.375H224.32V120.515H222.992V121.851H224.32V126.765C224.32 128.398 225.086 129.054 226.953 129.054ZM230.727 119C231.305 119 231.789 118.523 231.789 117.945C231.789 117.359 231.305 116.883 230.727 116.883C230.141 116.883 229.664 117.359 229.664 117.945C229.664 118.523 230.141 119 230.727 119ZM229.875 129H231.562V120.515H229.875V129ZM234.031 129H235.727V124.023C235.727 122.656 236.5 121.804 237.742 121.804C238.984 121.804 239.57 122.5 239.57 123.906V129H241.258V123.508C241.258 121.484 240.211 120.351 238.312 120.351C237.078 120.351 236.266 120.898 235.852 121.804H235.727V120.515H234.031V129ZM247.211 131.992C249.617 131.992 251.141 130.758 251.141 128.828V120.515H249.453V121.906H249.352C248.859 120.953 247.938 120.367 246.75 120.367C244.547 120.367 243.195 122.078 243.195 124.5V124.515C243.195 126.906 244.539 128.586 246.719 128.586C247.883 128.586 248.82 128.07 249.336 127.148H249.461V128.82C249.461 129.976 248.633 130.633 247.234 130.633C246.086 130.633 245.398 130.219 245.258 129.633L245.25 129.617H243.539L243.523 129.633C243.727 131.047 245.055 131.992 247.211 131.992ZM247.188 127.187C245.742 127.187 244.93 126.086 244.93 124.508V124.492C244.93 122.914 245.742 121.804 247.188 121.804C248.617 121.804 249.492 122.914 249.492 124.492V124.508C249.492 126.094 248.625 127.187 247.188 127.187Z" fill="#7B8CA6"/>
<path d="M245.476 160H247.226V148.726H245.476L242.508 150.836V152.554L245.344 150.531H245.476V160ZM258.773 160.273C261.367 160.273 262.937 158 262.937 154.367V154.351C262.937 150.719 261.367 148.453 258.773 148.453C256.172 148.453 254.609 150.719 254.609 154.351V154.367C254.609 158 256.172 160.273 258.773 160.273ZM258.773 158.82C257.258 158.82 256.375 157.125 256.375 154.367V154.351C256.375 151.594 257.258 149.914 258.773 149.914C260.281 149.914 261.172 151.594 261.172 154.351V154.367C261.172 157.125 260.281 158.82 258.773 158.82ZM269.164 160.273C271.758 160.273 273.328 158 273.328 154.367V154.351C273.328 150.719 271.758 148.453 269.164 148.453C266.562 148.453 265 150.719 265 154.351V154.367C265 158 266.562 160.273 269.164 160.273ZM269.164 158.82C267.648 158.82 266.766 157.125 266.766 154.367V154.351C266.766 151.594 267.648 149.914 269.164 149.914C270.672 149.914 271.562 151.594 271.562 154.351V154.367C271.562 157.125 270.672 158.82 269.164 158.82ZM279.555 160.273C282.148 160.273 283.719 158 283.719 154.367V154.351C283.719 150.719 282.148 148.453 279.555 148.453C276.953 148.453 275.391 150.719 275.391 154.351V154.367C275.391 158 276.953 160.273 279.555 160.273ZM279.555 158.82C278.039 158.82 277.156 157.125 277.156 154.367V154.351C277.156 151.594 278.039 149.914 279.555 149.914C281.062 149.914 281.953 151.594 281.953 154.351V154.367C281.953 157.125 281.062 158.82 279.555 158.82ZM294.32 160.273C296.914 160.273 298.484 158 298.484 154.367V154.351C298.484 150.719 296.914 148.453 294.32 148.453C291.719 148.453 290.156 150.719 290.156 154.351V154.367C290.156 158 291.719 160.273 294.32 160.273ZM294.32 158.82C292.805 158.82 291.922 157.125 291.922 154.367V154.351C291.922 151.594 292.805 149.914 294.32 149.914C295.828 149.914 296.719 151.594 296.719 154.351V154.367C296.719 157.125 295.828 158.82 294.32 158.82ZM304.711 160.273C307.305 160.273 308.875 158 308.875 154.367V154.351C308.875 150.719 307.305 148.453 304.711 148.453C302.109 148.453 300.547 150.719 300.547 154.351V154.367C300.547 158 302.109 160.273 304.711 160.273ZM304.711 158.82C303.195 158.82 302.312 157.125 302.312 154.367V154.351C302.312 151.594 303.195 149.914 304.711 149.914C306.219 149.914 307.109 151.594 307.109 154.351V154.367C307.109 157.125 306.219 158.82 304.711 158.82ZM315.101 160.273C317.695 160.273 319.266 158 319.266 154.367V154.351C319.266 150.719 317.695 148.453 315.101 148.453C312.5 148.453 310.937 150.719 310.937 154.351V154.367C310.937 158 312.5 160.273 315.101 160.273ZM315.101 158.82C313.586 158.82 312.703 157.125 312.703 154.367V154.351C312.703 151.594 313.586 149.914 315.101 149.914C316.609 149.914 317.5 151.594 317.5 154.351V154.367C317.5 157.125 316.609 158.82 315.101 158.82Z" fill="#7B8CA6"/>
<path d="M336.5 138.5L336.553 138.003C336.535 138.001 336.518 138 336.5 138V138.5ZM167 138C166.724 138 166.5 138.224 166.5 138.5C166.5 138.776 166.724 139 167 139V138ZM380.897 143.504C380.897 144.977 382.09 146.17 383.563 146.17C385.036 146.17 386.23 144.977 386.23 143.504C386.23 142.031 385.036 140.837 383.563 140.837C382.09 140.837 380.897 142.031 380.897 143.504ZM336.5 138H167V139H336.5V138ZM336.447 138.997L383.51 144.001L383.616 143.007L336.553 138.003L336.447 138.997Z" fill="#7B8CA6"/>
<path d="M368.031 59.5623C373.814 59.5623 377.84 55.9061 377.84 50.492C377.84 45.658 374.395 42.2479 369.543 42.2479C366.959 42.2479 364.885 43.2674 363.848 44.9022H363.742L364.34 37.8533H374.359C375.695 37.8533 376.539 37.0272 376.539 35.744C376.539 34.4608 375.678 33.6346 374.359 33.6346H363.232C361.176 33.6346 360.068 34.4959 359.893 36.6404L359.154 45.9393C359.137 46.0272 359.137 46.0799 359.137 46.1502C359.066 47.574 359.893 48.7869 361.633 48.7869C362.811 48.7869 363.338 48.5233 364.375 47.5565C365.271 46.6951 366.537 46.0447 368.049 46.0447C370.809 46.0447 372.777 47.9432 372.777 50.6151C372.777 53.3572 370.791 55.3436 368.031 55.3436C365.746 55.3436 364.252 54.2361 363.338 52.408C362.74 51.4588 362.072 51.0897 361.018 51.0897C359.646 51.0897 358.803 51.8983 358.803 53.2518C358.803 53.8846 358.961 54.4295 359.225 54.992C360.49 57.6815 364.006 59.5623 368.031 59.5623ZM387.174 59.369C387.895 59.369 388.334 59.1053 388.844 58.3143L396.666 46.7479L403.996 35.9901C404.26 35.5858 404.4 35.2166 404.4 34.7947C404.4 33.8983 403.68 33.2479 402.748 33.2479C401.922 33.2479 401.5 33.5291 400.955 34.3377L393.414 45.5174L385.838 56.6092C385.574 56.9959 385.434 57.3299 385.434 57.8397C385.434 58.7889 386.26 59.369 387.174 59.369ZM385.768 46.9412C389.283 46.9412 391.498 44.3397 391.498 40.0858C391.498 35.7791 389.266 33.283 385.768 33.283C382.252 33.283 380.02 35.7967 380.02 40.0858C380.02 44.3572 382.234 46.9412 385.768 46.9412ZM385.768 44.0936C384.537 44.0936 383.781 42.8279 383.781 40.0858C383.781 37.3436 384.555 36.1307 385.768 36.1307C386.98 36.1307 387.736 37.3436 387.736 40.0858C387.736 42.8279 386.98 44.0936 385.768 44.0936ZM404.119 59.3514C407.652 59.3514 409.867 56.7498 409.867 52.4783C409.867 48.1717 407.617 45.6756 404.119 45.6756C400.621 45.6756 398.371 48.1893 398.371 52.4783C398.371 56.7674 400.586 59.3514 404.119 59.3514ZM404.119 56.5037C402.906 56.5037 402.133 55.2205 402.133 52.4959C402.133 49.7361 402.906 48.5233 404.119 48.5233C405.332 48.5233 406.105 49.7361 406.105 52.4783C406.105 55.2205 405.332 56.5037 404.119 56.5037Z" fill="#7B8CA6"/>
<path d="M282.914 58.9998H284.664V54.6639H287.133L289.43 58.9998H291.453L288.922 54.3904C290.297 53.9295 291.109 52.6951 291.109 51.1795V51.1639C291.109 49.0701 289.672 47.7264 287.359 47.7264H282.914V58.9998ZM284.664 53.242V49.1951H287.133C288.484 49.1951 289.312 49.9608 289.312 51.2108V51.2264C289.312 52.5076 288.531 53.242 287.188 53.242H284.664ZM296.719 59.1639C298.891 59.1639 300.062 57.9139 300.344 56.7967L300.359 56.7264L298.727 56.7342L298.695 56.7967C298.492 57.2342 297.844 57.7733 296.758 57.7733C295.359 57.7733 294.469 56.8279 294.438 55.2029H300.453V54.6092C300.453 52.0623 299 50.3514 296.633 50.3514C294.266 50.3514 292.734 52.1248 292.734 54.7733V54.7811C292.734 57.4686 294.234 59.1639 296.719 59.1639ZM296.641 51.742C297.789 51.742 298.641 52.4764 298.773 53.992H294.461C294.609 52.5311 295.484 51.742 296.641 51.742ZM305.555 59.1639C307.57 59.1639 309.07 58.0936 309.07 56.5233V56.5076C309.07 55.2811 308.289 54.5858 306.656 54.2029L305.312 53.8983C304.359 53.6717 303.969 53.3436 303.969 52.8123V52.7967C303.969 52.117 304.641 51.6561 305.57 51.6561C306.523 51.6561 307.125 52.1014 307.289 52.6951V52.7108H308.906V52.7029C308.758 51.3201 307.516 50.3514 305.578 50.3514C303.656 50.3514 302.281 51.4139 302.281 52.8904V52.8983C302.281 54.1404 303.023 54.867 304.625 55.2342L305.977 55.5467C306.961 55.7733 307.359 56.1326 307.359 56.6639V56.6795C307.359 57.3748 306.633 57.8514 305.586 57.8514C304.578 57.8514 303.961 57.4217 303.75 56.7811L303.742 56.7733H302.047V56.7811C302.211 58.2029 303.508 59.1639 305.555 59.1639ZM314.656 59.1639C316.828 59.1639 318 57.9139 318.281 56.7967L318.297 56.7264L316.664 56.7342L316.633 56.7967C316.43 57.2342 315.781 57.7733 314.695 57.7733C313.297 57.7733 312.406 56.8279 312.375 55.2029H318.391V54.6092C318.391 52.0623 316.938 50.3514 314.57 50.3514C312.203 50.3514 310.672 52.1248 310.672 54.7733V54.7811C310.672 57.4686 312.172 59.1639 314.656 59.1639ZM314.578 51.742C315.727 51.742 316.578 52.4764 316.711 53.992H312.398C312.547 52.5311 313.422 51.742 314.578 51.742ZM320.406 58.9998H322.102V53.9295C322.102 52.7029 322.984 51.9061 324.281 51.9061C324.602 51.9061 324.891 51.9451 325.195 52.0076V50.4451C325.023 50.4061 324.727 50.367 324.453 50.367C323.32 50.367 322.531 50.8983 322.227 51.7967H322.102V50.5154H320.406V58.9998ZM329.258 58.9998H331.062L334.125 50.5154H332.344L330.234 57.2811H330.102L327.984 50.5154H326.188L329.258 58.9998ZM339.062 59.1639C341.234 59.1639 342.406 57.9139 342.688 56.7967L342.703 56.7264L341.07 56.7342L341.039 56.7967C340.836 57.2342 340.188 57.7733 339.102 57.7733C337.703 57.7733 336.812 56.8279 336.781 55.2029H342.797V54.6092C342.797 52.0623 341.344 50.3514 338.977 50.3514C336.609 50.3514 335.078 52.1248 335.078 54.7733V54.7811C335.078 57.4686 336.578 59.1639 339.062 59.1639ZM338.984 51.742C340.133 51.742 340.984 52.4764 341.117 53.992H336.805C336.953 52.5311 337.828 51.742 338.984 51.742Z" fill="#7B8CA6"/>
<path d="M336.476 89.9998H338.226V78.7263H336.476L333.508 80.8357V82.5544L336.344 80.531H336.476V89.9998ZM349.773 90.2732C352.367 90.2732 353.937 87.9998 353.937 84.3669V84.3513C353.937 80.7185 352.367 78.4529 349.773 78.4529C347.172 78.4529 345.609 80.7185 345.609 84.3513V84.3669C345.609 87.9998 347.172 90.2732 349.773 90.2732ZM349.773 88.8201C348.258 88.8201 347.375 87.1248 347.375 84.3669V84.3513C347.375 81.5935 348.258 79.9138 349.773 79.9138C351.281 79.9138 352.172 81.5935 352.172 84.3513V84.3669C352.172 87.1248 351.281 88.8201 349.773 88.8201ZM360.164 90.2732C362.758 90.2732 364.328 87.9998 364.328 84.3669V84.3513C364.328 80.7185 362.758 78.4529 360.164 78.4529C357.562 78.4529 356 80.7185 356 84.3513V84.3669C356 87.9998 357.562 90.2732 360.164 90.2732ZM360.164 88.8201C358.648 88.8201 357.766 87.1248 357.766 84.3669V84.3513C357.766 81.5935 358.648 79.9138 360.164 79.9138C361.672 79.9138 362.562 81.5935 362.562 84.3513V84.3669C362.562 87.1248 361.672 88.8201 360.164 88.8201ZM370.555 90.2732C373.148 90.2732 374.719 87.9998 374.719 84.3669V84.3513C374.719 80.7185 373.148 78.4529 370.555 78.4529C367.953 78.4529 366.391 80.7185 366.391 84.3513V84.3669C366.391 87.9998 367.953 90.2732 370.555 90.2732ZM370.555 88.8201C369.039 88.8201 368.156 87.1248 368.156 84.3669V84.3513C368.156 81.5935 369.039 79.9138 370.555 79.9138C372.062 79.9138 372.953 81.5935 372.953 84.3513V84.3669C372.953 87.1248 372.062 88.8201 370.555 88.8201ZM385.32 90.2732C387.914 90.2732 389.484 87.9998 389.484 84.3669V84.3513C389.484 80.7185 387.914 78.4529 385.32 78.4529C382.719 78.4529 381.156 80.7185 381.156 84.3513V84.3669C381.156 87.9998 382.719 90.2732 385.32 90.2732ZM385.32 88.8201C383.805 88.8201 382.922 87.1248 382.922 84.3669V84.3513C382.922 81.5935 383.805 79.9138 385.32 79.9138C386.828 79.9138 387.719 81.5935 387.719 84.3513V84.3669C387.719 87.1248 386.828 88.8201 385.32 88.8201ZM395.711 90.2732C398.305 90.2732 399.875 87.9998 399.875 84.3669V84.3513C399.875 80.7185 398.305 78.4529 395.711 78.4529C393.109 78.4529 391.547 80.7185 391.547 84.3513V84.3669C391.547 87.9998 393.109 90.2732 395.711 90.2732ZM395.711 88.8201C394.195 88.8201 393.312 87.1248 393.312 84.3669V84.3513C393.312 81.5935 394.195 79.9138 395.711 79.9138C397.219 79.9138 398.109 81.5935 398.109 84.3513V84.3669C398.109 87.1248 397.219 88.8201 395.711 88.8201ZM406.101 90.2732C408.695 90.2732 410.266 87.9998 410.266 84.3669V84.3513C410.266 80.7185 408.695 78.4529 406.101 78.4529C403.5 78.4529 401.937 80.7185 401.937 84.3513V84.3669C401.937 87.9998 403.5 90.2732 406.101 90.2732ZM406.101 88.8201C404.586 88.8201 403.703 87.1248 403.703 84.3669V84.3513C403.703 81.5935 404.586 79.9138 406.101 79.9138C407.609 79.9138 408.5 81.5935 408.5 84.3513V84.3669C408.5 87.1248 407.609 88.8201 406.101 88.8201Z" fill="#7B8CA6"/>
<path d="M427.5 68.4998L427.899 68.1983C427.804 68.0733 427.657 67.9998 427.5 67.9998V68.4998ZM275.5 67.9998C275.224 67.9998 275 68.2236 275 68.4998C275 68.7759 275.224 68.9998 275.5 68.9998L275.5 67.9998ZM458.237 112.704C458.237 114.177 459.431 115.371 460.903 115.371C462.376 115.371 463.57 114.177 463.57 112.704C463.57 111.231 462.376 110.037 460.903 110.037C459.431 110.037 458.237 111.231 458.237 112.704ZM427.5 67.9998L275.5 67.9998L275.5 68.9998L427.5 68.9998V67.9998ZM427.101 68.8012L460.504 113.006L461.302 112.403L427.899 68.1983L427.101 68.8012Z" fill="#7B8CA6"/>
<defs>
<filter id="filter0_d_739_177" x="421.985" y="259.985" width="204.029" height="204.029" filterUnits="userSpaceOnUse" color-interpolation-filters="sRGB">
<feFlood flood-opacity="0" result="BackgroundImageFix"/>
<feColorMatrix in="SourceAlpha" type="matrix" values="0 0 0 0 0 0 0 0 0 0 0 0 0 0 0 0 0 0 127 0" result="hardAlpha"/>
<feOffset/>
<feGaussianBlur stdDeviation="8"/>
<feComposite in2="hardAlpha" operator="out"/>
<feColorMatrix type="matrix" values="0 0 0 0 0.113725 0 0 0 0 0.14902 0 0 0 0 0.223529 0 0 0 1 0"/>
<feBlend mode="normal" in2="BackgroundImageFix" result="effect1_dropShadow_739_177"/>
<feBlend mode="normal" in="SourceGraphic" in2="effect1_dropShadow_739_177" result="shape"/>
</filter>
<clipPath id="clip0_739_177">
<rect width="464" height="464" fill="white" transform="translate(295 131)"/>
</clipPath>
</defs>
</svg>
