<svg width="200" height="200" viewBox="0 0 200 200" fill="none" xmlns="http://www.w3.org/2000/svg">
<path d="M90.4798 0.494007C13.0028 7.84552 -28.6969 100.141 22.6215 163.169C22.6215 163.169 22.6215 163.169 22.61 163.169C46.3237 192.414 85.923 206.876 124.96 196.814C145.873 191.415 163.951 179.446 176.841 163.881C233.095 96.213 180.112 -8.05212 90.4798 0.494007Z" fill="url(#paint0_radial_401_290)"/>
<path d="M170.861 106.689C167.589 142.183 137.999 172.542 98.7555 172.542C49.7557 172.542 15.0919 124.769 29.7265 78.4315C34.7653 62.373 45.4284 48.2903 59.9482 39.032C62.9554 37.1252 66.1348 35.4137 69.452 33.9319C107.089 17.2187 151.371 35.4252 166.269 74.101C170.447 84.9789 171.836 96.0637 170.861 106.689Z" fill="url(#paint1_radial_401_290)"/>
<path d="M132.857 163.996C122.699 169.441 111.083 172.531 98.7443 172.531C70.6345 172.531 46.2665 156.484 34.2949 133.039C39.3682 135.635 48.7229 139.759 59.5926 141.448C75.3634 143.894 94.4515 140.69 103.427 145.284C118.395 152.946 120.828 161.745 132.857 163.996Z" fill="#0088CC"/>
<path d="M71.9429 130.8C58.02 131.753 38.6795 125.16 29.6807 121.725C27.5572 114.902 26.4094 107.654 26.4094 100.141C26.4094 97.4421 26.5586 94.7771 26.8456 92.1582C30.7711 96.8103 39.7699 106.517 51.0873 112.49C66.4105 120.588 90.6636 129.525 71.9429 130.8Z" fill="#0088CC"/>
<path d="M160.806 137.37C158.086 141.907 154.872 146.123 151.256 149.948C141.971 147.409 131.617 142.815 123.227 135.704C108.294 123.057 106.205 117.395 71.7363 106.321C47.6898 98.5907 35.0295 85.8979 29.5774 78.9254C31.2761 73.3658 33.6291 68.082 36.556 63.1771C43.3855 70.5631 58.5251 85.0364 77.7049 91.8365C104.093 101.21 108.34 100.348 132.168 122.07C142.315 131.339 152.484 135.567 160.806 137.37Z" fill="#0088CC"/>
<path d="M171.09 100.141C171.09 108.263 169.759 116.062 167.291 123.345C160.301 123.195 149.477 120.312 137.253 107.596C115.972 85.4499 84.4881 81.1884 84.0634 73.9517C83.6387 66.7151 116.409 72.6767 136.403 83.7499C150.785 91.7217 161.437 97.4765 171.033 97.2238C171.067 98.1887 171.09 99.1651 171.09 100.141Z" fill="#0088CC"/>
<path d="M69.1768 59.9034C60.5109 55.8601 50.4561 55.2168 50.0314 58.6284C49.6067 62.04 55.9885 73.1017 67.478 70.9766C78.9561 68.8401 75.5586 62.8785 69.1768 59.9034Z" fill="#0088CC"/>
<path d="M166.27 74.101C155.526 67.5651 137.196 63.0852 108.753 56.4918C84.8213 50.9437 74.1582 41.0651 69.4521 33.9319C75.547 31.2325 82.078 29.3372 88.919 28.4068C94.153 33.3805 104.954 40.1922 127.049 45.8436C139.595 49.0484 149.339 53.0114 156.8 56.9398C160.691 62.1663 163.882 67.9326 166.27 74.101Z" fill="#0088CC"/>
<path d="M131.72 146.778C127.99 144.721 115.123 137.404 123.215 152.314C126.395 158.172 140.237 151.464 131.72 146.778Z" fill="#0088CC"/>
<path d="M114.274 139.104C112.53 139.231 113.425 142.941 115.124 143.366C116.834 143.791 120.243 138.679 114.274 139.104Z" fill="#0088CC"/>
<path opacity="0.45" d="M167.28 123.379C165.615 128.307 163.434 132.982 160.806 137.37C158.086 141.907 154.872 146.123 151.256 149.948C145.942 155.565 139.732 160.32 132.868 163.996C122.71 169.441 111.095 172.531 98.7556 172.531C70.6458 172.531 46.2779 156.484 34.3063 133.039C32.4584 129.433 30.9088 125.653 29.6922 121.725C27.5687 114.902 26.4209 107.654 26.4209 100.141C26.4209 97.442 26.5701 94.7771 26.8571 92.1581C27.3506 87.6094 28.2689 83.1755 29.5774 78.9139C29.6233 78.7531 29.6807 78.5808 29.7266 78.42C40.2405 67.1286 60.086 73.6071 70.0375 88.425C84.9705 110.686 120.667 177.011 167.28 123.379Z" fill="url(#paint2_linear_401_290)"/>
<path opacity="0.55" d="M167.601 122.403C166.292 126.664 163.87 132.27 160.806 137.37C128.197 191.725 46.9206 180.526 29.3362 120.553C38.3694 132.89 50.5017 142.229 66.6284 146.778C124.111 162.951 153.563 141.149 167.601 122.403Z" fill="url(#paint3_linear_401_290)"/>
<path d="M166.269 74.101C170.459 84.9675 171.836 96.0637 170.861 106.689C168.657 87.954 159.383 57.4912 123.64 43.2936C97.4471 32.8866 75.5125 34.5866 59.9368 39.032C62.944 37.1252 66.1234 35.4137 69.4406 33.9319C107.089 17.2187 151.371 35.4367 166.269 74.101Z" fill="url(#paint4_linear_401_290)"/>
<defs>
<radialGradient id="paint0_radial_401_290" cx="0" cy="0" r="1" gradientUnits="userSpaceOnUse" gradientTransform="translate(100.001 99.9975) scale(85.6262 85.6909)">
<stop stop-color="#90DDEF"/>
<stop offset="1" stop-color="#A6D6F9" stop-opacity="0"/>
</radialGradient>
<radialGradient id="paint1_radial_401_290" cx="0" cy="0" r="1" gradientUnits="userSpaceOnUse" gradientTransform="translate(96.8303 72.021) scale(72.3731 72.4278)">
<stop stop-color="#64AED3"/>
<stop offset="1" stop-color="#0088CC"/>
</radialGradient>
<linearGradient id="paint2_linear_401_290" x1="83.3267" y1="174.764" x2="104.723" y2="69.3915" gradientUnits="userSpaceOnUse">
<stop stop-color="#155B7D"/>
<stop offset="1" stop-color="#4491B8"/>
</linearGradient>
<linearGradient id="paint3_linear_401_290" x1="106.048" y1="190.175" x2="97.9507" y2="116.931" gradientUnits="userSpaceOnUse">
<stop stop-color="#02293D"/>
<stop offset="1" stop-color="#0088CC" stop-opacity="0"/>
</linearGradient>
<linearGradient id="paint4_linear_401_290" x1="189.388" y1="-18.1193" x2="109.317" y2="80.192" gradientUnits="userSpaceOnUse">
<stop stop-color="#A4F6F6"/>
<stop offset="1" stop-color="#B5F4F9" stop-opacity="0"/>
</linearGradient>
</defs>
</svg>
