<svg width="407" height="314" viewBox="0 0 407 314" fill="none" xmlns="http://www.w3.org/2000/svg">
<path d="M193.712 7.74285C77.5019 18.7632 14.9545 157.206 91.9343 251.756C127.494 295.607 186.892 317.314 245.456 302.224C276.824 294.126 303.937 276.176 323.27 252.82C407.633 151.32 328.171 -5.09334 193.712 7.74285Z" fill="url(#paint0_radial_243_2338)"/>
<g filter="url(#filter0_d_243_2338)">
<path d="M323.896 156.998C323.896 160.421 323.75 163.802 323.458 167.162C323.187 170.293 322.791 173.382 322.269 176.429C321.769 179.414 321.143 182.357 320.434 185.237C318.327 193.648 315.303 201.705 311.487 209.261C310.256 211.682 308.942 214.061 307.566 216.399C304.979 220.719 302.143 224.873 299.015 228.818C297.43 230.821 295.803 232.762 294.093 234.641C283.101 246.851 269.545 256.702 254.299 263.36C253.173 263.861 252.026 264.321 250.879 264.78C247.479 266.136 244.017 267.326 240.472 268.37C237.948 269.1 235.404 269.747 232.817 270.311C224.829 272.043 216.529 272.962 208.019 272.962C175.15 272.962 145.493 259.27 124.386 237.271C121.884 234.662 119.506 231.927 117.254 229.089C112.665 223.328 108.64 217.108 105.199 210.534C104.323 208.864 103.489 207.153 102.696 205.42C99.7971 199.138 97.4612 192.563 95.7302 185.738C93.3734 176.534 92.1221 166.891 92.1221 156.956C92.1221 150.84 92.6018 144.85 93.4986 139.006C93.8531 136.752 94.2494 134.539 94.7291 132.348C95.2505 129.885 95.8762 127.464 96.5436 125.064C97.7949 120.66 99.3174 116.339 101.069 112.165C104.239 104.588 108.202 97.4084 112.832 90.7502C115.669 86.6802 118.755 82.7981 122.071 79.1246C128.349 72.1952 135.44 66.038 143.199 60.7783C143.449 60.6113 143.699 60.4443 143.949 60.2773C149.122 56.8335 154.586 53.8071 160.301 51.2189C171.646 46.0845 183.952 42.7241 196.882 41.5135C200.532 41.1587 204.224 40.9917 207.957 40.9917C219.094 40.9917 229.877 42.578 240.075 45.5001C244.413 46.7524 248.647 48.2343 252.756 49.9666C254.299 50.6137 255.822 51.2816 257.323 51.9912C263.58 54.9341 269.524 58.4406 275.114 62.4063C281.162 66.7267 286.772 71.5899 291.882 76.9539C301.684 87.2646 309.61 99.3494 315.116 112.707C315.804 114.377 316.471 116.089 317.076 117.8C319.036 123.269 320.601 128.925 321.727 134.748C323.166 141.991 323.896 149.421 323.896 156.998Z" fill="url(#paint1_radial_243_2338)"/>
<path d="M323.896 156.998C323.896 166.745 322.686 176.2 320.434 185.237C262.558 160.4 163.033 206.109 95.7302 185.759C93.3734 176.554 92.1221 166.912 92.1221 156.977C92.1221 150.861 92.6018 144.871 93.4986 139.027C211.774 180.979 254.779 122.601 321.769 134.811C323.166 141.991 323.896 149.421 323.896 156.998Z" fill="url(#paint2_linear_243_2338)"/>
<path d="M317.139 117.863C254.112 107.239 180.761 150.736 96.5854 125.084C97.8368 120.68 99.3593 116.36 101.111 112.186C169.436 138.797 251.817 104.901 315.178 112.77C315.867 114.461 316.534 116.151 317.139 117.863Z" fill="url(#paint3_linear_243_2338)"/>
<path d="M291.944 77.0374C225.664 117.967 141.947 99.2451 112.874 90.792C115.71 86.722 118.797 82.8398 122.113 79.1664C204.87 100.268 256.551 74.658 275.176 62.4897C281.224 66.7894 286.835 71.6734 291.944 77.0374Z" fill="url(#paint4_linear_243_2338)"/>
<path d="M257.386 52.0538C229.522 70.0871 191.794 58.0232 143.241 60.82C148.642 57.1674 154.357 53.974 160.343 51.2607C189.729 52.5339 231.212 62.3019 252.819 50.0084C254.362 50.6554 255.885 51.3442 257.386 52.0538Z" fill="url(#paint5_linear_243_2338)"/>
<path d="M240.159 45.5418C232.317 49.3614 217.76 52.6174 196.966 41.5553C200.616 41.2005 204.307 41.0335 208.041 41.0335C219.178 41.0335 229.94 42.5989 240.159 45.5418Z" fill="url(#paint6_linear_243_2338)"/>
<path d="M311.486 209.261C310.256 211.682 308.942 214.061 307.565 216.399C257.782 193.836 165.89 218.924 105.219 210.576C104.343 208.906 103.509 207.194 102.717 205.462C182.241 215.293 268.481 182.879 311.486 209.261Z" fill="url(#paint7_linear_243_2338)"/>
<path d="M240.471 268.349C237.948 269.079 235.403 269.726 232.817 270.29C211.419 266.804 145.305 229.298 124.386 237.271C121.884 234.662 119.506 231.927 117.254 229.089C163.721 228.63 212.795 266.136 240.471 268.349Z" fill="url(#paint8_linear_243_2338)"/>
<path d="M294.113 234.641C283.122 246.851 269.565 256.702 254.319 263.361C232.462 256.744 219.844 243.804 212.211 240.151C201.053 234.787 197.695 230.508 240.68 227.294C262.578 225.624 281.161 229.986 294.113 234.641Z" fill="url(#paint9_linear_243_2338)"/>
<path opacity="0.45" d="M322.29 176.429C314.636 222.306 279.431 260.104 232.838 270.311C150.102 288.323 76.9181 214.604 94.7709 132.39C104.365 150.548 125.7 169.917 172.251 177.139C242.703 188.034 288.587 168.602 322.29 176.429Z" fill="url(#paint10_linear_243_2338)"/>
<path opacity="0.55" d="M297.159 231.113C296.179 232.303 295.157 233.493 294.114 234.641C283.123 246.851 269.566 256.702 254.32 263.361C253.194 263.861 252.047 264.321 250.9 264.78C247.5 266.136 244.038 267.326 240.493 268.37C237.969 269.1 235.425 269.747 232.839 270.311C224.851 272.043 216.55 272.962 208.041 272.962C175.172 272.962 145.514 259.27 124.408 237.271C122.26 235.017 120.195 232.7 118.234 230.279C137.276 237.438 164.91 238.878 204.975 228.964C240.18 220.239 270.901 222.619 297.159 231.113Z" fill="url(#paint11_linear_243_2338)"/>
<path d="M323.896 156.998C323.896 160.421 323.75 163.802 323.458 167.162C323.124 141.01 314.093 109.723 282.371 82.485C221.472 30.1801 159.696 53.1183 144.012 60.3191C149.184 56.8752 154.649 53.8488 160.363 51.2607C171.709 46.1262 184.014 42.7658 196.945 41.5553C200.595 41.2005 204.286 41.0335 208.019 41.0335C219.157 41.0335 229.939 42.6197 240.138 45.5418C244.476 46.7941 248.71 48.276 252.818 50.0084C254.362 50.6554 255.884 51.3233 257.386 52.033C263.643 54.9759 269.587 58.4824 275.176 62.448C281.224 66.7685 286.835 71.6316 291.944 76.9957C301.747 87.3064 309.672 99.3912 315.178 112.749C315.866 114.419 316.534 116.13 317.138 117.842C319.099 123.31 320.663 128.967 321.789 134.79C323.166 141.991 323.896 149.421 323.896 156.998Z" fill="url(#paint12_linear_243_2338)"/>
</g>
<path opacity="0.2" fill-rule="evenodd" clip-rule="evenodd" d="M195.517 82.9472C154.234 90.2266 126.668 129.595 133.947 170.878C134.76 175.49 135.974 179.93 137.546 184.17L218.954 169.815C225.991 168.575 232.701 173.273 233.942 180.31C235.183 187.347 230.484 194.058 223.447 195.299L151.783 207.935C168.704 227.068 194.882 237.209 221.878 232.448C263.162 225.169 290.728 185.801 283.448 144.517C282.635 139.906 281.422 135.465 279.85 131.226L197.567 145.734C190.53 146.975 183.82 142.277 182.579 135.24C181.338 128.203 186.037 121.492 193.074 120.251L265.612 107.461C248.692 88.3275 222.514 78.1869 195.517 82.9472ZM108.464 175.372C98.7029 120.014 135.666 67.225 191.024 57.464C246.381 47.703 299.171 84.6663 308.932 140.024C318.693 195.381 281.729 248.171 226.372 257.932C171.014 267.693 118.225 230.729 108.464 175.372Z" fill="#E0E1DD"/>
<g filter="url(#filter1_d_243_2338)">
<path d="M110.102 169.398C116.078 169.398 119.747 166.443 119.747 161.762C119.747 158.126 117.556 156.084 112.476 155.071L109.952 154.557C107.113 153.992 105.968 153.079 105.968 151.602C105.968 149.842 107.611 148.68 110.085 148.68C112.144 148.68 113.688 149.427 114.484 151.236C115.049 152.266 115.746 152.714 116.875 152.714C118.153 152.714 119.017 151.9 119.017 150.705C119.017 150.273 118.95 149.925 118.834 149.593C117.771 146.472 114.468 144.629 110.085 144.629C104.756 144.629 100.938 147.534 100.938 151.917C100.938 155.486 103.278 157.777 108.06 158.724L110.6 159.222C113.604 159.836 114.733 160.732 114.733 162.31C114.733 164.069 112.907 165.364 110.218 165.364C107.927 165.364 106.051 164.534 105.271 162.708C104.673 161.646 103.992 161.247 102.963 161.247C101.668 161.247 100.755 162.127 100.755 163.455C100.755 163.903 100.854 164.368 101.021 164.8C101.983 167.423 105.154 169.398 110.102 169.398ZM125.06 169.315C126.471 169.315 127.284 168.452 127.284 166.975V152.83H127.417L133.344 167.34C133.759 168.369 134.456 168.851 135.519 168.851C136.564 168.851 137.229 168.386 137.66 167.323L143.587 152.83H143.72V166.975C143.72 168.452 144.533 169.315 145.944 169.315C147.355 169.315 148.186 168.452 148.186 166.975V147.949C148.186 145.907 146.99 144.712 144.965 144.712C143.205 144.712 142.226 145.459 141.495 147.302L135.568 162.027H135.436L129.492 147.302C128.762 145.442 127.799 144.712 126.056 144.712C124.014 144.712 122.818 145.924 122.818 147.949V166.975C122.818 168.452 123.648 169.315 125.06 169.315ZM153.764 169.315C155.092 169.315 155.839 168.651 156.304 167.058L157.565 163.322H166.215L167.477 167.107C167.925 168.668 168.672 169.315 170.083 169.315C171.544 169.315 172.59 168.336 172.59 166.958C172.59 166.46 172.507 166.012 172.274 165.364L165.7 147.534C164.986 145.575 163.824 144.712 161.865 144.712C159.973 144.712 158.794 145.608 158.097 147.551L151.556 165.364C151.34 165.979 151.224 166.543 151.224 166.958C151.224 168.402 152.203 169.315 153.764 169.315ZM158.661 159.438L161.766 149.626H161.882L165.053 159.438H158.661ZM178.151 169.349C179.729 169.349 180.658 168.386 180.658 166.742V160.234H184.925L188.909 167.456C189.723 168.917 190.271 169.349 191.466 169.349C192.927 169.349 193.989 168.386 193.989 167.058C193.989 166.477 193.873 166.045 193.458 165.331L190.005 159.355C192.645 158.226 194.122 155.669 194.122 152.681C194.122 147.949 190.968 145.044 185.456 145.044H178.151C176.574 145.044 175.645 146.007 175.645 147.65V166.742C175.645 168.386 176.591 169.349 178.151 169.349ZM180.658 156.599V148.962H184.925C187.415 148.962 188.976 150.456 188.976 152.78C188.976 155.154 187.498 156.599 184.975 156.599H180.658ZM205.66 169.315C207.237 169.315 208.167 168.353 208.167 166.709V149.194H213.131C214.476 149.194 215.389 148.414 215.389 147.119C215.389 145.824 214.492 145.044 213.131 145.044H198.206C196.828 145.044 195.932 145.824 195.932 147.119C195.932 148.414 196.845 149.194 198.206 149.194H203.153V166.709C203.153 168.353 204.083 169.315 205.66 169.315ZM226.113 169.315C227.69 169.315 228.62 168.353 228.62 166.709V149.194H233.584C234.929 149.194 235.842 148.414 235.842 147.119C235.842 145.824 234.945 145.044 233.584 145.044H218.659C217.281 145.044 216.385 145.824 216.385 147.119C216.385 148.414 217.298 149.194 218.659 149.194H223.606V166.709C223.606 168.353 224.536 169.315 226.113 169.315ZM240.839 169H252.228C253.605 169 254.502 168.22 254.502 166.925C254.502 165.63 253.589 164.85 252.228 164.85H243.346V158.807H251.796C253.058 158.807 253.888 158.076 253.888 156.881C253.888 155.686 253.041 154.955 251.796 154.955H243.346V149.194H252.228C253.589 149.194 254.502 148.414 254.502 147.119C254.502 145.824 253.605 145.044 252.228 145.044H240.839C239.262 145.044 238.332 146.007 238.332 147.65V166.377C238.332 168.037 239.262 169 240.839 169ZM259.416 169.315C260.744 169.315 261.491 168.651 261.956 167.058L263.218 163.322H271.867L273.129 167.107C273.577 168.668 274.324 169.315 275.735 169.315C277.196 169.315 278.242 168.336 278.242 166.958C278.242 166.46 278.159 166.012 277.927 165.364L271.353 147.534C270.639 145.575 269.477 144.712 267.518 144.712C265.625 144.712 264.446 145.608 263.749 147.551L257.208 165.364C256.992 165.979 256.876 166.543 256.876 166.958C256.876 168.402 257.855 169.315 259.416 169.315ZM264.313 159.438L267.418 149.626H267.534L270.705 159.438H264.313ZM283.538 169.315C284.949 169.315 285.763 168.452 285.763 166.975V152.83H285.896L291.822 167.34C292.237 168.369 292.935 168.851 293.997 168.851C295.043 168.851 295.707 168.386 296.139 167.323L302.065 152.83H302.198V166.975C302.198 168.452 303.012 169.315 304.423 169.315C305.834 169.315 306.664 168.452 306.664 166.975V147.949C306.664 145.907 305.469 144.712 303.443 144.712C301.684 144.712 300.704 145.459 299.974 147.302L294.047 162.027H293.914L287.971 147.302C287.24 145.442 286.277 144.712 284.534 144.712C282.492 144.712 281.297 145.924 281.297 147.949V166.975C281.297 168.452 282.127 169.315 283.538 169.315Z" fill="#1B263B"/>
</g>
<defs>
<filter id="filter0_d_243_2338" x="52.0627" y="0.991737" width="311.833" height="312.056" filterUnits="userSpaceOnUse" color-interpolation-filters="sRGB">
<feFlood flood-opacity="0" result="BackgroundImageFix"/>
<feColorMatrix in="SourceAlpha" type="matrix" values="0 0 0 0 0 0 0 0 0 0 0 0 0 0 0 0 0 0 127 0" result="hardAlpha"/>
<feOffset/>
<feGaussianBlur stdDeviation="20"/>
<feComposite in2="hardAlpha" operator="out"/>
<feColorMatrix type="matrix" values="0 0 0 0 0.878431 0 0 0 0 0.882353 0 0 0 0 0.866667 0 0 0 1 0"/>
<feBlend mode="normal" in2="BackgroundImageFix" result="effect1_dropShadow_243_2338"/>
<feBlend mode="normal" in="SourceGraphic" in2="effect1_dropShadow_243_2338" result="shape"/>
</filter>
<filter id="filter1_d_243_2338" x="0.754883" y="44.6289" width="405.909" height="224.77" filterUnits="userSpaceOnUse" color-interpolation-filters="sRGB">
<feFlood flood-opacity="0" result="BackgroundImageFix"/>
<feColorMatrix in="SourceAlpha" type="matrix" values="0 0 0 0 0 0 0 0 0 0 0 0 0 0 0 0 0 0 127 0" result="hardAlpha"/>
<feOffset/>
<feGaussianBlur stdDeviation="50"/>
<feComposite in2="hardAlpha" operator="out"/>
<feColorMatrix type="matrix" values="0 0 0 0 0.466667 0 0 0 0 0.552941 0 0 0 0 0.662745 0 0 0 0.55 0"/>
<feBlend mode="normal" in2="BackgroundImageFix" result="effect1_dropShadow_243_2338"/>
<feBlend mode="normal" in="SourceGraphic" in2="effect1_dropShadow_243_2338" result="shape"/>
</filter>
<radialGradient id="paint0_radial_243_2338" cx="0" cy="0" r="1" gradientUnits="userSpaceOnUse" gradientTransform="translate(208 156.987) scale(138.8 138.905)">
<stop stop-color="#FFB16C"/>
<stop offset="1" stop-color="#FFA360" stop-opacity="0"/>
</radialGradient>
<radialGradient id="paint1_radial_243_2338" cx="0" cy="0" r="1" gradientUnits="userSpaceOnUse" gradientTransform="translate(189.622 91.51) scale(189.837 189.981)">
<stop stop-color="#FFA360"/>
<stop offset="1" stop-color="#F22749"/>
</radialGradient>
<linearGradient id="paint2_linear_243_2338" x1="187.681" y1="15.1904" x2="233.868" y2="336.609" gradientUnits="userSpaceOnUse">
<stop stop-color="#FFBB71"/>
<stop offset="1" stop-color="#FFBB71" stop-opacity="0"/>
</linearGradient>
<linearGradient id="paint3_linear_243_2338" x1="191.534" y1="14.6364" x2="237.721" y2="336.054" gradientUnits="userSpaceOnUse">
<stop stop-color="#FFBB71"/>
<stop offset="1" stop-color="#FFBB71" stop-opacity="0"/>
</linearGradient>
<linearGradient id="paint4_linear_243_2338" x1="192.459" y1="14.5035" x2="238.646" y2="335.921" gradientUnits="userSpaceOnUse">
<stop stop-color="#FFBB71"/>
<stop offset="1" stop-color="#FFBB71" stop-opacity="0"/>
</linearGradient>
<linearGradient id="paint5_linear_243_2338" x1="194.266" y1="14.2432" x2="240.454" y2="335.663" gradientUnits="userSpaceOnUse">
<stop stop-color="#FFBB71"/>
<stop offset="1" stop-color="#FFBB71" stop-opacity="0"/>
</linearGradient>
<linearGradient id="paint6_linear_243_2338" x1="213.941" y1="11.4159" x2="260.128" y2="332.838" gradientUnits="userSpaceOnUse">
<stop stop-color="#FFBB71"/>
<stop offset="1" stop-color="#FFBB71" stop-opacity="0"/>
</linearGradient>
<linearGradient id="paint7_linear_243_2338" x1="179.698" y1="16.3372" x2="225.885" y2="337.756" gradientUnits="userSpaceOnUse">
<stop stop-color="#FFBB71"/>
<stop offset="1" stop-color="#FFBB71" stop-opacity="0"/>
</linearGradient>
<linearGradient id="paint8_linear_243_2338" x1="146.219" y1="21.1474" x2="192.406" y2="342.567" gradientUnits="userSpaceOnUse">
<stop stop-color="#FFBB71"/>
<stop offset="1" stop-color="#FFBB71" stop-opacity="0"/>
</linearGradient>
<linearGradient id="paint9_linear_243_2338" x1="217.427" y1="10.9163" x2="263.614" y2="332.334" gradientUnits="userSpaceOnUse">
<stop stop-color="#FFBB71"/>
<stop offset="1" stop-color="#FFBB71" stop-opacity="0"/>
</linearGradient>
<linearGradient id="paint10_linear_243_2338" x1="191.745" y1="270.837" x2="214.639" y2="110.698" gradientUnits="userSpaceOnUse">
<stop stop-color="#D8274D"/>
<stop offset="1" stop-color="#F22749" stop-opacity="0"/>
</linearGradient>
<linearGradient id="paint11_linear_243_2338" x1="212.044" y1="269.944" x2="203.27" y2="191.042" gradientUnits="userSpaceOnUse">
<stop stop-color="#A9273E"/>
<stop offset="1" stop-color="#B62738" stop-opacity="0"/>
</linearGradient>
<linearGradient id="paint12_linear_243_2338" x1="315.778" y1="16.0758" x2="228.096" y2="120.293" gradientUnits="userSpaceOnUse">
<stop stop-color="#FFECB8"/>
<stop offset="1" stop-color="#FFD371" stop-opacity="0.2"/>
</linearGradient>
</defs>
</svg>
