<svg width="150" height="150" viewBox="0 0 150 150" fill="none" xmlns="http://www.w3.org/2000/svg">
<path d="M150 75C150 79.3817 149.621 83.6811 148.896 87.8487C148.501 90.089 148.023 92.2963 147.446 94.4707C144.25 106.397 138.188 117.137 130.049 125.933C127.1 129.129 123.871 132.061 120.395 134.697C117.199 137.135 113.789 139.326 110.214 141.237C105.371 143.823 100.214 145.882 94.8105 147.364C88.5008 149.094 81.8615 150 75.0082 150C71.8615 150 68.7644 149.802 65.7331 149.423C40.3295 146.294 18.8468 130.447 7.87478 108.456C3.59143 99.8902 0.906112 90.4019 0.19771 80.3701C0.0659149 78.591 0 76.7955 0 75C0 63.6833 2.50413 52.9596 6.98518 43.3396C10.9885 34.7408 16.5898 27.0316 23.3772 20.5908C29.654 14.6277 36.9687 9.73534 45.0247 6.22667C54.2009 2.22381 64.3492 0 74.9917 0C107.331 0 134.893 20.459 145.42 49.1544C148.039 56.3035 149.604 63.9469 149.934 71.9361C149.983 72.9409 150 73.9622 150 75Z" fill="url(#paint0_radial_401_245)"/>
<path d="M7.85825 108.456C7.34754 107.435 6.85331 106.38 6.39203 105.326C2.98182 97.6334 0.840146 89.2818 0.197643 80.5018C0.197643 80.4524 0.197627 80.4195 0.181152 80.3701C1.6968 80.1724 3.77259 80.8642 5.28824 85.1307C7.2487 90.6819 16.3755 104.206 7.85825 108.456Z" fill="#2D2727"/>
<path d="M66.7713 95.7061C66.6724 96.3156 66.4583 96.8922 66.1453 97.4193C63.7565 101.702 55.4369 103.811 46.1618 102.213C38.0893 100.813 31.6478 96.991 29.572 92.8399C28.9624 91.6209 28.7318 90.3855 28.946 89.15C29.885 83.747 38.9624 82.4456 49.4072 84.2741C59.852 86.0696 67.7103 90.3031 66.7713 95.7061Z" fill="#2D2727"/>
<path d="M44.547 59.9934L44.5305 60.0099C42.4547 63.1397 35.9802 60.2734 28.4514 55.3481C22.3065 51.3288 17.9242 47.3259 17.6277 44.2785C17.5618 43.5866 17.7101 42.9277 18.089 42.3347C20.1648 39.172 28.402 38.9578 35.9473 43.8996C43.4926 48.8414 46.6227 56.8306 44.547 59.9934Z" fill="#2D2727"/>
<path d="M127.644 106.183C121.565 111.256 114.283 112.558 111.4 109.082C111.252 108.901 111.12 108.72 111.005 108.522C108.797 104.914 111.433 98.4406 117.199 93.6471C123.064 88.7547 130.033 87.371 133.113 90.3855C133.229 90.5008 133.344 90.6161 133.443 90.7314C136.326 94.2072 133.74 101.126 127.644 106.183Z" fill="#2D2727"/>
<path d="M83.7891 64.5893C77.6442 69.4488 71.4003 72.1338 67.8254 67.6203C67.4794 67.192 67.1993 66.7308 66.9522 66.2366C64.6787 61.6572 66.9193 55.0187 72.4876 50.6205C78.6326 45.7611 87.0181 43.4714 92.7347 50.7029C92.7677 50.7523 92.8171 50.8017 92.8336 50.8511C96.1944 55.3152 89.8847 59.7793 83.7891 64.5893Z" fill="#2D2727"/>
<path d="M59.242 132.457C58.3524 133.313 56.5896 133.791 53.8219 133.659C43.6737 133.214 32.6523 120.86 35.733 116.89C35.7824 116.824 35.8318 116.775 35.8812 116.725C39.0773 113.118 47.0839 119.608 51.1695 121.749C57.9076 125.275 61.5979 130.2 59.242 132.457Z" fill="#2D2727"/>
<path d="M99.0446 123.347C99.061 125.686 95.8815 128.157 90.8733 128.371C81.7135 128.767 76.491 127.004 75.2555 123.743C75.1237 123.397 75.0413 123.034 74.9919 122.639C74.5471 118.669 82.9326 119.344 87.3477 119.114C95.6344 118.669 99.0281 120.942 99.0446 123.347Z" fill="#2D2727"/>
<path d="M126.804 70.7172C125.799 72.2162 123.855 73.2375 121.334 73.2375C113.394 73.2375 102.8 67.505 104.135 62.2008C104.283 61.5913 104.514 61.0642 104.777 60.6359C106.82 57.3414 111.977 58.9392 116.936 59.9935C126.853 62.102 128.978 67.505 126.804 70.7172Z" fill="#2D2727"/>
<path d="M101.021 31.7593C100.922 31.5287 100.873 31.2651 100.84 30.9851C100.642 28.7283 102.866 25.4338 107.199 24.2477C110.016 23.4735 113.822 23.5724 116.178 25.022C117.216 25.6644 117.957 26.5539 118.237 27.7729C118.896 30.8039 102.422 35.268 101.021 31.7593Z" fill="#2D2727"/>
<path d="M55.7496 24.742C55.1894 25.0714 54.5305 24.9726 53.8221 24.2642C48.9621 19.4048 48.5338 11.465 51.1697 10.1472C52.2076 9.62006 53.1137 9.45533 53.888 9.53769C59.1598 10.1307 58.5832 23.0288 55.7496 24.742Z" fill="#2D2727"/>
<path d="M138.962 52.4984C138.616 52.6631 138.204 52.6961 137.759 52.5807C135.914 52.103 133.509 49.2697 132.784 45.0033C132.372 42.4995 133.624 40.0945 135.255 39.3367C137.068 38.4802 139.357 39.6662 140.28 45.0033C140.824 48.0343 140.741 51.6089 138.962 52.4984Z" fill="#2D2727"/>
<path d="M130.05 125.933C124.366 132.078 117.661 137.267 110.214 141.22C109.374 140.808 108.616 140.199 108.32 139.326C108.056 138.551 108.172 137.563 108.979 136.311C112.06 131.452 115.157 123.957 122.208 123.512C124.267 123.38 125.898 123.627 127.2 124.088C128.452 124.55 129.374 125.209 130.05 125.933Z" fill="#2D2727"/>
<path d="M94.7942 147.348C88.4845 149.078 81.8453 149.984 74.9919 149.984C71.8453 149.984 68.7481 149.786 65.7168 149.407C65.7168 148.517 65.8816 147.562 66.4252 146.755C66.9524 145.981 67.8255 145.355 69.2588 145.124C74.5471 144.235 77.1995 140.709 84.6954 141.154C88.5833 141.385 91.3016 143.279 92.9985 145.042C93.8387 145.931 94.4153 146.755 94.7942 147.348Z" fill="#2D2727"/>
<path d="M85.206 10.6908C84.8271 12.5686 81.6475 13.244 80.1154 12.5357C79.7859 12.3874 79.5388 12.1733 79.407 11.9097C78.5174 10.1472 84.3328 6.85263 85.1401 9.7024C85.2389 10.0648 85.2554 10.3943 85.206 10.6908Z" fill="#2D2727"/>
<path d="M62.2076 109.84C60.2306 108.851 58.682 108.077 59.1268 112.047C59.5716 116.017 62.6524 116.906 65.3047 116.906C67.9406 116.906 63.9703 110.729 62.2076 109.84Z" fill="#5E5C5C"/>
<path d="M25.5848 107.204C23.822 106.759 23.822 109.856 22.5041 112.937C21.1861 116.017 22.9489 118.224 25.5848 118.224C28.2372 118.224 29.1103 108.077 25.5848 107.204Z" fill="#5E5C5C"/>
<path d="M17.6444 67.4885C15.9476 66.7142 14.1189 65.7259 13.6741 67.4885C13.2293 69.251 17.1996 74.1105 19.4072 74.1105C21.6148 74.1105 22.4879 69.6958 17.6444 67.4885Z" fill="#5E5C5C"/>
<path d="M150 75C150 79.3817 149.621 83.6811 148.896 87.8487C148.253 87.6016 147.594 87.1568 146.903 86.465C142.487 82.0503 145.832 75.7907 146.903 73.6657C148.089 71.2936 149.275 71.5078 149.934 71.9196C149.983 72.9409 150 73.9622 150 75Z" fill="#5E5C5C"/>
<path d="M104.563 79.8429C102.01 79.5299 100.593 81.6055 104.563 83.3681C108.534 85.1471 108.089 80.2877 104.563 79.8429Z" fill="#5E5C5C"/>
<path d="M9.70349 59.9934C8.51733 60.5865 8.38555 63.0738 11.4663 62.6455C14.547 62.2008 12.3394 58.6756 9.70349 59.9934Z" fill="#5E5C5C"/>
<path d="M72.3557 29.1236C71.0378 29.5684 69.275 30.8862 72.3557 31.331C75.4364 31.7593 73.6737 28.6789 72.3557 29.1236Z" fill="#5E5C5C"/>
<path d="M79.8519 29.1237C78.2374 28.1847 78.0891 32.6488 79.4071 34.4114C80.725 36.1739 85.1402 32.204 79.8519 29.1237Z" fill="#5E5C5C"/>
<path d="M93.97 133.676C93.0145 133.89 92.652 135.438 95.2879 136.328C97.9403 137.201 97.9403 132.786 93.97 133.676Z" fill="#5E5C5C"/>
<path d="M55.585 141.171C54.267 141.615 52.9326 142.488 55.585 143.378C58.2373 144.251 56.9029 140.726 55.585 141.171Z" fill="#5E5C5C"/>
<path d="M57.7924 76.3178C55.5519 76.4331 60.4448 79.3982 61.7627 79.8429C63.0807 80.2877 67.051 75.873 57.7924 76.3178Z" fill="#5E5C5C"/>
<path d="M130.148 64.8528C129.044 65.7094 131.038 70.5853 132.801 70.1405C134.563 69.6958 134.119 61.7559 130.148 64.8528Z" fill="#5E5C5C"/>
<path d="M94.6622 95.7721C94.4645 96.5298 94.2174 97.2711 93.9703 97.93C92.6853 101.373 85.0905 102.724 83.0806 101.142C83.0312 101.109 82.9818 101.06 82.9324 101.01C81.1696 99.2478 82.883 94.8166 83.822 92.6258C85.14 89.5454 91.7627 87.3381 93.9703 88.2111C95.7495 88.9524 95.5188 92.5599 94.6622 95.7721Z" fill="#2D2727"/>
<path d="M17.6277 44.295C17.5618 43.6031 17.7101 42.9442 18.089 42.3512C20.1648 39.1885 28.402 38.9743 35.9473 43.9161C43.4926 48.8579 46.6227 56.8471 44.547 60.0099L44.5305 60.0264C44.6458 58.0991 43.8386 55.3975 41.0214 51.6253C33.6738 41.8241 20.2801 38.4472 17.6277 44.295Z" fill="#5E5C5C"/>
<path d="M66.7713 95.7061C66.6724 96.3156 66.4583 96.8922 66.1453 97.4193C65.964 96.6616 64.3331 90.7149 56.9031 88.2275C49.1931 85.6578 38.8141 83.3681 32.6362 88.2275C30.6593 89.776 29.8191 91.3738 29.572 92.8234C28.9624 91.6044 28.7318 90.369 28.946 89.1335C29.885 83.7305 38.9624 82.4292 49.4072 84.2576C59.852 86.0696 67.7103 90.3031 66.7713 95.7061Z" fill="#5E5C5C"/>
<path d="M78.9621 49.4015C70.7578 52.2348 67.2982 60.2735 66.9522 66.2366C64.6787 61.6572 66.9193 55.0187 72.4876 50.6205C78.6326 45.7611 87.0181 43.4714 92.7347 50.7029C92.7677 50.7523 92.8171 50.8017 92.8336 50.8511C90.3624 48.9403 85.8649 47.0295 78.9621 49.4015Z" fill="#5E5C5C"/>
<path d="M94.6625 95.7721C94.5802 92.5764 93.7894 88.9688 90.4451 89.9902C87.0184 91.0444 83.1304 97.2546 83.0975 101.142C83.0481 101.109 82.9986 101.06 82.9492 101.01C81.1865 99.2478 82.8998 94.8166 83.8389 92.6258C85.1568 89.5454 91.7795 87.3381 93.9871 88.2111C95.7499 88.9524 95.5192 92.5599 94.6625 95.7721Z" fill="#5E5C5C"/>
<path d="M126.804 70.7172C127.809 64.9023 118.484 63.0244 113.822 61.3278C109.209 59.6475 106.046 60.2406 104.761 60.6359C106.804 57.3414 111.96 58.9392 116.919 59.9935C126.853 62.102 128.978 67.505 126.804 70.7172Z" fill="#5E5C5C"/>
<path d="M101.022 31.7593C100.923 31.5287 100.873 31.2651 100.84 30.9851C103.625 32.83 110.758 31.331 114.695 29.552C117.512 28.2671 117.051 26.3892 116.178 25.0385C117.216 25.6809 117.957 26.5704 118.237 27.7894C118.896 30.8039 102.422 35.268 101.022 31.7593Z" fill="#5E5C5C"/>
<path d="M55.7496 24.742C55.1894 25.0714 54.5305 24.9726 53.8221 24.2642C48.9621 19.4048 48.5338 11.465 51.1697 10.1472C52.2076 9.62006 53.1137 9.45533 53.888 9.53769C52.8171 9.73537 51.1697 10.6743 51.1697 14.5619C51.1697 19.0424 53.3278 22.7158 55.7496 24.742Z" fill="#5E5C5C"/>
<path d="M85.206 10.6908C85.0577 9.93302 84.4646 9.20822 82.5042 9.7024C80.9062 10.0977 80.2966 11.3167 80.1154 12.5357C79.7859 12.3874 79.5388 12.1733 79.407 11.9097C78.5174 10.1472 84.3328 6.85263 85.1401 9.7024C85.2389 10.0648 85.2554 10.3943 85.206 10.6908Z" fill="#5E5C5C"/>
<path d="M59.2424 132.457C58.8635 130.085 56.6888 127.778 52.9327 125.719C48.0727 123.067 44.5472 120.432 41.4664 118.224C39.8519 117.071 37.6279 116.758 35.8816 116.725C39.0776 113.118 47.0842 119.608 51.1699 121.749C57.9079 125.275 61.5982 130.2 59.2424 132.457Z" fill="#5E5C5C"/>
<path d="M99.0446 123.347C98.3362 121.585 96.1945 120.86 92.636 120.86H80.2802C75.552 120.86 75.2555 123.594 75.2555 123.726C75.1237 123.38 75.0413 123.018 74.9919 122.622C74.5471 118.653 82.9326 119.328 87.3477 119.097C95.6344 118.669 99.0281 120.942 99.0446 123.347Z" fill="#5E5C5C"/>
<path d="M92.9985 145.058C93.8387 145.915 94.4153 146.755 94.7942 147.348C88.4845 149.078 81.8453 149.984 74.9919 149.984C71.8453 149.984 68.7481 149.786 65.7168 149.407C65.7168 148.517 65.8816 147.562 66.4252 146.755C81.0875 150.214 89.5389 147.002 92.9985 145.058Z" fill="#5E5C5C"/>
<path d="M130.049 125.934C124.366 132.078 117.661 137.267 110.214 141.22C109.374 140.808 108.616 140.199 108.32 139.326C120.626 134.713 125.947 126.362 127.199 124.105C128.451 124.55 129.374 125.209 130.049 125.934Z" fill="#5E5C5C"/>
<path d="M133.113 90.3855C132.125 90.0396 125.09 88.0793 116.903 97.4852C112.768 102.246 111.334 105.936 111.005 108.522C108.797 104.914 111.433 98.4406 117.199 93.6471C123.064 88.7712 130.033 87.371 133.113 90.3855Z" fill="#5E5C5C"/>
<path d="M137.759 52.5642C135.914 52.0865 133.509 49.2532 132.784 44.9868C132.372 42.483 133.624 40.078 135.255 39.3202C134.547 40.2592 133.888 41.6923 134.102 43.669C134.481 46.8647 135.684 50.0604 137.759 52.5642Z" fill="#5E5C5C"/>
<path d="M7.85825 108.456C7.34754 107.435 6.85331 106.38 6.39203 105.326C8.50075 103.415 10.5765 99.9231 7.94063 94.4048C4.67869 87.5686 3.09715 81.6879 0.197643 80.5018C0.197643 80.4524 0.197627 80.4195 0.181152 80.3701C1.6968 80.1724 3.77259 80.8642 5.28824 85.1307C7.2487 90.6819 16.3755 104.206 7.85825 108.456Z" fill="#5E5C5C"/>
<path opacity="0.45" d="M120.395 134.697C117.199 137.135 113.789 139.326 110.214 141.237C105.371 143.823 100.214 145.882 94.8105 147.364C88.5008 149.094 81.8615 150 75.0082 150C71.8615 150 68.7644 149.802 65.7331 149.423C40.3295 146.294 18.8468 130.447 7.87478 108.456C3.59143 99.8902 0.906112 90.4019 0.19771 80.3701C0.0659149 78.591 0 76.7955 0 75C0 63.6833 2.50413 52.9596 6.98518 43.3396C10.9885 34.7408 16.5898 27.0316 23.3772 20.5908C2.4547 120.366 79.4069 134.186 120.395 134.697Z" fill="url(#paint1_linear_401_245)"/>
<path d="M150 75C150 79.3817 149.621 83.6811 148.896 87.8487C148.501 90.089 148.023 92.2963 147.447 94.4707C144.844 34.1478 103.987 -0.148253 45.0249 6.22667C54.2012 2.22381 64.3494 0 74.9919 0C107.331 0 134.893 20.459 145.42 49.1544C148.04 56.3035 149.605 63.9469 149.934 71.9361C149.984 72.9409 150 73.9622 150 75Z" fill="url(#paint2_linear_401_245)"/>
<defs>
<radialGradient id="paint0_radial_401_245" cx="0" cy="0" r="1" gradientUnits="userSpaceOnUse" gradientTransform="translate(71.6874 35.2938) scale(114.532 114.519)">
<stop stop-color="#E8E8E8"/>
<stop offset="1" stop-color="#DFDFDF"/>
</radialGradient>
<linearGradient id="paint1_linear_401_245" x1="60.5034" y1="183.473" x2="59.7718" y2="-2.39117" gradientUnits="userSpaceOnUse">
<stop/>
<stop offset="1" stop-opacity="0.2"/>
</linearGradient>
<linearGradient id="paint2_linear_401_245" x1="141.712" y1="-0.0331046" x2="96.0849" y2="50.5263" gradientUnits="userSpaceOnUse">
<stop stop-color="#B7B7B7"/>
<stop offset="0.557292" stop-color="#AEAEAE" stop-opacity="0.2"/>
</linearGradient>
</defs>
</svg>
