<svg width="150" height="150" viewBox="0 0 150 150" fill="none" xmlns="http://www.w3.org/2000/svg">
<path d="M150 75.2713C149.813 141.989 68.6308 174.678 22.2474 128.265C-25.1434 81.3051 8.20142 0 74.963 0C118.483 0 150.1 35.9004 150 75.2713Z" fill="url(#paint0_radial_401_246)"/>
<g opacity="0.5">
<path d="M149.539 67.567C148.143 67.4518 146.502 67.4518 144.675 67.6966C139.076 68.431 130.499 71.6135 121.433 82.6299C119.993 84.3868 118.655 86.0428 117.345 87.6557C102.824 105.642 96.19 113.865 52.8719 117.796C39.1857 119.034 29.7162 123.614 23.1537 129.172C22.8371 128.87 22.5349 128.582 22.2327 128.265C28.9534 122.534 38.6964 117.796 52.7568 116.529C95.528 112.64 101.63 105.095 116.352 86.8492C117.648 85.2364 118.986 83.5803 120.44 81.8235C129.808 70.4327 138.745 67.1638 144.588 66.415C146.373 66.1845 147.985 66.1702 149.381 66.271C149.453 66.703 149.51 67.135 149.539 67.567Z" fill="black"/>
<path d="M149.151 85.6396C149.093 86.0572 149.036 86.4749 148.964 86.8781C142.301 86.7773 136.357 89.4989 131.219 95.0143C128.226 98.2256 125.664 101.235 123.405 103.885C112.28 116.932 105.559 124.809 72.5311 130.137C59.7372 132.196 50.3252 136.689 44.4967 143.486C44.0938 143.314 43.6908 143.126 43.2878 142.939C49.3034 135.753 59.0608 131.015 72.3297 128.884C104.897 123.628 111.129 116.327 122.44 103.064C124.714 100.4 127.29 97.376 130.298 94.1503C136.486 87.4829 143.236 85.5244 149.151 85.6396Z" fill="black"/>
<path d="M144.301 103.482C144.114 103.928 143.927 104.389 143.725 104.835C138.357 105.743 133.752 108.565 129.967 113.303C119.663 126.191 112.827 132.844 94.7368 138.23C82.5041 141.859 77.3376 146.41 75.1933 149.967H74.963C74.5457 149.967 74.1427 149.967 73.7253 149.952C76.5317 144.595 83.4683 140.232 94.3626 136.992C112.107 131.721 118.828 125.169 128.959 112.496C133.709 106.578 139.249 104.187 144.301 103.482Z" fill="black"/>
<path d="M71.5808 83.9259C66.8748 92.1198 55.0883 95.2303 37.6459 99.0464C22.5494 102.344 14.8787 109.012 11.065 114.153C10.8204 113.749 10.5757 113.346 10.3311 112.943C10.6764 112.482 11.065 112.021 11.4823 111.532C15.4256 106.981 23.125 100.919 37.3725 97.7936C54.4838 94.0495 66.0257 91.011 70.4727 83.2923C73.3078 78.3386 73.1926 71.5704 70.1129 61.9796C67.508 53.8866 63.5936 45.7647 59.8231 37.9165C54.1672 26.1513 48.6985 14.8037 48.3531 4.88178C48.7849 4.72337 49.2022 4.56495 49.6339 4.40654C49.821 14.1701 55.2897 25.5464 60.9743 37.3548C64.7737 45.2463 68.7025 53.397 71.3362 61.5908C74.531 71.5416 74.6174 78.641 71.5808 83.9259Z" fill="black"/>
<path d="M54.7861 71.3687C51.8071 76.9849 42.5534 79.289 26.5214 81.5787C14.8644 83.2492 6.93475 87.1373 1.73946 90.939C1.63872 90.4638 1.538 89.9742 1.43726 89.499C6.77646 85.726 14.7349 81.9675 26.3343 80.3115C41.5892 78.137 50.9436 75.8761 53.6492 70.7639C55.4049 67.4374 54.5846 62.6421 50.9724 55.2402C50.1809 53.6274 49.4037 52.0577 48.6554 50.5312C41.8483 36.822 36.2932 25.6329 38.1497 9.66275C38.6102 9.40354 39.0563 9.14434 39.5313 8.89953C37.3725 24.8985 42.7117 35.67 49.8067 49.9552C50.5694 51.4817 51.3466 53.0514 52.1381 54.6642C55.9374 62.4981 56.7578 67.639 54.7861 71.3687Z" fill="black"/>
<path d="M20.7941 60.554C19.1103 61.202 17.2107 61.9364 15.1815 62.7861C7.48212 66.055 2.74737 69.5831 0.0849609 72.0744C0.0993523 71.4696 0.142537 70.8647 0.185711 70.2599C3.0496 67.783 7.65482 64.6005 14.6922 61.6196C16.7358 60.7556 18.6498 60.0212 20.348 59.3732C30.422 55.5138 34.5955 53.9154 31.7748 38.0316C29.9039 27.4905 30.3069 19.4118 31.084 14.2133C31.5733 13.8532 32.0626 13.5077 32.5663 13.162C31.7028 18.1734 31.0408 26.6265 33.0268 37.8156C36.0346 54.7218 30.9401 56.6803 20.7941 60.554Z" fill="black"/>
<path d="M20.1036 41.0126C16.8943 45.9663 10.3174 47.7088 4.92065 48.2704C5.09335 47.8096 5.28045 47.3487 5.46753 46.8879C10.4613 46.2831 16.2467 44.6127 19.0386 40.307C21.3844 36.6924 21.2981 31.681 18.7652 25.3736C19.0818 25.0136 19.384 24.668 19.715 24.3224C22.6364 31.321 22.766 36.9228 20.1036 41.0126Z" fill="black"/>
<path d="M148.229 59.1572C136.831 56.8819 132.039 49.552 127.376 42.4382C126.383 40.9117 125.347 39.3421 124.282 37.8733C123.476 36.7644 122.713 35.6412 121.994 34.5611C116.655 26.6697 111.603 19.2102 85.9578 15.1205C73.61 13.1476 65.0328 9.1875 60.4851 3.32651C60.0389 2.75049 59.6647 2.1889 59.3337 1.64168C59.7799 1.54087 60.226 1.45447 60.6722 1.36806C60.9312 1.78568 61.2334 2.2033 61.5644 2.63531C64.5722 6.45144 71.2786 11.4916 86.1593 13.8677C112.352 18.0438 117.547 25.7193 123.044 33.8555C123.764 34.9212 124.512 36.03 125.318 37.1244C126.412 38.6221 127.448 40.2061 128.456 41.747C132.874 48.5008 137.421 55.4418 147.942 57.7747C148.028 58.2211 148.143 58.6819 148.229 59.1572Z" fill="black"/>
<path d="M142.905 43.2878C135.004 41.1277 130.701 35.6412 126.182 29.881C121.088 23.4008 115.331 16.0565 103.3 12.1108C90.4918 7.90587 84.3179 3.55692 81.3389 0.273613C82.0009 0.331215 82.6773 0.388838 83.3393 0.475241C86.4622 3.42734 92.4058 7.20025 103.689 10.9012C116.08 14.9621 121.98 22.4792 127.175 29.1034C131.507 34.6188 135.364 39.5293 142.157 41.747C142.416 42.251 142.661 42.7694 142.905 43.2878Z" fill="black"/>
<path d="M123.289 56.1186C120.857 43.9214 103.976 26.3672 88.5772 19.9734C80.6763 16.7045 73.9412 16.6902 69.0913 19.9159C66.1123 21.9031 68.2566 28.0377 71.5234 37.3116C73.0057 41.5166 74.6751 46.2687 76.0711 51.2945C77.1792 55.2834 77.8844 59.7188 78.5752 63.9957C80.59 76.5241 82.4897 88.3613 93.643 89.6718C94.3194 89.7582 95.0102 89.7869 95.701 89.7869C102.379 89.7869 109.79 86.158 115.489 79.9658C121.951 72.9528 124.872 64.0389 123.289 56.1186ZM114.539 79.1018C108.509 85.6396 100.565 89.1965 93.7869 88.4045C83.5834 87.2093 81.7557 75.8329 79.8273 63.7941C79.1365 59.474 78.4169 55.0098 77.2944 50.9489C75.884 45.8799 74.2002 41.099 72.7179 36.8796C69.9836 29.1178 67.6234 22.4215 69.7821 20.9815C75.4379 17.2086 82.8494 18.9942 88.0735 21.1543C102.882 27.2889 119.706 44.7423 122.023 56.3635C123.534 63.8805 120.728 72.3912 114.539 79.1018Z" fill="black"/>
<path d="M110.222 43.7631C102.638 34.8492 90.8373 26.2089 80.936 26.2089C80.4611 26.2089 80.015 26.2233 79.5544 26.2665C78.6334 26.3385 77.9426 26.7993 77.554 27.5625C75.2226 32.1419 84.3036 47.3344 84.3899 47.4784C86.6782 51.2945 87.1099 56.7091 87.5129 61.9509C88.1173 69.7271 88.693 77.0713 95.5145 77.6906C96.2053 77.7482 96.896 77.7914 97.5724 77.7914C107.445 77.7914 116.037 71.3256 118.426 61.7781C119.419 57.7891 116.281 50.8769 110.222 43.7631ZM117.188 61.4612C114.785 71.0376 105.718 77.3305 95.6152 76.4089C89.8587 75.8905 89.355 69.3815 88.7649 61.85C88.3476 56.4643 87.9158 50.8913 85.4549 46.8159C81.7851 40.7245 77.2518 30.9034 78.6622 28.1385C78.8637 27.7641 79.1659 27.5625 79.6408 27.5337C89.3694 26.7129 101.516 35.4972 109.244 44.5839C114.957 51.2945 118.08 57.9187 117.188 61.4612Z" fill="black"/>
<path d="M107.43 58.2931C106.811 51.6977 99.4716 41.9774 93.715 41.9774C93.1681 41.9774 92.8515 42.251 92.6788 42.4814C91.988 43.403 92.5062 45.2319 93.5567 48.6448C94.2475 50.8769 95.0246 53.4114 95.1973 55.4562C95.2693 56.2771 95.2693 57.0979 95.2837 57.8899C95.3125 60.1652 95.3556 62.3108 96.8523 63.5349C97.6439 64.1829 98.7664 64.4997 100.277 64.4997C101.227 64.4997 102.335 64.3701 103.602 64.1397C106.379 63.5781 107.732 61.5188 107.43 58.2931ZM103.386 62.8581C100.493 63.4053 98.6225 63.3045 97.6726 62.5269C96.6365 61.6772 96.6077 59.906 96.5789 57.8467C96.5645 57.0403 96.5501 56.2051 96.4782 55.3411C96.3055 53.1522 95.4995 50.5457 94.78 48.2416C94.2331 46.4559 93.3984 43.7774 93.6862 43.2446H93.7006C98.7088 43.2446 105.602 52.5617 106.149 58.4083C106.394 60.9572 105.458 62.4549 103.386 62.8581Z" fill="black"/>
</g>
<path opacity="0.65" d="M148.719 88.7789C147.697 94.1647 146.042 99.5505 143.74 104.85C122.8 153.077 59.406 165.447 22.2619 128.279C-0.433361 105.786 -4.60686 75.4009 4.54606 49.8401C12.1447 67.5094 24.3918 94.0063 67.7386 107.37C98.5506 116.86 133.723 108.637 148.719 88.7789Z" fill="url(#paint1_linear_401_246)"/>
<path opacity="0.65" d="M150 75.2713C149.986 79.7354 149.568 84.2572 148.705 88.7789C147.683 94.1647 146.028 99.5505 143.725 104.85C122.786 153.077 59.3919 165.447 22.2478 128.279C17.8296 123.902 14.1166 119.222 11.0657 114.34C115.921 162.063 149.065 72.0168 149.065 72.0168L150 75.2713Z" fill="url(#paint2_linear_401_246)"/>
<defs>
<radialGradient id="paint0_radial_401_246" cx="0" cy="0" r="1" gradientUnits="userSpaceOnUse" gradientTransform="translate(76.2845 46.2392) scale(74.98 75.0273)">
<stop stop-color="#FFBB71"/>
<stop offset="1" stop-color="#FC7B24"/>
</radialGradient>
<linearGradient id="paint1_linear_401_246" x1="63.1542" y1="151.172" x2="74.6644" y2="77.4684" gradientUnits="userSpaceOnUse">
<stop stop-color="#E04127"/>
<stop offset="1" stop-color="#E04127" stop-opacity="0.1"/>
</linearGradient>
<linearGradient id="paint2_linear_401_246" x1="95.3743" y1="155.221" x2="76.8319" y2="79.8198" gradientUnits="userSpaceOnUse">
<stop stop-color="#C22C27"/>
<stop offset="1" stop-color="#D33127" stop-opacity="0.2"/>
</linearGradient>
</defs>
</svg>
