<svg width="212" height="139" viewBox="0 0 212 139" fill="none" xmlns="http://www.w3.org/2000/svg">
<path d="M175.952 69.3084C175.952 66.9085 175.825 64.5336 175.572 62.1837C173.709 43.7846 164.884 28.402 152.316 17.5442C140.717 7.34473 125.646 0.845042 108.905 0.095079C93.9603 -0.679883 78.5011 3.25327 64.7867 12.9695C64.753 12.9861 64.7193 13.0111 64.694 13.0361C64.6855 13.0444 64.6771 13.0528 64.6265 13.0861C64.6097 13.0944 64.6012 13.1028 64.6012 13.1028C52.9605 21.3941 44.8178 32.3018 40.148 44.2596C16.9929 44.7096 1.6011 48.9177 0.117553 56.5923C-1.46714 64.7669 13.0817 75.0664 37.0123 84.4493C37.0461 84.5993 37.0798 84.7493 37.1135 84.891C37.1219 84.9243 37.1304 84.9576 37.1388 84.9826C37.2736 85.5826 37.4254 86.1826 37.5771 86.7825C37.594 86.8575 37.6108 86.9242 37.6361 86.9992C37.7878 87.5908 37.9564 88.1825 38.125 88.7658C38.1419 88.8158 38.1503 88.8658 38.1671 88.9158C38.5296 90.1407 38.9174 91.349 39.3472 92.5406C39.3557 92.5739 39.3725 92.5989 39.381 92.6323C39.5664 93.1489 39.7518 93.6655 39.9541 94.1738C44.4554 106.007 52.3198 116.806 63.4886 125.072C63.7752 125.289 64.0702 125.506 64.3652 125.714C64.5591 125.856 64.753 125.989 64.9468 126.131C65.4779 126.506 66.0089 126.872 66.5484 127.222C80.2291 136.297 95.4354 139.83 110.06 138.838C112.774 138.672 115.446 138.355 118.068 137.897C124.87 136.705 131.327 134.539 137.303 131.555C137.927 131.247 138.543 130.922 139.158 130.589C139.259 130.53 139.369 130.48 139.47 130.422C140.077 130.089 140.684 129.755 141.282 129.405C141.333 129.38 141.383 129.347 141.425 129.322C142.015 128.98 142.597 128.622 143.179 128.264C143.229 128.231 143.28 128.206 143.322 128.172C143.92 127.797 144.519 127.406 145.109 127.014C145.134 126.997 145.16 126.981 145.185 126.964C145.235 126.931 145.278 126.897 145.328 126.864C145.707 126.606 146.078 126.356 146.449 126.089C146.542 126.022 146.635 125.964 146.719 125.897C147.09 125.631 147.452 125.364 147.823 125.097C147.899 125.039 147.975 124.981 148.051 124.931C148.919 124.281 149.762 123.622 150.596 122.931C150.723 122.831 150.841 122.722 150.967 122.622C151.245 122.389 151.524 122.156 151.793 121.922C151.953 121.789 152.114 121.648 152.274 121.506C152.51 121.298 152.746 121.089 152.982 120.873C153.142 120.731 153.302 120.581 153.462 120.431C153.479 120.414 153.496 120.398 153.513 120.381C153.597 120.306 153.681 120.223 153.774 120.148C157.399 116.839 160.678 113.14 163.544 109.098C191.267 109.565 210.216 105.315 211.885 96.7654C213.428 88.7158 199.292 78.5913 175.952 69.3084ZM38.184 50.001H38.1756C38.2514 49.7593 38.3273 49.5177 38.4032 49.276C38.3273 49.5177 38.2599 49.7593 38.184 50.001ZM36.1863 58.9089C36.1778 58.9589 36.1694 59.0089 36.161 59.0589C36.0683 59.6505 35.984 60.2505 35.9165 60.8505C35.9081 60.9505 35.8913 61.0421 35.8828 61.1421C35.807 61.7421 35.7395 62.3421 35.689 62.942C35.689 62.967 35.6805 62.992 35.6805 63.017C35.6299 63.592 35.5794 64.1753 35.5457 64.7503C35.5372 64.8586 35.5288 64.9669 35.5204 65.0836C35.4867 65.6669 35.4529 66.2419 35.4361 66.8252C35.4276 66.9418 35.4276 67.0668 35.4276 67.1835C35.4192 67.4418 35.4108 67.7001 35.4024 67.9584C24.5624 63.3837 18.4427 59.0589 19.0833 55.7507C19.7155 52.5175 26.7287 50.751 38.0744 50.4093C37.2652 53.1842 36.633 56.0174 36.1863 58.9089ZM175.665 75.8081C188.09 80.7745 195.246 85.5076 194.555 89.0657C193.855 92.6822 185.165 94.4655 171.374 94.4738C173.608 88.6741 175.092 82.4327 175.665 75.8081ZM8.45407 56.6257C9.88704 49.2593 25.5907 47.1511 39.2292 46.7261C39.0354 47.2761 38.8583 47.8261 38.6813 48.3844C21.4014 48.9844 11.025 52.0675 10.0809 56.934C9.0947 62.0171 18.3753 69.0501 35.5372 76.2497C35.5962 76.2747 35.6468 76.2914 35.7058 76.3164C35.7058 76.3164 35.7058 76.3164 35.7142 76.3164C35.7395 76.5414 35.7564 76.7663 35.7817 76.9913C35.8238 77.383 35.8744 77.783 35.9165 78.1746C35.5709 78.033 35.2338 77.8913 34.8966 77.7496C22.0083 72.3582 6.9621 64.3086 8.45407 56.6257ZM206.845 94.2822C205.353 101.965 188.359 103.932 174.367 104.223C172.993 104.248 171.577 104.265 170.152 104.265C169.006 104.265 167.843 104.257 166.671 104.24C166.983 103.707 167.295 103.157 167.598 102.615C169.916 102.648 172.167 102.64 174.342 102.59C192.987 102.19 204.24 99.0486 205.226 93.9738C206.212 88.8908 196.932 81.8578 179.762 74.6581C178.497 74.1248 177.191 73.5998 175.859 73.0749C175.859 72.9915 175.867 72.8999 175.867 72.8165C175.893 72.3249 175.909 71.8249 175.926 71.3333C177.46 71.9332 178.952 72.5416 180.411 73.1499C193.29 78.5496 208.337 86.5992 206.845 94.2822Z" fill="url(#paint0_radial_409_89)"/>
<path d="M161.74 69.5084C161.74 114.148 111.232 139.863 74.5478 115.514C42.171 94.0405 41.2944 47.1428 73.0052 24.5605C73.0052 24.5605 73.0136 24.5522 73.0305 24.5439C73.0726 24.5189 73.0726 24.5105 73.0811 24.5022C73.1064 24.4772 73.1317 24.4605 73.1569 24.4522C109.639 -1.39653 161.74 24.0689 161.74 69.5084Z" fill="url(#paint1_radial_409_89)"/>
<path d="M81.9991 69.5084C82.3278 72.7666 70.7966 69.5084 63.5475 69.5084C58.7091 69.5084 53.5673 70.3833 49.7151 69.1167C49.7488 63.8587 50.5327 58.7755 51.9488 53.9674C53.9128 53.7175 57.2424 54.2758 62.2325 58.1089C71.1254 64.9419 81.6703 66.2502 81.9991 69.5084Z" fill="url(#paint2_linear_409_89)"/>
<path d="M120.546 76.3414C112.311 75.6914 103.081 73.4082 101.437 75.0414C99.7933 76.6663 114.722 80.8245 128.453 83.1827C143.609 85.7909 153.167 86.7658 149.871 82.5327C146.576 78.2996 141.307 73.0832 133.064 75.6914C124.837 78.2996 125.148 76.708 120.546 76.3414Z" fill="url(#paint3_linear_409_89)"/>
<path d="M119.889 99.1486C119.889 102.673 87.2675 93.2822 76.3938 97.5237C68.268 100.69 65.6633 102.94 60.7407 102.523C54.9413 94.8071 51.1145 85.5492 50.0271 75.4831C52.8678 76.5497 57.7567 78.6162 65.52 82.5411C79.698 89.699 119.889 94.2571 119.889 99.1486Z" fill="url(#paint4_linear_409_89)"/>
<path d="M145.614 108.373C141.358 112.648 136.393 116.239 130.922 118.964C129.456 117.664 128.014 116.198 125.823 115.431C120.217 113.473 105.399 109.898 108.357 107.94C111.324 105.982 120.875 107.29 132.077 106.64C138.863 106.24 143.229 107.398 145.614 108.373Z" fill="url(#paint5_linear_409_89)"/>
<path d="M140.978 99.4735C137.033 95.3321 125.823 96.2154 127.466 100.124C128.368 102.248 146.247 105.007 140.978 99.4735Z" fill="url(#paint6_linear_409_89)"/>
<path d="M93.2014 105.332C88.304 104.257 84.966 106.307 84.3086 107.94C83.6511 109.565 97.8206 111.848 98.1494 110.223C98.4781 108.598 96.1685 105.982 93.2014 105.332Z" fill="url(#paint7_linear_409_89)"/>
<path d="M91.2292 77.3246C87.967 76.5163 82.0076 77.9746 82.0076 79.9328C82.0076 81.891 89.9142 84.1659 93.21 83.191C96.4974 82.2077 97.8124 78.9495 91.2292 77.3246Z" fill="url(#paint8_linear_409_89)"/>
<path d="M96.8263 83.5077C95.8485 83.3494 94.5166 84.4827 95.1826 85.4659C95.84 86.4409 100.78 84.166 96.8263 83.5077Z" fill="url(#paint9_linear_409_89)"/>
<path d="M130.105 92.6322C127.989 92.0073 126.48 92.9572 127.466 94.9155C128.461 96.8654 136.696 94.5821 130.105 92.6322Z" fill="url(#paint10_linear_409_89)"/>
<path d="M145.589 102.732C144.426 101.582 143.609 103.707 144.274 104.357C144.932 105.007 148.228 105.332 145.589 102.732Z" fill="url(#paint11_linear_409_89)"/>
<path d="M115.598 124.014C112.395 124.581 109.091 124.872 105.727 124.872C94.1877 124.872 83.4573 121.422 74.5476 115.506C81.1477 113.623 92.1226 115.164 103.097 120.314C108.206 122.722 112.395 123.697 115.598 124.014Z" fill="url(#paint12_linear_409_89)"/>
<path d="M117.916 118.039C116.239 118.039 116.272 119.014 116.272 119.998C116.272 120.973 117.916 121.298 118.911 119.998C119.888 118.689 119.231 118.039 117.916 118.039Z" fill="url(#paint13_linear_409_89)"/>
<path d="M113.634 119.014C112.985 118.906 112.648 120.639 113.634 120.973C114.62 121.297 115.606 119.339 113.634 119.014Z" fill="url(#paint14_linear_409_89)"/>
<path d="M76.0736 101.098C73.7893 101.548 70.4681 103.057 73.4352 105.007C76.4023 106.965 82.6568 99.7985 76.0736 101.098Z" fill="url(#paint15_linear_409_89)"/>
<path d="M65.1994 74.0665C64.0109 72.8915 63.2185 76.0247 63.8845 76.3497C64.5335 76.6747 66.5144 75.3664 65.1994 74.0665Z" fill="url(#paint16_linear_409_89)"/>
<path d="M74.7498 55.5007C71.8333 54.0591 67.8294 52.8925 67.1719 54.2008C66.5145 55.5007 79.0319 64.3003 81.999 62.3421C84.9661 60.3838 77.3882 56.8006 74.7498 55.5007Z" fill="url(#paint17_linear_409_89)"/>
<path d="M123.185 69.5083C121.103 68.475 121.204 73.0915 124.171 74.3914C127.138 75.6913 124.508 70.1583 123.185 69.5083Z" fill="url(#paint18_linear_409_89)"/>
<path d="M155.477 75.0414C151.498 74.8581 152.838 81.2327 155.477 81.8827C158.115 82.5327 162.397 75.3664 155.477 75.0414Z" fill="url(#paint19_linear_409_89)"/>
<path opacity="0.45" d="M137.202 115.306C135.196 116.656 133.106 117.873 130.922 118.964C126.16 121.339 121.01 123.064 115.59 124.014C112.386 124.581 109.082 124.872 105.719 124.872C94.1793 124.872 83.4489 121.423 74.5392 115.506C69.2204 111.981 64.559 107.582 60.749 102.507C59.9229 101.407 59.1305 100.274 58.3888 99.1069C53.9128 92.1323 50.971 84.091 50.0354 75.4664C49.8247 73.5082 49.7151 71.5083 49.7151 69.5C49.7151 69.3667 49.7151 69.2334 49.7151 69.1084C49.7488 64.7753 50.2798 60.5588 51.2661 56.5173C58.2623 74.7831 71.6311 95.7154 97.1296 106.982C100.299 108.381 103.654 109.631 107.203 110.706C117.832 113.923 127.871 115.273 137.202 115.306Z" fill="url(#paint20_linear_409_89)"/>
<path opacity="0.55" d="M158.545 87.9575C155.78 95.6904 151.33 102.64 145.615 108.373C143.052 110.948 140.237 113.273 137.202 115.306C135.196 116.656 133.106 117.873 130.923 118.964C126.16 121.339 121.01 123.064 115.59 124.014C112.387 124.581 109.082 124.872 105.719 124.872C94.1795 124.872 83.4491 121.422 74.5393 115.506C69.2205 111.981 64.5591 107.581 60.7491 102.507C59.923 101.407 59.1307 100.274 58.3889 99.1069C72.7186 104.065 85.6069 106.448 97.1297 106.973C125.292 108.256 145.345 98.4319 158.545 87.9575Z" fill="url(#paint21_linear_409_89)"/>
<path d="M73.1569 24.4523C73.1148 24.4856 73.0811 24.5023 73.0642 24.5189C73.0811 24.5023 73.1232 24.4689 73.1569 24.4523Z" fill="url(#paint22_linear_409_89)"/>
<path d="M161.327 76.225C161.58 73.7834 163.603 46.3264 129.945 27.9773C96.4048 9.69484 75.1463 23.1109 73.157 24.4525C82.3364 17.9528 93.581 14.128 105.728 14.128C139.411 14.1363 165.407 43.3182 161.327 76.225Z" fill="url(#paint23_linear_409_89)"/>
<path d="M164.775 73.6165C163.763 73.1915 162.726 72.7665 161.664 72.3499C161.63 73.0832 161.571 73.7998 161.512 74.5248C171.417 78.4829 177.123 82.2578 176.575 85.091C176.019 87.9825 169.057 89.3991 158.014 89.3991C144.721 89.3991 125.511 87.3492 104.413 83.3494C81.7634 79.0496 61.98 73.4582 49.7323 68.2751C41.1007 64.6253 36.2118 61.1838 36.726 58.5506C37.2233 55.9674 42.8203 54.5674 51.8564 54.2925C51.8902 54.1758 51.9155 54.0675 51.9492 53.9592C52.0756 53.5258 52.2105 53.1009 52.3453 52.6759C38.5804 53.1508 30.3029 55.6174 29.5527 59.4922C28.7688 63.542 36.1612 69.1501 49.8419 74.8831C49.884 74.8998 49.9346 74.9165 49.9767 74.9415C64.121 80.8495 83.3734 86.2826 104.21 90.2407C122.704 93.7489 140.473 95.7238 154.98 95.8988C156.868 95.9238 158.697 95.9154 160.459 95.8821C175.311 95.5655 184.288 93.0572 185.072 89.0158C185.856 84.9576 178.464 79.3496 164.775 73.6165Z" fill="url(#paint24_linear_409_89)"/>
<path d="M161.74 69.3501V69.5084C161.74 70 161.731 70.4833 161.723 70.975C162.945 71.45 164.142 71.9333 165.297 72.4249C175.564 76.7247 187.559 83.1411 186.37 89.2574C185.182 95.3738 171.636 96.9404 160.492 97.182C159.397 97.207 158.275 97.2154 157.129 97.2154C156.185 97.2154 155.224 97.207 154.246 97.1904C139.799 96.9487 122.224 94.9821 103.957 91.5156C83.3648 87.6075 64.3063 82.2578 50.1452 76.4247C49.867 76.3081 49.5973 76.1997 49.3275 76.0831C39.0607 71.7833 27.0659 65.3669 28.2544 59.2505C29.3924 53.3758 41.9182 51.7009 52.7919 51.3593C53.0195 50.701 53.264 50.0427 53.5253 49.3927C35.0652 49.751 22.8007 53.1092 21.6122 59.2172C20.3478 65.7336 31.9464 73.9415 51.0134 81.4161C64.7952 86.8159 82.4882 91.8323 102.044 95.5488C120.302 99.0153 137.481 100.824 151.751 101.074C173.895 101.457 189.042 98.0737 190.366 91.249C191.605 84.816 180.343 76.7414 161.74 69.3501Z" fill="url(#paint25_linear_409_89)"/>
<defs>
<radialGradient id="paint0_radial_409_89" cx="0" cy="0" r="1" gradientUnits="userSpaceOnUse" gradientTransform="translate(105.985 69.5084) scale(65.309 64.5628)">
<stop stop-color="#F963BA"/>
<stop offset="1" stop-color="#FF9CF6" stop-opacity="0"/>
</radialGradient>
<radialGradient id="paint1_radial_409_89" cx="0" cy="0" r="1" gradientUnits="userSpaceOnUse" gradientTransform="translate(109.687 45.5606) scale(66.792 66.0288)">
<stop stop-color="#FBB6B6"/>
<stop offset="1" stop-color="#ED3558"/>
</radialGradient>
<linearGradient id="paint2_linear_409_89" x1="55.6593" y1="138.207" x2="75.9535" y2="-5.49395" gradientUnits="userSpaceOnUse">
<stop stop-color="#BD2B3B"/>
<stop offset="1" stop-color="#E22B57" stop-opacity="0"/>
</linearGradient>
<linearGradient id="paint3_linear_409_89" x1="116.223" y1="146.76" x2="136.517" y2="3.05942" gradientUnits="userSpaceOnUse">
<stop stop-color="#BD2B3B"/>
<stop offset="1" stop-color="#E22B57" stop-opacity="0"/>
</linearGradient>
<linearGradient id="paint4_linear_409_89" x1="77.1715" y1="141.245" x2="97.4656" y2="-2.45563" gradientUnits="userSpaceOnUse">
<stop stop-color="#BD2B3B"/>
<stop offset="1" stop-color="#E22B57" stop-opacity="0"/>
</linearGradient>
<linearGradient id="paint5_linear_409_89" x1="121.153" y1="147.456" x2="141.447" y2="3.75513" gradientUnits="userSpaceOnUse">
<stop stop-color="#BD2B3B"/>
<stop offset="1" stop-color="#E22B57" stop-opacity="0"/>
</linearGradient>
<linearGradient id="paint6_linear_409_89" x1="127.675" y1="148.377" x2="147.969" y2="4.6766" gradientUnits="userSpaceOnUse">
<stop stop-color="#BD2B3B"/>
<stop offset="1" stop-color="#E22B57" stop-opacity="0"/>
</linearGradient>
<linearGradient id="paint7_linear_409_89" x1="86.3864" y1="142.546" x2="106.681" y2="-1.15485" gradientUnits="userSpaceOnUse">
<stop stop-color="#BD2B3B"/>
<stop offset="1" stop-color="#E22B57" stop-opacity="0"/>
</linearGradient>
<linearGradient id="paint8_linear_409_89" x1="80.0952" y1="141.658" x2="100.389" y2="-2.04343" gradientUnits="userSpaceOnUse">
<stop stop-color="#BD2B3B"/>
<stop offset="1" stop-color="#E22B57" stop-opacity="0"/>
</linearGradient>
<linearGradient id="paint9_linear_409_89" x1="88.2633" y1="142.811" x2="108.558" y2="-0.889399" gradientUnits="userSpaceOnUse">
<stop stop-color="#BD2B3B"/>
<stop offset="1" stop-color="#E22B57" stop-opacity="0"/>
</linearGradient>
<linearGradient id="paint10_linear_409_89" x1="122.152" y1="147.598" x2="142.446" y2="3.89607" gradientUnits="userSpaceOnUse">
<stop stop-color="#BD2B3B"/>
<stop offset="1" stop-color="#E22B57" stop-opacity="0"/>
</linearGradient>
<linearGradient id="paint11_linear_409_89" x1="138.672" y1="149.929" x2="158.966" y2="6.23132" gradientUnits="userSpaceOnUse">
<stop stop-color="#BD2B3B"/>
<stop offset="1" stop-color="#E22B57" stop-opacity="0"/>
</linearGradient>
<linearGradient id="paint12_linear_409_89" x1="91.6677" y1="143.292" x2="111.962" y2="-0.408227" gradientUnits="userSpaceOnUse">
<stop stop-color="#BD2B3B"/>
<stop offset="1" stop-color="#E22B57" stop-opacity="0"/>
</linearGradient>
<linearGradient id="paint13_linear_409_89" x1="113.886" y1="146.43" x2="134.18" y2="2.73061" gradientUnits="userSpaceOnUse">
<stop stop-color="#BD2B3B"/>
<stop offset="1" stop-color="#E22B57" stop-opacity="0"/>
</linearGradient>
<linearGradient id="paint14_linear_409_89" x1="110.143" y1="145.901" x2="130.437" y2="2.20012" gradientUnits="userSpaceOnUse">
<stop stop-color="#BD2B3B"/>
<stop offset="1" stop-color="#E22B57" stop-opacity="0"/>
</linearGradient>
<linearGradient id="paint15_linear_409_89" x1="70.1892" y1="140.258" x2="90.4831" y2="-3.44088" gradientUnits="userSpaceOnUse">
<stop stop-color="#BD2B3B"/>
<stop offset="1" stop-color="#E22B57" stop-opacity="0"/>
</linearGradient>
<linearGradient id="paint16_linear_409_89" x1="55.5491" y1="138.192" x2="75.8435" y2="-5.50972" gradientUnits="userSpaceOnUse">
<stop stop-color="#BD2B3B"/>
<stop offset="1" stop-color="#E22B57" stop-opacity="0"/>
</linearGradient>
<linearGradient id="paint17_linear_409_89" x1="63.145" y1="139.264" x2="83.4392" y2="-4.43695" gradientUnits="userSpaceOnUse">
<stop stop-color="#BD2B3B"/>
<stop offset="1" stop-color="#E22B57" stop-opacity="0"/>
</linearGradient>
<linearGradient id="paint18_linear_409_89" x1="112.943" y1="146.297" x2="133.238" y2="2.59574" gradientUnits="userSpaceOnUse">
<stop stop-color="#BD2B3B"/>
<stop offset="1" stop-color="#E22B57" stop-opacity="0"/>
</linearGradient>
<linearGradient id="paint19_linear_409_89" x1="145.518" y1="150.897" x2="165.812" y2="7.19586" gradientUnits="userSpaceOnUse">
<stop stop-color="#BD2B3B"/>
<stop offset="1" stop-color="#E22B57" stop-opacity="0"/>
</linearGradient>
<linearGradient id="paint20_linear_409_89" x1="87.872" y1="122.092" x2="96.2494" y2="72.8763" gradientUnits="userSpaceOnUse">
<stop stop-color="#BD2B3B"/>
<stop offset="1" stop-color="#E22B57" stop-opacity="0"/>
</linearGradient>
<linearGradient id="paint21_linear_409_89" x1="117.084" y1="127.402" x2="107.241" y2="87.8173" gradientUnits="userSpaceOnUse">
<stop stop-color="#A62B56"/>
<stop offset="1" stop-color="#AE2B57" stop-opacity="0"/>
</linearGradient>
<linearGradient id="paint22_linear_409_89" x1="73.1552" y1="24.4211" x2="73.0626" y2="24.5524" gradientUnits="userSpaceOnUse">
<stop stop-color="#FAD1E2"/>
<stop offset="1" stop-color="#F9DDF9" stop-opacity="0"/>
</linearGradient>
<linearGradient id="paint23_linear_409_89" x1="149.911" y1="5.03898" x2="125.835" y2="39.1959" gradientUnits="userSpaceOnUse">
<stop stop-color="#FAD1E2"/>
<stop offset="1" stop-color="#F9DDF9" stop-opacity="0"/>
</linearGradient>
<linearGradient id="paint24_linear_409_89" x1="98.9727" y1="103.402" x2="112.197" y2="56.0932" gradientUnits="userSpaceOnUse">
<stop stop-color="#FAB0B2"/>
<stop offset="1" stop-color="#F2687D"/>
</linearGradient>
<linearGradient id="paint25_linear_409_89" x1="98.005" y1="103.132" x2="111.229" y2="55.823" gradientUnits="userSpaceOnUse">
<stop stop-color="#FAB0B2"/>
<stop offset="1" stop-color="#F2687D"/>
</linearGradient>
</defs>
</svg>
