<svg width="200" height="200" viewBox="0 0 200 200" fill="none" xmlns="http://www.w3.org/2000/svg">
<path d="M90.4798 0.494007C13.0028 7.84552 -28.6969 100.141 22.6215 163.169C22.6215 163.169 22.6215 163.169 22.61 163.169C46.3237 192.414 85.923 206.876 124.96 196.814C145.873 191.415 163.951 179.446 176.841 163.881C233.095 96.213 180.112 -8.05212 90.4798 0.494007Z" fill="url(#paint0_radial_401_247)"/>
<path d="M170.861 106.689C167.589 142.183 137.999 172.542 98.7555 172.542C49.7557 172.542 15.0919 124.769 29.7265 78.4315C34.7653 62.3731 45.4284 48.2903 59.9482 39.032C62.9554 37.1252 66.1348 35.4137 69.452 33.9319C107.089 17.2187 151.371 35.4252 166.269 74.101C170.447 84.979 171.836 96.0637 170.861 106.689Z" fill="url(#paint1_radial_401_247)"/>
<path d="M132.857 163.996C122.698 169.441 111.083 172.531 98.7438 172.531C70.634 172.531 46.2661 156.484 34.2944 133.039C39.3677 135.635 48.7224 139.759 59.5921 141.448C75.3629 143.894 94.451 140.69 103.427 145.284C118.394 152.946 120.828 161.745 132.857 163.996Z" fill="url(#paint2_linear_401_247)"/>
<path d="M71.9427 130.8C58.0198 131.753 38.6792 125.16 29.6804 121.725C27.557 114.902 26.4092 107.654 26.4092 100.141C26.4092 97.442 26.5584 94.7771 26.8454 92.1581C30.7708 96.8103 39.7696 106.517 51.087 112.49C66.4102 120.588 90.6634 129.524 71.9427 130.8Z" fill="url(#paint3_linear_401_247)"/>
<path d="M160.806 137.37C158.085 141.907 154.872 146.123 151.256 149.948C141.97 147.409 131.617 142.815 123.227 135.704C108.294 123.057 106.205 117.395 71.7361 106.321C47.6895 98.5907 35.0292 85.8979 29.5771 78.9254C31.2759 73.3658 33.6289 68.082 36.5558 63.1771C43.3852 70.5631 58.5248 85.0364 77.7046 91.8365C104.093 101.21 108.34 100.348 132.168 122.07C142.315 131.339 152.484 135.567 160.806 137.37Z" fill="url(#paint4_linear_401_247)"/>
<path d="M171.09 100.141C171.09 108.263 169.759 116.062 167.291 123.345C160.301 123.195 149.477 120.312 137.253 107.596C115.973 85.4499 84.4883 81.1883 84.0637 73.9517C83.639 66.715 116.409 72.6766 136.404 83.7499C150.786 91.7216 161.437 97.4765 171.033 97.2238C171.067 98.1887 171.09 99.165 171.09 100.141Z" fill="url(#paint5_linear_401_247)"/>
<path d="M69.1766 59.9034C60.5106 55.86 50.4558 55.2168 50.0312 58.6283C49.6065 62.0399 55.9882 73.1016 67.4778 70.9766C78.9558 68.8401 75.5584 62.8784 69.1766 59.9034Z" fill="url(#paint6_linear_401_247)"/>
<path d="M166.27 74.101C155.526 67.565 137.196 63.0852 108.753 56.4918C84.8213 50.9437 74.1582 41.0651 69.4521 33.9319C75.547 31.2325 82.078 29.3372 88.919 28.4068C94.153 33.3805 104.954 40.1922 127.049 45.8436C139.595 49.0484 149.339 53.0114 156.8 56.9398C160.691 62.1663 163.882 67.9326 166.27 74.101Z" fill="url(#paint7_linear_401_247)"/>
<path d="M131.721 146.778C127.99 144.721 115.123 137.404 123.215 152.314C126.395 158.172 140.237 151.464 131.721 146.778Z" fill="url(#paint8_linear_401_247)"/>
<path d="M114.274 139.104C112.53 139.231 113.425 142.941 115.124 143.366C116.834 143.791 120.243 138.679 114.274 139.104Z" fill="url(#paint9_linear_401_247)"/>
<path opacity="0.45" d="M167.28 123.379C165.615 128.307 163.434 132.982 160.806 137.37C158.086 141.907 154.872 146.123 151.256 149.948C145.942 155.565 139.732 160.32 132.868 163.996C122.71 169.441 111.095 172.531 98.7556 172.531C70.6459 172.531 46.2779 156.484 34.3063 133.039C32.4584 129.433 30.9088 125.653 29.6922 121.725C27.5687 114.902 26.4209 107.654 26.4209 100.141C26.4209 97.442 26.5701 94.7771 26.8571 92.1582C27.3506 87.6094 28.2689 83.1755 29.5774 78.9139C29.6233 78.7531 29.6807 78.5808 29.7266 78.42C40.2405 67.1286 60.086 73.6071 70.0375 88.425C84.9705 110.686 120.667 177.011 167.28 123.379Z" fill="url(#paint10_linear_401_247)"/>
<path opacity="0.55" d="M167.601 122.403C166.293 126.664 163.871 132.27 160.806 137.37C128.197 191.725 46.9208 180.526 29.3364 120.553C38.3697 132.89 50.502 142.229 66.6286 146.778C124.111 162.951 153.563 141.149 167.601 122.403Z" fill="url(#paint11_linear_401_247)"/>
<path d="M166.269 74.101C170.459 84.9675 171.836 96.0637 170.86 106.689C168.657 87.954 159.382 57.4912 123.64 43.2936C97.4468 32.8866 75.5123 34.5866 59.9365 39.032C62.9438 37.1252 66.1232 35.4137 69.4404 33.9319C107.088 17.2187 151.371 35.4366 166.269 74.101Z" fill="url(#paint12_linear_401_247)"/>
<defs>
<radialGradient id="paint0_radial_401_247" cx="0" cy="0" r="1" gradientUnits="userSpaceOnUse" gradientTransform="translate(100.001 99.9975) scale(85.6262 85.6909)">
<stop stop-color="#90DDEF"/>
<stop offset="1" stop-color="#A6D6F9" stop-opacity="0"/>
</radialGradient>
<radialGradient id="paint1_radial_401_247" cx="0" cy="0" r="1" gradientUnits="userSpaceOnUse" gradientTransform="translate(96.8303 72.021) scale(72.3731 72.4278)">
<stop stop-color="white"/>
<stop offset="1" stop-color="white"/>
</radialGradient>
<linearGradient id="paint2_linear_401_247" x1="101.996" y1="195.387" x2="41.921" y2="42.7594" gradientUnits="userSpaceOnUse">
<stop stop-color="#7E31A6"/>
<stop offset="1" stop-color="#7731B1" stop-opacity="0.2"/>
</linearGradient>
<linearGradient id="paint3_linear_401_247" x1="84.5822" y1="202.241" x2="24.5076" y2="49.6137" gradientUnits="userSpaceOnUse">
<stop stop-color="#7E31A6"/>
<stop offset="1" stop-color="#7731B1" stop-opacity="0.2"/>
</linearGradient>
<linearGradient id="paint4_linear_401_247" x1="125.79" y1="186.022" x2="65.7152" y2="33.3941" gradientUnits="userSpaceOnUse">
<stop stop-color="#7E31A6"/>
<stop offset="1" stop-color="#7731B1" stop-opacity="0.2"/>
</linearGradient>
<linearGradient id="paint5_linear_401_247" x1="161.436" y1="171.991" x2="101.362" y2="19.3637" gradientUnits="userSpaceOnUse">
<stop stop-color="#7E31A6"/>
<stop offset="1" stop-color="#7731B1" stop-opacity="0.2"/>
</linearGradient>
<linearGradient id="paint6_linear_401_247" x1="112.968" y1="191.068" x2="52.8932" y2="38.4409" gradientUnits="userSpaceOnUse">
<stop stop-color="#7E31A6"/>
<stop offset="1" stop-color="#7731B1" stop-opacity="0.2"/>
</linearGradient>
<linearGradient id="paint7_linear_401_247" x1="163.847" y1="171.042" x2="103.773" y2="18.4141" gradientUnits="userSpaceOnUse">
<stop stop-color="#7E31A6"/>
<stop offset="1" stop-color="#7731B1" stop-opacity="0.2"/>
</linearGradient>
<linearGradient id="paint8_linear_401_247" x1="140.209" y1="180.346" x2="80.1346" y2="27.7192" gradientUnits="userSpaceOnUse">
<stop stop-color="#7E31A6"/>
<stop offset="1" stop-color="#7731B1" stop-opacity="0.2"/>
</linearGradient>
<linearGradient id="paint9_linear_401_247" x1="132.282" y1="183.467" x2="72.2071" y2="30.8387" gradientUnits="userSpaceOnUse">
<stop stop-color="#7E31A6"/>
<stop offset="1" stop-color="#7731B1" stop-opacity="0.2"/>
</linearGradient>
<linearGradient id="paint10_linear_401_247" x1="83.3267" y1="174.764" x2="104.723" y2="69.3915" gradientUnits="userSpaceOnUse">
<stop stop-color="#6D31A3"/>
<stop offset="1" stop-color="#B842B5" stop-opacity="0.3"/>
</linearGradient>
<linearGradient id="paint11_linear_401_247" x1="106.048" y1="190.175" x2="97.951" y2="116.931" gradientUnits="userSpaceOnUse">
<stop stop-color="#471AA3"/>
<stop offset="1" stop-color="#4C2EA3" stop-opacity="0.1"/>
</linearGradient>
<linearGradient id="paint12_linear_401_247" x1="189.388" y1="-18.1194" x2="109.316" y2="80.192" gradientUnits="userSpaceOnUse">
<stop stop-color="#A4F6F6"/>
<stop offset="1" stop-color="#B5F4F9" stop-opacity="0"/>
</linearGradient>
</defs>
</svg>
