<svg width="200" height="200" viewBox="0 0 200 200" fill="none" xmlns="http://www.w3.org/2000/svg">
<path d="M90.4758 0.494751C12.9997 7.84406 -28.6966 100.137 22.6231 163.173C46.3317 192.417 85.9299 206.877 124.969 196.812C145.88 191.423 163.951 179.454 176.848 163.887C233.091 96.2177 180.107 -8.05844 90.4758 0.494751Z" fill="url(#paint0_radial_401_244)"/>
<path d="M177.351 99.8574C177.351 100.515 177.337 101.173 177.323 101.831C177.226 105.961 176.792 110.02 176.065 113.968C175.981 114.444 175.883 114.934 175.785 115.41C175.477 116.936 175.113 118.448 174.708 119.932C173.323 125.111 171.407 130.081 169.029 134.77C168.274 136.268 167.462 137.738 166.609 139.18C166.315 139.67 166.022 140.174 165.714 140.664C164.847 142.049 163.938 143.421 162.986 144.737C161.084 147.411 159.014 149.945 156.79 152.352C153.321 156.104 149.489 159.506 145.348 162.502C142.103 164.853 138.662 166.967 135.054 168.801C124.549 174.148 112.66 177.158 100.071 177.158C98.1829 177.158 96.2947 177.088 94.4343 176.948C84.9369 176.262 75.9151 173.854 67.6765 170.047C60.8786 166.897 54.6123 162.795 49.0593 157.896C44.7372 154.088 40.8487 149.805 37.4638 145.129C29.8966 134.672 24.8891 122.255 23.3365 108.775C23.0008 105.849 22.833 102.867 22.833 99.8434C22.833 97.5336 22.9309 95.2378 23.1267 92.9841C23.7142 86.3067 25.1549 79.8813 27.3229 73.8059C27.9943 71.93 28.7357 70.0822 29.5469 68.2764C30.8757 65.3227 32.3724 62.4529 34.0509 59.7092C38.1212 53.0038 43.1846 46.9844 49.0453 41.8189C49.0453 41.8189 49.0453 41.8189 49.0593 41.8049C53.1157 38.2352 57.5497 35.0715 62.2914 32.3977C70.1383 27.9882 78.8244 24.9085 88.0561 23.4526C91.9726 22.8366 96.0009 22.5147 100.085 22.5147C121.444 22.5147 140.774 31.1939 154.762 45.2065C158.902 49.3642 162.581 53.9837 165.7 58.9952C168.414 63.3628 170.707 68.0104 172.526 72.8959C173.589 75.7517 174.484 78.6914 175.211 81.7011C176.428 86.7546 177.142 91.9901 177.309 97.3656C177.337 98.2196 177.351 99.0315 177.351 99.8574Z" fill="url(#paint1_radial_401_244)"/>
<path d="M154.608 45.8225C149.461 62.0609 122.829 64.2307 85.4823 54.9216C62.7528 49.2522 44.5413 55.0616 34.0508 60.2271C40.9466 48.9302 50.6678 39.5511 62.2493 33.0557C72.6279 32.3837 80.9923 35.7854 87.3006 38.6272C101.372 44.9686 121.794 49.0422 123.612 41.7909C125.822 32.9577 117.709 31.3758 100.015 29.1081C92.5459 28.1561 89.2729 26.1403 88 24.1525C91.9165 23.5366 95.9309 23.2286 100.015 23.2286C121.332 23.2286 140.635 31.8658 154.608 45.8225Z" fill="url(#paint2_linear_401_244)"/>
<path d="M172.344 73.3999C141.894 99.1155 103.47 91.3182 68.2361 87.0766C42.5553 83.9829 29.1134 89.5264 23.1548 93.376C23.7423 86.7406 25.169 80.3292 27.337 74.2818C48.458 69.8162 61.648 72.056 100.001 77.5715C137.054 82.905 158.161 66.7505 165.518 59.5552C168.232 63.8948 170.526 68.5283 172.344 73.3999Z" fill="url(#paint3_linear_401_244)"/>
<path d="M177.128 102.167C177.016 106.787 176.484 111.308 175.589 115.69C169.896 114.066 162.161 114.402 147.195 120.575C126.326 129.185 117.695 126.007 90.0145 119.218C62.3335 112.428 50.9897 118.77 51.8989 124.649C52.8081 130.529 64.5994 138.69 87.3009 135.064C109.988 131.438 130.872 141.405 130.872 147.747C130.872 154.088 109.541 146.389 71.8729 156.356C64.082 158.414 56.277 158.876 49.0595 158.008C35.0862 145.745 25.6027 128.527 23.3647 109.097C35.212 93.95 55.8993 94.7619 75.9572 101.565C100.015 109.712 115.891 110.622 144.943 103.371C162.357 99.0175 172.12 100.375 177.128 102.167Z" fill="url(#paint4_linear_401_244)"/>
<path d="M168.847 134.966C165.602 141.363 161.475 147.243 156.636 152.464C155.181 144.513 134.494 141.853 145.376 135.974C153.209 131.746 163.615 133.594 168.847 134.966Z" fill="url(#paint5_linear_401_244)"/>
<path d="M145.208 162.571C141.963 164.923 138.522 167.023 134.928 168.843C126.507 167.555 114.996 167.751 102.267 173.546C99.3858 174.848 96.7562 175.982 94.3644 176.962C84.8809 176.276 75.873 173.882 67.6484 170.089C73.7469 168.913 79.258 166.379 92.7418 162.221C114.366 155.572 134.872 159.576 145.208 162.571Z" fill="url(#paint6_linear_401_244)"/>
<path d="M67.3266 120.575C61.4659 121.303 62.3331 126.455 65.5083 129.185C68.6834 131.9 82.7547 130.99 83.6638 127.827C84.573 124.649 74.5861 119.666 67.3266 120.575Z" fill="url(#paint7_linear_401_244)"/>
<path d="M106.352 32.7337C101.345 32.7337 95.9178 30.9279 94.547 34.5396C93.1763 38.1512 112.241 42.2389 114.059 39.9711C115.878 37.7173 116.787 32.7337 106.352 32.7337Z" fill="url(#paint8_linear_401_244)"/>
<path d="M177.114 97.7576C168.987 97.2116 159.336 95.1538 159.909 92.0461C160.916 86.5446 170.637 83.3389 175.015 82.149C176.232 87.1886 176.946 92.3961 177.114 97.7576Z" fill="url(#paint9_linear_401_244)"/>
<path d="M163.057 148.699L163.63 147.187C163.322 148.013 163.127 148.531 163.057 148.699Z" fill="url(#paint10_linear_401_244)"/>
<path opacity="0.45" d="M163.001 144.737C161.098 147.411 159.028 149.945 156.804 152.352C153.335 156.104 149.503 159.506 145.362 162.502C142.117 164.853 138.677 166.967 135.068 168.801C124.563 174.148 112.674 177.158 100.085 177.158C98.1971 177.158 96.3089 177.088 94.4485 176.948C84.9511 176.262 75.9293 173.854 67.6907 170.047C60.8928 166.897 54.6265 162.795 49.0735 157.896C35.0862 145.577 25.5887 128.275 23.3507 108.775C23.015 105.849 22.8472 102.867 22.8472 99.8434C22.8472 97.5336 22.9451 95.2379 23.1409 92.9841C23.7284 86.3067 25.1691 79.8813 27.3371 73.8059C28.0085 71.9301 28.7499 70.0822 29.5611 68.2764C45.3529 69.9982 66.5857 78.9714 91.4272 106.003C121.304 138.494 146.384 145.283 163.001 144.737Z" fill="url(#paint11_linear_401_244)"/>
<path opacity="0.45" d="M174.708 119.946C173.323 125.125 171.407 130.095 169.029 134.784C167.266 138.27 165.252 141.601 163 144.751C161.098 147.425 159.028 149.959 156.804 152.366C153.335 156.118 149.502 159.52 145.362 162.516C142.117 164.867 138.676 166.981 135.067 168.815C124.563 174.162 112.674 177.172 100.085 177.172C98.1967 177.172 96.3084 177.102 94.4481 176.962C84.9507 176.276 75.9288 173.868 67.6903 170.061C60.8924 166.911 54.6261 162.809 49.0731 157.91C44.751 154.102 40.8625 149.819 37.4775 145.143C49.5766 150.029 63.3402 153.444 78.9641 154.62C142.229 159.38 165.91 136.324 174.708 119.946Z" fill="url(#paint12_linear_401_244)"/>
<path opacity="0.75" d="M177.351 99.8574C177.351 100.515 177.337 101.173 177.323 101.831C177.225 105.961 176.792 110.02 176.064 113.968L166.623 139.18L163.728 146.879C164.217 145.493 164.931 143.365 165.728 140.65C171.211 121.597 180.065 73.5399 139.865 47.3203C89.4687 14.4374 49.8425 41.2869 49.0732 41.8049C53.1296 38.2352 57.5635 35.0715 62.3052 32.3977C70.1521 27.9882 78.8384 24.9085 88.07 23.4526C91.9865 22.8366 96.0148 22.5147 100.099 22.5147C121.458 22.5147 140.788 31.1939 154.776 45.2065C158.916 49.3642 162.595 53.9837 165.714 58.9952C168.427 63.3628 170.721 68.0104 172.54 72.8959C173.603 75.7517 174.498 78.6914 175.225 81.7011C176.442 86.7546 177.156 91.9901 177.323 97.3656C177.337 98.2196 177.351 99.0315 177.351 99.8574Z" fill="url(#paint13_linear_401_244)"/>
<defs>
<radialGradient id="paint0_radial_401_244" cx="0" cy="0" r="1" gradientUnits="userSpaceOnUse" gradientTransform="translate(99.9995 99.9987) scale(92.5306 92.6055)">
<stop stop-color="#FFD1B8"/>
<stop offset="1" stop-color="#FFD8D3" stop-opacity="0"/>
</radialGradient>
<radialGradient id="paint1_radial_401_244" cx="0" cy="0" r="1" gradientUnits="userSpaceOnUse" gradientTransform="translate(96.0086 48.6991) scale(115.741 115.835)">
<stop stop-color="#FFB56F"/>
<stop offset="1" stop-color="#FB3636"/>
</radialGradient>
<linearGradient id="paint2_linear_401_244" x1="117.188" y1="207.373" x2="79.6412" y2="-45.6924" gradientUnits="userSpaceOnUse">
<stop stop-color="#E03838"/>
<stop offset="1" stop-color="#C93838" stop-opacity="0"/>
</linearGradient>
<linearGradient id="paint3_linear_401_244" x1="116.133" y1="207.53" x2="78.5857" y2="-45.5359" gradientUnits="userSpaceOnUse">
<stop stop-color="#E03838"/>
<stop offset="1" stop-color="#C93838" stop-opacity="0"/>
</linearGradient>
<linearGradient id="paint4_linear_401_244" x1="115.331" y1="207.648" x2="77.784" y2="-45.4167" gradientUnits="userSpaceOnUse">
<stop stop-color="#E03838"/>
<stop offset="1" stop-color="#C93838" stop-opacity="0"/>
</linearGradient>
<linearGradient id="paint5_linear_401_244" x1="164.885" y1="200.296" x2="127.338" y2="-52.7707" gradientUnits="userSpaceOnUse">
<stop stop-color="#E03838"/>
<stop offset="1" stop-color="#C93838" stop-opacity="0"/>
</linearGradient>
<linearGradient id="paint6_linear_401_244" x1="112.608" y1="208.052" x2="75.0618" y2="-45.0123" gradientUnits="userSpaceOnUse">
<stop stop-color="#E03838"/>
<stop offset="1" stop-color="#C93838" stop-opacity="0"/>
</linearGradient>
<linearGradient id="paint7_linear_401_244" x1="86.1043" y1="211.984" x2="48.5575" y2="-41.0802" gradientUnits="userSpaceOnUse">
<stop stop-color="#E03838"/>
<stop offset="1" stop-color="#C93838" stop-opacity="0"/>
</linearGradient>
<linearGradient id="paint8_linear_401_244" x1="129.959" y1="205.478" x2="92.4117" y2="-47.587" gradientUnits="userSpaceOnUse">
<stop stop-color="#E03838"/>
<stop offset="1" stop-color="#C93838" stop-opacity="0"/>
</linearGradient>
<linearGradient id="paint9_linear_401_244" x1="183.923" y1="197.471" x2="146.377" y2="-55.5942" gradientUnits="userSpaceOnUse">
<stop stop-color="#E03838"/>
<stop offset="1" stop-color="#C93838" stop-opacity="0"/>
</linearGradient>
<linearGradient id="paint10_linear_401_244" x1="170.964" y1="199.397" x2="133.413" y2="-53.6807" gradientUnits="userSpaceOnUse">
<stop stop-color="#E03838"/>
<stop offset="1" stop-color="#C93838" stop-opacity="0"/>
</linearGradient>
<linearGradient id="paint11_linear_401_244" x1="70.43" y1="151.983" x2="112.478" y2="78.151" gradientUnits="userSpaceOnUse">
<stop stop-color="#CA1B1B"/>
<stop offset="1" stop-color="#CA1B1B" stop-opacity="0.1"/>
</linearGradient>
<linearGradient id="paint12_linear_401_244" x1="65.5839" y1="210.259" x2="125.639" y2="98.4283" gradientUnits="userSpaceOnUse">
<stop stop-color="#A41B1B"/>
<stop offset="1" stop-color="#B51B1B" stop-opacity="0.13"/>
</linearGradient>
<linearGradient id="paint13_linear_401_244" x1="161.598" y1="27.0192" x2="117.93" y2="80.2016" gradientUnits="userSpaceOnUse">
<stop stop-color="#FF1212"/>
<stop offset="1" stop-color="#FF2020" stop-opacity="0.1"/>
</linearGradient>
</defs>
</svg>
