<svg width="170" height="170" viewBox="0 0 170 170" fill="none" xmlns="http://www.w3.org/2000/svg">
<path d="M150.662 84.8438C150.662 88.6832 150.33 92.4504 149.696 96.1021C149.35 98.0651 148.931 99.9992 148.427 101.904C145.628 112.354 140.321 121.765 133.196 129.473C130.614 132.273 127.787 134.842 124.744 137.152C121.946 139.288 118.961 141.207 115.831 142.882C111.59 145.148 107.076 146.952 102.345 148.251C96.8214 149.767 91.0089 150.56 85.009 150.56C82.2542 150.56 79.5428 150.387 76.8889 150.055C54.6488 147.313 35.8413 133.428 26.2357 114.159C22.4857 106.653 20.1348 98.3393 19.5146 89.5492C19.3993 87.9903 19.3416 86.4171 19.3416 84.8438C19.3416 74.9279 21.5338 65.5315 25.4569 57.1022C28.9616 49.5678 33.8654 42.8128 39.8077 37.1693C45.3028 31.9443 51.7065 27.6575 58.7593 24.5831C66.7929 21.0757 75.6774 19.1271 84.9946 19.1271C113.307 19.1271 137.436 37.0538 146.652 62.1973C148.946 68.4615 150.316 75.1588 150.604 82.1591C150.648 83.0396 150.662 83.9345 150.662 84.8438Z" fill="url(#paint0_radial_409_88)"/>
<path d="M26.2216 114.159C25.7745 113.264 25.3418 112.34 24.9379 111.416C21.9524 104.676 20.0774 97.3578 19.5149 89.6646C19.5149 89.6213 19.5149 89.5924 19.5005 89.5491C20.8274 89.3759 22.6447 89.9822 23.9716 93.7205C25.6879 98.5847 33.6782 110.435 26.2216 114.159Z" fill="#FFBE15"/>
<path d="M77.798 102.987C77.7115 103.521 77.524 104.026 77.25 104.488C75.1586 108.241 67.8751 110.088 59.755 108.688C52.6877 107.461 47.0484 104.113 45.2311 100.476C44.6974 99.4074 44.4955 98.3249 44.683 97.2424C45.5051 92.5081 53.4522 91.3679 62.5963 92.97C71.7404 94.5433 78.6201 98.2527 77.798 102.987Z" fill="#FFBE15"/>
<path d="M58.3413 71.6946L58.3268 71.7091C56.5096 74.4515 50.8414 71.94 44.2501 67.6243C38.8704 64.1025 35.0339 60.5951 34.7742 57.9249C34.7166 57.3187 34.8464 56.7413 35.1781 56.2217C36.9954 53.4504 44.2068 53.2628 50.8125 57.5929C57.4182 61.923 60.1586 68.9234 58.3413 71.6946Z" fill="#FFBE15"/>
<path d="M131.09 112.167C125.768 116.612 119.393 117.753 116.869 114.707C116.74 114.548 116.624 114.39 116.523 114.216C114.591 111.055 116.898 105.383 121.946 101.183C127.081 96.8959 133.182 95.6835 135.879 98.3249C135.98 98.4259 136.081 98.5269 136.167 98.628C138.691 101.673 136.427 107.736 131.09 112.167Z" fill="#FFBE15"/>
<path d="M92.6965 75.7217C87.3168 79.9797 81.8505 82.3324 78.7207 78.3775C78.4178 78.0023 78.1727 77.5981 77.9563 77.1651C75.966 73.1525 77.9275 67.3357 82.8024 63.4819C88.1822 59.224 95.5234 57.2177 100.528 63.5541C100.557 63.5974 100.6 63.6407 100.615 63.684C103.557 67.5955 98.033 71.5071 92.6965 75.7217Z" fill="#FFBE15"/>
<path d="M71.2065 135.189C70.4276 135.939 68.8844 136.358 66.4613 136.242C57.5768 135.853 47.9279 125.027 50.625 121.549C50.6682 121.491 50.7115 121.448 50.7548 121.404C53.5528 118.243 60.5623 123.93 64.1392 125.807C70.0382 128.895 73.2689 133.211 71.2065 135.189Z" fill="#FFBE15"/>
<path d="M106.052 127.207C106.067 129.256 103.283 131.421 98.8986 131.609C90.8794 131.955 86.3074 130.411 85.2256 127.553C85.1103 127.25 85.0381 126.932 84.9949 126.586C84.6055 123.108 91.9467 123.699 95.8121 123.497C103.067 123.108 106.038 125.099 106.052 127.207Z" fill="#FFBE15"/>
<path d="M130.355 81.0911C129.475 82.4045 127.773 83.2994 125.566 83.2994C118.615 83.2994 109.341 78.2765 110.509 73.6288C110.639 73.0948 110.841 72.6329 111.071 72.2576C112.86 69.3709 117.374 70.7709 121.715 71.6947C130.398 73.5422 132.259 78.2765 130.355 81.0911Z" fill="#FFBE15"/>
<path d="M107.783 46.9553C107.696 46.7532 107.653 46.5223 107.624 46.2769C107.451 44.2995 109.398 41.4128 113.191 40.3735C115.658 39.6952 118.989 39.7818 121.052 41.0519C121.961 41.6148 122.61 42.3943 122.855 43.4624C123.432 46.1182 109.009 50.0297 107.783 46.9553Z" fill="#FFBE15"/>
<path d="M68.1491 40.8066C67.6587 41.0953 67.0818 41.0087 66.4616 40.388C62.2068 36.1301 61.8318 29.173 64.1395 28.0183C65.0481 27.5564 65.8414 27.4121 66.5193 27.4843C71.1346 28.0039 70.6298 39.3055 68.1491 40.8066Z" fill="#FFBE15"/>
<path d="M140.999 65.1273C140.696 65.2717 140.335 65.3006 139.946 65.1995C138.33 64.7809 136.225 62.2983 135.59 58.56C135.229 56.3661 136.326 54.2588 137.753 53.5948C139.34 52.8443 141.345 53.8835 142.152 58.56C142.628 61.2158 142.556 64.3479 140.999 65.1273Z" fill="#FFBE15"/>
<path d="M133.196 129.473C128.22 134.857 122.35 139.403 115.831 142.867C115.096 142.506 114.432 141.972 114.173 141.207C113.942 140.529 114.043 139.663 114.749 138.566C117.447 134.308 120.158 127.741 126.331 127.351C128.134 127.236 129.562 127.452 130.701 127.856C131.797 128.26 132.605 128.838 133.196 129.473Z" fill="#FFBE15"/>
<path d="M102.331 148.237C96.8072 149.752 90.9948 150.546 84.9948 150.546C82.2401 150.546 79.5286 150.373 76.8748 150.041C76.8748 149.261 77.019 148.424 77.495 147.717C77.9565 147.039 78.7209 146.49 79.9757 146.288C84.6054 145.509 86.9275 142.42 93.4899 142.81C96.8938 143.012 99.2735 144.671 100.759 146.216C101.495 146.995 101.999 147.717 102.331 148.237Z" fill="#FFBE15"/>
<path d="M93.9367 28.4946C93.605 30.14 90.8213 30.7318 89.48 30.1112C89.1916 29.9813 88.9752 29.7936 88.8598 29.5627C88.081 28.0183 93.1723 25.1315 93.879 27.6286C93.9655 27.9461 93.98 28.2348 93.9367 28.4946Z" fill="#FFBE15"/>
<path d="M73.8024 115.371C72.0716 114.505 70.7159 113.827 71.1053 117.305C71.4947 120.784 74.1918 121.563 76.5139 121.563C78.8215 121.563 75.3456 116.151 73.8024 115.371Z" fill="#DEAD2D"/>
<path d="M41.7402 113.062C40.1969 112.672 40.1969 115.386 39.0431 118.085C37.8892 120.784 39.4325 122.718 41.7402 122.718C44.0622 122.718 44.8267 113.827 41.7402 113.062Z" fill="#DEAD2D"/>
<path d="M34.7883 78.262C33.3027 77.5837 31.7018 76.7176 31.3124 78.262C30.923 79.8064 34.3989 84.0644 36.3315 84.0644C38.2642 84.0644 39.0286 80.1962 34.7883 78.262Z" fill="#DEAD2D"/>
<path d="M150.662 84.8438C150.662 88.6832 150.33 92.4503 149.696 96.1021C149.133 95.8856 148.556 95.4959 147.95 94.8896C144.085 91.0214 147.013 85.5366 147.95 83.6747C148.989 81.5962 150.027 81.7838 150.604 82.1447C150.648 83.0396 150.662 83.9345 150.662 84.8438Z" fill="#DEAD2D"/>
<path d="M110.884 89.0873C108.648 88.813 107.408 90.6317 110.884 92.1761C114.36 93.7349 113.97 89.477 110.884 89.0873Z" fill="#DEAD2D"/>
<path d="M27.8367 71.6948C26.7982 72.2144 26.6829 74.3939 29.3799 74.0186C32.077 73.6289 30.1443 70.5401 27.8367 71.6948Z" fill="#DEAD2D"/>
<path d="M82.6868 44.6459C81.533 45.0356 79.9897 46.1903 82.6868 46.58C85.3839 46.9553 83.8407 44.2562 82.6868 44.6459Z" fill="#DEAD2D"/>
<path d="M89.2493 44.6459C87.8359 43.8232 87.7061 47.7347 88.8599 49.2791C90.0137 50.8235 93.8791 47.345 89.2493 44.6459Z" fill="#DEAD2D"/>
<path d="M101.61 136.257C100.773 136.444 100.456 137.801 102.763 138.581C105.085 139.345 105.085 135.477 101.61 136.257Z" fill="#DEAD2D"/>
<path d="M68.0047 142.824C66.8509 143.214 65.6826 143.979 68.0047 144.758C70.3268 145.523 69.1585 142.434 68.0047 142.824Z" fill="#DEAD2D"/>
<path d="M69.9373 85.9985C67.9758 86.0996 72.2594 88.6976 73.4133 89.0873C74.5671 89.477 78.043 85.6088 69.9373 85.9985Z" fill="#DEAD2D"/>
<path d="M133.282 75.9527C132.316 76.7032 134.061 80.9756 135.604 80.5859C137.147 80.1962 136.758 73.2391 133.282 75.9527Z" fill="#DEAD2D"/>
<path d="M102.216 103.045C102.043 103.709 101.827 104.358 101.61 104.936C100.485 107.952 93.8363 109.136 92.0767 107.75C92.0334 107.721 91.9901 107.678 91.9469 107.635C90.4036 106.09 91.9036 102.208 92.7257 100.288C93.8795 97.5888 99.6776 95.6546 101.61 96.4196C103.168 97.0691 102.966 100.23 102.216 103.045Z" fill="#FFBE15"/>
<path d="M34.7742 57.9394C34.7166 57.3332 34.8464 56.7558 35.1781 56.2362C36.9954 53.4649 44.2068 53.2773 50.8125 57.6074C57.4182 61.9375 60.1586 68.9379 58.3413 71.7091L58.3268 71.7236C58.4278 70.0348 57.7211 67.6677 55.2548 64.3624C48.8222 55.7743 37.0963 52.8154 34.7742 57.9394Z" fill="#FFCF26"/>
<path d="M77.798 102.987C77.7115 103.521 77.524 104.026 77.25 104.488C77.0913 103.824 75.6634 98.6135 69.1587 96.4341C62.4088 94.1824 53.3223 92.1761 47.9138 96.4341C46.183 97.7908 45.4474 99.1909 45.2311 100.461C44.6974 99.393 44.4955 98.3104 44.683 97.2279C45.5051 92.4936 53.4522 91.3534 62.5963 92.9555C71.7404 94.5432 78.6201 98.2527 77.798 102.987Z" fill="#FFCF26"/>
<path d="M88.4706 62.4139C81.288 64.8964 78.2592 71.9401 77.9563 77.1651C75.966 73.1525 77.9275 67.3357 82.8024 63.4819C88.1821 59.224 95.5234 57.2177 100.528 63.5541C100.557 63.5974 100.6 63.6407 100.615 63.684C98.4513 62.0097 94.5138 60.3354 88.4706 62.4139Z" fill="#FFCF26"/>
<path d="M102.216 103.045C102.144 100.245 101.451 97.0836 98.5234 97.9785C95.5235 98.9022 92.1197 104.344 92.0908 107.75C92.0476 107.721 92.0043 107.678 91.961 107.635C90.4178 106.09 91.9178 102.208 92.7399 100.288C93.8937 97.5888 99.6917 95.6546 101.624 96.4196C103.168 97.0691 102.966 100.23 102.216 103.045Z" fill="#FFCF26"/>
<path d="M130.355 81.0911C131.235 75.996 123.071 74.3505 118.989 72.8638C114.951 71.3916 112.182 71.9112 111.057 72.2576C112.845 69.3709 117.36 70.7709 121.701 71.6947C130.398 73.5422 132.259 78.2765 130.355 81.0911Z" fill="#FFCF26"/>
<path d="M107.783 46.9553C107.697 46.7533 107.653 46.5223 107.625 46.2769C110.062 47.8935 116.307 46.58 119.754 45.0212C122.22 43.8954 121.817 42.2499 121.052 41.0664C121.961 41.6293 122.61 42.4087 122.855 43.4768C123.432 46.1182 109.009 50.0297 107.783 46.9553Z" fill="#FFCF26"/>
<path d="M68.1491 40.8066C67.6587 41.0953 67.0818 41.0087 66.4616 40.388C62.2068 36.1301 61.8318 29.173 64.1395 28.0183C65.0481 27.5564 65.8414 27.4121 66.5193 27.4843C65.5818 27.6575 64.1395 28.4802 64.1395 31.8866C64.1395 35.8125 66.0289 39.0312 68.1491 40.8066Z" fill="#FFCF26"/>
<path d="M93.9367 28.4946C93.8069 27.8306 93.2877 27.1956 91.5714 27.6286C90.1723 27.975 89.6387 29.0431 89.48 30.1112C89.1916 29.9813 88.9752 29.7936 88.8598 29.5627C88.081 28.0183 93.1723 25.1315 93.879 27.6286C93.9655 27.9461 93.98 28.2348 93.9367 28.4946Z" fill="#FFCF26"/>
<path d="M71.2066 135.189C70.8748 133.11 68.971 131.089 65.6826 129.285C61.4278 126.961 58.3413 124.652 55.6442 122.718C54.2308 121.707 52.2837 121.433 50.7549 121.404C53.5529 118.243 60.5625 123.93 64.1393 125.807C70.0383 128.895 73.269 133.211 71.2066 135.189Z" fill="#FFCF26"/>
<path d="M106.052 127.207C105.432 125.662 103.557 125.027 100.442 125.027H89.6247C85.4853 125.027 85.2256 127.423 85.2256 127.539C85.1103 127.236 85.0381 126.918 84.9949 126.572C84.6055 123.093 91.9467 123.685 95.8121 123.483C103.067 123.108 106.038 125.099 106.052 127.207Z" fill="#FFCF26"/>
<path d="M100.759 146.23C101.495 146.981 101.999 147.717 102.331 148.237C96.8072 149.752 90.9948 150.546 84.9948 150.546C82.2401 150.546 79.5286 150.373 76.8748 150.041C76.8748 149.261 77.019 148.424 77.495 147.717C90.3313 150.748 97.7303 147.934 100.759 146.23Z" fill="#FFCF26"/>
<path d="M133.196 129.473C128.22 134.857 122.35 139.403 115.831 142.867C115.095 142.507 114.432 141.972 114.172 141.207C124.946 137.166 129.605 129.848 130.701 127.871C131.797 128.26 132.605 128.838 133.196 129.473Z" fill="#FFCF26"/>
<path d="M135.879 98.3249C135.014 98.0218 128.855 96.3042 121.687 104.546C118.067 108.717 116.812 111.95 116.523 114.216C114.591 111.055 116.898 105.383 121.946 101.183C127.081 96.9104 133.182 95.6835 135.879 98.3249Z" fill="#FFCF26"/>
<path d="M139.946 65.1851C138.33 64.7665 136.225 62.2839 135.59 58.5456C135.229 56.3516 136.326 54.2443 137.753 53.5804C137.133 54.4031 136.556 55.6588 136.744 57.3909C137.076 60.191 138.128 62.9911 139.946 65.1851Z" fill="#FFCF26"/>
<path d="M26.2216 114.159C25.7745 113.264 25.3418 112.34 24.9379 111.416C26.7841 109.742 28.6013 106.682 26.2937 101.847C23.4379 95.8567 22.0534 90.7038 19.5149 89.6646C19.5149 89.6213 19.5149 89.5924 19.5005 89.5491C20.8274 89.3759 22.6447 89.9822 23.9716 93.7205C25.6879 98.5847 33.6782 110.435 26.2216 114.159Z" fill="#FFCF26"/>
<path opacity="0.35" d="M150.662 84.8438C150.662 88.6832 150.33 92.4503 149.696 96.1021C147.489 108.861 141.604 120.365 133.182 129.473C128.206 134.857 122.336 139.403 115.816 142.867C111.576 145.133 107.062 146.938 102.331 148.237C96.807 149.752 90.9945 150.546 84.9946 150.546C82.2398 150.546 79.5283 150.373 76.8745 150.041C54.6344 147.298 35.8269 133.413 26.2213 114.144C22.4713 106.639 20.1204 98.3249 19.5002 89.5347C19.3848 87.9759 19.3271 86.4026 19.3271 84.8294C19.3271 74.9134 21.5194 65.5171 25.4425 57.0878C26.0771 114 143.508 128.304 146.653 62.1684C148.946 68.4327 150.316 75.1299 150.604 82.1302C150.648 83.0396 150.662 83.9345 150.662 84.8438Z" fill="url(#paint1_linear_409_88)"/>
<path opacity="0.45" d="M124.744 137.152C121.946 139.288 118.961 141.207 115.831 142.882C111.59 145.148 107.076 146.952 102.345 148.251C96.8214 149.767 91.0089 150.56 85.009 150.56C82.2542 150.56 79.5428 150.387 76.8889 150.055C54.6488 147.313 35.8414 133.428 26.2357 114.159C22.4857 106.653 20.1348 98.3393 19.5146 89.5492C19.3993 87.9903 19.3416 86.4171 19.3416 84.8438C19.3416 74.9278 21.5338 65.5315 25.4569 57.1022C28.9616 49.5678 33.8654 42.8128 39.8077 37.1693C21.4906 124.594 88.86 136.704 124.744 137.152Z" fill="url(#paint2_linear_409_88)"/>
<path d="M150.663 84.8438C150.663 88.6832 150.331 92.4504 149.696 96.1021C149.35 98.0651 148.932 99.9992 148.427 101.904C146.148 49.0482 110.379 18.9972 58.7598 24.5831C66.7933 21.0757 75.6778 19.1271 84.995 19.1271C113.307 19.1271 137.437 37.0538 146.653 62.1973C148.946 68.4615 150.316 75.1588 150.605 82.1591C150.648 83.0396 150.663 83.9345 150.663 84.8438Z" fill="url(#paint3_linear_409_88)"/>
<path d="M76.9033 0.421017C11.0483 6.67081 -24.3887 85.118 19.2261 138.696C39.3749 163.551 73.038 175.848 106.225 167.289C124.008 162.699 139.369 152.538 150.316 139.302C198.128 81.7838 153.1 -6.85357 76.9033 0.421017Z" fill="url(#paint4_radial_409_88)"/>
<defs>
<radialGradient id="paint0_radial_409_88" cx="0" cy="0" r="1" gradientUnits="userSpaceOnUse" gradientTransform="translate(82.1018 50.0524) scale(100.269 100.344)">
<stop stop-color="#FFE46A"/>
<stop offset="1" stop-color="#FDE404"/>
</radialGradient>
<linearGradient id="paint1_linear_409_88" x1="28.9079" y1="119.577" x2="145.069" y2="65.2717" gradientUnits="userSpaceOnUse">
<stop stop-color="#E27437"/>
<stop offset="1" stop-color="#E27437" stop-opacity="0.2"/>
</linearGradient>
<linearGradient id="paint2_linear_409_88" x1="72.3105" y1="179.89" x2="71.6689" y2="17.0319" gradientUnits="userSpaceOnUse">
<stop stop-color="#CC622E"/>
<stop offset="1" stop-color="#CC622E" stop-opacity="0.2"/>
</linearGradient>
<linearGradient id="paint3_linear_409_88" x1="143.407" y1="19.0981" x2="103.424" y2="63.3653" gradientUnits="userSpaceOnUse">
<stop stop-color="#FFF2B6"/>
<stop offset="1" stop-color="#FFF49A" stop-opacity="0.2"/>
</linearGradient>
<radialGradient id="paint4_radial_409_88" cx="0" cy="0" r="1" gradientUnits="userSpaceOnUse" gradientTransform="translate(85.0013 84.9953) scale(78.6516 78.7105)">
<stop stop-color="#FFD86C"/>
<stop offset="1" stop-color="#FFD160" stop-opacity="0"/>
</radialGradient>
</defs>
</svg>
