<svg width="213" height="144" viewBox="0 0 213 144" fill="none" xmlns="http://www.w3.org/2000/svg">
<path d="M186.829 71.692C186.489 72.6505 187.303 70.7025 187.303 68.868C187.303 63.5189 182.428 59.4375 177.1 60.4682C176.018 53.8308 174.008 47.4099 171.174 41.3806C171.194 41.3909 171.215 41.3909 171.225 41.4012C170.988 40.9065 170.751 40.4117 170.514 39.917C170.494 39.9067 170.473 39.8964 170.452 39.8964C158.971 16.8511 135.39 0 106.212 0C85.8978 0 66.8823 7.84324 52.4223 24.2821C52.4223 24.2821 52.4223 24.2821 52.4223 24.2924C51.3607 25.5189 50.3404 26.7866 49.3613 28.0852C22.3686 26.1888 3.38403 30.2186 0.405454 40.2159C-2.57312 50.2029 11.0624 63.9209 34.623 77.072C35.7979 94.9022 43.6206 111.063 56.6377 123.544C78.8482 145.012 105.717 143.291 106.418 143.435V143.425C128.02 143.25 149.334 133.418 163.145 115.361C163.485 115.34 207.236 119.452 212.07 103.22C214.667 94.5724 204.804 83.1322 186.829 71.692ZM9.49577 40.9992C11.722 33.5167 25.9862 30.4248 46.898 31.5585C47.3309 30.9092 43.1568 36.7632 39.8896 44.8126C39.8278 44.8229 39.766 44.8332 39.6938 44.8332C39.5186 45.2661 39.3434 45.7093 39.1785 46.1525C39.2403 46.1422 39.3022 46.1422 39.364 46.1318C36.7771 52.8826 35.1796 59.9632 34.6539 67.1571C34.6436 67.1674 34.6333 67.1674 34.6333 67.1777C34.6024 67.693 34.5715 68.1981 34.5509 68.7134C17.1123 58.4584 7.3108 48.3375 9.49577 40.9992ZM48.2173 29.6621C48.1657 29.7445 48.1039 29.8167 48.0524 29.8991C48.1039 29.8167 48.1554 29.7342 48.2173 29.6621ZM204.381 99.0042C202.186 106.394 188.283 109.496 167.824 108.486C169.71 105.312 171.236 102.199 172.575 98.9733C172.575 98.9733 172.575 98.9733 172.565 98.9733C175.585 91.6969 177.234 84.5133 177.801 77.3605C180.656 77.6697 183.315 76.5669 185.118 74.5572C185.057 74.619 185.005 74.7014 184.943 74.7633C198.836 83.8124 206.319 92.5008 204.381 99.0042ZM186.551 72.3619C186.489 72.4959 186.427 72.6195 186.366 72.7432C186.438 72.6092 186.499 72.4856 186.551 72.3619ZM186.159 73.1349C186.087 73.2586 186.015 73.3822 185.943 73.4956C186.015 73.3719 186.087 73.2586 186.159 73.1349ZM185.685 73.8666C185.603 73.98 185.52 74.0934 185.438 74.1964C185.52 74.0831 185.603 73.9697 185.685 73.8666Z" fill="url(#paint0_radial_409_86)"/>
<path d="M166.906 69.5791C166.906 73.1142 164.041 75.9795 160.506 75.9795C156.971 75.9795 154.106 73.1142 154.106 69.5791C154.106 66.044 156.971 63.1788 160.506 63.1788C164.041 63.1788 166.906 66.044 166.906 69.5791Z" fill="url(#paint1_radial_409_86)"/>
<path d="M159.96 71.9187C159.826 119.669 101.687 143.064 68.4693 109.847C34.53 76.2371 58.4101 18.0467 106.222 18.0467C137.389 18.0467 160.032 43.7408 159.96 71.9187Z" fill="url(#paint2_radial_409_86)"/>
<g opacity="0.5">
<path d="M159.63 66.4047C158.63 66.3223 157.455 66.3223 156.146 66.4975C152.137 67.0231 145.995 69.3009 139.501 77.1853C138.471 78.4427 137.512 79.628 136.574 80.7823C126.175 93.6551 121.424 99.5401 90.4013 102.354C80.5998 103.24 73.8181 106.518 69.1184 110.496C68.8916 110.279 68.6752 110.073 68.4587 109.847C73.2719 105.745 80.2494 102.354 90.3188 101.447C120.95 98.6641 125.32 93.2634 135.863 80.2051C136.791 79.0508 137.749 77.8656 138.79 76.6082C145.5 68.4557 151.9 66.1161 156.085 65.5802C157.363 65.4153 158.517 65.405 159.517 65.4772C159.568 65.7864 159.609 66.0955 159.63 66.4047Z" fill="#BD00FF"/>
<path d="M159.352 79.3394C159.311 79.6383 159.269 79.9372 159.218 80.2258C154.446 80.1536 150.189 82.1015 146.51 86.0489C144.366 88.3473 142.532 90.5013 140.914 92.3977C132.947 101.735 128.134 107.373 104.48 111.186C95.3177 112.66 88.5772 115.876 84.4031 120.741C84.1145 120.617 83.8259 120.483 83.5374 120.349C87.8455 115.206 94.8333 111.815 104.336 110.29C127.659 106.528 132.122 101.303 140.223 91.8102C141.851 89.9035 143.696 87.7392 145.85 85.4305C150.282 80.6586 155.116 79.2569 159.352 79.3394Z" fill="#BD00FF"/>
<path d="M155.879 92.1091C155.745 92.4286 155.611 92.7584 155.466 93.0779C151.622 93.7273 148.324 95.7473 145.613 99.1382C138.234 108.362 133.338 113.124 120.383 116.979C111.623 119.576 107.923 122.833 106.387 125.378H106.222C105.923 125.378 105.635 125.378 105.336 125.368C107.345 121.534 112.313 118.411 120.115 116.092C132.823 112.32 137.636 107.631 144.892 98.561C148.293 94.325 152.261 92.6141 155.879 92.1091Z" fill="#BD00FF"/>
<path d="M103.8 78.1129C100.43 83.9773 91.9888 86.2035 79.4973 88.9347C68.6858 91.2949 63.1924 96.0668 60.4612 99.7463C60.286 99.4577 60.1108 99.1691 59.9355 98.8805C60.1829 98.5507 60.4612 98.2209 60.7601 97.8705C63.584 94.6136 69.098 90.2746 79.3015 88.0381C91.5559 85.3584 99.8217 83.1837 103.006 77.6594C105.037 74.114 104.954 69.27 102.749 62.4058C100.883 56.6136 98.0799 50.8007 95.3796 45.1837C91.3291 36.7633 87.4127 28.6418 87.1653 21.5406C87.4745 21.4272 87.7734 21.3138 88.0826 21.2005C88.2166 28.1883 92.133 36.3304 96.2041 44.7817C98.925 50.4297 101.739 56.2632 103.625 62.1276C105.913 69.2494 105.975 74.3304 103.8 78.1129Z" fill="#BD00FF"/>
<path d="M91.7721 69.1256C89.6387 73.1452 83.0116 74.7942 71.5301 76.433C63.1819 77.6285 57.503 80.4113 53.7823 83.1322C53.7102 82.7921 53.6381 82.4417 53.5659 82.1016C57.3896 79.4012 63.0891 76.7113 71.3961 75.526C82.321 73.9697 89.0203 72.3516 90.9579 68.6928C92.2153 66.312 91.6278 62.8799 89.0408 57.5824C88.474 56.4281 87.9175 55.3046 87.3815 54.2122C82.5065 44.4004 78.5283 36.3923 79.8578 24.9624C80.1876 24.7768 80.5071 24.5913 80.8472 24.4161C79.3012 35.8666 83.1249 43.5759 88.206 53.7999C88.7523 54.8924 89.3088 56.0158 89.8757 57.1701C92.5966 62.7769 93.1841 66.4563 91.7721 69.1256Z" fill="#BD00FF"/>
<path d="M67.4282 61.3855C66.2223 61.8493 64.8619 62.3749 63.4087 62.983C57.8947 65.3225 54.5039 67.8477 52.5972 69.6307C52.6075 69.1978 52.6384 68.7649 52.6693 68.332C54.7203 66.5593 58.0184 64.2816 63.0583 62.1482C64.5218 61.5298 65.8925 61.0041 67.1087 60.5403C74.3232 57.7782 77.3121 56.6342 75.2921 45.2661C73.9522 37.7218 74.2408 31.9398 74.7974 28.2192C75.1478 27.9615 75.4982 27.7142 75.8589 27.4668C75.2405 31.0535 74.7664 37.1034 76.1887 45.1115C78.3428 57.2113 74.6943 58.613 67.4282 61.3855Z" fill="#BD00FF"/>
<path d="M66.9337 47.3996C64.6353 50.945 59.9252 52.1921 56.0603 52.5941C56.184 52.2642 56.318 51.9344 56.452 51.6046C60.0283 51.1717 64.1715 49.9762 66.171 46.8946C67.8509 44.3076 67.7891 40.721 65.9752 36.2067C66.2019 35.949 66.4183 35.7017 66.6554 35.4544C68.7476 40.4633 68.8404 44.4725 66.9337 47.3996Z" fill="#BD00FF"/>
<path d="M158.692 60.3858C150.53 58.7573 147.097 53.5113 143.758 48.4199C143.047 47.3274 142.305 46.204 141.542 45.1528C140.965 44.3592 140.419 43.5552 139.904 42.7823C136.08 37.1343 132.462 31.7955 114.096 28.8685C105.253 27.4565 99.1104 24.6222 95.8536 20.4275C95.5341 20.0152 95.2661 19.6133 95.0291 19.2216C95.3486 19.1495 95.6681 19.0876 95.9876 19.0258C96.1731 19.3247 96.3895 19.6236 96.6266 19.9328C98.7806 22.664 103.583 26.2713 114.24 27.9718C132.998 30.9607 136.719 36.4541 140.656 42.2772C141.171 43.0399 141.707 43.8335 142.284 44.6168C143.068 45.6887 143.81 46.8224 144.531 47.9252C147.695 52.759 150.952 57.7267 158.486 59.3963C158.548 59.7158 158.63 60.0457 158.692 60.3858Z" fill="#BD00FF"/>
<path d="M154.879 49.028C149.221 47.482 146.139 43.5552 142.903 39.4326C139.254 34.7947 135.132 29.5384 126.516 26.7144C117.343 23.7049 112.921 20.5924 110.788 18.2425C111.262 18.2837 111.746 18.325 112.22 18.3868C114.457 20.4996 118.714 23.1999 126.794 25.8487C135.668 28.7551 139.893 34.1351 143.614 38.8761C146.716 42.8235 149.478 46.338 154.343 47.9252C154.529 48.2859 154.704 48.657 154.879 49.028Z" fill="#BD00FF"/>
<path d="M140.831 58.2111C139.089 49.4815 127 36.9178 115.972 32.3418C110.313 30.0022 105.49 29.9919 102.017 32.3006C99.8833 33.7229 101.419 38.1134 103.759 44.7508C104.82 47.7603 106.016 51.1614 107.015 54.7584C107.809 57.6133 108.314 60.7877 108.809 63.8487C110.252 72.8154 111.612 81.2873 119.6 82.2252C120.084 82.2871 120.579 82.3077 121.073 82.3077C125.856 82.3077 131.164 79.7104 135.245 75.2786C139.873 70.2594 141.965 63.8796 140.831 58.2111ZM134.565 74.6603C130.246 79.3394 124.557 81.8851 119.703 81.3182C112.395 80.4628 111.086 72.3207 109.705 63.7044C109.211 60.6125 108.695 57.4175 107.891 54.511C106.881 50.8832 105.676 47.4614 104.614 44.4416C102.656 38.8864 100.966 34.0939 102.511 33.0632C106.562 30.3629 111.87 31.6409 115.611 33.1869C126.216 37.5775 138.265 50.0689 139.924 58.3863C141.006 63.7663 138.996 69.8574 134.565 74.6603Z" fill="#BD00FF"/>
<path d="M131.473 49.3681C126.041 42.9884 117.59 36.8045 110.499 36.8045C110.159 36.8045 109.84 36.8148 109.51 36.8457C108.85 36.8973 108.356 37.2271 108.077 37.7733C106.408 41.0508 112.911 51.9241 112.973 52.0272C114.612 54.7584 114.921 58.6337 115.209 62.3852C115.642 67.9507 116.054 73.207 120.94 73.6502C121.434 73.6914 121.929 73.7224 122.414 73.7224C129.484 73.7224 135.637 69.0948 137.348 62.2615C138.059 59.4066 135.812 54.4595 131.473 49.3681ZM136.461 62.0348C134.74 68.8886 128.247 73.3925 121.012 72.7329C116.889 72.3619 116.529 67.7034 116.106 62.3131C115.807 58.4584 115.498 54.4698 113.736 51.5531C111.107 47.1934 107.861 40.1644 108.871 38.1856C109.015 37.9176 109.232 37.7733 109.572 37.7527C116.539 37.1652 125.238 43.4522 130.772 49.9556C134.864 54.7584 137.1 59.4994 136.461 62.0348Z" fill="#BD00FF"/>
<path d="M129.474 59.7674C129.03 55.047 123.774 48.0901 119.652 48.0901C119.26 48.0901 119.033 48.2859 118.91 48.4508C118.415 49.1104 118.786 50.4194 119.538 52.862C120.033 54.4595 120.589 56.2735 120.713 57.737C120.765 58.3244 120.765 58.9119 120.775 59.4788C120.796 61.1072 120.827 62.6429 121.898 63.5189C122.465 63.9827 123.269 64.2095 124.351 64.2095C125.032 64.2095 125.825 64.1167 126.732 63.9518C128.721 63.5498 129.69 62.076 129.474 59.7674ZM126.578 63.0345C124.506 63.4262 123.166 63.354 122.486 62.7975C121.744 62.1894 121.723 60.9217 121.703 59.4479C121.692 58.8707 121.682 58.2729 121.63 57.6545C121.507 56.088 120.93 54.2225 120.414 52.5734C120.023 51.2954 119.425 49.3784 119.631 48.9971H119.641C123.228 48.9971 128.165 55.6654 128.556 59.8498C128.732 61.674 128.062 62.7459 126.578 63.0345Z" fill="#BD00FF"/>
</g>
<path opacity="0.65" d="M159.043 81.5862C158.311 85.4408 157.126 89.2954 155.477 93.0882C140.481 127.605 95.0808 136.458 68.4798 109.857C52.2264 93.7582 49.2376 72.0115 55.7925 53.7174C61.2343 66.3635 70.0051 85.3274 101.048 94.8919C123.114 101.684 148.304 95.7989 159.043 81.5862Z" fill="url(#paint3_linear_409_86)"/>
<path opacity="0.65" d="M159.96 71.9187C159.95 75.1137 159.651 78.35 159.033 81.5862C158.301 85.4408 157.116 89.2954 155.467 93.0882C140.471 127.605 95.0706 136.458 68.4696 109.857C65.3055 106.724 62.6464 103.374 60.4614 99.8802C135.555 134.036 159.29 69.5894 159.29 69.5894L159.96 71.9187Z" fill="url(#paint4_linear_409_86)"/>
<path d="M166.546 71.692C166.237 72.5577 165.752 73.341 165.134 73.9903C175.533 80.7617 181.13 87.2651 179.676 92.1297C178.027 97.654 167.628 99.9833 152.313 99.2206C138.337 98.5301 120.28 95.2835 101.059 89.5634C81.7029 83.8021 64.6973 76.5876 52.6077 69.4658C39.5391 61.7771 32.2112 54.2122 33.8396 48.7188C35.5092 43.1224 46.1765 40.8034 61.832 41.6588C62.4195 40.7725 63.0379 39.9067 63.6872 39.0513C43.4865 37.629 29.2738 40.6488 27.0476 48.1313C24.8214 55.6035 35.0248 65.8688 52.6489 75.7115C65.0992 82.6684 81.2701 89.3985 99.3683 94.7888C117.446 100.169 134.627 103.364 148.829 104.353C169.02 105.765 183.212 102.756 185.438 95.2732C187.375 88.8214 179.996 80.2567 166.546 71.692Z" fill="url(#paint5_linear_409_86)"/>
<path d="M90.0718 100.684C97.3121 100.684 103.182 94.8147 103.182 87.5743C103.182 80.3339 97.3121 74.4644 90.0718 74.4644C82.8314 74.4644 76.9619 80.3339 76.9619 87.5743C76.9619 94.8147 82.8314 100.684 90.0718 100.684Z" fill="url(#paint6_radial_409_86)"/>
<defs>
<radialGradient id="paint0_radial_409_86" cx="0" cy="0" r="1" gradientUnits="userSpaceOnUse" gradientTransform="translate(106.968 71.202) scale(63.1005 63.1005)">
<stop stop-color="#FFD83D"/>
<stop offset="1" stop-color="#FCC724" stop-opacity="0"/>
</radialGradient>
<radialGradient id="paint1_radial_409_86" cx="0" cy="0" r="1" gradientUnits="userSpaceOnUse" gradientTransform="translate(161.724 68.3595) scale(6.40343)">
<stop stop-color="#FF3DF7"/>
<stop offset="1" stop-color="#9936FC"/>
</radialGradient>
<radialGradient id="paint2_radial_409_86" cx="0" cy="0" r="1" gradientUnits="userSpaceOnUse" gradientTransform="translate(107.168 51.1403) scale(53.6974 53.6975)">
<stop stop-color="#FFD83D"/>
<stop offset="1" stop-color="#FCD924"/>
</radialGradient>
<linearGradient id="paint3_linear_409_86" x1="97.7652" y1="126.241" x2="105.998" y2="73.4896" gradientUnits="userSpaceOnUse">
<stop stop-color="#E0B727"/>
<stop offset="1" stop-color="#E0B727" stop-opacity="0.1"/>
</linearGradient>
<linearGradient id="paint4_linear_409_86" x1="120.84" y1="129.139" x2="107.576" y2="75.1702" gradientUnits="userSpaceOnUse">
<stop stop-color="#F2E909"/>
<stop offset="1" stop-color="#D3B727" stop-opacity="0.2"/>
</linearGradient>
<linearGradient id="paint5_linear_409_86" x1="101.188" y1="98.1345" x2="112.385" y2="39.7501" gradientUnits="userSpaceOnUse">
<stop stop-color="#6E18DB"/>
<stop offset="0.6812" stop-color="#E42CF4"/>
<stop offset="0.9928" stop-color="#9C2CF4" stop-opacity="0.1"/>
</linearGradient>
<radialGradient id="paint6_radial_409_86" cx="0" cy="0" r="1" gradientUnits="userSpaceOnUse" gradientTransform="translate(92.5066 82.3859) scale(13.1117)">
<stop stop-color="#7B3DFF"/>
<stop offset="1" stop-color="#B724FC"/>
</radialGradient>
</defs>
</svg>
