<svg width="187" height="140" viewBox="0 0 187 140" fill="none" xmlns="http://www.w3.org/2000/svg">
<path d="M45.324 76.0593C45.5069 75.9519 45.9424 76.0653 46.2327 76.1409C68.7747 77.6702 83.2403 67.9515 87.7002 50.8226C91.2908 37.0324 83.8218 15.7125 63.3542 10.3833C47.3866 6.22577 33.9037 12.1703 30.7617 13.5222C28.6418 14.5202 21.8467 17.401 21.8467 17.401L30.2244 38.8025C30.2244 38.8025 37.2403 35.6692 40.1994 34.4246C41.4045 33.9634 48.4264 30.2117 57.5715 32.5928C65.265 34.596 66.8513 39.8141 66.1529 44.2823C65.7191 47.7343 63.4755 53.9702 48.7146 52.9169C48.5694 52.8791 48.0962 52.9109 47.8058 52.8353C24.9735 51.2304 10.6033 62.3689 6.18118 79.3526C4.78274 84.7236 1.26774 98.2235 1.26774 98.2235L70.6543 116.29L76.2859 94.661L28.6733 82.264C29.2781 79.9414 30.235 75.0755 45.324 76.0593ZM138.465 32.265C130.916 30.2996 108.271 24.4035 108.271 24.4035L83.5528 119.338C83.5528 119.338 106.198 125.234 113.746 127.2C140.02 134.041 166.732 118.366 173.573 92.0916C180.376 65.9627 164.738 39.106 138.465 32.265ZM119.378 105.571C117.345 105.042 110.958 103.379 110.958 103.379L124.376 51.8469C124.376 51.8469 130.763 53.5099 132.795 54.039C147.021 57.743 155.61 72.3795 151.944 86.46C148.24 100.686 133.603 109.275 119.378 105.571Z" fill="#101B29"/>
</svg>
