<svg width="184" height="136" viewBox="0 0 184 136" fill="none" xmlns="http://www.w3.org/2000/svg">
<path d="M38.3311 26.558C22.1755 29.9113 12.787 41.5114 10.5702 44.1163C9.11258 45.9508 4.2992 51.5458 4.2992 51.5458L21.389 67.4546C21.389 67.4546 24.2127 63.345 27.103 60.2939C29.9627 57.096 33.773 51.0965 43.0258 49.1759C50.8099 47.5602 54.4789 50.4754 55.4128 53.4987C56.2857 56.2283 57.3832 61.5156 44.5002 65.8748C41.9176 66.7172 33.6929 68.4244 33.6929 68.4244L38.4789 91.4829C38.4789 91.4829 46.7036 89.7758 49.4083 89.5208C62.9619 88.3927 64.3835 93.7659 64.3448 96.5315C64.367 99.5909 62.455 103.664 54.6709 105.28C45.4181 107.201 40.9537 104.144 37.2653 102.612C34.7574 101.6 27.2587 97.9481 27.2587 97.9481L18.2306 118.665C18.2306 118.665 24.8731 121.882 26.9404 122.985C30.0108 124.493 43.2403 131.398 59.396 128.045C80.1046 123.747 89.3627 106.352 86.3752 91.9588C84.5461 83.1467 80.115 76.5597 73.5529 72.2535C77.8287 65.5445 79.2723 57.7382 77.4432 48.926C74.4558 34.5328 59.0398 22.2597 38.3311 26.558ZM115.753 14.7777C108.116 16.3629 85.2042 21.1184 85.2042 21.1184L105.141 117.171C105.141 117.171 128.053 112.416 135.69 110.83C162.273 105.313 179.266 79.419 173.748 52.8356C168.261 26.399 142.337 9.25995 115.753 14.7777ZM131.148 88.9468C129.092 89.3736 122.629 90.7149 122.629 90.7149L111.807 38.5762C111.807 38.5762 118.27 37.2349 120.326 36.8081C134.719 33.8206 148.907 43.1314 151.864 57.3778C154.852 71.771 145.541 85.9593 131.148 88.9468Z" fill="#FF6F04"/>
</svg>
