<svg width="1728" height="1468" viewBox="0 0 1728 1468" fill="none" xmlns="http://www.w3.org/2000/svg">
<g opacity="0.4" filter="url(#filter0_d_201_2)">
<path opacity="0.96" d="M105.766 106.782C106.382 106.092 107.474 106.856 107.036 107.671L103.367 114.505C98.6284 123.33 100.554 134.252 108.025 140.924L113.811 146.091C114.501 146.707 113.736 147.799 112.921 147.361L106.087 143.692C97.2626 138.953 86.3405 140.879 79.6686 148.35L74.5017 154.136C73.8856 154.825 72.7942 154.061 73.2316 153.246L76.9012 146.412C81.6395 137.587 79.7137 126.665 72.2428 119.993L66.4571 114.826C65.7674 114.21 66.5317 113.119 67.3464 113.556L74.1806 117.226C83.0054 121.964 93.9274 120.038 100.599 112.568L105.766 106.782Z" fill="#E0E1DD"/>
<path opacity="0.73" d="M763.053 115.613C764.167 115.158 765.007 116.674 764.031 117.377L755.841 123.277C745.266 130.895 741.288 144.767 746.22 156.831L750.039 166.174C750.494 167.288 748.978 168.129 748.274 167.152L742.375 158.962C734.757 148.387 720.885 144.409 708.821 149.341L699.477 153.16C698.364 153.615 697.523 152.099 698.499 151.395L706.689 145.496C717.265 137.878 721.242 124.006 716.311 111.942L712.492 102.599C712.036 101.485 713.553 100.644 714.256 101.62L720.156 109.81C727.773 120.386 741.646 124.364 753.71 119.432L763.053 115.613Z" fill="#E0E1DD"/>
<path opacity="0.93" d="M907.79 77.8519C908.873 78.1578 908.619 79.7592 907.495 79.7154L898.063 79.3476C885.883 78.8726 874.965 86.8052 871.653 98.5352L869.088 107.619C868.782 108.702 867.181 108.449 867.225 107.324L867.592 97.8921C868.067 85.7128 860.135 74.7945 848.405 71.4826L839.321 68.9177C838.238 68.6119 838.491 67.0105 839.616 67.0542L849.048 67.4221C861.227 67.897 872.146 59.9644 875.458 48.2343L878.022 39.1502C878.328 38.0673 879.93 38.321 879.886 39.4453L879.518 48.8774C879.043 61.0569 886.976 71.9751 898.706 75.2871L907.79 77.8519Z" fill="#E0E1DD"/>
<path opacity="0.8" d="M1394.81 112.194C1395.58 111.419 1396.82 112.388 1396.25 113.321L1391.5 121.153C1385.37 131.265 1386.96 144.263 1395.36 152.591L1401.86 159.041C1402.64 159.81 1401.67 161.05 1400.74 160.484L1392.9 155.735C1382.79 149.602 1369.79 151.198 1361.47 159.595L1355.02 166.097C1354.25 166.873 1353.01 165.904 1353.57 164.97L1358.32 157.139C1364.46 147.026 1362.86 134.029 1354.46 125.701L1347.96 119.251C1347.18 118.482 1348.15 117.242 1349.09 117.808L1356.92 122.557C1367.03 128.69 1380.03 127.094 1388.36 118.697L1394.81 112.194Z" fill="#E0E1DD"/>
<path opacity="0.84" d="M1662.34 38.142C1662.53 39.0021 1661.33 39.415 1660.95 38.6224L1657.74 31.9733C1653.59 23.3875 1644.1 18.76 1634.79 20.7801L1627.57 22.3446C1626.71 22.531 1626.3 21.3319 1627.09 20.9492L1633.74 17.7397C1642.33 13.5953 1646.95 4.10759 1644.93 -5.20958L1643.37 -12.4251C1643.18 -13.2854 1644.38 -13.6983 1644.76 -12.9056L1647.97 -6.25649C1652.12 2.32923 1661.61 6.9567 1670.92 4.93658L1678.14 3.37213C1679 3.18573 1679.41 4.38482 1678.62 4.76749L1671.97 7.97704C1663.38 12.1214 1658.76 21.6092 1660.78 30.9264L1662.34 38.142Z" fill="#E0E1DD"/>
<path opacity="0.9" d="M330.836 294.69C329.75 295.349 328.623 293.906 329.525 293.012L337.089 285.509C346.857 275.821 348.713 260.701 341.58 248.938L336.055 239.828C335.397 238.742 336.839 237.615 337.733 238.517L345.236 246.081C354.925 255.849 370.044 257.705 381.807 250.571L390.917 245.047C392.004 244.388 393.13 245.83 392.228 246.725L384.664 254.228C374.897 263.916 373.04 279.036 380.174 290.799L385.698 299.909C386.357 300.995 384.915 302.122 384.02 301.22L376.517 293.656C366.829 283.888 351.71 282.032 339.946 289.166L330.836 294.69Z" fill="#E0E1DD"/>
<path opacity="0.98" d="M1104.3 236.74C1104.77 237.531 1103.72 238.351 1103.07 237.695L1097.61 232.187C1090.56 225.076 1079.55 223.724 1070.98 228.918L1064.35 232.94C1063.56 233.42 1062.74 232.37 1063.4 231.718L1068.9 226.256C1076.02 219.202 1077.37 208.194 1072.17 199.629L1068.15 192.997C1067.67 192.206 1068.72 191.385 1069.37 192.042L1074.84 197.549C1081.89 204.661 1092.9 206.012 1101.46 200.819L1108.1 196.796C1108.89 196.317 1109.71 197.367 1109.05 198.018L1103.54 203.481C1096.43 210.535 1095.08 221.543 1100.27 230.107L1104.3 236.74Z" fill="#E0E1DD"/>
<path opacity="0.81" d="M1552.16 206.191C1552.43 205.554 1553.39 205.829 1553.27 206.51L1552.34 212.23C1551.14 219.615 1555.16 226.861 1562.06 229.756L1567.4 231.999C1568.04 232.266 1567.77 233.223 1567.08 233.112L1561.36 232.182C1553.98 230.982 1546.73 234.998 1543.84 241.897L1541.6 247.24C1541.33 247.877 1540.37 247.603 1540.48 246.921L1541.41 241.202C1542.61 233.816 1538.6 226.571 1531.7 223.675L1526.35 221.433C1525.72 221.165 1525.99 220.209 1526.67 220.32L1532.39 221.249C1539.78 222.45 1547.02 218.433 1549.92 211.534L1552.16 206.191Z" fill="#E0E1DD"/>
<path opacity="0.91" d="M11.5397 387.704C11.6199 388.581 10.3794 388.844 10.0962 388.011L7.72088 381.02C4.65372 371.993 -4.19933 366.244 -13.6932 367.114L-21.0457 367.787C-21.9222 367.867 -22.1859 366.627 -21.3525 366.344L-14.3618 363.968C-5.33501 360.901 0.41423 352.048 -0.455334 342.554L-1.12876 335.202C-1.20897 334.325 0.0315032 334.062 0.314755 334.895L2.69005 341.886C5.75719 350.913 14.6102 356.662 24.1042 355.792L31.4567 355.119C32.3331 355.039 32.5968 356.279 31.7635 356.562L24.7728 358.938C15.7459 362.005 9.99668 370.858 10.8663 380.352L11.5397 387.704Z" fill="#E0E1DD"/>
<path opacity="0.75" d="M663.059 470.56C664.293 470.641 664.386 472.42 663.168 472.63L652.944 474.39C639.743 476.662 629.818 487.685 628.938 501.051L628.257 511.403C628.176 512.637 626.396 512.73 626.186 511.511L624.426 501.288C622.154 488.086 611.132 478.162 597.765 477.282L587.414 476.6C586.18 476.519 586.087 474.74 587.305 474.53L597.529 472.77C610.73 470.498 620.655 459.475 621.535 446.109L622.216 435.757C622.297 434.523 624.077 434.43 624.287 435.649L626.047 445.872C628.319 459.074 639.341 468.998 652.708 469.878L663.059 470.56Z" fill="#E0E1DD"/>
<path opacity="0.92" d="M1080.13 371.475C1080 372.772 1078.12 372.805 1077.95 371.513L1076.47 360.679C1074.56 346.689 1063.31 335.829 1049.27 334.41L1038.39 333.311C1037.09 333.18 1037.06 331.302 1038.35 331.126L1049.18 329.648C1063.17 327.74 1074.03 316.494 1075.45 302.446L1076.55 291.567C1076.68 290.27 1078.56 290.237 1078.74 291.529L1080.21 302.363C1082.12 316.353 1093.37 327.213 1107.42 328.632L1118.3 329.731C1119.59 329.862 1119.63 331.74 1118.33 331.916L1107.5 333.394C1093.51 335.302 1082.65 346.548 1081.23 360.596L1080.13 371.475Z" fill="#E0E1DD"/>
<path opacity="0.96" d="M1239.15 427.71C1239.04 428.516 1237.86 428.496 1237.78 427.687L1237.1 420.899C1236.21 412.134 1229.44 405.117 1220.71 403.926L1213.95 403.004C1213.14 402.894 1213.16 401.723 1213.97 401.641L1220.76 400.955C1229.52 400.07 1236.54 393.294 1237.73 384.566L1238.65 377.806C1238.76 377 1239.94 377.02 1240.02 377.829L1240.7 384.617C1241.59 393.382 1248.36 400.399 1257.09 401.59L1263.85 402.512C1264.66 402.622 1264.64 403.793 1263.83 403.875L1257.04 404.561C1248.28 405.446 1241.26 412.222 1240.07 420.951L1239.15 427.71Z" fill="#E0E1DD"/>
<path opacity="0.77" d="M106.983 700.432C106.572 701.247 105.335 700.797 105.544 699.908L107.298 692.448C109.563 682.815 104.933 672.884 96.0975 668.428L89.2551 664.976C88.4394 664.565 88.8896 663.328 89.779 663.537L97.2391 665.291C106.872 667.556 116.802 662.926 121.259 654.091L124.71 647.248C125.122 646.432 126.359 646.883 126.15 647.772L124.395 655.232C122.13 664.865 126.761 674.795 135.596 679.252L142.439 682.703C143.254 683.115 142.804 684.352 141.915 684.143L134.455 682.389C124.822 680.123 114.891 684.754 110.435 693.589L106.983 700.432Z" fill="#E0E1DD"/>
<path opacity="0.74" d="M629.887 648.115C630.622 648.845 629.703 650.021 628.817 649.484L621.385 644.977C611.789 639.158 599.455 640.672 591.551 648.64L585.43 654.811C584.701 655.547 583.524 654.628 584.061 653.742L588.568 646.31C594.388 636.713 592.873 624.379 584.905 616.476L578.734 610.355C577.998 609.625 578.918 608.449 579.804 608.986L587.236 613.493C596.832 619.312 609.166 617.798 617.07 609.829L623.191 603.658C623.92 602.923 625.097 603.842 624.56 604.728L620.053 612.16C614.233 621.757 615.748 634.091 623.716 641.994L629.887 648.115Z" fill="#E0E1DD"/>
<path opacity="0.99" d="M831.682 618.858C831.817 619.604 830.773 619.923 830.468 619.23L827.906 613.413C824.599 605.903 816.576 601.637 808.501 603.095L802.247 604.224C801.501 604.359 801.182 603.315 801.875 603.009L807.692 600.448C815.202 597.141 819.468 589.118 818.01 581.043L816.881 574.789C816.746 574.043 817.79 573.724 818.095 574.417L820.657 580.233C823.964 587.744 831.987 592.009 840.062 590.552L846.316 589.423C847.062 589.288 847.381 590.332 846.688 590.637L840.871 593.199C833.361 596.506 829.095 604.528 830.553 612.604L831.682 618.858Z" fill="#E0E1DD"/>
<path opacity="0.93" d="M1558.07 547.781C1557.09 547.785 1556.92 546.383 1557.87 546.15L1565.86 544.193C1576.17 541.665 1583.41 532.399 1583.37 521.78L1583.34 513.556C1583.33 512.575 1584.73 512.403 1584.97 513.355L1586.93 521.343C1589.45 531.658 1598.72 538.897 1609.34 538.854L1617.56 538.821C1618.54 538.817 1618.71 540.219 1617.76 540.452L1609.77 542.409C1599.46 544.937 1592.22 554.203 1592.26 564.822L1592.3 573.047C1592.3 574.027 1590.9 574.199 1590.67 573.247L1588.71 565.259C1586.18 554.944 1576.92 547.705 1566.3 547.748L1558.07 547.781Z" fill="#E0E1DD"/>
<path opacity="0.85" d="M343.409 834.363C344.132 835.009 343.331 836.153 342.477 835.695L335.314 831.848C326.064 826.882 314.615 828.9 307.622 836.731L302.206 842.796C301.56 843.519 300.416 842.718 300.874 841.863L304.721 834.7C309.688 825.45 307.669 814.002 299.838 807.008L293.774 801.592C293.051 800.946 293.852 799.802 294.706 800.261L301.869 804.107C311.119 809.074 322.568 807.055 329.561 799.224L334.977 793.16C335.623 792.437 336.767 793.238 336.308 794.092L332.462 801.256C327.495 810.506 329.514 821.954 337.345 828.948L343.409 834.363Z" fill="#E0E1DD"/>
<path opacity="0.77" d="M582.149 843.611C581.961 842.866 582.995 842.469 583.353 843.149L586.357 848.855C590.236 856.223 598.659 859.973 606.73 857.926L612.981 856.34C613.726 856.151 614.123 857.185 613.443 857.544L607.737 860.548C600.369 864.427 596.619 872.85 598.666 880.921L600.252 887.172C600.441 887.917 599.406 888.314 599.048 887.634L596.044 881.928C592.165 874.56 583.742 870.81 575.671 872.857L569.42 874.442C568.675 874.631 568.278 873.597 568.958 873.239L574.664 870.235C582.032 866.356 585.782 857.933 583.735 849.862L582.149 843.611Z" fill="#E0E1DD"/>
<path opacity="0.93" d="M1070.97 762.728C1070.19 763.41 1069.08 762.411 1069.68 761.565L1074.7 754.466C1081.17 745.298 1080.52 732.889 1073.12 724.449L1067.39 717.912C1066.71 717.133 1067.71 716.023 1068.56 716.621L1075.66 721.635C1084.82 728.11 1097.23 727.46 1105.67 720.062L1112.21 714.333C1112.99 713.65 1114.1 714.649 1113.5 715.496L1108.49 722.595C1102.01 731.762 1102.66 744.172 1110.06 752.612L1115.79 759.149C1116.47 759.928 1115.47 761.037 1114.63 760.44L1107.53 755.426C1098.36 748.951 1085.95 749.601 1077.51 756.999L1070.97 762.728Z" fill="#E0E1DD"/>
<path opacity="0.88" d="M1413.11 829.211C1414.16 829.767 1413.55 831.37 1412.39 831.077L1402.7 828.619C1390.18 825.444 1377.12 831.259 1371.11 842.685L1366.45 851.534C1365.89 852.588 1364.29 851.973 1364.58 850.817L1367.04 841.124C1370.21 828.608 1364.4 815.546 1352.97 809.531L1344.12 804.872C1343.07 804.317 1343.69 802.713 1344.84 803.006L1354.53 805.465C1367.05 808.64 1380.11 802.824 1386.13 791.398L1390.79 782.55C1391.34 781.495 1392.95 782.111 1392.65 783.266L1390.19 792.959C1387.02 805.476 1392.83 818.537 1404.26 824.553L1413.11 829.211Z" fill="#E0E1DD"/>
<path opacity="0.95" d="M1704.43 863.639C1704.98 863.085 1705.87 863.777 1705.46 864.444L1702.07 870.038C1697.69 877.261 1698.83 886.545 1704.83 892.494L1709.47 897.101C1710.03 897.65 1709.34 898.536 1708.67 898.131L1703.07 894.739C1695.85 890.359 1686.57 891.499 1680.62 897.496L1676.01 902.141C1675.46 902.695 1674.58 902.003 1674.98 901.336L1678.37 895.742C1682.75 888.519 1681.61 879.235 1675.62 873.286L1670.97 868.679C1670.42 868.13 1671.11 867.244 1671.78 867.649L1677.37 871.041C1684.59 875.421 1693.88 874.281 1699.83 868.284L1704.43 863.639Z" fill="#E0E1DD"/>
<path opacity="0.71" d="M68.6173 899.242C67.9363 899.453 67.5185 898.514 68.1311 898.149L73.2706 895.09C79.9071 891.139 82.9717 883.155 80.6836 875.778L78.9115 870.066C78.7003 869.384 79.6389 868.967 80.0037 869.579L83.0634 874.719C87.0143 881.355 94.9981 884.42 102.375 882.132L108.088 880.36C108.769 880.148 109.187 881.087 108.574 881.452L103.434 884.512C96.798 888.463 93.7333 896.446 96.0215 903.823L97.7935 909.536C98.0047 910.217 97.0661 910.635 96.7013 910.022L93.6416 904.883C89.6907 898.246 81.707 895.181 74.3302 897.47L68.6173 899.242Z" fill="#E0E1DD"/>
<path opacity="0.95" d="M626.373 995.343C626.835 995.998 625.977 996.772 625.373 996.243L620.313 991.808C613.778 986.081 604.171 985.577 597.074 990.59L591.577 994.472C590.922 994.935 590.149 994.076 590.677 993.472L595.113 988.412C600.84 981.878 601.343 972.27 596.331 965.173L592.449 959.677C591.986 959.021 592.845 958.248 593.448 958.777L598.509 963.212C605.043 968.939 614.65 969.442 621.748 964.43L627.244 960.548C627.899 960.085 628.673 960.944 628.144 961.547L623.709 966.608C617.982 973.142 617.478 982.75 622.491 989.847L626.373 995.343Z" fill="#E0E1DD"/>
<path opacity="0.93" d="M926.281 877.59C925.046 877.53 924.922 875.752 926.136 875.521L936.328 873.583C949.487 871.081 959.218 859.887 959.865 846.507L960.365 836.145C960.425 834.91 962.203 834.786 962.434 836.001L964.372 846.192C966.874 859.352 978.068 869.082 991.448 869.729L1001.81 870.23C1003.04 870.289 1003.17 872.067 1001.95 872.298L991.763 874.236C978.603 876.738 968.873 887.932 968.226 901.312L967.725 911.674C967.666 912.909 965.888 913.033 965.657 911.819L963.719 901.627C961.216 888.468 950.023 878.737 936.643 878.09L926.281 877.59Z" fill="#E0E1DD"/>
<path d="M1316.9 1014.8C1316.52 1015.46 1315.52 1015.04 1315.73 1014.31L1317.5 1008.21C1319.8 1000.33 1316.39 991.903 1309.27 987.829L1303.75 984.673C1303.1 984.297 1303.52 983.292 1304.25 983.504L1310.35 985.281C1318.23 987.575 1326.66 984.171 1330.73 977.048L1333.89 971.531C1334.26 970.873 1335.27 971.3 1335.05 972.027L1333.28 978.129C1330.98 986.008 1334.39 994.433 1341.51 998.507L1347.03 1001.66C1347.69 1002.04 1347.26 1003.04 1346.53 1002.83L1340.43 1001.05C1332.55 998.761 1324.13 1002.16 1320.05 1009.29L1316.9 1014.8Z" fill="#E0E1DD"/>
<path opacity="0.87" d="M355.355 1117.49C354.653 1117.71 354.222 1116.74 354.854 1116.36L360.154 1113.21C366.998 1109.13 370.158 1100.9 367.799 1093.29L365.971 1087.4C365.753 1086.7 366.721 1086.27 367.098 1086.9L370.253 1092.2C374.327 1099.04 382.561 1102.2 390.168 1099.84L396.059 1098.02C396.761 1097.8 397.192 1098.77 396.561 1099.14L391.26 1102.3C384.417 1106.37 381.256 1114.6 383.616 1122.21L385.443 1128.1C385.661 1128.81 384.693 1129.24 384.317 1128.6L381.162 1123.3C377.087 1116.46 368.854 1113.3 361.247 1115.66L355.355 1117.49Z" fill="#E0E1DD"/>
<path opacity="0.82" d="M571.104 1211.87C572.03 1210.97 573.478 1212.14 572.788 1213.23L567.006 1222.4C559.54 1234.24 561.16 1249.66 570.925 1259.69L578.488 1267.46C579.389 1268.38 578.217 1269.83 577.124 1269.14L567.954 1263.36C556.112 1255.89 540.697 1257.51 530.667 1267.28L522.899 1274.84C521.973 1275.74 520.526 1274.57 521.215 1273.47L526.997 1264.3C534.464 1252.46 532.844 1237.05 523.078 1227.02L515.516 1219.25C514.614 1218.32 515.786 1216.88 516.879 1217.57L526.05 1223.35C537.891 1230.81 553.306 1229.19 563.337 1219.43L571.104 1211.87Z" fill="#E0E1DD"/>
<path opacity="0.94" d="M1212.11 1203.46C1212.53 1202.87 1213.44 1203.38 1213.17 1204.05L1210.87 1209.67C1207.9 1216.93 1210.29 1225.28 1216.66 1229.86L1221.59 1233.41C1222.18 1233.84 1221.67 1234.75 1221 1234.48L1215.38 1232.18C1208.12 1229.21 1199.77 1231.6 1195.18 1237.97L1191.63 1242.9C1191.21 1243.48 1190.3 1242.98 1190.57 1242.31L1192.87 1236.69C1195.84 1229.42 1193.44 1221.08 1187.08 1216.49L1182.15 1212.94C1181.56 1212.52 1182.07 1211.6 1182.74 1211.88L1188.36 1214.18C1195.62 1217.14 1203.97 1214.75 1208.55 1208.39L1212.11 1203.46Z" fill="#E0E1DD"/>
<path opacity="0.86" d="M1228.5 1102.82C1227.67 1102.82 1227.52 1101.62 1228.33 1101.42L1235.14 1099.76C1243.93 1097.6 1250.1 1089.71 1250.07 1080.65L1250.04 1073.65C1250.03 1072.81 1251.23 1072.66 1251.43 1073.47L1253.1 1080.28C1255.25 1089.07 1263.15 1095.24 1272.2 1095.21L1279.21 1095.18C1280.04 1095.17 1280.19 1096.37 1279.38 1096.57L1272.57 1098.24C1263.78 1100.39 1257.61 1108.29 1257.65 1117.34L1257.67 1124.35C1257.68 1125.18 1256.48 1125.33 1256.28 1124.52L1254.62 1117.71C1252.46 1108.92 1244.56 1102.75 1235.51 1102.79L1228.5 1102.82Z" fill="#E0E1DD"/>
<path opacity="0.8" d="M346.87 1310.42C346.157 1310.42 346.032 1309.4 346.724 1309.23L352.534 1307.81C360.036 1305.97 365.3 1299.23 365.269 1291.51L365.245 1285.53C365.242 1284.82 366.262 1284.69 366.431 1285.38L367.855 1291.19C369.693 1298.69 376.432 1303.96 384.155 1303.93L390.136 1303.9C390.849 1303.9 390.975 1304.92 390.282 1305.09L384.472 1306.51C376.971 1308.35 371.706 1315.09 371.737 1322.81L371.762 1328.8C371.764 1329.51 370.745 1329.63 370.575 1328.94L369.152 1323.13C367.314 1315.63 360.575 1310.36 352.851 1310.4L346.87 1310.42Z" fill="#E0E1DD"/>
<path d="M873.655 1386.41C872.589 1386.32 872.535 1384.78 873.592 1384.62L882.459 1383.25C893.909 1381.49 902.658 1372.11 903.62 1360.56L904.366 1351.62C904.455 1350.55 905.995 1350.5 906.158 1351.56L907.526 1360.43C909.291 1371.88 918.673 1380.62 930.218 1381.59L939.159 1382.33C940.225 1382.42 940.279 1383.96 939.222 1384.12L930.354 1385.49C918.905 1387.26 910.156 1396.64 909.193 1408.18L908.448 1417.13C908.359 1418.19 906.819 1418.24 906.656 1417.19L905.288 1408.32C903.522 1396.87 894.141 1388.12 882.596 1387.16L873.655 1386.41Z" fill="#E0E1DD"/>
<path opacity="0.77" d="M1341.87 1416.11C1342.77 1416.33 1342.61 1417.65 1341.68 1417.64L1333.92 1417.61C1323.91 1417.57 1315.17 1424.4 1312.79 1434.13L1310.94 1441.66C1310.72 1442.56 1309.4 1442.4 1309.4 1441.47L1309.43 1433.72C1309.47 1423.7 1302.64 1414.96 1292.92 1412.58L1285.38 1410.73C1284.48 1410.51 1284.65 1409.19 1285.57 1409.19L1293.33 1409.22C1303.34 1409.26 1312.08 1402.44 1314.47 1392.71L1316.31 1385.17C1316.53 1384.28 1317.86 1384.44 1317.85 1385.36L1317.82 1393.12C1317.78 1403.14 1324.61 1411.88 1334.34 1414.26L1341.87 1416.11Z" fill="#E0E1DD"/>
<path opacity="0.78" d="M1733.39 1317.86C1733.95 1318.86 1732.62 1319.82 1731.85 1318.98L1725.38 1311.99C1717.02 1302.95 1703.56 1300.82 1692.82 1306.83L1684.5 1311.48C1683.51 1312.04 1682.54 1310.71 1683.38 1309.94L1690.38 1303.47C1699.41 1295.11 1701.54 1281.65 1695.53 1270.91L1690.88 1262.59C1690.32 1261.6 1691.65 1260.64 1692.42 1261.47L1698.89 1268.47C1707.25 1277.5 1720.71 1279.64 1731.45 1273.63L1739.77 1268.97C1740.76 1268.41 1741.73 1269.74 1740.89 1270.51L1733.89 1276.98C1724.86 1285.34 1722.72 1298.8 1728.74 1309.55L1733.39 1317.86Z" fill="#E0E1DD"/>
<path opacity="0.8" d="M718.881 1176.51C717.879 1177.27 716.619 1175.96 717.415 1174.99L724.095 1166.81C732.72 1156.24 732.983 1141.15 724.732 1130.29L718.342 1121.88C717.58 1120.88 718.885 1119.62 719.861 1120.41L728.041 1127.09C738.603 1135.72 753.7 1135.98 764.558 1127.73L772.966 1121.34C773.968 1120.58 775.228 1121.89 774.432 1122.86L767.753 1131.04C759.128 1141.6 758.864 1156.7 767.115 1167.56L773.505 1175.97C774.267 1176.97 772.962 1178.23 771.987 1177.43L763.807 1170.75C753.244 1162.13 738.147 1161.86 727.29 1170.12L718.881 1176.51Z" fill="#E0E1DD"/>
</g>
<path d="M238.332 524.377C99.5594 524.377 -21.3409 447.443 -83.9302 333.839C-222.013 83.3562 -31.5539 -220.718 246.475 -211.809C423.34 -208.218 572.74 -77.7622 601.24 95.7179C638.642 319.612 465.779 524.377 238.332 524.377Z" fill="url(#paint0_radial_201_2)"/>
<g opacity="0.75">
<path d="M384.422 215.745C369.171 211.947 364.962 230.939 373.587 235.221C382.213 239.571 403.882 252.555 408.229 243.853C412.577 235.221 401.742 220.096 384.422 215.745Z" fill="#8E3316"/>
<path d="M535.893 55.5248C521.125 58.9087 503.459 66.3673 518.572 77.2098C533.753 88.0523 557.492 83.7015 559.7 70.7181C561.839 57.6656 564.048 49.0331 535.893 55.5248Z" fill="#8E3316"/>
<path d="M239.437 404.142C207.694 385.082 161.528 378.176 157.181 397.651C152.833 417.126 183.127 447.443 219.908 443.092C256.758 438.811 261.105 417.126 239.437 404.142Z" fill="#8E3316"/>
<path d="M342.952 509.253C314.314 517.747 284.227 522.858 253.105 524.032C260.212 478.935 303.066 493.162 325.976 499.377C332.67 501.242 338.259 504.902 342.952 509.253Z" fill="#8E3316"/>
<path d="M38.2157 402.002C52.2241 408.148 62.0231 378.176 42.5631 352.209C23.1032 326.242 14.4083 293.715 -9.39911 287.223C-33.2065 280.731 -46.1799 365.192 38.2157 402.002Z" fill="#8E3316"/>
<path d="M135.584 207.113C120.334 205.732 105.29 213.605 107.43 230.939C109.569 248.273 133.376 230.939 144.21 230.939C155.044 230.939 159.392 209.254 135.584 207.113Z" fill="#8E3316"/>
<path d="M284.912 5.73223C271.8 -0.483223 269.73 27.4173 280.564 31.6991C291.398 36.0499 321.692 22.9974 284.912 5.73223Z" fill="#8E3316"/>
</g>
<path d="M146.416 146.478C72.8549 159.461 62.0209 161.602 -5.05384 217.955C-49.4253 255.179 -95.729 243.162 -121.952 230.731C-126.851 206.698 -129.474 181.767 -129.474 156.215C-129.474 51.5193 -85.7921 -43.0247 -15.681 -110.013C-1.25852 -101.45 13.6469 -89.8477 25.2401 -74.3781C57.6734 -31.0772 51.1867 -13.743 146.416 36.0496C241.577 85.8423 219.978 133.494 146.416 146.478Z" fill="url(#paint1_linear_201_2)"/>
<path d="M570.81 -1.51918C502.907 -15.7457 456.604 61.1188 410.369 55.5249C356.268 49.0332 371.449 -31.0771 325.973 -115.538C303.201 -157.803 301.614 -187.085 305.685 -205.731C423.204 -184.046 521.056 -106.422 570.81 -1.51918Z" fill="url(#paint2_linear_201_2)"/>
<path d="M606.212 156.215C606.212 299.101 524.922 422.927 406.092 483.976C378.972 441.089 422.93 409.253 475.306 376.035C540.242 334.874 479.653 317.54 490.419 250.413C501.253 183.286 460.124 178.936 479.584 122.651C493.455 82.458 565.774 120.579 606.005 145.717C606.143 149.171 606.212 152.693 606.212 156.215Z" fill="url(#paint3_linear_201_2)"/>
<path d="M261.106 267.748C221.772 279.971 200.518 233.079 150.764 243.922C101.01 254.764 59.8819 343.507 126.957 341.366C194.032 339.225 211.352 330.524 261.106 365.192C310.86 399.861 369.31 376.035 386.63 321.891C403.882 267.748 393.048 226.588 261.106 267.748Z" fill="url(#paint4_linear_201_2)"/>
<path d="M343.291 105.317C322.589 111.947 317.344 122.651 323.831 135.634C330.318 148.618 356.264 146.477 369.238 165.952C382.211 185.427 414.713 209.253 423.339 165.952C432.034 122.651 390.906 90.1236 343.291 105.317Z" fill="url(#paint5_linear_201_2)"/>
<path opacity="0.5" d="M267.596 -7.32036C263.731 21.5469 237.301 -7.32036 194.034 -15.9529C150.767 -24.5855 133.446 -50.6213 152.906 -67.9555C172.366 -85.2897 198.313 -98.2731 224.328 -83.1488C250.275 -67.9555 271.874 -39.7788 267.596 -7.32036Z" fill="#8E3316"/>
<path opacity="0.45" d="M588.682 268.853C558.664 362.43 492.21 439.708 406.089 483.976C386.008 494.266 364.893 502.761 342.948 509.321C314.31 517.816 284.223 522.926 253.101 524.1C248.202 524.308 243.302 524.377 238.334 524.377C99.5607 524.377 -21.3396 447.443 -83.929 333.839C-101.457 302.071 -114.43 267.402 -121.952 230.731C-126.851 206.698 -129.474 181.767 -129.474 156.215C-129.474 111.74 -121.607 69.1294 -107.184 29.6958C-65.5731 154.074 29.6566 314.571 246.132 344.336C288.364 350.137 327.836 350.897 364.685 347.72C455.084 339.778 529.474 308.148 588.682 268.853Z" fill="url(#paint6_linear_201_2)"/>
<path opacity="0.45" d="M606.207 156.215C606.207 195.51 600.065 233.355 588.679 268.853C558.661 362.43 492.207 439.708 406.086 483.976C386.005 494.266 364.889 502.761 342.945 509.321C314.307 517.816 284.22 522.926 253.098 524.1C248.198 524.308 243.299 524.377 238.331 524.377C99.5575 524.377 -21.3428 447.443 -83.9321 333.839C-20.3077 360.013 55.462 377.899 145.309 381.421C232.465 384.874 304.784 371.408 364.682 347.651C493.449 296.684 565.217 198.065 604.136 116.85C605.172 126.312 605.793 135.98 606.069 145.649C606.138 149.171 606.207 152.693 606.207 156.215Z" fill="url(#paint7_linear_201_2)"/>
<path d="M601.311 95.9252C601.311 95.9252 548.935 -96.0631 308.1 -159.254C163.738 -197.168 63.5395 -162.983 6.4707 -129.557C188.718 -278.452 467.438 -219.336 570.81 -1.51925C594.825 48.964 599.586 88.881 601.311 95.9252Z" fill="url(#paint8_linear_201_2)"/>
<path d="M618.66 1120.64C826.261 1111.72 950.182 871.374 822.038 696.236C822.038 696.236 822.038 696.236 822.069 696.238C762.871 614.987 659.277 570.963 553.8 592.41C497.292 603.92 447.437 633.342 410.921 673.066C251.589 845.74 378.483 1131.06 618.66 1120.64Z" fill="url(#paint9_radial_201_2)"/>
<path d="M418.977 826.391C432.596 732.199 515.684 655.329 620.324 660.742C750.979 667.501 836.818 799.667 791.405 921.204C775.754 963.328 745.379 999.408 705.386 1022.09C697.105 1026.76 688.391 1030.89 679.341 1034.38C576.681 1073.75 461.116 1019.1 426.725 913.917C417.085 884.336 414.91 854.587 418.977 826.391Z" fill="url(#paint10_radial_201_2)"/>
<path d="M528.217 678.826C556.054 665.709 587.453 659.073 620.354 660.774C695.307 664.652 758.069 710.801 786.757 774.965C773.587 767.344 749.213 755.058 720.462 749.056C678.748 740.357 627.409 746.269 604.109 732.78C565.256 710.286 559.981 686.489 528.217 678.826Z" fill="url(#paint11_linear_201_2)"/>
<path d="M686.061 775.745C723.317 775.123 773.978 795.372 797.499 805.771C802.22 824.257 804.281 843.742 803.245 863.773C802.872 870.971 802.107 878.056 800.981 885C791.155 872.054 768.499 844.932 739.146 827.444C699.405 803.737 635.968 776.563 686.061 775.745Z" fill="url(#paint12_linear_201_2)"/>
<path d="M450.02 745.968C457.899 734.245 467.05 723.448 477.218 713.747C501.628 721.797 528.601 735.476 549.993 755.593C588.066 791.375 592.855 806.763 683.236 841.043C746.288 864.973 778.295 900.564 791.871 919.908C786.575 934.497 779.572 948.262 771.091 960.937C753.899 940.301 715.527 899.62 665.323 878.843C596.254 850.21 584.811 851.921 524.27 790.716C498.493 764.599 471.96 751.925 450.02 745.968Z" fill="url(#paint13_linear_201_2)"/>
<path d="M417.462 843.817C418.582 822.163 423.208 801.55 430.793 782.471C449.411 783.834 477.874 793.015 508.715 828.607C562.403 890.594 645.766 906.3 645.9 925.654C646.035 945.009 559.478 924.593 507.691 892.309C470.442 869.069 442.834 852.255 417.213 851.605C417.254 849.027 417.327 846.421 417.462 843.817Z" fill="url(#paint14_linear_201_2)"/>
<path d="M683.658 965.167C706.208 977.143 732.929 980.245 734.532 971.207C736.135 962.169 720.645 931.793 689.715 935.875C658.815 939.989 667.052 956.353 683.658 965.167Z" fill="url(#paint15_linear_201_2)"/>
<path d="M426.724 913.917C454.47 932.827 502.729 947.3 577.66 968.804C640.707 986.899 667.777 1014.71 679.341 1034.38C662.717 1040.74 645.041 1044.89 626.672 1046.43C613.402 1032.44 585.542 1012.79 527.406 994.673C494.396 984.398 468.959 972.487 449.607 960.983C439.952 946.51 432.24 930.694 426.724 913.917Z" fill="url(#paint16_linear_201_2)"/>
<path d="M528.871 724.895C538.535 730.892 571.834 752.178 552.314 711.305C544.644 695.246 506.809 711.224 528.871 724.895Z" fill="url(#paint17_linear_201_2)"/>
<path d="M574.333 747.762C579.002 747.665 577.127 737.649 572.656 736.281C568.154 734.912 558.359 748.072 574.333 747.762Z" fill="url(#paint18_linear_201_2)"/>
<path opacity="0.45" d="M430.828 782.381C435.946 769.471 442.406 757.306 450.019 745.968C457.899 734.245 467.05 723.448 477.218 713.747C492.163 699.503 509.377 687.679 528.186 678.825C556.023 665.708 587.422 659.071 620.323 660.773C695.275 664.65 758.038 710.799 786.725 774.964C791.155 784.836 794.766 795.126 797.468 805.769C802.189 824.256 804.25 843.741 803.214 863.772C802.841 870.969 802.076 878.055 800.949 884.998C799.006 897.059 795.946 908.755 791.869 919.938C791.725 920.361 791.548 920.812 791.403 921.234C761.811 949.892 709.788 929.88 685.297 888.997C648.549 827.579 562.515 645.805 430.828 782.381Z" fill="url(#paint19_linear_201_2)"/>
<path opacity="0.55" d="M429.836 784.94C433.913 773.757 441.144 759.145 450.019 745.968C544.467 605.531 759.639 646.605 798.255 808.943C775.87 774.801 744.808 748.227 702.435 733.874C551.393 682.82 469.852 736.891 429.836 784.94Z" fill="url(#paint20_linear_201_2)"/>
<path d="M426.725 913.917C417.053 884.365 414.911 854.587 418.978 826.391C422.27 876.65 442.797 959.156 536.145 1001.94C604.551 1033.31 663.272 1031.8 705.417 1022.09C697.136 1026.76 688.422 1030.89 679.372 1034.38C576.681 1073.75 461.118 1019.07 426.725 913.917Z" fill="url(#paint21_linear_201_2)"/>
<defs>
<filter id="filter0_d_201_2" x="-46.8579" y="-38.3288" width="2104.34" height="1505.59" filterUnits="userSpaceOnUse" color-interpolation-filters="sRGB">
<feFlood flood-opacity="0" result="BackgroundImageFix"/>
<feColorMatrix in="SourceAlpha" type="matrix" values="0 0 0 0 0 0 0 0 0 0 0 0 0 0 0 0 0 0 127 0" result="hardAlpha"/>
<feOffset/>
<feGaussianBlur stdDeviation="12.5"/>
<feComposite in2="hardAlpha" operator="out"/>
<feColorMatrix type="matrix" values="0 0 0 0 0.878431 0 0 0 0 0.882353 0 0 0 0 0.866667 0 0 0 1 0"/>
<feBlend mode="normal" in2="BackgroundImageFix" result="effect1_dropShadow_201_2"/>
<feBlend mode="normal" in="SourceGraphic" in2="effect1_dropShadow_201_2" result="shape"/>
</filter>
<radialGradient id="paint0_radial_201_2" cx="0" cy="0" r="1" gradientUnits="userSpaceOnUse" gradientTransform="translate(256.595 12.1422) scale(446.436 446.782)">
<stop stop-color="#E57E33"/>
<stop offset="1" stop-color="#C64F1C"/>
</radialGradient>
<linearGradient id="paint1_linear_201_2" x1="-3.36055" y1="-411.379" x2="81.1556" y2="647.495" gradientUnits="userSpaceOnUse">
<stop stop-color="#F29036"/>
<stop offset="1" stop-color="#F29C36" stop-opacity="0"/>
</linearGradient>
<linearGradient id="paint2_linear_201_2" x1="409.424" y1="-444.326" x2="493.941" y2="614.549" gradientUnits="userSpaceOnUse">
<stop stop-color="#F26336"/>
<stop offset="1" stop-color="#F2C936" stop-opacity="0"/>
</linearGradient>
<linearGradient id="paint3_linear_201_2" x1="442.2" y1="-446.943" x2="526.717" y2="611.931" gradientUnits="userSpaceOnUse">
<stop stop-color="#F27A36"/>
<stop offset="1" stop-color="#F27A36" stop-opacity="0"/>
</linearGradient>
<linearGradient id="paint4_linear_201_2" x1="184.442" y1="-426.369" x2="268.958" y2="632.508" gradientUnits="userSpaceOnUse">
<stop stop-color="#F28536"/>
<stop offset="1" stop-color="#F27A36" stop-opacity="0"/>
</linearGradient>
<linearGradient id="paint5_linear_201_2" x1="326.877" y1="-437.739" x2="411.394" y2="621.138" gradientUnits="userSpaceOnUse">
<stop stop-color="#F29C36"/>
<stop offset="1" stop-color="#F27A36" stop-opacity="0"/>
</linearGradient>
<linearGradient id="paint6_linear_201_2" x1="182.419" y1="632.821" x2="237.679" y2="129.372" gradientUnits="userSpaceOnUse">
<stop stop-color="#8E2416"/>
<stop offset="1" stop-color="#8E3316" stop-opacity="0.3"/>
</linearGradient>
<linearGradient id="paint7_linear_201_2" x1="219.512" y1="611.178" x2="281.273" y2="84.994" gradientUnits="userSpaceOnUse">
<stop stop-color="#6F1B16"/>
<stop offset="1" stop-color="#653216" stop-opacity="0.3"/>
</linearGradient>
<linearGradient id="paint8_linear_201_2" x1="505.495" y1="-414.706" x2="273.678" y2="42.0731" gradientUnits="userSpaceOnUse">
<stop stop-color="#FFC7B5"/>
<stop offset="1" stop-color="#FFC1B3" stop-opacity="0"/>
</linearGradient>
<radialGradient id="paint9_radial_201_2" cx="0" cy="0" r="1" gradientUnits="userSpaceOnUse" gradientTransform="translate(606.996 854.006) rotate(-177.039) scale(228.622 228.795)">
<stop stop-color="#90DDEF"/>
<stop offset="1" stop-color="#A6D6F9" stop-opacity="0"/>
</radialGradient>
<radialGradient id="paint10_radial_201_2" cx="0" cy="0" r="1" gradientUnits="userSpaceOnUse" gradientTransform="translate(611.593 929.041) rotate(-177.039) scale(193.236 193.382)">
<stop stop-color="#A0E2EA"/>
<stop offset="1" stop-color="#018ED9"/>
</radialGradient>
<linearGradient id="paint11_linear_201_2" x1="614.835" y1="599.381" x2="753.969" y2="1014.64" gradientUnits="userSpaceOnUse">
<stop stop-color="#7E31A6"/>
<stop offset="1" stop-color="#7731B1" stop-opacity="0.2"/>
</linearGradient>
<linearGradient id="paint12_linear_201_2" x1="662.213" y1="583.508" x2="801.346" y2="998.765" gradientUnits="userSpaceOnUse">
<stop stop-color="#7E31A6"/>
<stop offset="1" stop-color="#7731B1" stop-opacity="0.2"/>
</linearGradient>
<linearGradient id="paint13_linear_201_2" x1="550.098" y1="621.072" x2="689.231" y2="1036.33" gradientUnits="userSpaceOnUse">
<stop stop-color="#7E31A6"/>
<stop offset="1" stop-color="#7731B1" stop-opacity="0.2"/>
</linearGradient>
<linearGradient id="paint14_linear_201_2" x1="453.114" y1="653.566" x2="592.247" y2="1068.82" gradientUnits="userSpaceOnUse">
<stop stop-color="#7E31A6"/>
<stop offset="1" stop-color="#7731B1" stop-opacity="0.2"/>
</linearGradient>
<linearGradient id="paint15_linear_201_2" x1="584.983" y1="609.383" x2="724.116" y2="1024.64" gradientUnits="userSpaceOnUse">
<stop stop-color="#7E31A6"/>
<stop offset="1" stop-color="#7731B1" stop-opacity="0.2"/>
</linearGradient>
<linearGradient id="paint16_linear_201_2" x1="446.554" y1="655.765" x2="585.687" y2="1071.02" gradientUnits="userSpaceOnUse">
<stop stop-color="#7E31A6"/>
<stop offset="1" stop-color="#7731B1" stop-opacity="0.2"/>
</linearGradient>
<linearGradient id="paint17_linear_201_2" x1="510.868" y1="634.216" x2="650" y2="1049.47" gradientUnits="userSpaceOnUse">
<stop stop-color="#7E31A6"/>
<stop offset="1" stop-color="#7731B1" stop-opacity="0.2"/>
</linearGradient>
<linearGradient id="paint18_linear_201_2" x1="532.436" y1="626.989" x2="671.568" y2="1042.25" gradientUnits="userSpaceOnUse">
<stop stop-color="#7E31A6"/>
<stop offset="1" stop-color="#7731B1" stop-opacity="0.2"/>
</linearGradient>
<linearGradient id="paint19_linear_201_2" x1="661.771" y1="656.945" x2="590.185" y2="934.964" gradientUnits="userSpaceOnUse">
<stop stop-color="#6D31A3"/>
<stop offset="1" stop-color="#B842B5" stop-opacity="0.3"/>
</linearGradient>
<linearGradient id="paint20_linear_201_2" x1="603.312" y1="612.721" x2="614.799" y2="809.138" gradientUnits="userSpaceOnUse">
<stop stop-color="#471AA3"/>
<stop offset="1" stop-color="#4C2EA3" stop-opacity="0.1"/>
</linearGradient>
<linearGradient id="paint21_linear_201_2" x1="352.361" y1="1156.63" x2="579.426" y2="905.532" gradientUnits="userSpaceOnUse">
<stop stop-color="#A4F6F6"/>
<stop offset="1" stop-color="#B5F4F9" stop-opacity="0"/>
</linearGradient>
</defs>
</svg>
