<svg width="472" height="351" viewBox="0 0 472 351" fill="none" xmlns="http://www.w3.org/2000/svg">
<path d="M381.992 174.92C381.992 168.863 381.677 162.87 381.046 156.939C376.398 110.503 354.379 71.6808 323.023 44.2779C294.084 18.5364 256.482 2.13247 214.715 0.239716C177.427 -1.71613 138.857 8.21035 104.64 32.7321C104.556 32.7741 104.472 32.8372 104.409 32.9003C104.388 32.9213 104.367 32.9424 104.241 33.0265C104.199 33.0475 104.178 33.0686 104.178 33.0686C75.1344 53.9941 54.8188 81.5231 43.1678 111.702C-14.6034 112.838 -53.0053 123.458 -56.7067 142.827C-60.6605 163.459 -24.3616 189.452 35.3444 213.133C35.4285 213.511 35.5126 213.89 35.5968 214.248C35.6178 214.332 35.6388 214.416 35.6599 214.479C35.9963 215.993 36.3749 217.507 36.7534 219.021C36.7955 219.211 36.8376 219.379 36.9007 219.568C37.2792 221.061 37.6998 222.555 38.1204 224.027C38.1625 224.153 38.1835 224.279 38.2256 224.405C39.1299 227.497 40.0973 230.546 41.1699 233.554C41.1909 233.638 41.233 233.701 41.254 233.785C41.7167 235.089 42.1794 236.393 42.6841 237.676C53.9145 267.539 73.536 294.795 101.402 315.657C102.117 316.204 102.853 316.751 103.589 317.277C104.073 317.634 104.556 317.971 105.04 318.328C106.365 319.275 107.69 320.2 109.036 321.083C143.168 343.986 181.108 352.902 217.596 350.4C224.368 349.979 231.034 349.18 237.575 348.023C254.547 345.016 270.656 339.548 285.567 332.019C287.123 331.241 288.658 330.421 290.194 329.58C290.446 329.432 290.719 329.306 290.972 329.159C292.486 328.318 294 327.476 295.493 326.593C295.62 326.53 295.746 326.446 295.851 326.383C297.323 325.521 298.774 324.616 300.225 323.712C300.351 323.628 300.478 323.565 300.583 323.481C302.076 322.534 303.569 321.546 305.041 320.557C305.104 320.515 305.167 320.473 305.231 320.431C305.357 320.347 305.462 320.263 305.588 320.179C306.534 319.527 307.46 318.896 308.385 318.223C308.617 318.055 308.848 317.908 309.058 317.739C309.984 317.066 310.888 316.393 311.813 315.72C312.002 315.573 312.192 315.426 312.381 315.3C314.547 313.659 316.65 311.998 318.732 310.252C319.048 310 319.342 309.727 319.658 309.474C320.352 308.885 321.046 308.297 321.719 307.708C322.118 307.371 322.518 307.014 322.917 306.656C323.506 306.13 324.095 305.605 324.684 305.058C325.083 304.7 325.483 304.322 325.883 303.943C325.925 303.901 325.967 303.859 326.009 303.817C326.219 303.628 326.429 303.417 326.661 303.228C335.704 294.879 343.885 285.541 351.035 275.341C420.205 276.519 467.482 265.794 471.646 244.216C475.495 223.901 440.226 198.348 381.992 174.92ZM38.2677 126.192H38.2466C38.4359 125.582 38.6252 124.972 38.8145 124.363C38.6252 124.972 38.4569 125.582 38.2677 126.192ZM33.2834 148.674C33.2624 148.8 33.2413 148.926 33.2203 149.053C32.989 150.546 32.7787 152.06 32.6104 153.574C32.5894 153.826 32.5473 154.058 32.5263 154.31C32.337 155.824 32.1688 157.339 32.0426 158.853C32.0426 158.916 32.0216 158.979 32.0216 159.042C31.8954 160.493 31.7692 161.965 31.6851 163.416C31.664 163.69 31.643 163.963 31.622 164.258C31.5379 165.73 31.4537 167.181 31.4117 168.653C31.3906 168.948 31.3906 169.263 31.3906 169.557C31.3696 170.209 31.3486 170.861 31.3275 171.513C4.28214 159.967 -10.9861 149.053 -9.38777 140.703C-7.81047 132.543 9.68702 128.085 37.9943 127.223C35.9753 134.226 34.398 141.376 33.2834 148.674ZM381.277 191.324C412.277 203.858 430.132 215.804 428.407 224.784C426.661 233.911 404.979 238.412 370.573 238.433C376.146 223.795 379.847 208.043 381.277 191.324ZM-35.9074 142.912C-32.3322 124.32 6.84788 119 40.8755 117.927C40.3917 119.315 39.9501 120.703 39.5085 122.112C-3.60434 123.626 -29.4931 131.408 -31.8485 143.69C-34.3091 156.518 -11.1543 174.268 31.664 192.439C31.8112 192.502 31.9374 192.544 32.0846 192.607C32.0846 192.607 32.0847 192.607 32.1057 192.607C32.1688 193.175 32.2108 193.743 32.2739 194.31C32.3791 195.299 32.5053 196.308 32.6104 197.297C31.7482 196.939 30.9069 196.582 30.0657 196.224C-2.09014 182.617 -39.6298 162.302 -35.9074 142.912ZM459.07 237.949C455.347 257.339 412.949 262.302 378.039 263.039C374.611 263.102 371.077 263.144 367.523 263.144C364.663 263.144 361.761 263.123 358.838 263.081C359.616 261.735 360.394 260.347 361.151 258.98C366.934 259.064 372.55 259.043 377.976 258.917C424.495 257.907 452.571 249.979 455.032 237.171C457.492 224.342 434.338 206.592 391.498 188.422C388.344 187.076 385.084 185.751 381.761 184.426C381.761 184.216 381.782 183.984 381.782 183.774C381.845 182.533 381.887 181.271 381.929 180.031C385.757 181.545 389.479 183.08 393.118 184.615C425.252 198.243 462.792 218.559 459.07 237.949Z" fill="url(#paint0_radial_283_167)"/>
<path d="M346.534 175.425C346.534 288.086 220.519 352.987 128.994 291.535C48.2149 237.339 46.0277 118.979 125.145 61.9858C125.145 61.9858 125.166 61.9647 125.208 61.9437C125.313 61.8806 125.313 61.8596 125.334 61.8385C125.397 61.7754 125.46 61.7334 125.523 61.7123C216.544 -3.52469 346.534 60.745 346.534 175.425Z" fill="url(#paint1_radial_283_167)"/>
<path d="M147.585 175.425C148.405 183.648 119.635 175.425 101.549 175.425C89.4775 175.425 76.6488 177.633 67.0378 174.436C67.122 161.166 69.0778 148.337 72.611 136.203C77.5111 135.572 85.8182 136.981 98.2683 146.655C120.456 163.9 146.765 167.202 147.585 175.425Z" fill="url(#paint2_linear_283_167)"/>
<path d="M243.758 192.67C223.211 191.03 200.182 185.267 196.081 189.389C191.98 193.49 229.226 203.984 263.485 209.936C301.298 216.519 325.146 218.979 316.924 208.296C308.701 197.612 295.556 184.447 274.988 191.03C254.463 197.612 255.241 193.595 243.758 192.67Z" fill="url(#paint3_linear_283_167)"/>
<path d="M242.118 250.231C242.118 259.127 160.73 235.425 133.6 246.13C113.326 254.122 106.828 259.8 94.5461 258.748C80.077 239.274 70.5291 215.909 67.8162 190.504C74.9035 193.196 87.1013 198.411 106.47 208.317C141.844 226.382 242.118 237.886 242.118 250.231Z" fill="url(#paint4_linear_283_167)"/>
<path d="M306.303 273.512C295.683 284.3 283.296 293.365 269.647 300.242C265.987 296.961 262.391 293.26 256.923 291.325C242.938 286.383 205.966 277.36 213.348 272.418C220.751 267.476 244.578 270.778 272.528 269.137C289.458 268.128 300.351 271.051 306.303 273.512Z" fill="url(#paint5_linear_283_167)"/>
<path d="M294.736 251.051C284.894 240.599 256.923 242.828 261.024 252.692C263.274 258.054 307.88 265.016 294.736 251.051Z" fill="url(#paint6_linear_283_167)"/>
<path d="M175.535 265.836C163.316 263.123 154.988 268.296 153.347 272.418C151.707 276.519 187.059 282.281 187.88 278.181C188.7 274.08 182.937 267.476 175.535 265.836Z" fill="url(#paint7_linear_283_167)"/>
<path d="M170.614 195.151C162.475 193.112 147.606 196.792 147.606 201.734C147.606 206.676 167.333 212.418 175.556 209.957C183.758 207.475 187.039 199.252 170.614 195.151Z" fill="url(#paint8_linear_283_167)"/>
<path d="M184.578 210.756C182.139 210.357 178.816 213.217 180.477 215.699C182.118 218.159 194.442 212.418 184.578 210.756Z" fill="url(#paint9_linear_283_167)"/>
<path d="M267.607 233.785C262.328 232.208 258.564 234.605 261.024 239.547C263.506 244.469 284.053 238.706 267.607 233.785Z" fill="url(#paint10_linear_283_167)"/>
<path d="M306.241 259.274C303.338 256.372 301.298 261.735 302.96 263.375C304.6 265.015 312.823 265.836 306.241 259.274Z" fill="url(#paint11_linear_283_167)"/>
<path d="M231.413 312.986C223.421 314.416 215.177 315.152 206.786 315.152C177.995 315.152 151.223 306.446 128.994 291.514C145.461 286.761 172.843 290.652 200.225 303.649C212.969 309.726 223.421 312.187 231.413 312.986Z" fill="url(#paint12_linear_283_167)"/>
<path d="M237.197 297.907C233.012 297.907 233.096 300.368 233.096 302.849C233.096 305.31 237.197 306.13 239.678 302.849C242.118 299.548 240.478 297.907 237.197 297.907Z" fill="url(#paint13_linear_283_167)"/>
<path d="M226.513 300.368C224.894 300.094 224.053 304.469 226.513 305.31C228.974 306.13 231.434 301.188 226.513 300.368Z" fill="url(#paint14_linear_283_167)"/>
<path d="M132.8 255.152C127.101 256.288 118.815 260.094 126.218 265.015C133.621 269.958 149.225 251.871 132.8 255.152Z" fill="url(#paint15_linear_283_167)"/>
<path d="M105.671 186.929C102.706 183.963 100.729 191.871 102.39 192.691C104.01 193.511 108.952 190.209 105.671 186.929Z" fill="url(#paint16_linear_283_167)"/>
<path d="M129.499 140.072C122.222 136.434 112.233 133.49 110.592 136.792C108.952 140.072 140.182 162.281 147.585 157.338C154.988 152.396 136.081 143.353 129.499 140.072Z" fill="url(#paint17_linear_283_167)"/>
<path d="M250.341 175.425C245.146 172.817 245.399 184.468 252.802 187.749C260.204 191.03 253.643 177.065 250.341 175.425Z" fill="url(#paint18_linear_283_167)"/>
<path d="M330.909 189.389C320.982 188.927 324.326 205.015 330.909 206.655C337.491 208.296 348.175 190.209 330.909 189.389Z" fill="url(#paint19_linear_283_167)"/>
<path opacity="0.45" d="M285.315 291.009C280.31 294.416 275.094 297.487 269.647 300.242C257.765 306.236 244.915 310.589 231.392 312.986C223.401 314.416 215.157 315.153 206.765 315.153C177.974 315.153 151.202 306.446 128.973 291.514C115.703 282.618 104.073 271.514 94.5669 258.706C92.5059 255.93 90.5291 253.07 88.6784 250.126C77.5111 232.523 70.1714 212.229 67.837 190.462C67.3112 185.52 67.0378 180.472 67.0378 175.404C67.0378 175.067 67.0378 174.731 67.0378 174.416C67.122 163.48 68.4469 152.838 70.9075 142.638C88.3629 188.737 121.717 241.566 185.335 270C193.243 273.533 201.613 276.687 210.467 279.4C236.986 287.518 262.034 290.925 285.315 291.009Z" fill="url(#paint20_linear_283_167)"/>
<path opacity="0.55" d="M338.565 221.987C331.666 241.503 320.562 259.043 306.304 273.512C299.91 280.01 292.886 285.878 285.315 291.009C280.31 294.416 275.094 297.487 269.647 300.242C257.765 306.235 244.915 310.589 231.392 312.986C223.401 314.416 215.157 315.152 206.766 315.152C177.975 315.152 151.203 306.446 128.973 291.514C115.703 282.618 104.073 271.514 94.5671 258.706C92.506 255.93 90.5292 253.07 88.6785 250.126C124.431 262.639 156.586 268.654 185.335 269.979C255.599 273.217 305.631 248.422 338.565 221.987Z" fill="url(#paint21_linear_283_167)"/>
<path d="M125.524 61.7123C125.419 61.7964 125.335 61.8384 125.292 61.8805C125.335 61.8384 125.44 61.7543 125.524 61.7123Z" fill="url(#paint22_linear_283_167)"/>
<path d="M345.505 192.376C346.136 186.214 351.183 116.918 267.208 70.6082C183.527 24.467 130.487 58.3263 125.524 61.7123C148.427 45.3084 176.481 35.6553 206.787 35.6553C290.825 35.6763 355.683 109.326 345.505 192.376Z" fill="url(#paint23_linear_283_167)"/>
<path d="M354.105 185.793C351.582 184.721 348.995 183.648 346.345 182.596C346.261 184.447 346.114 186.256 345.967 188.085C370.678 198.075 384.915 207.602 383.548 214.752C382.16 222.05 364.789 225.625 337.239 225.625C304.074 225.625 256.145 220.452 203.505 210.357C146.996 199.505 97.6368 185.394 67.0793 172.312C45.544 163.101 33.3462 154.415 34.6291 147.77C35.8699 141.25 49.8342 137.717 72.3791 137.023C72.4632 136.729 72.5263 136.455 72.6104 136.182C72.9258 135.088 73.2623 134.016 73.5988 132.943C39.2558 134.142 18.6037 140.367 16.732 150.146C14.7761 160.367 33.22 174.521 67.3527 188.99C67.4579 189.032 67.5841 189.074 67.6892 189.137C102.979 204.048 151.013 217.76 203 227.749C249.142 236.603 293.474 241.587 329.668 242.029C334.379 242.092 338.942 242.071 343.338 241.987C380.394 241.188 402.791 234.858 404.747 224.658C406.703 214.416 388.259 200.262 354.105 185.793Z" fill="url(#paint24_linear_283_167)"/>
<path d="M346.535 175.026V175.425C346.535 176.666 346.514 177.886 346.493 179.126C349.542 180.325 352.528 181.545 355.41 182.786C381.025 193.638 410.952 209.831 407.986 225.268C405.021 240.704 371.225 244.658 343.422 245.268C340.688 245.331 337.891 245.352 335.031 245.352C332.676 245.352 330.278 245.331 327.839 245.289C291.792 244.679 247.943 239.716 202.37 230.967C150.992 221.104 103.442 207.602 68.1102 192.881C67.4161 192.586 66.7432 192.313 66.0702 192.018C40.4549 181.166 10.5283 164.973 13.4936 149.536C16.3327 134.71 47.5843 130.483 74.7138 129.62C75.2816 127.959 75.8915 126.297 76.5434 124.657C30.4863 125.561 -0.113237 134.037 -3.07856 149.452C-6.23315 165.898 22.705 186.613 70.2763 205.478C104.661 219.106 148.805 231.766 197.596 241.146C243.148 249.895 286.009 254.458 321.613 255.089C376.861 256.057 414.653 247.518 417.955 230.294C421.046 214.058 392.949 193.68 346.535 175.026Z" fill="url(#paint25_linear_283_167)"/>
<defs>
<radialGradient id="paint0_radial_283_167" cx="0" cy="0" r="1" gradientUnits="userSpaceOnUse" gradientTransform="translate(207.429 175.425) scale(162.943 162.943)">
<stop stop-color="#F963BA"/>
<stop offset="1" stop-color="#FF9CF6" stop-opacity="0"/>
</radialGradient>
<radialGradient id="paint1_radial_283_167" cx="0" cy="0" r="1" gradientUnits="userSpaceOnUse" gradientTransform="translate(216.665 114.986) scale(166.643 166.643)">
<stop stop-color="#FBB6B6"/>
<stop offset="1" stop-color="#ED3558"/>
</radialGradient>
<linearGradient id="paint2_linear_283_167" x1="81.8684" y1="348.806" x2="133.655" y2="-13.7011" gradientUnits="userSpaceOnUse">
<stop stop-color="#BD2B3B"/>
<stop offset="1" stop-color="#E22B57" stop-opacity="0"/>
</linearGradient>
<linearGradient id="paint3_linear_283_167" x1="232.972" y1="370.392" x2="284.758" y2="7.88583" gradientUnits="userSpaceOnUse">
<stop stop-color="#BD2B3B"/>
<stop offset="1" stop-color="#E22B57" stop-opacity="0"/>
</linearGradient>
<linearGradient id="paint4_linear_283_167" x1="135.54" y1="356.474" x2="187.327" y2="-6.03295" gradientUnits="userSpaceOnUse">
<stop stop-color="#BD2B3B"/>
<stop offset="1" stop-color="#E22B57" stop-opacity="0"/>
</linearGradient>
<linearGradient id="paint5_linear_283_167" x1="245.273" y1="372.149" x2="297.06" y2="9.64178" gradientUnits="userSpaceOnUse">
<stop stop-color="#BD2B3B"/>
<stop offset="1" stop-color="#E22B57" stop-opacity="0"/>
</linearGradient>
<linearGradient id="paint6_linear_283_167" x1="261.545" y1="374.474" x2="313.332" y2="11.9675" gradientUnits="userSpaceOnUse">
<stop stop-color="#BD2B3B"/>
<stop offset="1" stop-color="#E22B57" stop-opacity="0"/>
</linearGradient>
<linearGradient id="paint7_linear_283_167" x1="158.531" y1="359.758" x2="210.318" y2="-2.75017" gradientUnits="userSpaceOnUse">
<stop stop-color="#BD2B3B"/>
<stop offset="1" stop-color="#E22B57" stop-opacity="0"/>
</linearGradient>
<linearGradient id="paint8_linear_283_167" x1="142.835" y1="357.516" x2="194.622" y2="-4.99267" gradientUnits="userSpaceOnUse">
<stop stop-color="#BD2B3B"/>
<stop offset="1" stop-color="#E22B57" stop-opacity="0"/>
</linearGradient>
<linearGradient id="paint9_linear_283_167" x1="163.214" y1="360.427" x2="215.001" y2="-2.0802" gradientUnits="userSpaceOnUse">
<stop stop-color="#BD2B3B"/>
<stop offset="1" stop-color="#E22B57" stop-opacity="0"/>
</linearGradient>
<linearGradient id="paint10_linear_283_167" x1="247.764" y1="372.506" x2="299.551" y2="9.99748" gradientUnits="userSpaceOnUse">
<stop stop-color="#BD2B3B"/>
<stop offset="1" stop-color="#E22B57" stop-opacity="0"/>
</linearGradient>
<linearGradient id="paint11_linear_283_167" x1="288.982" y1="378.391" x2="340.767" y2="15.891" gradientUnits="userSpaceOnUse">
<stop stop-color="#BD2B3B"/>
<stop offset="1" stop-color="#E22B57" stop-opacity="0"/>
</linearGradient>
<linearGradient id="paint12_linear_283_167" x1="171.708" y1="361.64" x2="223.495" y2="-0.865868" gradientUnits="userSpaceOnUse">
<stop stop-color="#BD2B3B"/>
<stop offset="1" stop-color="#E22B57" stop-opacity="0"/>
</linearGradient>
<linearGradient id="paint13_linear_283_167" x1="227.142" y1="369.558" x2="278.928" y2="7.05592" gradientUnits="userSpaceOnUse">
<stop stop-color="#BD2B3B"/>
<stop offset="1" stop-color="#E22B57" stop-opacity="0"/>
</linearGradient>
<linearGradient id="paint14_linear_283_167" x1="217.804" y1="368.225" x2="269.591" y2="5.71721" gradientUnits="userSpaceOnUse">
<stop stop-color="#BD2B3B"/>
<stop offset="1" stop-color="#E22B57" stop-opacity="0"/>
</linearGradient>
<linearGradient id="paint15_linear_283_167" x1="118.119" y1="353.984" x2="169.905" y2="-8.51942" gradientUnits="userSpaceOnUse">
<stop stop-color="#BD2B3B"/>
<stop offset="1" stop-color="#E22B57" stop-opacity="0"/>
</linearGradient>
<linearGradient id="paint16_linear_283_167" x1="81.5939" y1="348.768" x2="133.381" y2="-13.7409" gradientUnits="userSpaceOnUse">
<stop stop-color="#BD2B3B"/>
<stop offset="1" stop-color="#E22B57" stop-opacity="0"/>
</linearGradient>
<linearGradient id="paint17_linear_283_167" x1="100.545" y1="351.473" x2="152.332" y2="-11.0335" gradientUnits="userSpaceOnUse">
<stop stop-color="#BD2B3B"/>
<stop offset="1" stop-color="#E22B57" stop-opacity="0"/>
</linearGradient>
<linearGradient id="paint18_linear_283_167" x1="224.79" y1="369.224" x2="276.576" y2="6.71581" gradientUnits="userSpaceOnUse">
<stop stop-color="#BD2B3B"/>
<stop offset="1" stop-color="#E22B57" stop-opacity="0"/>
</linearGradient>
<linearGradient id="paint19_linear_283_167" x1="306.062" y1="380.835" x2="357.849" y2="18.3256" gradientUnits="userSpaceOnUse">
<stop stop-color="#BD2B3B"/>
<stop offset="1" stop-color="#E22B57" stop-opacity="0"/>
</linearGradient>
<linearGradient id="paint20_linear_283_167" x1="162.238" y1="308.136" x2="183.611" y2="184.006" gradientUnits="userSpaceOnUse">
<stop stop-color="#BD2B3B"/>
<stop offset="1" stop-color="#E22B57" stop-opacity="0"/>
</linearGradient>
<linearGradient id="paint21_linear_283_167" x1="235.121" y1="321.536" x2="210.026" y2="221.768" gradientUnits="userSpaceOnUse">
<stop stop-color="#A62B56"/>
<stop offset="1" stop-color="#AE2B57" stop-opacity="0"/>
</linearGradient>
<linearGradient id="paint22_linear_283_167" x1="125.519" y1="61.6336" x2="125.285" y2="61.9623" gradientUnits="userSpaceOnUse">
<stop stop-color="#FAD1E2"/>
<stop offset="1" stop-color="#F9DDF9" stop-opacity="0"/>
</linearGradient>
<linearGradient id="paint23_linear_283_167" x1="317.022" y1="12.7165" x2="256.028" y2="98.2616" gradientUnits="userSpaceOnUse">
<stop stop-color="#FAD1E2"/>
<stop offset="1" stop-color="#F9DDF9" stop-opacity="0"/>
</linearGradient>
<linearGradient id="paint24_linear_283_167" x1="189.932" y1="260.966" x2="223.636" y2="141.769" gradientUnits="userSpaceOnUse">
<stop stop-color="#FAB0B2"/>
<stop offset="1" stop-color="#F2687D"/>
</linearGradient>
<linearGradient id="paint25_linear_283_167" x1="187.519" y1="260.284" x2="221.223" y2="141.087" gradientUnits="userSpaceOnUse">
<stop stop-color="#FAB0B2"/>
<stop offset="1" stop-color="#F2687D"/>
</linearGradient>
</defs>
</svg>
