<svg width="412" height="412" viewBox="0 0 412 412" fill="none" xmlns="http://www.w3.org/2000/svg">
<path d="M411.061 205.707C411.061 217.725 410.022 229.517 408.036 240.948C406.952 247.092 405.643 253.147 404.063 259.11C395.305 291.821 378.691 321.279 356.388 345.405C348.307 354.17 339.458 362.212 329.932 369.441C321.174 376.128 311.828 382.137 302.031 387.378C288.758 394.471 274.628 400.119 259.819 404.185C242.528 408.929 224.334 411.414 205.553 411.414C196.93 411.414 188.442 410.872 180.135 409.833C110.519 401.248 51.6478 357.785 21.5801 297.469C9.84198 273.975 2.48312 247.951 0.541807 220.436C0.180634 215.556 0 210.632 0 205.707C0 174.668 6.86232 145.255 19.1422 118.87C30.1129 95.2857 45.4627 74.1413 64.0632 56.4757C81.2641 40.1203 101.309 26.7017 123.386 17.0782C148.533 6.09937 176.343 0 205.508 0C294.131 0 369.661 56.1142 398.51 134.819C405.688 154.427 409.977 175.391 410.88 197.303C411.016 200.059 411.061 202.861 411.061 205.707Z" fill="url(#paint0_radial_283_230)"/>
<path d="M21.5355 297.469C20.1359 294.667 18.7815 291.776 17.5174 288.884C8.17203 267.785 2.30298 244.878 0.542261 220.797C0.542261 220.662 0.542217 220.571 0.49707 220.436C4.65057 219.894 10.3391 221.791 14.4926 233.493C19.865 248.719 44.8763 285.812 21.5355 297.469Z" fill="#BCBCBC"/>
<path d="M182.98 262.499C182.709 264.17 182.122 265.752 181.265 267.197C174.718 278.944 151.919 284.727 126.502 280.345C104.38 276.505 86.7274 266.023 81.039 254.637C79.3685 251.294 78.7365 247.905 79.3234 244.517C81.8968 229.698 106.773 226.128 135.396 231.143C164.019 236.068 185.554 247.679 182.98 262.499Z" fill="#BCBCBC"/>
<path d="M122.077 164.547L122.032 164.592C116.343 173.177 98.6008 165.315 77.9688 151.806C61.1291 140.782 49.12 129.803 48.3074 121.445C48.1268 119.548 48.5332 117.74 49.5715 116.114C55.26 107.439 77.8334 106.852 98.5106 120.406C119.188 133.96 127.766 155.873 122.077 164.547Z" fill="#BCBCBC"/>
<path d="M349.797 291.233C333.138 305.149 313.183 308.718 305.282 299.185C304.876 298.688 304.515 298.191 304.199 297.649C298.149 287.755 305.373 269.999 321.174 256.851C337.246 243.432 356.343 239.637 364.786 247.905C365.102 248.222 365.418 248.538 365.689 248.854C373.589 258.387 366.501 277.363 349.797 291.233Z" fill="#BCBCBC"/>
<path d="M229.616 177.153C212.777 190.481 195.666 197.845 185.869 185.466C184.921 184.291 184.154 183.026 183.476 181.671C177.246 169.11 183.386 150.903 198.646 138.839C215.485 125.511 238.465 119.231 254.131 139.065C254.221 139.201 254.357 139.336 254.402 139.472C263.612 151.716 246.321 163.96 229.616 177.153Z" fill="#BCBCBC"/>
<path d="M162.348 363.296C159.91 365.646 155.079 366.956 147.494 366.595C119.684 365.375 89.4808 331.489 97.9232 320.601C98.0586 320.42 98.1941 320.285 98.3295 320.149C107.088 310.254 129.029 328.056 140.226 333.929C158.691 343.598 168.804 357.107 162.348 363.296Z" fill="#BCBCBC"/>
<path d="M271.422 338.312C271.467 344.727 262.754 351.504 249.03 352.092C223.928 353.176 209.616 348.342 206.23 339.396C205.869 338.447 205.643 337.453 205.508 336.369C204.289 325.48 227.269 327.333 239.368 326.7C262.077 325.48 271.377 331.715 271.422 338.312Z" fill="#BCBCBC"/>
<path d="M347.494 193.96C344.74 198.072 339.413 200.873 332.505 200.873C310.745 200.873 281.715 185.15 285.372 170.602C285.778 168.93 286.411 167.484 287.133 166.31C292.731 157.274 306.862 161.656 320.451 164.548C347.629 170.331 353.453 185.15 347.494 193.96Z" fill="#BCBCBC"/>
<path d="M276.839 87.1074C276.569 86.4749 276.433 85.752 276.343 84.984C275.801 78.7942 281.896 69.7581 293.769 66.5051C301.49 64.3816 311.918 64.6527 318.374 68.6286C321.219 70.3906 323.25 72.8304 324.018 76.1738C325.824 84.487 280.677 96.7309 276.839 87.1074Z" fill="#BCBCBC"/>
<path d="M152.777 67.8612C151.242 68.7648 149.436 68.4937 147.495 66.551C134.177 53.2227 133.003 31.4457 140.226 27.8313C143.071 26.3855 145.554 25.9337 147.676 26.1596C162.123 27.7861 160.542 63.1624 152.777 67.8612Z" fill="#BCBCBC"/>
<path d="M380.813 143.99C379.864 144.442 378.736 144.532 377.517 144.216C372.46 142.906 365.869 135.135 363.883 123.433C362.754 116.566 366.185 109.969 370.655 107.891C375.621 105.542 381.896 108.795 384.424 123.433C385.914 131.746 385.688 141.55 380.813 143.99Z" fill="#BCBCBC"/>
<path d="M356.389 345.405C340.813 362.257 322.438 376.489 302.032 387.332C299.729 386.203 297.653 384.531 296.84 382.137C296.118 380.013 296.434 377.302 298.646 373.869C307.088 360.54 315.576 339.983 334.899 338.763C340.542 338.402 345.012 339.08 348.578 340.345C352.009 341.61 354.538 343.417 356.389 345.405Z" fill="#BCBCBC"/>
<path d="M259.775 404.139C242.484 408.883 224.289 411.368 205.508 411.368C196.885 411.368 188.398 410.826 180.091 409.787C180.091 407.347 180.542 404.727 182.032 402.513C183.477 400.389 185.87 398.673 189.797 398.04C204.289 395.6 211.558 385.932 232.1 387.152C242.754 387.784 250.204 392.98 254.854 397.814C257.156 400.254 258.736 402.513 259.775 404.139Z" fill="#BCBCBC"/>
<path d="M233.499 29.3219C232.461 34.4725 223.747 36.3249 219.549 34.3821C218.646 33.9755 217.969 33.3882 217.607 32.6653C215.169 27.831 231.106 18.7948 233.318 26.6111C233.589 27.6051 233.634 28.5087 233.499 29.3219Z" fill="#BCBCBC"/>
<path d="M170.473 301.264C165.056 298.553 160.812 296.429 162.031 307.318C163.25 318.206 171.692 320.646 178.961 320.646C186.184 320.646 175.304 303.703 170.473 301.264Z" fill="#9B9B9B"/>
<path d="M70.1126 294.035C65.2819 292.815 65.282 301.309 61.6702 309.758C58.0585 318.207 62.8892 324.261 70.1126 324.261C77.3813 324.261 79.774 296.429 70.1126 294.035Z" fill="#9B9B9B"/>
<path d="M48.3517 185.105C43.7016 182.981 38.6903 180.27 37.4713 185.105C36.2524 189.939 47.1327 203.267 53.1824 203.267C59.232 203.267 61.6249 191.159 48.3517 185.105Z" fill="#9B9B9B"/>
<path d="M411.06 205.707C411.06 217.725 410.022 229.517 408.036 240.948C406.275 240.27 404.469 239.05 402.573 237.153C390.473 225.044 399.638 207.876 402.573 202.047C405.823 195.541 409.074 196.129 410.88 197.258C411.015 200.059 411.06 202.861 411.06 205.707Z" fill="#9B9B9B"/>
<path d="M286.546 218.99C279.548 218.131 275.665 223.824 286.546 228.659C297.426 233.538 296.207 220.21 286.546 218.99Z" fill="#9B9B9B"/>
<path d="M26.5911 164.548C23.3405 166.174 22.9794 172.996 31.4218 171.822C39.8642 170.602 33.8145 160.933 26.5911 164.548Z" fill="#9B9B9B"/>
<path d="M198.284 79.8789C194.673 81.0987 189.842 84.7132 198.284 85.933C206.727 87.1077 201.896 78.659 198.284 79.8789Z" fill="#9B9B9B"/>
<path d="M218.826 79.8792C214.401 77.3039 213.995 89.5479 217.607 94.3822C221.219 99.2165 233.318 88.328 218.826 79.8792Z" fill="#9B9B9B"/>
<path d="M257.516 366.64C254.898 367.227 253.904 371.474 261.128 373.914C268.396 376.309 268.396 364.2 257.516 366.64Z" fill="#9B9B9B"/>
<path d="M152.325 387.197C148.713 388.417 145.056 390.812 152.325 393.251C159.593 395.646 155.937 385.977 152.325 387.197Z" fill="#9B9B9B"/>
<path d="M158.374 209.321C152.234 209.638 165.643 217.77 169.254 218.99C172.866 220.21 183.747 208.101 158.374 209.321Z" fill="#9B9B9B"/>
<path d="M356.658 177.875C353.634 180.225 359.096 193.598 363.927 192.378C368.758 191.158 367.539 169.381 356.658 177.875Z" fill="#9B9B9B"/>
<path d="M259.414 262.679C258.872 264.758 258.195 266.791 257.518 268.598C253.996 278.041 233.183 281.746 227.676 277.408C227.54 277.318 227.405 277.182 227.269 277.047C222.439 272.212 227.134 260.059 229.707 254.05C233.319 245.601 251.468 239.547 257.518 241.942C262.393 243.975 261.761 253.869 259.414 262.679Z" fill="#BCBCBC"/>
<path d="M48.3074 121.49C48.1268 119.593 48.5332 117.785 49.5715 116.159C55.26 107.484 77.8334 106.897 98.5106 120.451C119.188 134.005 127.766 155.918 122.077 164.592L122.032 164.638C122.348 159.352 120.136 151.942 112.416 141.596C92.2803 114.713 55.576 105.451 48.3074 121.49Z" fill="#9B9B9B"/>
<path d="M182.98 262.499C182.709 264.171 182.122 265.752 181.265 267.198C180.768 265.119 176.299 248.809 155.937 241.987C134.809 234.939 106.366 228.659 89.4362 241.987C84.0186 246.234 81.7162 250.616 81.039 254.592C79.3685 251.249 78.7365 247.86 79.3234 244.472C81.8968 229.653 106.773 226.083 135.396 231.098C164.019 236.068 185.554 247.68 182.98 262.499Z" fill="#9B9B9B"/>
<path d="M216.388 135.496C193.905 143.267 184.425 165.315 183.476 181.671C177.246 169.11 183.386 150.903 198.646 138.839C215.485 125.511 238.465 119.231 254.131 139.065C254.221 139.201 254.357 139.336 254.402 139.472C247.63 134.231 235.305 128.99 216.388 135.496Z" fill="#9B9B9B"/>
<path d="M259.414 262.679C259.188 253.914 257.021 244.02 247.856 246.821C238.466 249.713 227.811 266.746 227.721 277.408C227.585 277.318 227.45 277.182 227.314 277.047C222.484 272.212 227.179 260.059 229.752 254.05C233.364 245.601 251.513 239.547 257.563 241.942C262.393 243.975 261.761 253.869 259.414 262.679Z" fill="#9B9B9B"/>
<path d="M347.495 193.96C350.249 178.011 324.696 172.861 311.919 168.207C299.278 163.599 290.61 165.225 287.088 166.31C292.687 157.274 306.818 161.656 320.407 164.548C347.63 170.331 353.454 185.15 347.495 193.96Z" fill="#9B9B9B"/>
<path d="M276.841 87.108C276.57 86.4754 276.434 85.7526 276.344 84.9845C283.974 90.0447 303.522 85.9333 314.312 81.0538C322.032 77.5297 320.768 72.3791 318.376 68.6743C321.22 70.4364 323.251 72.8761 324.019 76.2195C325.825 84.4875 280.678 96.7314 276.841 87.108Z" fill="#9B9B9B"/>
<path d="M152.777 67.8612C151.242 68.7648 149.436 68.4937 147.495 66.551C134.177 53.2227 133.003 31.4457 140.226 27.8313C143.071 26.3855 145.554 25.9337 147.676 26.1596C144.741 26.7017 140.226 29.277 140.226 39.9396C140.226 52.2287 146.141 62.304 152.777 67.8612Z" fill="#9B9B9B"/>
<path d="M233.499 29.3219C233.093 27.2436 231.467 25.2557 226.095 26.6111C221.716 27.6954 220.045 31.0388 219.549 34.3821C218.646 33.9755 217.969 33.3882 217.607 32.6653C215.169 27.831 231.106 18.7948 233.318 26.6111C233.589 27.6051 233.634 28.5087 233.499 29.3219Z" fill="#9B9B9B"/>
<path d="M162.348 363.296C161.309 356.79 155.35 350.465 145.056 344.818C131.738 337.544 122.077 330.315 113.634 324.26C109.21 321.098 103.115 320.239 98.3296 320.149C107.088 310.254 129.029 328.056 140.226 333.929C158.691 343.598 168.804 357.107 162.348 363.296Z" fill="#9B9B9B"/>
<path d="M271.422 338.311C269.481 333.477 263.612 331.489 253.86 331.489H220C207.043 331.489 206.23 338.989 206.23 339.351C205.869 338.402 205.643 337.408 205.508 336.324C204.289 325.435 227.269 327.287 239.368 326.655C262.077 325.48 271.377 331.715 271.422 338.311Z" fill="#9B9B9B"/>
<path d="M254.854 397.859C257.156 400.209 258.736 402.513 259.775 404.139C242.484 408.883 224.289 411.368 205.508 411.368C196.885 411.368 188.398 410.826 180.091 409.787C180.091 407.347 180.542 404.727 182.032 402.513C222.213 412.001 245.373 403.191 254.854 397.859Z" fill="#9B9B9B"/>
<path d="M356.388 345.405C340.812 362.257 322.438 376.489 302.031 387.332C299.729 386.203 297.652 384.531 296.84 382.137C330.564 369.486 345.147 346.58 348.578 340.39C352.009 341.61 354.537 343.417 356.388 345.405Z" fill="#9B9B9B"/>
<path d="M364.786 247.906C362.077 246.957 342.799 241.58 320.361 267.378C309.029 280.436 305.102 290.556 304.199 297.649C298.149 287.755 305.373 269.999 321.174 256.851C337.246 243.478 356.343 239.638 364.786 247.906Z" fill="#9B9B9B"/>
<path d="M377.517 144.171C372.46 142.861 365.869 135.09 363.883 123.388C362.754 116.52 366.185 109.924 370.655 107.846C368.713 110.421 366.907 114.352 367.494 119.773C368.533 128.538 371.828 137.303 377.517 144.171Z" fill="#9B9B9B"/>
<path d="M21.5355 297.469C20.1359 294.667 18.7815 291.776 17.5174 288.884C23.2962 283.643 28.9847 274.065 21.7612 258.93C12.8222 240.18 8.48808 224.05 0.542261 220.797C0.542261 220.662 0.542217 220.571 0.49707 220.436C4.65057 219.894 10.3391 221.791 14.4926 233.493C19.865 248.719 44.8763 285.812 21.5355 297.469Z" fill="#9B9B9B"/>
<path opacity="0.45" d="M329.932 369.441C321.174 376.128 311.828 382.137 302.031 387.378C288.758 394.471 274.628 400.119 259.819 404.185C242.528 408.929 224.334 411.414 205.553 411.414C196.93 411.414 188.442 410.872 180.135 409.833C110.519 401.248 51.6478 357.785 21.5801 297.469C9.84198 273.975 2.48312 247.951 0.541807 220.436C0.180634 215.556 0 210.632 0 205.707C0 174.668 6.86232 145.256 19.1422 118.87C30.1129 95.2859 45.4627 74.1414 64.0632 56.4758C6.72687 330.134 217.607 368.041 329.932 369.441Z" fill="url(#paint1_linear_283_230)"/>
<path d="M411.061 205.707C411.061 217.725 410.023 229.517 408.036 240.948C406.953 247.092 405.643 253.147 404.063 259.11C396.93 93.6593 284.966 -0.406621 123.386 17.0782C148.533 6.09937 176.343 0 205.508 0C294.131 0 369.661 56.1142 398.51 134.819C405.689 154.427 409.978 175.391 410.88 197.303C411.016 200.059 411.061 202.861 411.061 205.707Z" fill="url(#paint2_linear_283_230)"/>
<defs>
<radialGradient id="paint0_radial_283_230" cx="0" cy="0" r="1" gradientUnits="userSpaceOnUse" gradientTransform="translate(196.453 96.8024) scale(313.863 314.098)">
<stop stop-color="#E8E8E8"/>
<stop offset="1" stop-color="#DFDFDF"/>
</radialGradient>
<linearGradient id="paint1_linear_283_230" x1="165.804" y1="503.222" x2="163.796" y2="-6.55823" gradientUnits="userSpaceOnUse">
<stop/>
<stop offset="1" stop-opacity="0.2"/>
</linearGradient>
<linearGradient id="paint2_linear_283_230" x1="388.348" y1="-0.0907981" x2="263.193" y2="138.475" gradientUnits="userSpaceOnUse">
<stop stop-color="#B7B7B7"/>
<stop offset="0.557292" stop-color="#AEAEAE" stop-opacity="0.2"/>
</linearGradient>
</defs>
</svg>
