<svg width="896" height="1478" viewBox="0 0 896 1478" fill="none" xmlns="http://www.w3.org/2000/svg">
<path d="M668.599 3.6587C96.0884 57.9567 -212.078 740.045 167.188 1205.84C342.381 1421.93 635.004 1528.82 923.516 1454.45C1078.05 1414.61 1211.63 1326.18 1306.89 1211.06C1722.56 711.039 1330.96 -59.5719 668.599 3.6587Z" fill="url(#paint0_radial_269_56)"/>
<path d="M412.48 1184.06C103.811 958.542 113.439 491.538 434.542 279.666C652.455 135.339 947.785 164.044 1133.91 357.75C1219.55 446.775 1275.11 564.304 1285.74 693.977C1325.15 1164.89 790.744 1461.58 412.48 1184.06Z" fill="url(#paint1_radial_269_56)"/>
<path d="M1262.97 575.944C1175.62 575.643 1009.46 560.387 816.014 468.954C602.212 367.885 425.214 351.024 349.501 349.016C375.475 323.222 403.955 299.937 434.641 279.764C484.983 286.99 579.95 307.966 753.237 365.175C958.615 433.023 1076.75 393.478 1134.11 357.848C1192.57 418.67 1237.3 493.042 1262.97 575.944Z" fill="url(#paint2_linear_269_56)"/>
<path d="M1086.17 313.59C1038.24 332.66 943.971 349.12 781.414 302.148C639.114 260.998 554.777 245.04 507.544 239.119C535.823 226.071 565.306 215.432 595.892 207.302C637.409 218.443 692.564 235.405 765.67 261.299C910.778 312.687 1003.64 305.762 1056.19 290.707C1066.52 297.933 1076.54 305.561 1086.17 313.59Z" fill="url(#paint3_linear_269_56)"/>
<path d="M1003.14 257.182C948.19 262.602 842.693 261.598 771.994 189.937C855.429 195.056 933.849 218.842 1003.14 257.182Z" fill="url(#paint4_linear_269_56)"/>
<path d="M1287.74 739.542C1287.74 746.869 1287.54 754.195 1287.34 761.522C1213.83 769.953 1062.81 761.823 819.222 635.663C511.155 476.181 355.618 467.148 252.227 479.493C258.144 468.453 264.361 457.614 271.08 447.075C339.874 438.544 493.706 440.953 750.127 553.764C1067.02 693.173 1168 723.383 1285.93 693.775C1287.04 708.93 1287.74 724.186 1287.74 739.542Z" fill="url(#paint5_linear_269_56)"/>
<path d="M643.027 638.873C450.184 549.848 272.885 579.355 205.897 596.117C195.267 635.46 188.949 676.51 187.445 718.864C558.088 651.719 829.551 859.578 737.392 874.934C643.027 890.691 602.212 903.237 454.396 950.509C346.493 985.035 260.25 952.316 221.742 932.142C236.583 972.088 255.938 1009.83 279.303 1044.75C470.642 1116.31 623.572 1040.64 822.431 978.812C976.966 930.737 1127.39 981.221 1210.92 1020.56C1239 973.292 1260.16 921.403 1273.2 866.402C1005.25 915.682 869.865 743.554 643.027 638.873Z" fill="url(#paint6_linear_269_56)"/>
<path d="M526.702 862.289C470.143 865.4 438.654 881.157 350.607 893.803C307.185 900.026 250.826 890.19 204.797 878.548C195.972 844.724 190.356 809.496 188.15 773.465C449.686 731.11 579.952 859.278 526.702 862.289Z" fill="url(#paint7_linear_269_56)"/>
<path d="M1133.81 1121.54C1120.97 1134.88 1107.53 1147.53 1093.39 1159.47C1026.31 1138.5 950.292 1125.35 869.365 1129.77C682.74 1140 571.026 1204.34 412.379 1184.06C402.953 1177.14 393.727 1170.01 384.802 1162.48C449.584 1171.22 565.911 1167 768.681 1110.9C911.082 1071.55 1034.53 1086.71 1133.81 1121.54Z" fill="url(#paint8_linear_269_56)"/>
<path d="M1007.35 1219.59C927.627 1264.56 835.468 1290.25 737.392 1290.25C702.193 1290.25 667.797 1286.94 634.503 1280.62C752.635 1149.64 924.82 1189.48 1007.35 1219.59Z" fill="url(#paint9_linear_269_56)"/>
<path opacity="0.55" d="M1233.59 977.911C1226.57 992.464 1218.95 1006.62 1210.82 1020.47C1189.06 1057.1 1163.19 1091.02 1133.81 1121.53C1120.97 1134.88 1107.53 1147.53 1093.39 1159.47C1066.72 1182.16 1037.94 1202.33 1007.25 1219.59C927.527 1264.56 835.368 1290.25 737.292 1290.25C702.093 1290.25 667.697 1286.94 634.403 1280.62C552.573 1265.16 477.161 1231.54 412.479 1184.06C403.052 1177.14 393.826 1170.01 384.901 1162.48C344.287 1128.56 308.587 1088.92 279.204 1044.65C255.938 1009.73 236.584 971.989 221.642 932.044C215.124 914.58 209.508 896.715 204.694 878.448C195.869 844.625 190.254 809.396 188.048 773.365C187.646 767.142 187.346 760.92 187.245 754.697C187.045 749.679 187.045 744.56 187.045 739.542C187.045 732.616 187.145 725.691 187.446 718.766C189.05 676.512 195.368 635.362 205.898 596.018C216.929 555.069 232.473 516.127 252.128 479.493C258.044 468.453 264.262 457.613 270.981 447.075C277.399 436.938 284.017 427.002 291.037 417.266C368.655 452.996 448.279 529.275 506.242 681.229C589.477 899.425 738.797 1030.4 907.972 1055.8C1012.57 1071.65 1124.78 1047.06 1233.59 977.911Z" fill="url(#paint10_linear_269_56)"/>
<path opacity="0.5" d="M1286.04 782.899C1283.83 811.303 1279.42 839.205 1273 866.304C1263.78 905.246 1250.54 942.682 1233.59 977.911C1226.57 992.464 1218.95 1006.62 1210.83 1020.47C1189.07 1057.1 1163.19 1091.02 1133.81 1121.53C1120.97 1134.88 1107.54 1147.53 1093.4 1159.47C1066.72 1182.16 1037.94 1202.33 1007.25 1219.59C927.53 1264.56 835.371 1290.25 737.295 1290.25C702.096 1290.25 667.699 1286.94 634.405 1280.61C552.575 1265.16 477.163 1231.54 412.481 1184.06C403.055 1177.14 393.829 1170.01 384.904 1162.48C344.289 1128.56 308.589 1088.92 279.206 1044.65C255.941 1009.73 236.587 971.989 221.644 932.043C215.126 914.58 209.51 896.715 204.697 878.448C195.872 844.625 190.256 809.396 188.05 773.365C187.649 767.142 187.348 760.919 187.248 754.697C240.498 873.731 336.768 988.65 507.749 1054.29C653.86 1110.29 789.542 1099.05 907.875 1055.9C1075.45 995.073 1208.12 870.619 1286.04 782.899Z" fill="url(#paint11_linear_269_56)" stroke="url(#paint12_radial_269_56)" stroke-miterlimit="10"/>
<path d="M1286.14 781.694C1285.94 770.051 1278.92 498.36 952.799 332.756C564.908 135.738 316.209 386.251 310.593 391.972C518.578 135.938 904.764 119.278 1133.91 357.848C1243.02 471.161 1297.97 624.42 1286.14 781.694Z" fill="url(#paint13_linear_269_56)"/>
<defs>
<radialGradient id="paint0_radial_269_56" cx="0" cy="0" r="1" gradientUnits="userSpaceOnUse" gradientTransform="translate(739.007 738.988) scale(648.059 648.602)">
<stop stop-color="#77E5B5"/>
<stop offset="1" stop-color="#95F6B0" stop-opacity="0"/>
</radialGradient>
<radialGradient id="paint1_radial_269_56" cx="0" cy="0" r="1" gradientUnits="userSpaceOnUse" gradientTransform="translate(800.437 453.342) scale(650.762 651.308)">
<stop stop-color="#BEEF8F"/>
<stop offset="1" stop-color="#24C9A9"/>
</radialGradient>
<linearGradient id="paint2_linear_269_56" x1="473.236" y1="1380.59" x2="936.165" y2="106.247" gradientUnits="userSpaceOnUse">
<stop stop-color="#138677"/>
<stop offset="1" stop-color="#139B77" stop-opacity="0.1"/>
</linearGradient>
<linearGradient id="paint3_linear_269_56" x1="405.319" y1="1355.93" x2="868.251" y2="81.5757" gradientUnits="userSpaceOnUse">
<stop stop-color="#138677"/>
<stop offset="1" stop-color="#139B77" stop-opacity="0.1"/>
</linearGradient>
<linearGradient id="paint4_linear_269_56" x1="468.518" y1="1378.87" x2="931.442" y2="104.53" gradientUnits="userSpaceOnUse">
<stop stop-color="#138677"/>
<stop offset="1" stop-color="#139B77" stop-opacity="0.1"/>
</linearGradient>
<linearGradient id="paint5_linear_269_56" x1="491.643" y1="1387.29" x2="954.573" y2="112.933" gradientUnits="userSpaceOnUse">
<stop stop-color="#138677"/>
<stop offset="1" stop-color="#139B77" stop-opacity="0.1"/>
</linearGradient>
<linearGradient id="paint6_linear_269_56" x1="502.156" y1="1391.1" x2="965.085" y2="116.751" gradientUnits="userSpaceOnUse">
<stop stop-color="#138677"/>
<stop offset="1" stop-color="#139B77" stop-opacity="0.1"/>
</linearGradient>
<linearGradient id="paint7_linear_269_56" x1="194.631" y1="1279.39" x2="657.559" y2="5.03697" gradientUnits="userSpaceOnUse">
<stop stop-color="#138677"/>
<stop offset="1" stop-color="#139B77" stop-opacity="0.1"/>
</linearGradient>
<linearGradient id="paint8_linear_269_56" x1="649.614" y1="1444.67" x2="1112.54" y2="170.321" gradientUnits="userSpaceOnUse">
<stop stop-color="#138677"/>
<stop offset="1" stop-color="#139B77" stop-opacity="0.1"/>
</linearGradient>
<linearGradient id="paint9_linear_269_56" x1="738.625" y1="1477.01" x2="1201.55" y2="202.655" gradientUnits="userSpaceOnUse">
<stop stop-color="#138677"/>
<stop offset="1" stop-color="#139B77" stop-opacity="0.1"/>
</linearGradient>
<linearGradient id="paint10_linear_269_56" x1="798.554" y1="1218.2" x2="515.119" y2="184.53" gradientUnits="userSpaceOnUse">
<stop stop-color="#127F6A"/>
<stop offset="1" stop-color="#3DD565" stop-opacity="0.1"/>
</linearGradient>
<linearGradient id="paint11_linear_269_56" x1="825.782" y1="1304.67" x2="739.224" y2="801.28" gradientUnits="userSpaceOnUse">
<stop stop-color="#126D6A"/>
<stop offset="1" stop-color="#12656A" stop-opacity="0"/>
</linearGradient>
<radialGradient id="paint12_radial_269_56" cx="0" cy="0" r="1" gradientUnits="userSpaceOnUse" gradientTransform="translate(736.941 1012.57) scale(440.518 440.887)">
<stop stop-color="#BEEF8F"/>
<stop offset="1" stop-color="#24C9A9"/>
</radialGradient>
<linearGradient id="paint13_linear_269_56" x1="1213.53" y1="-76.614" x2="675.118" y2="782.242" gradientUnits="userSpaceOnUse">
<stop stop-color="#D4FFAE"/>
<stop offset="1" stop-color="#D4FFAE" stop-opacity="0"/>
</linearGradient>
</defs>
</svg>
