<svg width="1728" height="1507" viewBox="0 0 1728 1507" fill="none" xmlns="http://www.w3.org/2000/svg">
<g opacity="0.4" filter="url(#filter0_d_201_2)">
<path opacity="0.73" d="M1189.54 1352.18C1188.42 1352.63 1187.58 1351.12 1188.56 1350.41L1196.75 1344.52C1207.33 1336.9 1211.3 1323.03 1206.37 1310.96L1202.55 1301.62C1202.1 1300.5 1203.61 1299.66 1204.32 1300.64L1210.22 1308.83C1217.83 1319.4 1231.71 1323.38 1243.77 1318.45L1253.11 1314.63C1254.23 1314.18 1255.07 1315.69 1254.09 1316.4L1245.9 1322.3C1235.33 1329.91 1231.35 1343.79 1236.28 1355.85L1240.1 1365.19C1240.55 1366.31 1239.04 1367.15 1238.33 1366.17L1232.44 1357.98C1224.82 1347.41 1210.95 1343.43 1198.88 1348.36L1189.54 1352.18Z" fill="#E0E1DD"/>
<path opacity="0.93" d="M1044.8 1389.94C1043.72 1389.63 1043.97 1388.03 1045.1 1388.08L1054.53 1388.44C1066.71 1388.92 1077.63 1380.99 1080.94 1369.26L1083.5 1360.17C1083.81 1359.09 1085.41 1359.34 1085.37 1360.47L1085 1369.9C1084.52 1382.08 1092.46 1393 1104.19 1396.31L1113.27 1398.87C1114.35 1399.18 1114.1 1400.78 1112.98 1400.74L1103.54 1400.37C1091.36 1399.89 1080.45 1407.83 1077.13 1419.56L1074.57 1428.64C1074.26 1429.72 1072.66 1429.47 1072.71 1428.35L1073.07 1418.91C1073.55 1406.74 1065.62 1395.82 1053.89 1392.5L1044.8 1389.94Z" fill="#E0E1DD"/>
<path opacity="0.8" d="M557.784 1355.6C557.015 1356.37 555.776 1355.4 556.342 1354.47L561.091 1346.64C567.223 1336.53 565.627 1323.53 557.231 1315.2L550.728 1308.75C549.953 1307.98 550.921 1306.74 551.855 1307.31L559.687 1312.06C569.799 1318.19 582.796 1316.59 591.125 1308.2L597.575 1301.69C598.344 1300.92 599.583 1301.89 599.017 1302.82L594.268 1310.65C588.136 1320.77 589.732 1333.76 598.128 1342.09L604.631 1348.54C605.406 1349.31 604.438 1350.55 603.504 1349.98L595.672 1345.23C585.56 1339.1 572.563 1340.7 564.234 1349.09L557.784 1355.6Z" fill="#E0E1DD"/>
<path opacity="0.84" d="M290.25 1429.65C290.064 1428.79 291.263 1428.38 291.646 1429.17L294.855 1435.82C299 1444.4 308.487 1449.03 317.805 1447.01L325.02 1445.45C325.88 1445.26 326.293 1446.46 325.501 1446.84L318.851 1450.05C310.266 1454.2 305.638 1463.68 307.658 1473L309.223 1480.22C309.409 1481.08 308.21 1481.49 307.827 1480.7L304.618 1474.05C300.474 1465.46 290.986 1460.84 281.669 1462.86L274.453 1464.42C273.593 1464.61 273.18 1463.41 273.973 1463.02L280.622 1459.81C289.207 1455.67 293.835 1446.18 291.815 1436.87L290.25 1429.65Z" fill="#E0E1DD"/>
<path opacity="0.9" d="M1621.76 1173.1C1622.84 1172.44 1623.97 1173.89 1623.07 1174.78L1615.5 1182.28C1605.73 1191.97 1603.88 1207.09 1611.01 1218.85L1616.54 1227.96C1617.19 1229.05 1615.75 1230.18 1614.86 1229.28L1607.36 1221.71C1597.67 1211.94 1582.55 1210.09 1570.78 1217.22L1561.67 1222.75C1560.59 1223.4 1559.46 1221.96 1560.36 1221.07L1567.93 1213.56C1577.69 1203.88 1579.55 1188.76 1572.42 1176.99L1566.89 1167.88C1566.23 1166.8 1567.68 1165.67 1568.57 1166.57L1576.07 1174.14C1585.76 1183.9 1600.88 1185.76 1612.65 1178.63L1621.76 1173.1Z" fill="#E0E1DD"/>
<path opacity="0.98" d="M848.296 1231.05C847.816 1230.26 848.866 1229.44 849.518 1230.1L854.98 1235.6C862.034 1242.72 873.042 1244.07 881.607 1238.87L888.239 1234.85C889.03 1234.37 889.851 1235.42 889.194 1236.07L883.687 1241.54C876.575 1248.59 875.224 1259.6 880.417 1268.16L884.44 1274.8C884.919 1275.59 883.869 1276.41 883.218 1275.75L877.755 1270.24C870.701 1263.13 859.693 1261.78 851.129 1266.97L844.496 1271C843.705 1271.48 842.885 1270.43 843.541 1269.77L849.049 1264.31C856.16 1257.26 857.512 1246.25 852.318 1237.68L848.296 1231.05Z" fill="#E0E1DD"/>
<path opacity="0.81" d="M400.43 1261.6C400.163 1262.24 399.206 1261.96 399.317 1261.28L400.247 1255.56C401.447 1248.18 397.431 1240.93 390.532 1238.04L385.189 1235.79C384.552 1235.53 384.826 1234.57 385.508 1234.68L391.227 1235.61C398.612 1236.81 405.858 1232.79 408.754 1225.89L410.996 1220.55C411.263 1219.91 412.22 1220.19 412.109 1220.87L411.179 1226.59C409.979 1233.98 413.995 1241.22 420.895 1244.12L426.238 1246.36C426.874 1246.63 426.6 1247.58 425.918 1247.47L420.199 1246.54C412.814 1245.34 405.568 1249.36 402.672 1256.26L400.43 1261.6Z" fill="#E0E1DD"/>
<path opacity="0.7" d="M122.224 1280.47C123.384 1280.2 123.972 1281.81 122.907 1282.35L113.979 1286.85C102.45 1292.67 96.4073 1305.63 99.3632 1318.2L101.652 1327.93C101.925 1329.09 100.311 1329.68 99.7741 1328.62L95.2704 1319.69C89.4551 1308.16 76.4972 1302.12 63.9274 1305.07L54.1929 1307.36C53.0324 1307.63 52.4449 1306.02 53.5093 1305.48L62.4378 1300.98C73.9668 1295.16 80.0092 1282.21 77.0532 1269.64L74.7641 1259.9C74.4913 1258.74 76.1054 1258.15 76.6424 1259.22L81.146 1268.15C86.9614 1279.68 99.9192 1285.72 112.489 1282.76L122.224 1280.47Z" fill="#E0E1DD"/>
<path opacity="0.75" d="M1289.53 997.232C1288.3 997.151 1288.2 995.372 1289.42 995.162L1299.65 993.402C1312.85 991.13 1322.77 980.107 1323.65 966.741L1324.33 956.389C1324.42 955.155 1326.19 955.062 1326.4 956.281L1328.16 966.504C1330.44 979.706 1341.46 989.63 1354.83 990.51L1365.18 991.192C1366.41 991.273 1366.5 993.052 1365.29 993.262L1355.06 995.022C1341.86 997.294 1331.94 1008.32 1331.06 1021.68L1330.37 1032.03C1330.29 1033.27 1328.51 1033.36 1328.3 1032.14L1326.54 1021.92C1324.27 1008.72 1313.25 998.794 1299.88 997.914L1289.53 997.232Z" fill="#E0E1DD"/>
<path opacity="0.92" d="M872.459 1096.32C872.59 1095.02 874.468 1094.99 874.644 1096.28L876.122 1107.11C878.03 1121.1 889.276 1131.96 903.324 1133.38L914.203 1134.48C915.5 1134.61 915.533 1136.49 914.242 1136.67L903.407 1138.14C889.417 1140.05 878.557 1151.3 877.139 1165.35L876.04 1176.23C875.909 1177.52 874.031 1177.55 873.855 1176.26L872.377 1165.43C870.469 1151.44 859.223 1140.58 845.175 1139.16L834.295 1138.06C832.999 1137.93 832.966 1136.05 834.257 1135.88L845.092 1134.4C859.082 1132.49 869.942 1121.24 871.36 1107.2L872.459 1096.32Z" fill="#E0E1DD"/>
<path opacity="0.96" d="M713.445 1040.08C713.555 1039.28 714.727 1039.3 714.808 1040.11L715.494 1046.89C716.379 1055.66 723.155 1062.68 731.884 1063.87L738.644 1064.79C739.449 1064.9 739.429 1066.07 738.62 1066.15L731.832 1066.84C723.067 1067.72 716.05 1074.5 714.86 1083.23L713.938 1089.99C713.828 1090.79 712.656 1090.77 712.574 1089.96L711.889 1083.17C711.003 1074.41 704.228 1067.39 695.499 1066.2L688.739 1065.28C687.933 1065.17 687.954 1064 688.763 1063.92L695.551 1063.23C704.316 1062.35 711.332 1055.57 712.523 1046.84L713.445 1040.08Z" fill="#E0E1DD"/>
<path opacity="0.88" d="M-38.8984 1008.13C-39.9121 1008.12 -40.0648 1006.67 -39.0761 1006.44L-30.7816 1004.56C-20.0712 1002.14 -12.419 992.686 -12.2721 981.706L-12.1583 973.202C-12.1446 972.188 -10.6918 972.035 -10.4676 973.024L-8.58824 981.318C-6.16145 992.029 3.28827 999.681 14.2691 999.828L22.773 999.942C23.7869 999.955 23.9396 1001.41 22.9507 1001.63L14.6563 1003.51C3.94597 1005.94 -3.70626 1015.39 -3.85321 1026.37L-3.96702 1034.87C-3.98069 1035.89 -5.43351 1036.04 -5.65764 1035.05L-7.53704 1026.76C-9.96384 1016.05 -19.4135 1008.39 -30.3945 1008.25L-38.8984 1008.13Z" fill="#E0E1DD"/>
<path opacity="0.74" d="M1322.7 819.677C1321.97 818.947 1322.89 817.771 1323.77 818.308L1331.21 822.815C1340.8 828.634 1353.14 827.12 1361.04 819.151L1367.16 812.981C1367.89 812.245 1369.07 813.164 1368.53 814.05L1364.02 821.482C1358.2 831.079 1359.72 843.413 1367.69 851.316L1373.86 857.437C1374.59 858.167 1373.67 859.343 1372.79 858.806L1365.36 854.299C1355.76 848.48 1343.42 849.994 1335.52 857.963L1329.4 864.134C1328.67 864.869 1327.49 863.95 1328.03 863.064L1332.54 855.632C1338.36 846.035 1336.84 833.701 1328.87 825.798L1322.7 819.677Z" fill="#E0E1DD"/>
<path opacity="0.99" d="M1120.91 848.934C1120.77 848.188 1121.82 847.869 1122.12 848.562L1124.68 854.379C1127.99 861.889 1136.01 866.155 1144.09 864.697L1150.34 863.568C1151.09 863.433 1151.41 864.477 1150.72 864.783L1144.9 867.344C1137.39 870.651 1133.12 878.674 1134.58 886.749L1135.71 893.003C1135.84 893.749 1134.8 894.068 1134.5 893.375L1131.93 887.559C1128.63 880.048 1120.6 875.783 1112.53 877.24L1106.27 878.369C1105.53 878.504 1105.21 877.46 1105.9 877.155L1111.72 874.593C1119.23 871.286 1123.5 863.264 1122.04 855.188L1120.91 848.934Z" fill="#E0E1DD"/>
<path opacity="0.93" d="M394.52 920.011C395.5 920.007 395.672 921.409 394.72 921.642L386.732 923.599C376.417 926.127 369.178 935.392 369.221 946.012L369.255 954.236C369.259 955.217 367.856 955.389 367.623 954.437L365.666 946.449C363.139 936.134 353.873 928.895 343.253 928.938L335.029 928.971C334.048 928.975 333.876 927.573 334.828 927.34L342.817 925.383C353.131 922.855 360.371 913.589 360.327 902.97L360.294 894.745C360.29 893.765 361.692 893.593 361.925 894.545L363.883 902.533C366.41 912.848 375.676 920.087 386.295 920.044L394.52 920.011Z" fill="#E0E1DD"/>
<path d="M-8.46957 892.728C-9.15879 893.617 -10.5486 892.782 -10.0868 891.756L-6.21243 883.149C-1.20955 872.034 -4.47446 858.939 -14.1097 851.474L-21.5715 845.693C-22.4611 845.004 -21.626 843.614 -20.5998 844.076L-11.9923 847.95C-0.877703 852.953 12.2171 849.688 19.682 840.053L25.4631 832.591C26.1524 831.702 27.5422 832.537 27.0804 833.563L23.206 842.17C18.2031 853.285 21.4681 866.38 31.1033 873.845L38.5652 879.626C39.4546 880.315 38.6196 881.705 37.5935 881.243L28.9859 877.369C17.8713 872.366 4.77646 875.631 -2.68848 885.266L-8.46957 892.728Z" fill="#E0E1DD"/>
<path opacity="0.85" d="M1609.18 633.428C1608.46 632.783 1609.26 631.639 1610.11 632.097L1617.28 635.944C1626.53 640.91 1637.98 638.892 1644.97 631.061L1650.39 624.996C1651.03 624.273 1652.18 625.074 1651.72 625.929L1647.87 633.092C1642.9 642.342 1644.92 653.79 1652.75 660.784L1658.82 666.2C1659.54 666.846 1658.74 667.99 1657.89 667.531L1650.72 663.685C1641.47 658.718 1630.02 660.737 1623.03 668.568L1617.61 674.632C1616.97 675.355 1615.82 674.554 1616.28 673.7L1620.13 666.536C1625.1 657.286 1623.08 645.838 1615.25 638.844L1609.18 633.428Z" fill="#E0E1DD"/>
<path opacity="0.77" d="M1370.44 624.181C1370.63 624.926 1369.6 625.323 1369.24 624.643L1366.23 618.937C1362.35 611.569 1353.93 607.819 1345.86 609.866L1339.61 611.452C1338.86 611.641 1338.47 610.607 1339.15 610.248L1344.85 607.244C1352.22 603.365 1355.97 594.942 1353.92 586.871L1352.34 580.62C1352.15 579.875 1353.18 579.478 1353.54 580.158L1356.55 585.864C1360.43 593.232 1368.85 596.982 1376.92 594.935L1383.17 593.35C1383.92 593.161 1384.31 594.195 1383.63 594.553L1377.93 597.557C1370.56 601.436 1366.81 609.859 1368.86 617.93L1370.44 624.181Z" fill="#E0E1DD"/>
<path opacity="0.93" d="M881.619 705.064C882.398 704.382 883.507 705.381 882.91 706.227L877.895 713.326C871.421 722.494 872.071 734.903 879.468 743.343L885.197 749.88C885.88 750.659 884.881 751.769 884.035 751.171L876.935 746.157C867.768 739.682 855.359 740.332 846.918 747.73L840.382 753.459C839.603 754.142 838.493 753.143 839.091 752.296L844.105 745.197C850.58 736.03 849.929 723.62 842.532 715.18L836.803 708.643C836.12 707.864 837.119 706.755 837.966 707.352L845.065 712.366C854.232 718.841 866.642 718.191 875.082 710.793L881.619 705.064Z" fill="#E0E1DD"/>
<path opacity="0.88" d="M539.483 638.581C538.428 638.025 539.043 636.422 540.199 636.715L549.892 639.173C562.408 642.348 575.47 636.533 581.485 625.107L586.144 616.258C586.7 615.204 588.303 615.819 588.01 616.975L585.552 626.668C582.377 639.184 588.192 652.246 599.618 658.261L608.466 662.92C609.521 663.475 608.906 665.079 607.75 664.786L598.057 662.327C585.541 659.152 572.479 664.968 566.464 676.394L561.805 685.242C561.249 686.297 559.646 685.681 559.939 684.526L562.398 674.833C565.572 662.316 559.757 649.255 548.331 643.239L539.483 638.581Z" fill="#E0E1DD"/>
<path opacity="0.95" d="M248.158 604.153C247.608 604.707 246.723 604.015 247.127 603.348L250.519 597.754C254.9 590.531 253.76 581.247 247.762 575.298L243.117 570.691C242.564 570.142 243.256 569.256 243.923 569.661L249.516 573.053C256.74 577.433 266.023 576.293 271.972 570.296L276.579 565.651C277.129 565.097 278.014 565.789 277.61 566.456L274.218 572.05C269.837 579.273 270.977 588.557 276.975 594.506L281.62 599.113C282.173 599.662 281.481 600.548 280.815 600.143L275.221 596.751C267.997 592.371 258.714 593.511 252.765 599.508L248.158 604.153Z" fill="#E0E1DD"/>
<path opacity="0.95" d="M1326.22 472.449C1325.76 471.794 1326.61 471.02 1327.22 471.549L1332.28 475.984C1338.81 481.711 1348.42 482.215 1355.52 477.202L1361.01 473.32C1361.67 472.857 1362.44 473.716 1361.91 474.32L1357.48 479.38C1351.75 485.914 1351.25 495.522 1356.26 502.619L1360.14 508.115C1360.61 508.771 1359.75 509.544 1359.14 509.015L1354.08 504.58C1347.55 498.853 1337.94 498.35 1330.84 503.362L1325.35 507.244C1324.69 507.707 1323.92 506.848 1324.45 506.245L1328.88 501.184C1334.61 494.65 1335.11 485.042 1330.1 477.945L1326.22 472.449Z" fill="#E0E1DD"/>
<path opacity="0.93" d="M1026.31 590.202C1027.55 590.262 1027.67 592.04 1026.45 592.271L1016.26 594.209C1003.1 596.711 993.373 607.905 992.727 621.285L992.226 631.647C992.166 632.882 990.388 633.006 990.157 631.791L988.219 621.6C985.717 608.44 974.523 598.71 961.143 598.063L950.782 597.562C949.546 597.503 949.422 595.725 950.637 595.494L960.828 593.556C973.988 591.054 983.718 579.86 984.365 566.48L984.866 556.118C984.926 554.883 986.703 554.759 986.934 555.973L988.872 566.165C991.375 579.324 1002.57 589.055 1015.95 589.702L1026.31 590.202Z" fill="#E0E1DD"/>
<path d="M635.694 452.988C636.07 452.33 637.075 452.757 636.863 453.484L635.087 459.586C632.793 467.465 636.196 475.889 643.32 479.964L648.836 483.119C649.494 483.495 649.068 484.5 648.34 484.288L642.238 482.511C634.359 480.217 625.935 483.621 621.861 490.745L618.705 496.261C618.329 496.919 617.324 496.492 617.536 495.765L619.313 489.663C621.607 481.784 618.203 473.359 611.079 469.285L605.563 466.13C604.905 465.754 605.332 464.749 606.059 464.961L612.161 466.737C620.04 469.031 628.465 465.628 632.539 458.504L635.694 452.988Z" fill="#E0E1DD"/>
<path opacity="0.79" d="M125.997 512.718C125.951 513.653 124.606 513.747 124.431 512.827L122.965 505.115C121.071 495.156 112.6 487.793 102.475 487.303L94.6335 486.924C93.6987 486.879 93.6046 485.534 94.5241 485.359L102.236 483.892C112.195 481.999 119.559 473.528 120.048 463.403L120.427 455.561C120.472 454.626 121.817 454.532 121.992 455.452L123.459 463.164C125.353 473.123 133.824 480.486 143.949 480.976L151.79 481.355C152.725 481.4 152.819 482.745 151.9 482.92L144.187 484.386C134.229 486.28 126.865 494.751 126.376 504.876L125.997 512.718Z" fill="#E0E1DD"/>
<path opacity="0.87" d="M1597.24 350.304C1597.94 350.087 1598.37 351.055 1597.74 351.431L1592.44 354.586C1585.59 358.661 1582.43 366.894 1584.79 374.501L1586.62 380.392C1586.84 381.095 1585.87 381.526 1585.49 380.894L1582.34 375.594C1578.26 368.75 1570.03 365.589 1562.42 367.949L1556.53 369.777C1555.83 369.994 1555.4 369.026 1556.03 368.65L1561.33 365.495C1568.17 361.421 1571.34 353.187 1568.98 345.58L1567.15 339.689C1566.93 338.986 1567.9 338.555 1568.27 339.187L1571.43 344.487C1575.5 351.331 1583.74 354.492 1591.34 352.132L1597.24 350.304Z" fill="#E0E1DD"/>
<path opacity="0.82" d="M1381.49 255.925C1380.56 256.827 1379.11 255.655 1379.8 254.562L1385.58 245.391C1393.05 233.55 1391.43 218.135 1381.67 208.105L1374.1 200.337C1373.2 199.411 1374.37 197.964 1375.47 198.653L1384.64 204.435C1396.48 211.902 1411.89 210.281 1421.92 200.516L1429.69 192.954C1430.62 192.052 1432.07 193.224 1431.38 194.317L1425.59 203.488C1418.13 215.329 1419.75 230.744 1429.51 240.774L1437.08 248.542C1437.98 249.468 1436.8 250.915 1435.71 250.226L1426.54 244.444C1414.7 236.977 1399.28 238.597 1389.25 248.363L1381.49 255.925Z" fill="#E0E1DD"/>
<path opacity="0.94" d="M740.486 264.335C740.063 264.923 739.15 264.417 739.424 263.747L741.723 258.123C744.691 250.862 742.297 242.513 735.932 237.929L731.003 234.378C730.415 233.955 730.921 233.042 731.591 233.316L737.215 235.615C744.475 238.583 752.824 236.189 757.409 229.824L760.96 224.895C761.383 224.307 762.296 224.813 762.022 225.483L759.723 231.107C756.755 238.368 759.149 246.716 765.514 251.301L770.443 254.852C771.031 255.275 770.525 256.188 769.854 255.914L764.231 253.615C756.97 250.647 748.621 253.041 744.037 259.406L740.486 264.335Z" fill="#E0E1DD"/>
<path opacity="0.86" d="M724.087 364.977C724.923 364.974 725.069 366.169 724.258 366.367L717.45 368.035C708.659 370.189 702.489 378.086 702.526 387.137L702.554 394.147C702.558 394.982 701.363 395.129 701.164 394.317L699.496 387.509C697.342 378.718 689.445 372.549 680.394 372.585L673.385 372.614C672.549 372.617 672.402 371.422 673.214 371.223L680.022 369.555C688.813 367.401 694.983 359.504 694.946 350.453L694.917 343.444C694.914 342.609 696.109 342.462 696.308 343.273L697.976 350.081C700.13 358.872 708.027 365.042 717.078 365.005L724.087 364.977Z" fill="#E0E1DD"/>
<path opacity="0.76" d="M-78.3433 319.039C-79.4328 319.624 -80.4549 318.164 -79.5326 317.34L-71.7951 310.43C-61.8039 301.508 -59.2284 286.901 -65.5652 275.099L-70.4727 265.96C-71.0577 264.87 -69.5981 263.848 -68.7742 264.77L-61.8641 272.508C-52.9415 282.499 -38.3349 285.074 -26.5331 278.738L-17.3935 273.83C-16.3038 273.245 -15.2817 274.705 -16.2041 275.529L-23.9416 282.439C-33.9327 291.361 -36.5083 305.968 -30.1714 317.77L-25.2639 326.909C-24.679 327.999 -26.1386 329.021 -26.9624 328.099L-33.8724 320.361C-42.7952 310.37 -57.4018 307.795 -69.2036 314.131L-78.3433 319.039Z" fill="#E0E1DD"/>
<path opacity="0.8" d="M1605.72 157.371C1606.43 157.369 1606.56 158.388 1605.87 158.558L1600.06 159.981C1592.56 161.819 1587.29 168.558 1587.32 176.282L1587.35 182.263C1587.35 182.976 1586.33 183.101 1586.16 182.409L1584.74 176.599C1582.9 169.098 1576.16 163.833 1568.44 163.864L1562.46 163.888C1561.74 163.891 1561.62 162.871 1562.31 162.702L1568.12 161.278C1575.62 159.44 1580.89 152.702 1580.85 144.978L1580.83 138.997C1580.83 138.284 1581.85 138.159 1582.02 138.851L1583.44 144.661C1585.28 152.162 1592.02 157.427 1599.74 157.396L1605.72 157.371Z" fill="#E0E1DD"/>
<path d="M1078.94 81.3782C1080 81.4672 1080.06 83.0073 1079 83.1704L1070.13 84.5379C1058.68 86.3036 1049.93 95.6851 1048.97 107.23L1048.23 116.171C1048.14 117.237 1046.6 117.291 1046.43 116.234L1045.07 107.367C1043.3 95.9168 1033.92 87.1684 1022.37 86.2057L1013.43 85.4601C1012.37 85.3711 1012.31 83.831 1013.37 83.6678L1022.24 82.3004C1033.69 80.5347 1042.43 71.1532 1043.4 59.6079L1044.14 50.667C1044.23 49.6012 1045.77 49.5474 1045.94 50.6044L1047.3 59.4716C1049.07 70.9215 1058.45 79.6699 1070 80.6326L1078.94 81.3782Z" fill="#E0E1DD"/>
<path opacity="0.77" d="M610.72 51.6869C609.822 51.4668 609.985 50.1443 610.909 50.148L618.666 50.1796C628.683 50.2203 637.422 43.3923 639.806 33.6637L641.652 26.1295C641.872 25.2313 643.194 25.3937 643.191 26.3185L643.159 34.0754C643.118 44.0917 649.946 52.8312 659.675 55.2148L667.209 57.0607C668.107 57.2809 667.945 58.6033 667.02 58.5997L659.263 58.5681C649.247 58.5273 640.507 65.3553 638.124 75.084L636.278 82.6182C636.058 83.5163 634.735 83.354 634.739 82.4293L634.771 74.6723C634.811 64.6559 627.983 55.9165 618.255 53.5329L610.72 51.6869Z" fill="#E0E1DD"/>
<path opacity="0.78" d="M219.2 149.928C218.645 148.936 219.97 147.974 220.741 148.808L227.214 155.806C235.572 164.843 249.034 166.975 259.775 160.963L268.094 156.308C269.086 155.753 270.048 157.078 269.214 157.849L262.216 164.322C253.179 172.68 251.047 186.142 257.059 196.883L261.714 205.202C262.269 206.194 260.944 207.156 260.173 206.322L253.7 199.324C245.341 190.287 231.88 188.155 221.138 194.167L212.82 198.822C211.828 199.377 210.866 198.052 211.7 197.281L218.698 190.808C227.735 182.45 229.867 168.988 223.855 158.246L219.2 149.928Z" fill="#E0E1DD"/>
<path opacity="0.8" d="M1233.71 291.287C1234.71 290.525 1235.97 291.83 1235.18 292.805L1228.5 300.985C1219.87 311.548 1219.61 326.645 1227.86 337.502L1234.25 345.911C1235.01 346.913 1233.71 348.173 1232.73 347.377L1224.55 340.698C1213.99 332.073 1198.89 331.809 1188.03 340.06L1179.63 346.45C1178.62 347.212 1177.36 345.907 1178.16 344.932L1184.84 336.751C1193.46 326.189 1193.73 311.092 1185.48 300.234L1179.09 291.826C1178.32 290.824 1179.63 289.564 1180.6 290.36L1188.78 297.039C1199.35 305.664 1214.44 305.928 1225.3 297.677L1233.71 291.287Z" fill="#E0E1DD"/>
</g>
<g clip-path="url(#clip0_201_2)">
<path d="M1655.67 481.545C1718.95 417.501 1749.03 364.041 1731.89 334.68C1713.59 303.244 1644.72 305.246 1548.03 333.97C1548.44 334.411 1548.79 334.864 1549.15 335.316C1455.31 225.803 1306.61 175.051 1161.65 210.961C996.508 251.87 881.349 393.817 868.64 557.083C868.699 556.133 868.747 555.137 868.853 554.176C671.079 622.998 663.51 704.489 865.199 737.932C801.923 801.976 771.838 855.436 788.986 884.797C808.831 918.901 888.137 913.624 997.917 877.671C1051.7 925.414 1117.05 956.808 1186.04 969.389C1238.31 978.927 1293.35 977.792 1348.24 964.194C1493.2 928.285 1601.77 813.656 1633.28 671.566C1639.66 668.756 1809.78 618.003 1803.54 555.728C1800.12 521.885 1744.45 496.261 1655.67 481.545ZM1554.08 341.132C1632.73 317.32 1687.15 314.516 1700.92 338.169C1723.38 376.694 1627.15 462.778 1623.16 467.308C1607.59 419.303 1583.3 376.21 1552.54 339.298C1553.04 339.913 1553.58 340.517 1554.08 341.132ZM868.166 563.498C868.345 560.059 862.628 614.913 878.924 680.7C881.474 690.992 884.049 699.605 886.707 707.755C886.707 707.755 886.707 707.755 886.661 707.766C706.478 684.988 694.119 622.999 868.166 563.498ZM807.258 859.603C794.009 836.855 820.572 793.371 875.524 739.556C888.429 741.477 897.148 742.565 900.039 742.931C917.721 783.575 941.922 819.996 971.014 851.367C966.547 852.375 831.001 900.32 807.258 859.603ZM1773.94 546.085C1778.56 592.325 1644.42 632.444 1639.63 634.516C1645.07 589.472 1642.48 545.485 1633.11 503.519C1637.37 499.464 1641.64 495.502 1648.27 488.94C1724.27 500.276 1771.32 519.866 1773.94 546.085Z" fill="url(#paint0_radial_201_2)"/>
<path d="M1567.82 510.048C1570.53 520.989 1572.65 531.929 1574.19 542.867C1575.73 553.655 1576.68 564.441 1577.14 575.203C1578.15 600.931 1576.09 626.293 1571.16 650.836C1566.13 676.144 1558.05 700.633 1547.32 723.761C1536.37 747.385 1522.57 769.601 1506.24 789.935C1484.06 817.62 1457.23 841.783 1426.59 861.037C1398.33 878.862 1366.73 892.496 1332.53 900.969C1286.85 912.285 1241.04 913.199 1197.57 905.27C1153.17 897.177 1111.25 879.858 1074.35 854.849C1015.26 814.819 969.124 755.095 946.814 682.285C945.066 676.617 943.492 670.856 942.045 665.014C935.2 637.383 932.126 609.703 932.509 582.495C932.776 562.156 935.033 542.112 938.988 522.581C963.149 404.553 1052.64 304.935 1177.28 274.058C1280.64 248.456 1384.76 275.952 1460.86 339.227C1473.11 349.428 1484.67 360.589 1495.4 372.546C1524.97 405.668 1548.11 445.352 1562.19 490.087C1564.27 496.706 1566.16 503.325 1567.82 510.048Z" fill="url(#paint1_radial_201_2)"/>
<path d="M1161.95 782.516C1161.56 782.712 1161.16 782.908 1160.77 783.104C1150.17 787.699 1144.71 773.403 1145.16 759.562C1145.53 748.942 1149.53 738.11 1155.43 736.55C1157.22 736.056 1159.19 736.455 1161.28 737.955C1186.53 756.204 1172.46 776.96 1161.95 782.516Z" fill="#3D3789"/>
<path d="M1197.63 905.306C1153.23 897.212 1111.31 879.893 1074.41 854.885C1079.13 851.549 1084.9 848.842 1091.9 846.96C1093.88 846.421 1095.97 845.951 1098.14 845.563C1154.27 835.593 1164.79 870.137 1184.08 884.943C1188.45 888.29 1191.44 891.437 1193.49 894.373C1196.57 898.678 1197.5 902.433 1197.63 905.306Z" fill="#4A3E9E"/>
<g opacity="0.75">
<path d="M1258.15 860.691C1226.22 842.865 1195.04 842.125 1191.43 822.598C1191.21 821.324 1191.09 820.026 1191.08 818.601C1191.11 795.123 1251.26 800.546 1275.73 797.631C1306.09 794.048 1331.87 787.662 1346.97 825.009C1362.07 862.357 1292.13 879.681 1258.15 860.691Z" fill="#4A3E9E"/>
<path d="M1414.72 751.49C1395.1 763.29 1368.3 764.565 1359.61 753.087C1358.51 751.637 1357.71 749.967 1357.25 748.112C1353.14 731.515 1391.83 720.158 1403.31 705.407C1414.48 691.026 1424.9 680.129 1434.28 676.921C1442.3 674.197 1449.52 677.18 1455.76 688.478C1469.97 714.333 1436.83 738.191 1414.72 751.49Z" fill="#4A3E9E"/>
<path d="M1485.05 507.081C1475 516.46 1462.03 525.578 1456.52 516.263C1454.17 512.319 1453.17 505.088 1454.3 493.195C1457.16 462.519 1480.86 442.772 1498.53 444.103C1503.93 444.487 1508.79 446.828 1512.28 451.424C1532.45 477.722 1499.34 493.75 1485.05 507.081Z" fill="#4A3E9E"/>
<path d="M1093.18 721.263C1093.07 721.39 1092.95 721.518 1092.84 721.645C1063.14 748.928 1005.9 717.74 1005.49 700.226C1005.45 697.284 1005.72 695.002 1006.44 693.151C1009.99 684.056 1023.64 686.627 1051.98 682.853C1085.75 678.376 1109.98 705.194 1093.18 721.263Z" fill="#4A3E9E"/>
<path d="M990.837 641.266C989.783 642.364 988.717 643.218 987.652 643.876C976.815 650.497 968.405 631.618 959.604 617.708C951.461 604.865 954.803 598.92 960.991 598.518C962.148 598.429 963.408 598.559 964.703 598.829C985.398 603.445 1003.27 628.394 990.837 641.266Z" fill="#4A3E9E"/>
<path d="M1506.24 789.935C1484.06 817.62 1457.23 841.784 1426.58 861.038C1424.9 859.98 1423.27 858.759 1421.84 857.342C1416.06 851.884 1412.78 843.593 1416.86 831.117C1426.04 802.913 1445.82 806.229 1470.31 794.407C1479.43 789.983 1486.94 788.172 1493.11 787.921C1498.5 787.668 1502.86 788.606 1506.24 789.935Z" fill="#4A3E9E"/>
<path d="M1577.14 575.203C1579.21 627.39 1568.5 678.166 1547.32 723.761C1543.15 722.778 1539.16 720.96 1535.57 717.963C1535.45 717.893 1535.33 717.777 1535.26 717.696C1510.44 696.436 1532.13 665.622 1531.73 616.81C1531.49 587.249 1549.27 578.318 1563.31 575.921C1569 574.904 1574.09 575.022 1577.14 575.203Z" fill="#4A3E9E"/>
<path d="M1567.82 510.048C1570.53 520.99 1572.65 531.929 1574.18 542.868C1570.57 543.368 1566.77 543.081 1563.7 540.594C1562.65 539.723 1561.69 538.631 1560.84 537.17C1553.94 525.199 1542.21 533.37 1542.95 520.097C1543.67 507.126 1549.17 499.414 1554.41 494.968C1557.38 492.462 1560.29 490.952 1562.21 490.181C1564.27 496.707 1566.16 503.326 1567.82 510.048Z" fill="#4A3E9E"/>
<path d="M1314.47 733.27C1314.48 733.316 1314.49 733.362 1314.46 733.42C1314.68 750.784 1275.71 754.287 1264.73 753.414C1252.75 752.445 1222.73 741.33 1225.71 721.994C1226.76 715.139 1230.11 711.997 1234.81 711.129C1246.65 708.785 1266.91 720.743 1278.16 720.76C1299.38 720.768 1314.14 719.867 1314.47 733.27Z" fill="#4A3E9E"/>
<path d="M1064.19 787.445C1063.48 789.933 1062.45 791.958 1061.09 793.576C1054.57 801.39 1041.25 798.981 1028.29 792.45C1017.51 787.002 1010.65 774.973 1013.83 770.394C1015.24 768.324 1018.68 767.765 1024.66 769.877C1043.96 776.807 1068.34 772.687 1064.19 787.445Z" fill="#4A3E9E"/>
<path d="M1473.1 673.8C1468.28 680.506 1460.03 677.381 1454.89 672.063C1453.11 670.24 1451.72 668.221 1450.93 666.203C1447.8 658.319 1449.57 654.582 1463.06 657.686C1468.84 659.01 1472.72 660.56 1474.7 662.627C1477.23 665.297 1476.72 668.771 1473.1 673.8Z" fill="#4A3E9E"/>
<path d="M1460.51 605.127C1460.37 604.964 1460.17 604.767 1460.03 604.605C1450.59 593.855 1469.83 587.023 1474.84 576.136C1479.22 566.638 1489.78 551.966 1498.46 557.246C1499.85 558.084 1501.22 559.466 1502.45 561.473C1518.46 586.834 1471.06 616.192 1460.51 605.127Z" fill="#4A3E9E"/>
<path d="M1372.67 842.113C1369.23 842.278 1363.7 840.99 1358.91 831.352C1358.48 830.424 1357.97 829.369 1357.55 828.244C1352.5 815.815 1348.85 801.072 1356.21 799.249C1359.91 798.331 1363.11 811.22 1379.18 820.967C1380.91 822.014 1382.09 823.395 1382.81 824.938C1385.96 831.687 1380.54 841.739 1372.67 842.113Z" fill="#4A3E9E"/>
<path d="M1378.28 660.285C1374.96 660.566 1371.58 660.221 1368.4 659.287C1347.89 653.003 1358.79 609.559 1380.27 619.541C1380.94 619.867 1381.57 620.204 1382.26 620.623C1413.5 639.455 1396.93 658.815 1378.28 660.285Z" fill="#4A3E9E"/>
<path d="M1161.95 782.516C1159.34 780.703 1156.81 778.229 1154.83 774.784C1149.32 765.225 1153.56 744.491 1155.47 736.538C1157.27 736.045 1159.23 736.443 1161.32 737.943C1186.53 756.204 1172.46 776.96 1161.95 782.516Z" fill="#4A3E9E"/>
</g>
<g opacity="0.7">
<path d="M1185.64 757.36C1181.93 758.277 1183.78 773.467 1187.9 774.416C1192.06 775.353 1200.36 753.714 1185.64 757.36Z" fill="#3D3789"/>
<path d="M1482.29 404.924C1465.93 407.303 1472.64 426.258 1488.52 426.507C1504.4 426.756 1511.31 400.688 1482.29 404.924Z" fill="#3D3789"/>
<path d="M1479.59 745.215C1469.68 747.669 1472.2 754.868 1483.24 759.958C1494.23 765.06 1514.53 736.559 1479.59 745.215Z" fill="#3D3789"/>
<path d="M1013.36 637.605C1002.28 645.616 1013.31 653.265 1023.44 654.693C1033.61 656.062 1029.96 625.671 1013.36 637.605Z" fill="#3D3789"/>
<path d="M957.438 553.637C950.354 556.966 956.928 567.442 968.449 566.557C979.924 565.682 974.906 545.422 957.438 553.637Z" fill="#3D3789"/>
<path d="M1473.76 374.855C1465.01 378.991 1480.63 394.656 1486.16 385.462C1491.7 376.267 1482.51 370.719 1473.76 374.855Z" fill="#3D3789"/>
<path d="M1209.69 680.938C1202.62 687.511 1216.56 700.74 1228.52 693.89C1240.53 687.028 1223.97 667.608 1209.69 680.938Z" fill="#3D3789"/>
</g>
<path d="M1382.81 824.938C1385.96 831.687 1380.54 841.739 1372.67 842.113C1369.23 842.278 1363.7 840.99 1358.91 831.352C1369.51 833.893 1377.43 829.766 1382.81 824.938Z" fill="#3D3789"/>
<path d="M959.593 617.661C951.45 604.818 954.791 598.873 960.98 598.471C958.295 612.619 978.058 634.295 987.687 643.817C976.803 650.45 968.393 631.571 959.593 617.661Z" fill="#3D3789"/>
<path d="M1061.08 793.53C1054.56 801.343 1041.24 798.935 1028.28 792.404C1017.49 786.956 1010.63 774.927 1013.82 770.348C1023.12 789.055 1047.13 792.95 1061.08 793.53Z" fill="#3D3789"/>
<path d="M1093.18 721.263C1093.07 721.39 1092.95 721.518 1092.84 721.645C1063.14 748.928 1005.9 717.74 1005.49 700.226C1005.45 697.284 1005.72 695.002 1006.44 693.151C1013.3 698.833 1023.84 705.67 1039.96 713.24C1064.98 725.003 1082.46 724.363 1093.18 721.263Z" fill="#3D3789"/>
<path d="M1225.71 721.994C1226.76 715.14 1230.11 711.998 1234.8 711.129C1230.39 721.67 1231.04 733.614 1248.21 741.858C1275.07 754.691 1301.46 741.855 1314.46 733.421C1314.68 750.784 1275.71 754.287 1264.73 753.414C1252.8 752.434 1222.78 741.319 1225.71 721.994Z" fill="#3D3789"/>
<path d="M1346.97 825.01C1362.07 862.357 1292.13 879.681 1258.15 860.692C1226.22 842.865 1195.04 842.126 1191.43 822.599C1211.56 828.685 1245.97 843.877 1284.39 856.16C1339.5 873.802 1346.97 825.01 1346.97 825.01Z" fill="#3D3789"/>
<path d="M1378.28 660.285C1393.7 652.332 1385.83 630.86 1380.27 619.541C1380.94 619.867 1381.57 620.204 1382.26 620.623C1413.5 639.455 1396.93 658.815 1378.28 660.285Z" fill="#3D3789"/>
<path d="M1455.76 688.478C1469.96 714.286 1436.83 738.19 1414.73 751.49C1395.1 763.289 1368.3 764.565 1359.61 753.087C1366.22 754.795 1375.34 756.277 1384.37 755.073C1401.4 752.822 1438.22 735.877 1444.69 706.867C1448.46 690.139 1441.12 681.328 1434.28 676.921C1442.3 674.196 1449.51 677.134 1455.76 688.478Z" fill="#3D3789"/>
<path d="M1474.67 662.684C1477.23 665.297 1476.73 668.817 1473.11 673.846C1468.29 680.552 1460.05 677.427 1454.9 672.109C1464.87 674.115 1471.36 667.587 1474.67 662.684Z" fill="#3D3789"/>
<path d="M1502.41 561.484C1518.46 586.834 1471.01 616.204 1460.46 605.138C1460.32 604.976 1460.13 604.778 1459.99 604.616C1499.57 591.072 1501.94 570.506 1498.37 557.269C1499.8 558.095 1501.17 559.477 1502.41 561.484Z" fill="#3D3789"/>
<path d="M1485.05 507.08C1474.99 516.46 1462.02 525.578 1456.52 516.263C1467.15 500.641 1497.78 489.46 1510 473.541C1519.76 460.79 1507.8 449.976 1498.59 444.138C1503.99 444.522 1508.84 446.863 1512.34 451.458C1532.45 477.722 1499.33 493.75 1485.05 507.08Z" fill="#3D3789"/>
<path d="M1193.48 894.326C1196.57 898.678 1197.55 902.421 1197.61 905.259C1153.21 897.166 1111.29 879.847 1074.4 854.838C1079.12 851.503 1084.89 848.795 1091.89 846.913C1101.08 854.674 1113.62 863.868 1130.73 874.638C1146.97 884.837 1168.86 891.124 1193.48 894.326Z" fill="#3D3789"/>
<path d="M1493.08 787.978C1498.55 787.656 1502.86 788.606 1506.25 789.981C1484.07 817.666 1457.24 841.83 1426.6 861.084C1424.91 860.026 1423.28 858.805 1421.85 857.388C1453.67 836.319 1480.34 804.568 1493.08 787.978Z" fill="#3D3789"/>
<path d="M1577.14 575.203C1579.21 627.39 1568.5 678.166 1547.32 723.761C1543.15 722.777 1539.16 720.96 1535.57 717.963C1564.05 675.479 1564 597.942 1563.36 575.909C1569 574.904 1574.09 575.021 1577.14 575.203Z" fill="#3D3789"/>
<path d="M1567.82 510.047C1570.53 520.989 1572.65 531.928 1574.18 542.867C1570.57 543.367 1566.77 543.08 1563.7 540.593C1570.05 526.964 1560.15 505.453 1554.41 494.967C1557.38 492.461 1560.29 490.951 1562.21 490.18C1564.27 496.706 1566.16 503.325 1567.82 510.047Z" fill="#3D3789"/>
<path opacity="0.35" d="M1567.82 510.048C1570.53 520.989 1572.65 531.929 1574.19 542.867C1575.73 553.655 1576.68 564.441 1577.14 575.203C1579.21 627.39 1568.5 678.166 1547.32 723.761C1536.37 747.386 1522.57 769.602 1506.24 789.935C1484.06 817.62 1457.23 841.784 1426.59 861.038C1398.33 878.862 1366.73 892.496 1332.53 900.969C1286.85 912.285 1241.04 913.2 1197.57 905.271C1153.17 897.177 1111.25 879.858 1074.35 854.85C1015.26 814.819 969.125 755.095 946.815 682.285C1099.58 926.346 1620.52 750.356 1495.41 372.593C1524.98 405.715 1548.13 445.399 1562.2 490.134C1564.27 496.707 1566.16 503.326 1567.82 510.048Z" fill="url(#paint2_linear_201_2)"/>
<path opacity="0.55" d="M1571.16 650.837C1566.13 676.144 1558.05 700.634 1547.32 723.761C1536.37 747.386 1522.57 769.602 1506.24 789.935C1484.06 817.62 1457.23 841.783 1426.59 861.038C1398.33 878.862 1366.73 892.496 1332.53 900.969C1286.85 912.285 1241.04 913.2 1197.57 905.271C1153.17 897.177 1111.25 879.858 1074.35 854.849C1015.26 814.819 969.125 755.095 946.814 682.285C945.066 676.617 943.492 670.856 942.045 665.014C935.2 637.383 932.126 609.703 932.509 582.496C1028.7 697.922 1263.76 904.176 1571.16 650.837Z" fill="url(#paint3_linear_201_2)"/>
<path d="M1588.41 499.339C1580.57 498.034 1572.42 496.855 1563.94 495.756C1560.64 495.342 1557.29 494.894 1553.9 494.503C1551.5 496.721 1549.06 498.95 1546.51 501.156C1553.25 501.798 1559.78 502.545 1566.1 503.29C1571.63 503.988 1577.02 504.72 1582.22 505.497C1645.52 514.913 1684.63 531.206 1686.8 553.057C1689.2 577.017 1646.53 603.283 1575.04 626.649C1518.65 645.097 1444.26 661.703 1359.94 674.08C1335.61 677.597 1310.42 680.834 1284.63 683.63C1278.94 684.253 1273.19 684.84 1267.39 685.393C1150.93 696.97 1044.37 697.73 965.574 689.596C962.243 689.24 958.959 688.872 955.721 688.493C953.247 688.221 950.865 687.925 948.436 687.641C877.089 678.645 832.428 661.562 830.086 638.228C827.779 615.23 866.87 590.194 933.045 567.601C933.188 565.007 933.378 562.401 933.625 559.83C852.937 587.888 804.487 620.557 807.556 650.993C810.364 679.182 856.706 700.473 930.592 712.777C933.413 713.259 936.269 713.683 939.183 714.143C945.762 715.121 952.585 716.088 959.523 716.928C1029.76 725.608 1119.46 727.203 1217.98 720.167C1235.17 718.96 1252.69 717.476 1270.38 715.702C1278.38 714.9 1286.28 714.074 1294.16 713.156C1400.84 701.196 1496.8 681.215 1569.73 657.54C1659.67 628.37 1714.6 593.506 1711.35 561.146C1708.64 532.935 1662.28 511.597 1588.41 499.339Z" fill="url(#paint4_linear_201_2)"/>
<path d="M1460.88 339.32C1420.95 316.539 1320.93 258.404 1160.89 314.384C1015.88 365.166 958.866 471.945 938.999 522.628C963.16 404.6 1052.65 304.982 1177.29 274.105C1280.66 248.549 1384.79 276.045 1460.88 339.32Z" fill="url(#paint5_linear_201_2)"/>
</g>
<path d="M385.587 1201.39C379.937 1262.69 328.833 1315.12 261.058 1315.12C176.433 1315.12 116.568 1232.61 141.842 1152.58C150.544 1124.85 168.96 1100.53 194.036 1084.54C199.23 1081.25 204.721 1078.29 210.45 1075.73C275.45 1046.87 351.927 1078.31 377.657 1145.11C384.873 1163.89 387.272 1183.04 385.587 1201.39Z" fill="url(#paint6_radial_201_2)"/>
<path d="M319.952 1300.36C302.409 1309.76 282.348 1315.1 261.038 1315.1C212.491 1315.1 170.407 1287.38 149.731 1246.89C158.493 1251.38 174.649 1258.5 193.422 1261.42C220.658 1265.64 253.624 1260.11 269.126 1268.04C294.975 1281.27 299.178 1296.47 319.952 1300.36Z" fill="url(#paint7_linear_201_2)"/>
<path d="M214.751 1243.03C190.706 1244.67 157.304 1233.29 141.763 1227.35C138.096 1215.57 136.113 1203.05 136.113 1190.08C136.113 1185.42 136.371 1180.81 136.867 1176.29C143.646 1184.33 159.187 1201.09 178.733 1211.4C205.197 1225.39 247.083 1240.82 214.751 1243.03Z" fill="url(#paint8_linear_201_2)"/>
<path d="M368.222 1254.37C363.524 1262.21 357.973 1269.49 351.729 1276.1C335.692 1271.71 317.812 1263.78 303.321 1251.5C277.531 1229.66 273.923 1219.88 214.395 1200.75C172.865 1187.4 151 1165.48 141.584 1153.44C144.518 1143.84 148.582 1134.71 153.637 1126.24C165.432 1139 191.578 1163.99 224.703 1175.74C270.276 1191.92 277.61 1190.44 318.763 1227.95C336.287 1243.96 353.85 1251.26 368.222 1254.37Z" fill="url(#paint9_linear_201_2)"/>
<path d="M385.983 1190.08C385.983 1204.1 383.683 1217.57 379.421 1230.15C367.349 1229.89 348.656 1224.91 327.544 1202.95C290.792 1164.71 236.418 1157.35 235.684 1144.85C234.951 1132.35 291.546 1142.65 326.078 1161.77C350.916 1175.54 369.312 1185.48 385.884 1185.04C385.943 1186.71 385.983 1188.39 385.983 1190.08Z" fill="url(#paint10_linear_201_2)"/>
<path d="M209.975 1120.59C195.008 1113.6 177.643 1112.49 176.91 1118.38C176.176 1124.28 187.198 1143.38 207.041 1139.71C226.864 1136.02 220.996 1125.72 209.975 1120.59Z" fill="url(#paint11_linear_201_2)"/>
<path d="M377.658 1145.11C359.103 1133.82 327.446 1126.08 278.324 1114.69C236.993 1105.11 218.577 1088.05 210.45 1075.73C220.976 1071.07 232.255 1067.8 244.07 1066.19C253.109 1074.78 271.763 1086.54 309.922 1096.3C331.589 1101.84 348.419 1108.68 361.304 1115.47C368.024 1124.49 373.534 1134.45 377.658 1145.11Z" fill="url(#paint12_linear_201_2)"/>
<path d="M317.99 1270.62C311.547 1267.07 289.326 1254.43 303.301 1280.18C308.792 1290.3 332.699 1278.71 317.99 1270.62Z" fill="url(#paint13_linear_201_2)"/>
<path d="M287.859 1257.37C284.846 1257.59 286.392 1263.99 289.326 1264.73C292.28 1265.46 298.167 1256.63 287.859 1257.37Z" fill="url(#paint14_linear_201_2)"/>
<path opacity="0.45" d="M379.402 1230.21C376.528 1238.72 372.761 1246.8 368.222 1254.37C363.524 1262.21 357.973 1269.49 351.729 1276.1C342.551 1285.8 331.826 1294.01 319.972 1300.36C302.429 1309.76 282.368 1315.1 261.058 1315.1C212.511 1315.1 170.427 1287.38 149.752 1246.89C146.56 1240.67 143.884 1234.14 141.783 1227.35C138.115 1215.57 136.133 1203.05 136.133 1190.08C136.133 1185.42 136.391 1180.81 136.886 1176.29C137.739 1168.43 139.325 1160.78 141.584 1153.42C141.664 1153.14 141.763 1152.84 141.842 1152.56C160 1133.06 194.274 1144.25 211.461 1169.84C237.251 1208.29 298.9 1322.83 379.402 1230.21Z" fill="url(#paint15_linear_201_2)"/>
<path opacity="0.55" d="M379.957 1228.52C377.697 1235.88 373.514 1245.56 368.222 1254.37C311.904 1348.25 171.537 1328.9 141.168 1225.33C156.769 1246.64 177.722 1262.76 205.573 1270.62C304.847 1298.55 355.713 1260.9 379.957 1228.52Z" fill="url(#paint16_linear_201_2)"/>
<path d="M377.657 1145.11C384.893 1163.87 387.272 1183.04 385.587 1201.39C381.781 1169.03 365.764 1116.42 304.034 1091.9C258.798 1073.93 220.916 1076.86 194.016 1084.54C199.21 1081.25 204.701 1078.29 210.43 1075.73C275.45 1046.87 351.927 1078.33 377.657 1145.11Z" fill="url(#paint17_linear_201_2)"/>
<defs>
<filter id="filter0_d_201_2" x="-104.891" y="0.53418" width="2104.34" height="1505.59" filterUnits="userSpaceOnUse" color-interpolation-filters="sRGB">
<feFlood flood-opacity="0" result="BackgroundImageFix"/>
<feColorMatrix in="SourceAlpha" type="matrix" values="0 0 0 0 0 0 0 0 0 0 0 0 0 0 0 0 0 0 127 0" result="hardAlpha"/>
<feOffset/>
<feGaussianBlur stdDeviation="12.5"/>
<feComposite in2="hardAlpha" operator="out"/>
<feColorMatrix type="matrix" values="0 0 0 0 0.878431 0 0 0 0 0.882353 0 0 0 0 0.866667 0 0 0 1 0"/>
<feBlend mode="normal" in2="BackgroundImageFix" result="effect1_dropShadow_201_2"/>
<feBlend mode="normal" in="SourceGraphic" in2="effect1_dropShadow_201_2" result="shape"/>
</filter>
<radialGradient id="paint0_radial_201_2" cx="0" cy="0" r="1" gradientUnits="userSpaceOnUse" gradientTransform="translate(1254.93 587.564) rotate(-13.9131) scale(365.632 366.239)">
<stop stop-color="#C7F1F6"/>
<stop offset="1" stop-color="#D3F4F9" stop-opacity="0"/>
</radialGradient>
<radialGradient id="paint1_radial_201_2" cx="0" cy="0" r="1" gradientUnits="userSpaceOnUse" gradientTransform="translate(1169.66 432.58) rotate(-13.9131) scale(568.25 569.193)">
<stop stop-color="#31E7C2"/>
<stop offset="1" stop-color="#652FB0"/>
</radialGradient>
<linearGradient id="paint2_linear_201_2" x1="1524.79" y1="990.439" x2="1127.36" y2="398.433" gradientUnits="userSpaceOnUse">
<stop stop-color="#4A3E9E"/>
<stop offset="1" stop-color="#4AE09E" stop-opacity="0.5"/>
</linearGradient>
<linearGradient id="paint3_linear_201_2" x1="1361" y1="964.678" x2="1196.14" y2="483.739" gradientUnits="userSpaceOnUse">
<stop stop-color="#3D3789"/>
<stop offset="1" stop-color="#3DCC5E" stop-opacity="0.2"/>
</linearGradient>
<linearGradient id="paint4_linear_201_2" x1="1292.78" y1="781.791" x2="1235.88" y2="480.859" gradientUnits="userSpaceOnUse">
<stop stop-color="#83ECEC"/>
<stop offset="1" stop-color="#8EE2D3" stop-opacity="0.3"/>
</linearGradient>
<linearGradient id="paint5_linear_201_2" x1="1149.08" y1="230.089" x2="1193.21" y2="404.317" gradientUnits="userSpaceOnUse">
<stop stop-color="#C7F1F6"/>
<stop offset="1" stop-color="#D3F4F9" stop-opacity="0"/>
</linearGradient>
<radialGradient id="paint6_radial_201_2" cx="0" cy="0" r="1" gradientUnits="userSpaceOnUse" gradientTransform="translate(257.733 1141.51) scale(124.991 125.086)">
<stop stop-color="#EACCA0"/>
<stop offset="1" stop-color="#D98301"/>
</radialGradient>
<linearGradient id="paint7_linear_201_2" x1="266.654" y1="1354.57" x2="162.903" y2="1090.98" gradientUnits="userSpaceOnUse">
<stop stop-color="#A65B31"/>
<stop offset="1" stop-color="#B16E31" stop-opacity="0.2"/>
</linearGradient>
<linearGradient id="paint8_linear_201_2" x1="236.58" y1="1366.41" x2="132.829" y2="1102.82" gradientUnits="userSpaceOnUse">
<stop stop-color="#A66231"/>
<stop offset="1" stop-color="#B18D31" stop-opacity="0.2"/>
</linearGradient>
<linearGradient id="paint9_linear_201_2" x1="307.748" y1="1338.4" x2="203.996" y2="1074.8" gradientUnits="userSpaceOnUse">
<stop stop-color="#A64D31"/>
<stop offset="1" stop-color="#B16E31" stop-opacity="0.2"/>
</linearGradient>
<linearGradient id="paint10_linear_201_2" x1="369.31" y1="1314.17" x2="265.558" y2="1050.57" gradientUnits="userSpaceOnUse">
<stop stop-color="#A64D31"/>
<stop offset="1" stop-color="#B16731" stop-opacity="0.2"/>
</linearGradient>
<linearGradient id="paint11_linear_201_2" x1="285.604" y1="1347.11" x2="181.853" y2="1083.52" gradientUnits="userSpaceOnUse">
<stop stop-color="#A66931"/>
<stop offset="1" stop-color="#B16E31" stop-opacity="0.2"/>
</linearGradient>
<linearGradient id="paint12_linear_201_2" x1="373.474" y1="1312.53" x2="269.723" y2="1048.93" gradientUnits="userSpaceOnUse">
<stop stop-color="#A66931"/>
<stop offset="1" stop-color="#B16E31" stop-opacity="0.2"/>
</linearGradient>
<linearGradient id="paint13_linear_201_2" x1="332.65" y1="1328.6" x2="228.899" y2="1065" gradientUnits="userSpaceOnUse">
<stop stop-color="#A65431"/>
<stop offset="1" stop-color="#B16E31" stop-opacity="0.2"/>
</linearGradient>
<linearGradient id="paint14_linear_201_2" x1="318.959" y1="1333.98" x2="215.207" y2="1070.39" gradientUnits="userSpaceOnUse">
<stop stop-color="#A66231"/>
<stop offset="1" stop-color="#B15F31" stop-opacity="0.2"/>
</linearGradient>
<linearGradient id="paint15_linear_201_2" x1="234.412" y1="1318.95" x2="271.364" y2="1136.97" gradientUnits="userSpaceOnUse">
<stop stop-color="#A35A31"/>
<stop offset="1" stop-color="#B87B42" stop-opacity="0.3"/>
</linearGradient>
<linearGradient id="paint16_linear_201_2" x1="273.652" y1="1345.57" x2="259.668" y2="1219.07" gradientUnits="userSpaceOnUse">
<stop stop-color="#A35C1A"/>
<stop offset="1" stop-color="#A3662E" stop-opacity="0.1"/>
</linearGradient>
<linearGradient id="paint17_linear_201_2" x1="417.584" y1="985.837" x2="279.297" y2="1155.62" gradientUnits="userSpaceOnUse">
<stop stop-color="#F6E4A4"/>
<stop offset="1" stop-color="#F9E2B5" stop-opacity="0"/>
</linearGradient>
<clipPath id="clip0_201_2">
<rect width="1081" height="776" fill="white" transform="translate(637 340.926) rotate(-13.9131)"/>
</clipPath>
</defs>
</svg>
