<svg width="28" height="28" viewBox="0 0 28 28" fill="none" xmlns="http://www.w3.org/2000/svg">
<path d="M22 10.9998H13C11.8954 10.9998 11 11.8952 11 12.9998V21.9998C11 23.1043 11.8954 23.9998 13 23.9998H22C23.1046 23.9998 24 23.1043 24 21.9998V12.9998C24 11.8952 23.1046 10.9998 22 10.9998Z" stroke="#E0E1DD" stroke-width="2" stroke-linecap="round" stroke-linejoin="round"/>
<path d="M7 16.9998H6C5.46957 16.9998 4.96086 16.789 4.58579 16.414C4.21071 16.0389 4 15.5302 4 14.9998V5.99976C4 5.46932 4.21071 4.96061 4.58579 4.58554C4.96086 4.21047 5.46957 3.99976 6 3.99976H15C15.5304 3.99976 16.0391 4.21047 16.4142 4.58554C16.7893 4.96061 17 5.46932 17 5.99976V6.99976" stroke="#E0E1DD" stroke-width="2" stroke-linecap="round" stroke-linejoin="round"/>
</svg>
