<svg width="158" height="30" viewBox="0 0 158 30" fill="none" xmlns="http://www.w3.org/2000/svg">
<path fill-rule="evenodd" clip-rule="evenodd" d="M12.7356 3.98535C6.8025 5.05798 2.84084 10.859 3.88701 16.9422C4.00387 17.6217 4.17827 18.276 4.40417 18.9007L16.1038 16.7856C17.1151 16.6027 18.0795 17.2951 18.2579 18.332C18.4362 19.3689 17.7609 20.3577 16.7496 20.5405L6.45034 22.4025C8.88214 25.2219 12.6443 26.7161 16.5241 26.0147C22.4573 24.942 26.4189 19.141 25.3727 13.0578C25.2559 12.3783 25.0815 11.724 24.8556 11.0993L13.0302 13.2372C12.0189 13.42 11.0545 12.7276 10.8762 11.6907C10.6978 10.6538 11.3731 9.66502 12.3844 9.48218L22.8094 7.59747C20.3776 4.77815 16.6155 3.28392 12.7356 3.98535ZM0.224669 17.6043C-1.17815 9.44724 4.13407 1.66866 12.0899 0.230353C20.0456 -1.20796 27.6323 4.23866 29.0351 12.3957C30.4379 20.5528 25.1257 28.3313 17.1699 29.7696C9.21413 31.208 1.62749 25.7613 0.224669 17.6043Z" fill="#E0E1DD"/>
<path d="M40.7422 22.1344C44.3557 22.1344 46.4621 20.375 46.4621 17.6103C46.4621 15.432 45.1365 14.2498 42.322 13.7285L41.0055 13.4864C39.6981 13.2444 39.1352 12.9558 39.1352 12.3507C39.1352 11.7457 39.6799 11.2616 40.7513 11.2616C41.5775 11.2616 42.1858 11.5129 42.6125 12.1832C43.0755 12.9 43.5931 13.1885 44.4102 13.1885C45.3726 13.1792 46.0081 12.5742 46.0081 11.6805C46.0081 11.3733 45.9536 11.122 45.8447 10.852C45.1638 9.17642 43.3025 8.23622 40.7059 8.23622C37.5917 8.23622 35.3219 9.93974 35.3219 12.6393C35.3219 14.7245 36.7473 16.0743 39.3531 16.5491L40.6696 16.7911C42.1404 17.061 42.6488 17.331 42.6488 17.964C42.6488 18.6249 41.9406 19.109 40.7876 19.109C39.9251 19.109 39.1624 18.839 38.7084 18.1781C38.1909 17.4334 37.7007 17.2007 36.9743 17.2007C36.021 17.2007 35.3219 17.8523 35.3219 18.8018C35.3219 19.109 35.3855 19.4255 35.5216 19.7327C36.0846 21.0453 37.7914 22.1344 40.7422 22.1344Z" fill="#E0E1DD"/>
<path d="M48.8325 22.1344C49.9038 22.1344 50.5121 21.4735 50.5121 20.3099V14.1194H50.5848L53.1905 20.8498C53.4447 21.52 53.8896 21.8365 54.5796 21.8365C55.2605 21.8365 55.6782 21.5293 55.9415 20.8498L58.5472 14.1194H58.6199V20.3099C58.6199 21.4735 59.2282 22.1344 60.2995 22.1344C61.3708 22.1344 61.9792 21.4735 61.9792 20.3099V10.8241C61.9792 9.16711 61.0894 8.23622 59.4824 8.23622C58.1296 8.23622 57.4123 8.78544 56.8676 10.2469L54.6068 16.307H54.5342L52.2644 10.2469C51.7197 8.78544 51.0024 8.23622 49.6496 8.23622C48.0426 8.23622 47.1528 9.16711 47.1528 10.8241V20.3099C47.1528 21.4735 47.7611 22.1344 48.8325 22.1344Z" fill="#E0E1DD"/>
<path d="M64.749 22.1344C65.7931 22.1344 66.3742 21.5852 66.7374 20.2354L66.9644 19.3883H71.2316L71.4586 20.3005C71.7854 21.6038 72.3756 22.1344 73.5105 22.1344C74.6272 22.1344 75.4352 21.3338 75.4352 20.2168C75.4352 19.7886 75.3626 19.4162 75.181 18.9042L72.2212 10.6007C71.6311 8.94369 70.6868 8.23622 69.0435 8.23622C67.5091 8.23622 66.5558 8.97162 65.9929 10.6007L63.0603 18.9042C62.8878 19.379 62.7879 19.8816 62.7879 20.2261C62.7879 21.4176 63.5233 22.1344 64.749 22.1344ZM67.6907 16.4467L68.989 11.5688H69.0616L70.4235 16.4467H67.6907Z" fill="#E0E1DD"/>
<path d="M78.1688 22.1344C79.3945 22.1344 80.0936 21.3897 80.0936 20.0678V17.3962H81.628L83.353 20.5519C84.034 21.79 84.4153 22.1344 85.3595 22.1344C86.4763 22.1344 87.2752 21.3804 87.2752 20.3285C87.2752 19.863 87.2026 19.5558 86.8667 18.9787L85.4957 16.6701C86.7396 15.9254 87.357 14.5197 87.357 13.0303C87.357 10.1538 85.5593 8.46894 82.0638 8.46894H78.1688C76.9431 8.46894 76.244 9.21365 76.244 10.5355V20.0678C76.244 21.3897 76.9431 22.1344 78.1688 22.1344ZM80.0936 14.7897V11.3826H81.6915C82.7266 11.3826 83.4257 12.0994 83.4257 13.0955C83.4257 14.1101 82.7629 14.7897 81.6825 14.7897H80.0936Z" fill="#E0E1DD"/>
<path d="M93.0503 22.1344C94.276 22.1344 94.9751 21.3897 94.9751 20.0678V11.6153H96.909C97.9259 11.6153 98.6068 11.0475 98.6068 10.0421C98.6068 9.03678 97.944 8.46894 96.909 8.46894H89.1917C88.1566 8.46894 87.4939 9.03678 87.4939 10.0421C87.4939 11.0475 88.1748 11.6153 89.1917 11.6153H91.1255V20.0678C91.1255 21.3897 91.8246 22.1344 93.0503 22.1344Z" fill="#E0E1DD"/>
<path d="M104.62 22.1344C105.846 22.1344 106.545 21.3897 106.545 20.0678V11.6153H108.479C109.496 11.6153 110.177 11.0475 110.177 10.0421C110.177 9.03678 109.514 8.46894 108.479 8.46894H100.762C99.7268 8.46894 99.064 9.03678 99.064 10.0421C99.064 11.0475 99.745 11.6153 100.762 11.6153H102.696V20.0678C102.696 21.3897 103.395 22.1344 104.62 22.1344Z" fill="#E0E1DD"/>
<path d="M116.215 22.1344C120.265 22.1344 122.816 19.4814 122.816 15.19C122.816 10.8986 120.265 8.23622 116.215 8.23622C112.166 8.23622 109.615 10.8986 109.615 15.19C109.615 19.4814 112.157 22.1344 116.215 22.1344ZM116.215 18.988C114.599 18.988 113.537 17.5079 113.537 15.19C113.537 12.8627 114.608 11.3826 116.215 11.3826C117.822 11.3826 118.894 12.8627 118.894 15.19C118.894 17.5079 117.831 18.988 116.215 18.988Z" fill="#E0E1DD"/>
<path d="M125.495 22.1344C126.721 22.1344 127.42 21.3897 127.42 20.0678V18.3829L128.564 17.1728L131.505 20.9987C132.132 21.8179 132.695 22.1344 133.521 22.1344C134.574 22.1344 135.373 21.3059 135.373 20.2261C135.373 19.6675 135.092 19.0718 134.429 18.234L131.596 14.6407L134.302 11.6805C134.847 11.0847 135.046 10.6565 135.046 10.0608C135.046 9.04609 134.229 8.23622 133.221 8.23622C132.568 8.23622 132.068 8.49687 131.515 9.12987L127.492 13.7936H127.42V10.3028C127.42 8.98093 126.721 8.23622 125.495 8.23622C124.269 8.23622 123.57 8.98093 123.57 10.3028V20.0678C123.57 21.3897 124.269 22.1344 125.495 22.1344Z" fill="#E0E1DD"/>
<path d="M137.88 21.9017H143.681C144.716 21.9017 145.379 21.3338 145.379 20.3285C145.379 19.3231 144.698 18.7553 143.681 18.7553H139.805V16.6049H143.527C144.462 16.6049 145.043 16.0929 145.043 15.19C145.043 14.287 144.444 13.775 143.527 13.775H139.805V11.6153H143.681C144.698 11.6153 145.379 11.0475 145.379 10.0421C145.379 9.03678 144.716 8.46894 143.681 8.46894H137.88C136.654 8.46894 135.955 9.21365 135.955 10.5355V19.8351C135.955 21.157 136.654 21.9017 137.88 21.9017Z" fill="#E0E1DD"/>
<path d="M148.067 22.1344C149.211 22.1344 149.883 21.4455 149.883 20.1795V14.8269H149.956L154.432 21.0546C154.977 21.8179 155.494 22.1344 156.23 22.1344C157.374 22.1344 158 21.4921 158 20.3099V10.1911C158 8.92508 157.337 8.23622 156.184 8.23622C155.04 8.23622 154.368 8.92508 154.368 10.1911V15.432H154.296L149.856 9.31605C149.302 8.56203 148.766 8.23622 148.067 8.23622C146.887 8.23622 146.252 8.86922 146.252 10.0608V20.1795C146.252 21.4455 146.914 22.1344 148.067 22.1344Z" fill="#E0E1DD"/>
</svg>
