<svg width="32" height="32" viewBox="0 0 32 32" fill="none" xmlns="http://www.w3.org/2000/svg">
<path d="M16 24.1875C15.4688 24.1875 15.0375 24.6187 15.0375 25.15V28.0375C15.0375 28.5688 15.4688 29 16 29C16.5312 29 16.9625 28.5688 16.9625 28.0375V25.15C16.9625 24.6187 16.5312 24.1875 16 24.1875ZM16 3C15.4688 3 15.0375 3.43125 15.0375 3.9625V6.85C15.0375 7.38125 15.4688 7.8125 16 7.8125C16.5312 7.8125 16.9625 7.38125 16.9625 6.85V3.9625C16.9625 3.43125 16.5312 3 16 3ZM7.8125 16C7.8125 15.4688 7.38125 15.0375 6.85 15.0375H3.9625C3.43125 15.0375 3 15.4688 3 16C3 16.5312 3.43125 16.9625 3.9625 16.9625H6.85C7.38125 16.9625 7.8125 16.5312 7.8125 16ZM28.0375 15.0375H25.15C24.6187 15.0375 24.1875 15.4688 24.1875 16C24.1875 16.5312 24.6187 16.9625 25.15 16.9625H28.0375C28.5688 16.9625 29 16.5312 29 16C29 15.4688 28.5688 15.0375 28.0375 15.0375ZM9.53125 21.5063C9.275 21.5063 9.03125 21.6063 8.85 21.7875L6.80625 23.8312C6.625 24.0125 6.525 24.2563 6.525 24.5125C6.525 24.7688 6.625 25.0125 6.80625 25.1938C6.9875 25.375 7.23125 25.475 7.4875 25.475C7.74375 25.475 7.9875 25.375 8.16875 25.1938L10.2125 23.15C10.5875 22.775 10.5875 22.1625 10.2125 21.7875C10.0312 21.6063 9.7875 21.5063 9.53125 21.5063ZM22.4688 10.4937C22.725 10.4937 22.9688 10.3937 23.15 10.2125L25.1938 8.16875C25.375 7.9875 25.475 7.74375 25.475 7.4875C25.475 7.23125 25.375 6.9875 25.1938 6.80625C25.0125 6.625 24.7688 6.525 24.5125 6.525C24.2563 6.525 24.0125 6.625 23.8312 6.80625L21.7875 8.85C21.6063 9.03125 21.5063 9.275 21.5063 9.53125C21.5063 9.7875 21.6063 10.0312 21.7875 10.2125C21.9688 10.3937 22.2125 10.4937 22.4688 10.4937ZM8.16875 6.80625C7.9875 6.625 7.74375 6.525 7.4875 6.525C7.23125 6.525 6.9875 6.625 6.80625 6.80625C6.625 6.9875 6.525 7.23125 6.525 7.4875C6.525 7.74375 6.625 7.9875 6.80625 8.16875L8.85 10.2125C9.03125 10.3937 9.275 10.4937 9.53125 10.4937C9.7875 10.4937 10.0312 10.3937 10.2125 10.2125C10.3937 10.0312 10.4937 9.7875 10.4937 9.53125C10.4937 9.275 10.3937 9.03125 10.2125 8.85L8.16875 6.80625ZM23.15 21.7875C22.9688 21.6063 22.725 21.5063 22.4688 21.5063C22.2125 21.5063 21.9688 21.6063 21.7875 21.7875C21.4125 22.1625 21.4125 22.775 21.7875 23.15L23.8312 25.1938C24.0125 25.375 24.2563 25.475 24.5125 25.475C24.7688 25.475 25.0125 25.375 25.1938 25.1938C25.375 25.0125 25.475 24.7688 25.475 24.5125C25.475 24.2563 25.375 24.0125 25.1938 23.8312L23.15 21.7875ZM16 10C12.6938 10 10 12.6938 10 16C10 19.3062 12.6938 22 16 22C19.3062 22 22 19.3062 22 16C22 12.6938 19.3062 10 16 10Z" fill="#E0E1DD"/>
</svg>
