<svg width="64" height="64" viewBox="0 0 64 64" fill="none" xmlns="http://www.w3.org/2000/svg">
<path d="M21.3973 25.7386C21.568 34.0586 25.728 39.0506 33.024 39.0506H33.4507V34.2933C36.128 34.56 38.1547 36.5226 38.9653 39.0506H42.752C42.3636 37.6141 41.6751 36.2763 40.7319 35.1253C39.7887 33.9743 38.6122 33.0364 37.28 32.3733C38.4738 31.6463 39.5048 30.681 40.3087 29.5376C41.1125 28.3942 41.672 27.0973 41.952 25.728H38.5173C37.7707 28.3733 35.552 30.7733 33.4507 30.9973V25.7386H30.0053V34.9546C27.872 34.4213 25.184 31.84 25.0667 25.7386H21.3973Z" fill="#E0E1DD"/>
<path fill-rule="evenodd" clip-rule="evenodd" d="M32 0C49.6731 0 64 14.3269 64 32C64 49.6731 49.6731 64 32 64C14.3269 64 0 49.6731 0 32C0 14.3269 14.3269 0 32 0ZM16 31.36C16 24.1173 16 20.5013 18.24 18.24C20.512 16 24.128 16 31.36 16H32.64C39.8827 16 43.4987 16 45.76 18.24C48 20.512 48 24.128 48 31.36V32.64C48 39.8827 48 43.4987 45.76 45.76C43.488 48 39.872 48 32.64 48H31.36C24.1173 48 20.5013 48 18.24 45.76C16 43.488 16 39.872 16 32.64V31.36Z" fill="#E0E1DD"/>
</svg>
