<svg width="956" height="928" viewBox="0 0 956 928" fill="none" xmlns="http://www.w3.org/2000/svg">
<path d="M1011.03 557.108C1011.03 566.701 1010.63 576.177 1009.81 585.595C1009.05 594.369 1007.95 603.026 1006.49 611.566C1005.1 619.931 1003.35 628.178 1001.37 636.251C995.491 659.824 987.051 682.402 976.399 703.577C972.965 710.362 969.298 717.03 965.456 723.582C958.238 735.69 950.322 747.33 941.591 758.386C937.167 764.001 932.627 769.441 927.854 774.705C897.178 808.924 859.343 836.533 816.793 855.193C813.649 856.597 810.448 857.884 807.246 859.17C797.758 862.972 788.096 866.307 778.201 869.231C771.157 871.279 764.056 873.092 756.838 874.671C734.544 879.526 711.378 882.1 687.629 882.1C595.893 882.1 513.121 843.728 454.214 782.076C447.229 774.764 440.594 767.101 434.307 759.146C421.501 743.002 410.267 725.571 400.663 707.145C398.218 702.465 395.89 697.669 393.678 692.814C385.587 675.207 379.068 656.782 374.236 637.654C367.659 611.859 364.166 584.835 364.166 556.991C364.166 539.853 365.505 523.065 368.008 506.687C368.998 500.369 370.103 494.169 371.442 488.027C372.897 481.125 374.644 474.34 376.506 467.613C379.999 455.271 384.248 443.163 389.138 431.464C397.985 410.231 409.045 390.109 421.967 371.449C429.883 360.043 438.498 349.163 447.753 338.868C465.274 319.448 485.064 302.193 506.718 287.452C507.416 286.984 508.115 286.516 508.813 286.048C523.249 276.397 538.5 267.915 554.449 260.662C586.114 246.272 620.457 236.855 656.546 233.462C666.732 232.468 677.035 232 687.454 232C718.537 232 748.631 236.446 777.095 244.635C789.202 248.144 801.018 252.297 812.485 257.152C816.792 258.966 821.042 260.837 825.233 262.826C842.695 271.074 859.284 280.901 874.884 292.015C891.765 304.123 907.423 317.752 921.684 332.785C949.041 361.681 971.16 395.549 986.527 432.985C988.448 437.664 990.311 442.461 991.999 447.257C997.47 462.583 1001.84 478.434 1004.98 494.754C1009 515.051 1011.03 535.875 1011.03 557.108Z" fill="url(#paint0_radial_201_2)"/>
<path d="M1011.03 557.109C1011.03 584.426 1007.66 610.923 1001.37 636.251C839.843 566.643 562.074 694.745 374.236 637.713C367.659 611.918 364.166 584.894 364.166 557.05C364.166 539.912 365.505 523.124 368.008 506.746C698.106 624.318 818.131 460.711 1005.1 494.93C1009 515.052 1011.03 535.876 1011.03 557.109Z" fill="url(#paint1_linear_201_2)"/>
<path d="M992.173 447.432C816.268 417.659 611.55 539.56 376.622 467.671C380.115 455.329 384.364 443.221 389.253 431.522C579.943 506.102 809.865 411.108 986.701 433.16C988.622 437.898 990.485 442.636 992.173 447.432Z" fill="url(#paint2_linear_201_2)"/>
<path d="M921.857 333.019C736.872 447.726 503.225 395.257 422.083 371.567C429.999 360.16 438.614 349.28 447.869 338.986C678.838 398.123 823.078 326.351 875.058 292.249C891.938 304.299 907.596 317.986 921.857 333.019Z" fill="url(#paint3_linear_201_2)"/>
<path d="M825.407 263.002C747.641 313.541 642.342 279.731 506.834 287.569C521.91 277.333 537.859 268.383 554.565 260.779C636.58 264.347 752.356 291.722 812.659 257.27C816.967 259.083 821.216 261.013 825.407 263.002Z" fill="url(#paint4_linear_201_2)"/>
<path d="M777.327 244.752C755.441 255.456 714.812 264.581 656.778 233.58C666.965 232.585 677.268 232.117 687.687 232.117C718.77 232.117 748.805 236.504 777.327 244.752Z" fill="url(#paint5_linear_201_2)"/>
<path d="M976.398 703.577C972.964 710.362 969.297 717.031 965.455 723.582C826.512 660.35 570.047 730.66 400.72 707.262C398.275 702.583 395.947 697.786 393.735 692.931C615.683 720.482 856.373 629.641 976.398 703.577Z" fill="url(#paint6_linear_201_2)"/>
<path d="M778.199 869.173C771.156 871.221 764.055 873.034 756.837 874.613C697.115 864.845 512.596 759.731 454.213 782.076C447.228 774.764 440.592 767.102 434.306 759.146C563.994 757.86 700.957 862.973 778.199 869.173Z" fill="url(#paint7_linear_201_2)"/>
<path d="M927.911 774.706C897.235 808.925 859.4 836.534 816.85 855.194C755.848 836.651 720.632 800.385 699.328 790.149C668.187 775.116 658.815 763.125 778.782 754.117C839.9 749.437 891.764 761.662 927.911 774.706Z" fill="url(#paint8_linear_201_2)"/>
<path opacity="0.45" d="M1006.55 611.566C985.188 740.135 886.933 846.068 756.896 874.671C525.984 925.151 321.732 718.551 371.558 488.144C398.334 539.034 457.881 593.316 587.801 613.555C784.428 644.088 912.486 589.631 1006.55 611.566Z" fill="url(#paint9_linear_201_2)"/>
<path opacity="0.55" d="M936.41 764.82C933.675 768.155 930.822 771.489 927.912 774.706C897.236 808.925 859.401 836.534 816.851 855.193C813.708 856.597 810.506 857.884 807.305 859.171C797.817 862.973 788.154 866.307 778.259 869.232C771.216 871.279 764.114 873.092 756.897 874.672C734.603 879.527 711.436 882.1 687.687 882.1C595.951 882.1 513.179 843.729 454.273 782.076C448.277 775.759 442.515 769.266 437.043 762.481C490.187 782.544 567.313 786.58 679.131 758.796C777.386 734.345 863.126 741.013 936.41 764.82Z" fill="url(#paint10_linear_201_2)"/>
<path d="M1011.03 557.109C1011.03 566.702 1010.63 576.178 1009.81 585.595C1008.88 512.302 983.675 424.62 895.14 348.286C725.172 201.7 552.76 265.985 508.988 286.165C523.423 276.514 538.674 268.032 554.623 260.779C586.288 246.39 620.631 236.972 656.72 233.58C666.906 232.585 677.209 232.117 687.628 232.117C718.711 232.117 748.805 236.563 777.269 244.752C789.376 248.261 801.192 252.415 812.659 257.27C816.967 259.083 821.216 260.955 825.407 262.943C842.869 271.191 859.459 281.018 875.058 292.132C891.939 304.24 907.597 317.869 921.858 332.902C949.216 361.798 971.335 395.666 986.702 433.102C988.622 437.781 990.485 442.578 992.173 447.374C997.645 462.7 1002.01 478.551 1005.15 494.871C1009 515.052 1011.03 535.875 1011.03 557.109Z" fill="url(#paint11_linear_201_2)"/>
<g filter="url(#filter0_f_201_2)">
<circle cx="464" cy="464" r="264" fill="#E0E1DD"/>
</g>
<defs>
<filter id="filter0_f_201_2" x="0" y="0" width="928" height="928" filterUnits="userSpaceOnUse" color-interpolation-filters="sRGB">
<feFlood flood-opacity="0" result="BackgroundImageFix"/>
<feBlend mode="normal" in="SourceGraphic" in2="BackgroundImageFix" result="shape"/>
<feGaussianBlur stdDeviation="100" result="effect1_foregroundBlur_201_2"/>
</filter>
<radialGradient id="paint0_radial_201_2" cx="0" cy="0" r="1" gradientUnits="userSpaceOnUse" gradientTransform="translate(636.282 373.578) scale(529.824 532.424)">
<stop stop-color="#FFA360"/>
<stop offset="1" stop-color="#F22749"/>
</radialGradient>
<linearGradient id="paint1_linear_201_2" x1="630.864" y1="159.692" x2="760.82" y2="1060.32" gradientUnits="userSpaceOnUse">
<stop stop-color="#FFBB71"/>
<stop offset="1" stop-color="#FFBB71" stop-opacity="0"/>
</linearGradient>
<linearGradient id="paint2_linear_201_2" x1="641.617" y1="158.138" x2="771.572" y2="1058.77" gradientUnits="userSpaceOnUse">
<stop stop-color="#FFBB71"/>
<stop offset="1" stop-color="#FFBB71" stop-opacity="0"/>
</linearGradient>
<linearGradient id="paint3_linear_201_2" x1="644.199" y1="157.767" x2="774.155" y2="1058.4" gradientUnits="userSpaceOnUse">
<stop stop-color="#FFBB71"/>
<stop offset="1" stop-color="#FFBB71" stop-opacity="0"/>
</linearGradient>
<linearGradient id="paint4_linear_201_2" x1="649.243" y1="157.037" x2="779.199" y2="1057.67" gradientUnits="userSpaceOnUse">
<stop stop-color="#FFBB71"/>
<stop offset="1" stop-color="#FFBB71" stop-opacity="0"/>
</linearGradient>
<linearGradient id="paint5_linear_201_2" x1="704.153" y1="149.113" x2="834.11" y2="1049.75" gradientUnits="userSpaceOnUse">
<stop stop-color="#FFBB71"/>
<stop offset="1" stop-color="#FFBB71" stop-opacity="0"/>
</linearGradient>
<linearGradient id="paint6_linear_201_2" x1="608.586" y1="162.906" x2="738.541" y2="1063.54" gradientUnits="userSpaceOnUse">
<stop stop-color="#FFBB71"/>
<stop offset="1" stop-color="#FFBB71" stop-opacity="0"/>
</linearGradient>
<linearGradient id="paint7_linear_201_2" x1="515.145" y1="176.386" x2="645.102" y2="1077.02" gradientUnits="userSpaceOnUse">
<stop stop-color="#FFBB71"/>
<stop offset="1" stop-color="#FFBB71" stop-opacity="0"/>
</linearGradient>
<linearGradient id="paint8_linear_201_2" x1="713.886" y1="147.714" x2="843.841" y2="1048.34" gradientUnits="userSpaceOnUse">
<stop stop-color="#FFBB71"/>
<stop offset="1" stop-color="#FFBB71" stop-opacity="0"/>
</linearGradient>
<linearGradient id="paint9_linear_201_2" x1="642.206" y1="876.144" x2="706.623" y2="427.429" gradientUnits="userSpaceOnUse">
<stop stop-color="#D8274D"/>
<stop offset="1" stop-color="#F22749" stop-opacity="0"/>
</linearGradient>
<linearGradient id="paint10_linear_201_2" x1="698.86" y1="873.643" x2="674.172" y2="652.541" gradientUnits="userSpaceOnUse">
<stop stop-color="#A9273E"/>
<stop offset="1" stop-color="#B62738" stop-opacity="0"/>
</linearGradient>
<linearGradient id="paint11_linear_201_2" x1="988.376" y1="162.173" x2="742.473" y2="453.239" gradientUnits="userSpaceOnUse">
<stop stop-color="#FFECB8"/>
<stop offset="1" stop-color="#FFD371" stop-opacity="0.2"/>
</linearGradient>
</defs>
</svg>
